<svg width="1500" height="1500" viewBox="0 0 1500 1500" fill="none" xmlns="http://www.w3.org/2000/svg">
<rect width="1500" height="1500" rx="750" fill="white"/>
<path d="M811.19 628.389L689.663 587.831V412.077L811.338 448.129L811.19 628.389Z" fill="#F68D11"/>
<path d="M842.883 448.129L964.558 412.077L964.135 587.709L842.883 628.389V448.129Z" fill="#F68D11"/>
<path d="M939.773 393.047L826.372 358L714.448 393.047L826.534 423.092L939.773 393.047Z" fill="#F68D11"/>
<path d="M1117.63 628.389L996.104 587.831V412.077L1117.78 448.129L1117.63 628.389Z" fill="#F68D11"/>
<path d="M1149.32 448.129L1271 412.077L1270.58 587.709L1149.32 628.389V448.129Z" fill="#F68D11"/>
<path d="M1246.22 393.047L1132.81 358L1020.89 393.047L1132.98 423.092L1246.22 393.047Z" fill="#F68D11"/>
<path d="M351.675 704.999L230 668.947V844.7L351.528 885.259L351.675 704.999Z" fill="#F68D11"/>
<path d="M383.221 704.999L504.896 668.947L504.474 844.582L383.221 885.259V704.999Z" fill="#F68D11"/>
<path d="M480.111 649.917L366.709 614.87L254.786 649.917L366.873 679.962L480.111 649.917Z" fill="#F68D11"/>
<path d="M657.969 885.259L536.441 844.7V668.947L658.117 704.999L657.969 885.259Z" fill="#F68D11"/>
<path d="M689.663 704.999L811.338 668.947L810.915 844.582L689.663 885.259V704.999Z" fill="#F68D11"/>
<path d="M786.552 649.917L673.15 614.87L561.228 649.917L673.314 679.962L786.552 649.917Z" fill="#F68D11"/>
<path d="M504.748 1142.13L383.221 1101.57V925.817L504.896 961.869L504.748 1142.13Z" fill="#F68D11"/>
<path d="M536.441 961.869L658.117 925.817L657.694 1101.45L536.441 1142.13V961.869Z" fill="#F68D11"/>
<path d="M633.332 906.787L519.93 871.74L408.007 906.787L520.094 936.832L633.332 906.787Z" fill="#F68D11"/>
</svg>
