<svg width="1500" height="1500" viewBox="0 0 1500 1500" fill="none" xmlns="http://www.w3.org/2000/svg">
<rect width="1500" height="1500" rx="750" fill="white"/>
<path d="M939.678 216.099C922.775 226.079 894.638 254.334 861.203 295.323L891.96 353.459C913.604 322.585 935.56 294.7 957.709 270.925C950.534 278.783 928.763 304.242 895.952 354.647C927.576 353.089 976.111 346.596 1015.73 339.858C1027.58 273.797 1004.19 243.605 1004.19 243.605C1004.19 243.605 974.486 195.583 939.678 216.099Z" fill="url(#paint0_linear_141_1497)"/>
<path d="M836.19 704.486C832.256 705.169 828.273 705.918 824.087 706.609C824.087 706.609 824.028 706.609 824.028 706.668L830.26 705.733C832.198 705.295 834.194 704.924 836.19 704.486Z" fill="#BD202E"/>
<path opacity="0.35" d="M836.19 704.486C832.256 705.169 828.273 705.918 824.087 706.609C824.087 706.609 824.028 706.609 824.028 706.668L830.26 705.733C832.198 705.295 834.194 704.924 836.19 704.486Z" fill="#BD202E"/>
<path d="M846.483 653.649C846.424 653.649 846.424 653.649 846.424 653.708C847.047 653.649 847.729 653.523 848.361 653.397C850.972 653.026 853.532 652.588 856.025 651.965C852.909 652.529 849.793 653.085 846.483 653.649Z" fill="#BD202E"/>
<path opacity="0.35" d="M846.483 653.649C846.424 653.649 846.424 653.649 846.424 653.708C847.047 653.649 847.729 653.523 848.361 653.397C850.972 653.026 853.532 652.588 856.025 651.965C852.909 652.529 849.793 653.085 846.483 653.649Z" fill="#BD202E"/>
<path d="M801.125 503.74C810.315 486.52 819.777 469.447 829.507 452.527C839.23 435.565 849.297 418.802 859.699 402.248C860.263 401.305 860.946 400.311 861.51 399.376C871.289 383.866 881.418 368.58 891.888 353.527L861.139 295.383C858.782 298.253 856.452 301.144 854.149 304.057C844.756 315.775 835.564 327.651 826.576 339.682C815.409 354.637 804.49 369.776 793.823 385.093C783.21 400.328 772.814 415.714 762.637 431.244C753.566 445.097 744.686 459.073 735.999 473.169C735.687 473.674 735.375 474.23 735.072 474.794L775.177 554.019C783.563 537.124 792.213 520.363 801.125 503.74Z" fill="url(#paint1_linear_141_1497)"/>
<path d="M618.476 949.897C613.054 964.729 607.732 979.596 602.508 994.499C602.441 994.684 602.382 994.937 602.256 995.122C601.506 997.245 600.698 999.426 600.015 1001.55C596.394 1011.78 593.278 1021.01 586.103 1041.91C597.893 1047.28 607.376 1061.5 616.354 1077.59C615.527 1060.59 607.987 1044.62 595.392 1033.18C653.595 1035.79 703.756 1021.08 729.704 978.531C732.012 974.725 734.134 970.792 736.062 966.488C724.272 981.462 709.618 987.762 682.103 986.263C722.655 968.113 742.926 950.705 760.958 921.886C765.202 915.03 769.379 907.602 773.624 899.307C738.185 935.672 697.204 946.031 653.974 938.174L621.533 941.728C620.472 944.473 619.537 947.151 618.476 949.897Z" fill="url(#paint2_linear_141_1497)"/>
<path d="M633.634 877.344C640.625 859.263 647.859 840.92 655.22 822.459C662.361 804.602 669.64 786.8 677.058 769.056C684.582 751.077 692.19 733.132 699.881 715.223C707.747 696.948 715.857 678.731 724.153 660.574C732.252 642.694 740.528 624.895 748.98 607.179C751.97 600.812 755.095 594.454 758.152 588.146C763.458 577.231 768.814 566.375 774.238 555.646C774.558 555.09 774.802 554.467 775.114 553.902L735.009 474.678C734.38 475.761 733.714 476.823 733.013 477.861C723.531 493.319 714.277 508.915 705.254 524.645C695.945 540.885 686.896 557.273 678.11 573.803C670.65 587.879 663.35 602.04 656.213 616.283C654.782 619.147 653.409 622.086 651.977 624.958C643.646 642.131 635.722 659.499 628.211 677.047C620.544 694.878 613.41 712.934 606.819 731.191C602.692 742.477 599.012 753.341 595.584 763.818C592.78 772.736 590.152 781.722 587.533 790.641C581.588 811.352 576.447 832.285 572.121 853.393L612.428 932.929C617.734 918.713 623.217 904.235 628.834 889.64C630.518 885.463 632.017 881.345 633.634 877.344Z" fill="url(#paint3_linear_141_1497)"/>
<path d="M571.691 856.069C566.638 881.52 563.016 906.853 561.206 932.052L561.02 934.662C548.421 914.517 514.801 894.869 514.86 895.054C539.006 929.988 557.281 964.678 559.959 998.727C547.049 1001.36 529.388 997.548 508.998 990.061C530.272 1009.65 546.24 1015.02 552.54 1016.51C532.95 1017.76 512.62 1031.18 492.087 1046.65C522.094 1034.42 546.366 1029.55 563.707 1033.48C536.134 1111.45 508.561 1197.54 480.92 1289C489.409 1286.5 494.462 1280.76 497.267 1273.09C502.194 1256.55 534.828 1147.89 586.033 1005.22C587.532 1001.17 588.973 997.052 590.463 992.992C590.842 991.813 591.28 990.685 591.718 989.624C597.083 974.658 602.751 959.372 608.495 943.775C609.808 940.221 611.114 936.667 612.486 933.113C612.486 933.045 612.554 932.986 612.554 932.919L572.188 853.383C572.041 854.282 571.881 855.178 571.691 856.069Z" fill="url(#paint4_linear_141_1497)"/>
<path d="M781.355 560.505C780.176 562.88 779.048 565.246 777.86 567.621C774.373 574.788 770.87 582.09 767.257 589.577C763.383 597.687 759.526 605.916 755.593 614.405C753.597 618.649 751.601 622.953 749.605 627.315C743.447 640.752 737.375 654.227 731.388 667.74C723.516 685.431 715.801 703.19 708.245 721.017C700.825 738.602 693.144 756.76 685.539 775.591C678.238 793.445 670.885 811.906 663.39 830.864C656.534 848.237 649.819 865.665 643.245 883.147C642.933 883.955 642.622 884.89 642.31 885.699C635.572 903.477 628.768 921.761 621.971 940.474C621.845 940.904 621.66 941.283 621.533 941.78L653.974 938.226C653.351 938.099 652.66 938.041 652.037 937.914C690.778 933.114 742.37 904.1 775.62 868.358C790.964 851.893 804.877 832.43 817.729 809.657C827.271 792.755 836.316 773.915 844.923 753.147C852.867 733.712 860.067 713.982 866.509 694C857.582 698.682 847.416 702.169 836.19 704.544C834.194 704.982 832.198 705.353 830.143 705.723C828.08 706.102 826.016 706.414 823.902 706.666C823.902 706.666 823.961 706.666 823.961 706.607C860.142 692.694 882.915 665.871 899.447 633C889.964 639.485 874.493 647.966 855.965 652.017C852.786 652.712 849.583 653.297 846.364 653.769H846.482C859.081 648.53 869.625 642.601 878.796 635.678C880.792 634.179 882.729 632.68 884.473 631.063C887.277 628.621 889.905 626.069 892.524 623.45C894.141 621.706 895.699 619.955 897.265 618.144C900.887 613.849 904.256 609.225 907.372 604.24C908.298 602.673 909.309 601.182 910.176 599.557C911.423 597.249 912.543 594.942 913.671 592.761C918.133 583.886 922.233 574.833 925.959 565.625C927.576 561.633 928.949 558.012 930.195 554.517C930.7 553.144 931.13 551.839 931.568 550.525C932.881 546.718 933.875 543.349 934.684 540.36C935.939 535.862 936.688 532.308 937.059 529.748C935.812 530.691 934.448 531.685 932.814 532.62C921.899 539.172 903.186 545.034 888.094 547.847C887.9 547.906 887.656 547.906 887.403 547.965C885.845 548.217 884.414 548.47 882.856 548.655L883.597 548.276L781.734 559.444C781.673 559.817 781.545 560.177 781.355 560.505Z" fill="url(#paint5_linear_141_1497)"/>
<path d="M896.012 354.66C885.847 370.343 875.97 386.209 866.384 402.252C855.803 420.064 845.488 438.033 835.442 456.152C825.994 473.316 816.761 490.596 807.742 507.989C798.936 525.055 790.306 542.211 781.854 559.455L883.725 548.288C913.42 534.627 926.642 522.34 939.494 504.435C942.863 499.508 946.358 494.396 949.727 489.023C960.511 472.103 970.483 454.678 979.608 436.807C988.459 419.542 996.258 402.446 1002.25 386.975C1005.74 378.165 1008.74 369.167 1011.23 360.025C1013.1 352.976 1014.54 346.238 1015.66 339.812C976.171 346.609 927.577 353.102 896.012 354.66Z" fill="url(#paint6_linear_141_1497)"/>
<path d="M830.146 705.604C828.083 705.974 826.019 706.286 823.905 706.538C826.028 706.353 828.15 705.974 830.146 705.604Z" fill="#BD202E"/>
<path opacity="0.35" d="M830.146 705.604C828.083 705.974 826.019 706.286 823.905 706.538C826.028 706.353 828.15 705.974 830.146 705.604Z" fill="#BD202E"/>
<path d="M830.146 705.604C828.083 705.974 826.019 706.286 823.905 706.538C826.028 706.353 828.15 705.974 830.146 705.604Z" fill="url(#paint7_linear_141_1497)"/>
<path d="M846.424 653.706C847.047 653.647 847.729 653.521 848.361 653.395C847.729 653.462 847.106 653.647 846.424 653.706Z" fill="#BD202E"/>
<path opacity="0.35" d="M846.424 653.706C847.047 653.647 847.729 653.521 848.361 653.395C847.729 653.462 847.106 653.647 846.424 653.706Z" fill="#BD202E"/>
<path d="M846.424 653.706C847.047 653.647 847.729 653.521 848.361 653.395C847.729 653.462 847.106 653.647 846.424 653.706Z" fill="url(#paint8_linear_141_1497)"/>
<defs>
<linearGradient id="paint0_linear_141_1497" x1="887.084" y1="302.549" x2="1112.8" y2="239.798" gradientUnits="userSpaceOnUse">
<stop stop-color="#F59723"/>
<stop offset="0.312" stop-color="#F69822"/>
<stop offset="0.838" stop-color="#E87726"/>
</linearGradient>
<linearGradient id="paint1_linear_141_1497" x1="393.001" y1="1315.58" x2="852.103" y2="331.024" gradientUnits="userSpaceOnUse">
<stop offset="0.323" stop-color="#9C2063"/>
<stop offset="0.63" stop-color="#C82037"/>
<stop offset="0.751" stop-color="#CC2135"/>
<stop offset="1" stop-color="#E87726"/>
</linearGradient>
<linearGradient id="paint2_linear_141_1497" x1="547.059" y1="1242.73" x2="820.635" y2="656.024" gradientUnits="userSpaceOnUse">
<stop stop-color="#282661"/>
<stop offset="0.095" stop-color="#662E8C"/>
<stop offset="0.788" stop-color="#9E2064"/>
<stop offset="0.949" stop-color="#CC2032"/>
</linearGradient>
<linearGradient id="paint3_linear_141_1497" x1="409.554" y1="1255.98" x2="868.655" y2="271.424" gradientUnits="userSpaceOnUse">
<stop offset="0.323" stop-color="#9C2063"/>
<stop offset="0.63" stop-color="#C82037"/>
<stop offset="0.751" stop-color="#CC2135"/>
<stop offset="1" stop-color="#E87726"/>
</linearGradient>
<linearGradient id="paint4_linear_141_1497" x1="456.395" y1="1190.39" x2="697.665" y2="672.978" gradientUnits="userSpaceOnUse">
<stop stop-color="#282661"/>
<stop offset="0.095" stop-color="#662E8C"/>
<stop offset="0.788" stop-color="#9E2064"/>
<stop offset="0.949" stop-color="#CC2032"/>
</linearGradient>
<linearGradient id="paint5_linear_141_1497" x1="511.493" y1="1303.5" x2="970.586" y2="318.949" gradientUnits="userSpaceOnUse">
<stop offset="0.323" stop-color="#9C2063"/>
<stop offset="0.63" stop-color="#C82037"/>
<stop offset="0.751" stop-color="#CC2135"/>
<stop offset="1" stop-color="#E87726"/>
</linearGradient>
<linearGradient id="paint6_linear_141_1497" x1="477.908" y1="1362.21" x2="937.01" y2="377.66" gradientUnits="userSpaceOnUse">
<stop offset="0.323" stop-color="#9C2063"/>
<stop offset="0.63" stop-color="#C82037"/>
<stop offset="0.751" stop-color="#CC2135"/>
<stop offset="1" stop-color="#E87726"/>
</linearGradient>
<linearGradient id="paint7_linear_141_1497" x1="541.748" y1="1317.6" x2="1000.84" y2="333.055" gradientUnits="userSpaceOnUse">
<stop offset="0.323" stop-color="#9C2063"/>
<stop offset="0.63" stop-color="#C82037"/>
<stop offset="0.751" stop-color="#CC2135"/>
<stop offset="1" stop-color="#E87726"/>
</linearGradient>
<linearGradient id="paint8_linear_141_1497" x1="538.313" y1="1316.07" x2="997.463" y2="331.457" gradientUnits="userSpaceOnUse">
<stop offset="0.323" stop-color="#9C2063"/>
<stop offset="0.63" stop-color="#C82037"/>
<stop offset="0.751" stop-color="#CC2135"/>
<stop offset="1" stop-color="#E87726"/>
</linearGradient>
</defs>
</svg>
