<svg width="1500" height="1500" viewBox="0 0 1500 1500" fill="none" xmlns="http://www.w3.org/2000/svg">
<rect width="1500" height="1500" rx="750" fill="white"/>
<path d="M1048 250H452C340.375 250 250 340.375 250 452V1048.12C250 1159.62 340.375 1250 452 1250H1048.12C1159.62 1250 1250.12 1159.63 1250.12 1048V452C1250 340.375 1159.63 250 1048 250Z" fill="url(#paint0_linear_181_981)"/>
<path d="M745.75 479.751L766 444.751C778.5 422.876 806.375 415.501 828.25 428.001C850.125 440.501 857.5 468.376 845 490.251L649.875 828.001H791C836.75 828.001 862.375 881.751 842.5 919.001H428.75C403.5 919.001 383.25 898.751 383.25 873.501C383.25 848.251 403.5 828.001 428.75 828.001H544.75L693.25 570.626L646.875 490.126C634.375 468.251 641.75 440.626 663.625 427.876C685.5 415.376 713.125 422.751 725.875 444.626L745.75 479.751ZM570.25 965.876L526.5 1041.75C514 1063.63 486.125 1071 464.25 1058.5C442.375 1046 435 1018.13 447.5 996.251L480 940.001C516.75 928.626 546.625 937.376 570.25 965.876ZM947 828.251H1065.38C1090.63 828.251 1110.88 848.501 1110.88 873.751C1110.88 899.001 1090.63 919.251 1065.38 919.251H999.625L1044 996.251C1056.5 1018.13 1049.13 1045.75 1027.25 1058.5C1005.38 1071 977.75 1063.63 965 1041.75C890.25 912.126 834.125 815.126 796.875 750.501C758.75 684.751 786 618.751 812.875 596.376C842.75 647.626 887.375 725.001 947 828.251Z" fill="white"/>
<defs>
<linearGradient id="paint0_linear_181_981" x1="750.062" y1="250" x2="750.062" y2="1250" gradientUnits="userSpaceOnUse">
<stop stop-color="#18BFFB"/>
<stop offset="1" stop-color="#2072F3"/>
</linearGradient>
</defs>
</svg>
