<svg width="1500" height="1500" viewBox="0 0 1500 1500" fill="none" xmlns="http://www.w3.org/2000/svg">
<rect width="1500" height="1500" rx="750" fill="white"/>
<path d="M1130.97 343.339H367.207V1037.97H1130.97V343.339Z" fill="white"/>
<path fill-rule="evenodd" clip-rule="evenodd" d="M1367.59 749.912C1367.59 1091.28 1090.86 1368 749.499 1368C408.138 1368 131.41 1091.28 131.41 749.912C131.41 408.551 408.138 131.823 749.499 131.823C1090.86 131.823 1367.59 408.551 1367.59 749.912ZM574.35 995.88H454.396C429.191 995.88 416.74 995.88 409.148 991.024C400.949 985.707 395.938 976.901 395.331 967.181C394.875 958.226 401.101 947.29 413.551 925.425L709.732 403.367C722.335 381.198 728.712 370.113 736.759 366.014C745.414 361.611 755.74 361.611 764.394 366.014C772.442 370.113 778.82 381.198 791.422 403.367L852.31 509.655L852.621 510.197C866.233 533.98 873.135 546.04 876.149 558.699C879.489 572.516 879.489 587.093 876.149 600.91C873.112 613.665 866.279 625.813 852.462 649.955L696.885 924.97L696.483 925.674C682.781 949.653 675.837 961.807 666.214 970.975C655.737 980.999 643.134 988.283 629.316 992.39C616.713 995.88 602.593 995.88 574.35 995.88ZM877.273 995.88H1049.15C1074.51 995.88 1087.27 995.88 1094.86 990.876C1103.06 985.559 1108.22 976.596 1108.68 966.885C1109.12 958.218 1103.03 947.708 1091.09 927.114C1090.68 926.413 1090.27 925.699 1089.85 924.973L1003.75 777.689L1002.77 776.03C990.677 755.572 984.57 745.24 976.726 741.247C968.076 736.843 957.896 736.843 949.245 741.247C941.349 745.346 934.972 756.127 922.369 777.84L836.579 925.125L836.285 925.632C823.727 947.311 817.45 958.144 817.903 967.033C818.511 976.753 823.521 985.707 831.72 991.024C839.161 995.88 851.915 995.88 877.273 995.88Z" fill="#E84142"/>
</svg>
