<svg width="1500" height="1500" viewBox="0 0 1500 1500" fill="none" xmlns="http://www.w3.org/2000/svg">
<rect width="1500" height="1500" rx="750" fill="white"/>
<g clip-path="url(#clip0_141_1487)">
<path d="M1214 279H279V1214H1214V279Z" fill="url(#paint0_linear_141_1487)"/>
<path fill-rule="evenodd" clip-rule="evenodd" d="M594.562 898.438H886.75V606.25H594.562V898.438ZM910.125 606.25H956.875V629.625H910.125V676.375H956.875V699.75H910.125V734.812H956.875V758.188H910.125V804.938H956.875V828.312H910.125V875.062H956.875V898.438H910.125V900.027C910.125 912.042 900.354 921.812 888.34 921.812H886.75V968.562H863.375V921.812H816.625V968.562H793.25V921.812H758.188V968.562H734.812V921.812H688.062V968.562H664.688V921.812H617.938V968.562H594.562V921.812H592.973C580.958 921.812 571.188 912.042 571.188 900.027V898.438H536.125V875.062H571.188V828.312H536.125V804.938H571.188V758.188H536.125V734.812H571.188V699.75H536.125V676.375H571.188V629.625H536.125V606.25H571.188V604.661C571.188 592.646 580.958 582.875 592.973 582.875H594.562V536.125H617.938V582.875H664.688V536.125H688.062V582.875H734.812V536.125H758.188V582.875H793.25V536.125H816.625V582.875H863.375V536.125H886.75V582.875H888.34C900.354 582.875 910.125 592.646 910.125 604.661V606.25ZM758.188 1048.93C758.188 1049.72 757.533 1050.38 756.738 1050.38H444.074C443.279 1050.38 442.625 1049.72 442.625 1048.93V736.262C442.625 735.467 443.279 734.812 444.074 734.812H512.75V711.438H444.074C430.388 711.438 419.25 722.576 419.25 736.262V1048.93C419.25 1062.61 430.388 1073.75 444.074 1073.75H756.738C770.424 1073.75 781.562 1062.61 781.562 1048.93V991.938H758.188V1048.93ZM1073.75 444.074V756.738C1073.75 770.424 1062.61 781.562 1048.93 781.562H980.25V758.188H1048.93C1049.72 758.188 1050.38 757.533 1050.38 756.738V444.074C1050.38 443.279 1049.72 442.625 1048.93 442.625H736.262C735.467 442.625 734.812 443.279 734.812 444.074V512.75H711.438V444.074C711.438 430.388 722.576 419.25 736.262 419.25H1048.93C1062.61 419.25 1073.75 430.388 1073.75 444.074Z" fill="white"/>
</g>
<defs>
<linearGradient id="paint0_linear_141_1487" x1="279" y1="1214" x2="1214" y2="279" gradientUnits="userSpaceOnUse">
<stop stop-color="#C8511B"/>
<stop offset="1" stop-color="#FF9900"/>
</linearGradient>
<clipPath id="clip0_141_1487">
<rect x="279" y="279" width="935" height="935" rx="82" fill="white"/>
</clipPath>
</defs>
</svg>
