<svg width="1500" height="1500" viewBox="0 0 1500 1500" fill="none" xmlns="http://www.w3.org/2000/svg">
<rect width="1500" height="1500" rx="750" fill="white"/>
<g clip-path="url(#clip0_141_1493)">
<path d="M1214.97 552.439L1200.01 552.188L749.815 418.903L749.546 412.735V188L1215 420.772L1214.97 552.439Z" fill="#D9A741"/>
<path d="M749.5 426.205L749.547 188L284.062 420.681L284 1078.98L284.233 1079.1V1079.11L749.453 1311.76L750.998 1309.61L750.398 1088.24L749.485 1087L720.406 1066.27L360.371 958.984L362.189 542.58L749.5 426.205Z" fill="#876929"/>
<path d="M819.109 898.241L343.463 965.153L343.496 534.504L819.142 601.507L819.109 898.241Z" fill="#D9A741"/>
<path d="M578.08 871.02L749.486 892.84L749.515 606.783L578.113 628.585L578.08 871.02Z" fill="#876929"/>
<path d="M405.411 849.054L516.647 863.193L516.68 636.396L405.411 650.569V849.054Z" fill="#876929"/>
<path d="M343.498 534.51L749.549 412.738L1214.97 552.443L819.439 601.546L343.498 534.51Z" fill="#624A1E"/>
<path d="M1214.74 833.063L749.486 891.778L749.515 606.783L1214.74 666.047V833.063Z" fill="#D9A741"/>
<path d="M1214.7 947.471L1204.69 947.903L750.916 1085.26L749.487 1087L749.454 1311.76L1214.7 1079.19V947.471Z" fill="#D9A741"/>
<path d="M343.463 965.158L749.484 1087.01L1214.7 947.473L819.109 898.246L343.463 965.158Z" fill="#FAD791"/>
</g>
<defs>
<clipPath id="clip0_141_1493">
<rect width="931" height="1123.75" fill="white" transform="translate(284 188)"/>
</clipPath>
</defs>
</svg>
