<svg width="1500" height="1500" viewBox="0 0 1500 1500" fill="none" xmlns="http://www.w3.org/2000/svg">
<rect width="1500" height="1500" rx="750" fill="white"/>
<path d="M239 1070.21L358.654 1210.44L369.413 1197.66V300.753L358.654 287.199L239 427.373V1070.21Z" fill="#1A476F"/>
<path d="M358.668 1210.44L587.301 1324.75L596.81 1309.44L596.966 184.977L587.46 173L358.668 286.941V1210.44Z" fill="#1F5B98"/>
<path d="M1261 427.373L1141.31 287.199L1127.93 291.439L1130.59 1198.99L1141.31 1210.44L1261 1070.23V427.373Z" fill="#2D72B8"/>
<path d="M912.682 1324.75L1141.31 1210.44V286.941L912.522 173L901.703 187.639L901.859 1308.11L912.682 1324.75Z" fill="#5294CF"/>
<path d="M587.463 173H912.523V1324.76H587.463V173Z" fill="#2D72B8"/>
</svg>
