<svg width="1500" height="1500" viewBox="0 0 1500 1500" fill="none" xmlns="http://www.w3.org/2000/svg">
<rect width="1500" height="1500" rx="750" fill="white"/>
<g clip-path="url(#clip0_141_1494)">
<path fill-rule="evenodd" clip-rule="evenodd" d="M299 299H1201V1201H299V299Z" fill="url(#paint0_linear_141_1494)"/>
<path fill-rule="evenodd" clip-rule="evenodd" d="M984.926 782.619L989.256 752.132C1029.17 776.035 1029.7 785.923 1029.69 786.182C1029.62 786.25 1022.81 791.933 984.926 782.619ZM963.019 776.531C894.016 755.638 797.919 711.553 759.02 693.175C759.02 693.017 759.065 692.87 759.065 692.713C759.056 685.528 756.197 678.64 751.116 673.56C746.034 668.481 739.145 665.625 731.96 665.619C717.032 665.619 704.878 677.773 704.878 692.713C704.878 707.652 717.032 719.806 731.96 719.806C738.522 719.806 744.475 717.36 749.177 713.47C794.931 735.118 890.284 778.572 959.794 799.092L932.317 993.09C932.241 993.613 932.203 994.14 932.204 994.668C932.204 1011.76 856.583 1043.14 733.02 1043.14C608.149 1043.14 531.727 1011.76 531.727 994.68C531.727 994.161 531.694 993.654 531.615 993.146L474.191 573.637C523.903 607.857 630.823 625.953 733.088 625.953C835.194 625.953 941.934 607.913 991.736 573.806L963.019 776.531ZM468.125 529.89C468.937 515.052 554.199 456.851 733.088 456.851C911.954 456.851 997.227 515.03 998.05 529.89V534.953C988.241 568.214 877.746 603.426 733.088 603.426C588.181 603.426 477.63 568.112 468.125 534.795V529.89ZM1020.6 530.138C1020.6 491.07 908.594 434.301 733.088 434.301C557.581 434.301 445.575 491.07 445.575 530.138L446.635 538.64L509.189 995.548C510.688 1046.65 646.947 1065.7 733.02 1065.7C839.817 1065.7 953.277 1041.14 954.743 995.57L981.758 805.068C996.787 808.665 1009.16 810.502 1019.08 810.502C1032.43 810.502 1041.45 807.233 1046.92 800.727C1049.11 798.189 1050.69 795.183 1051.54 791.939C1052.4 788.695 1052.49 785.299 1051.83 782.011C1048.9 766.417 1030.39 749.595 992.661 728.071L1019.45 539.079L1020.6 530.138Z" fill="white"/>
</g>
<defs>
<linearGradient id="paint0_linear_141_1494" x1="299" y1="1201" x2="1201" y2="299" gradientUnits="userSpaceOnUse">
<stop stop-color="#1B660F"/>
<stop offset="1" stop-color="#6CAE3E"/>
</linearGradient>
<clipPath id="clip0_141_1494">
<rect x="299" y="299" width="902" height="902" rx="63" fill="white"/>
</clipPath>
</defs>
</svg>
