<svg width="1500" height="1500" viewBox="0 0 1500 1500" fill="none" xmlns="http://www.w3.org/2000/svg">
<rect width="1500" height="1500" rx="750" fill="white"/>
<g clip-path="url(#clip0_141_1492)">
<path d="M479.074 549.906L426 567.234L480.97 573.6L479.074 549.906Z" fill="#3C4929"/>
<path d="M476.434 653.669L749.5 671.128L1022.57 653.669L749.5 600.453L476.434 653.669Z" fill="#3C4929"/>
<path d="M1018.66 573.601L1073 567.234L1018.66 552.75V573.601Z" fill="#3C4929"/>
<path d="M823.772 1022.97L966.834 1056.83L823.393 1100.09L823.772 1022.97Z" fill="#B7CA9D"/>
<path d="M476.433 364.074V267.525L749.5 131L750.718 132.024L750.091 254.59L749.5 254.847L748.476 257.67L599.115 317.963L597.746 530.353L677.236 516.984L749.5 502.525V1369.47L667.692 1328.59V1212.91L596.032 1184.26V641.698L476.433 653.67V557.138L426 567.235V384.235L476.433 364.074Z" fill="#4B612C"/>
<path d="M677.239 516.991L596.033 533.227V316.201L677.239 341.52V516.991Z" fill="#759C3E"/>
<path d="M890.842 201.662L1022.53 267.525V364.074L1073 384.235V567.22L1022.53 557.138V653.67L958.233 647.255L902.933 641.698V750.219H1022.57V849.504L966.973 854.493V954.603L831.275 981.575V1097.25L966.665 1057.07L966.973 1159.12L831.275 1212.91V1328.59L749.5 1369.47V502.525L821.711 516.956L899.005 527.161V317.938L751.565 261.077L749.5 254.847V131L890.842 201.662Z" fill="#759C3E"/>
<path d="M831.276 287.546L749.501 254.865L596.033 316.204L677.239 341.523L831.276 287.546Z" fill="#3C4929"/>
<path d="M596.033 316.204L749.501 254.865L781.788 267.765L831.276 287.546L902.934 316.239L899.105 320.134L826.125 342.857L821.728 341.523L749.501 316.204L677.239 341.523L596.033 316.204Z" fill="#3C4929"/>
<path d="M821.727 341.526L902.933 316.242V533.25L821.727 516.959V341.526Z" fill="#4B612C"/>
</g>
<defs>
<clipPath id="clip0_141_1492">
<rect width="647" height="1238.4" fill="white" transform="translate(426 131)"/>
</clipPath>
</defs>
</svg>
