<svg width="1500" height="1500" viewBox="0 0 1500 1500" fill="none" xmlns="http://www.w3.org/2000/svg">
<rect width="1500" height="1500" rx="750" fill="white"/>
<path d="M894.617 648.963L1119.86 624.939L1236.57 649.172L1237 649.431L1021.81 662.268L894.415 649.172L894.617 648.963Z" fill="#5E1F18"/>
<path d="M894.419 649.176L1119.67 631.579L1121.22 629.323L1121.23 351.413L1119.68 348.236L894.419 406.817V649.176Z" fill="#8C3123"/>
<path d="M1237 649.438L1119.67 631.579L1119.68 348.236L1237 406.935L1237 649.438Z" fill="#E05243"/>
<path d="M894.419 849.285L897.71 851.59L1119.71 866.653L1232.98 851.59L1237 849.387L1021.82 836.166L894.419 849.285Z" fill="#F2B0A9"/>
<path d="M894.419 849.281L1119.71 866.041L1120.41 866.977L1120.23 1148.3L1119.68 1149.77L894.419 1091.66V849.281Z" fill="#8C3123"/>
<path d="M1237 849.385L1119.71 866.042L1119.68 1149.77L1237 1091.53V849.385Z" fill="#E05243"/>
<path d="M602.069 648.75L379.38 629.674L263.741 648.868L263.007 649.442L478.189 662.279L603.264 649.435L602.069 648.75Z" fill="#5E1F18"/>
<path d="M263.007 649.438L379.267 632.416L382.687 629.992V351.489L379.267 348.236L263.007 406.946V649.438Z" fill="#8C3123"/>
<path d="M603.263 649.431L379.266 632.416V348.236L603.274 406.817L603.263 649.431Z" fill="#E05243"/>
<path d="M603.265 849.387L598.124 853.135L379.267 869.545L266.713 853.135L263 849.387L478.189 836.166L603.265 849.387Z" fill="#F2B0A9"/>
<path d="M263 849.385L379.264 865.897L382.22 869.519L382.536 1144.72L379.267 1149.77L263.008 1091.53L263 849.385Z" fill="#8C3123"/>
<path d="M603.263 849.385L379.262 865.897L379.266 1149.77L603.263 1091.66V849.385Z" fill="#E05243"/>
<path d="M982.482 885.599L750.004 862.672L515.209 885.603L518.519 888.399L748.859 924.989L979.168 888.399L982.482 885.599Z" fill="#F2B0A9"/>
<path d="M515.209 885.605L748.859 919.84L751.229 923.009L751.53 1329.95L748.859 1334.47L515.209 1217.64V885.605Z" fill="#8C3123"/>
<path d="M982.482 885.598L748.859 919.836V1334.46L982.486 1217.64L982.482 885.598Z" fill="#E05243"/>
<path d="M750.004 635.53L515.209 612.862L515.814 612.515L748.847 576.363L981.778 612.599L982.485 612.862L750.004 635.53Z" fill="#5E1F18"/>
<path d="M515.209 612.858L748.859 578.81L749.977 577.79L749.46 164.628L748.859 164L515.209 280.838V612.858Z" fill="#8C3123"/>
<path d="M982.486 612.858L748.859 578.81V164L982.486 280.838V612.858Z" fill="#E05243"/>
</svg>
