<svg width="1500" height="1500" viewBox="0 0 1500 1500" fill="none" xmlns="http://www.w3.org/2000/svg">
<rect width="1500" height="1500" rx="750" fill="white"/>
<rect width="1500" height="1500" rx="750" fill="white"/>
<g clip-path="url(#clip0_141_1489)">
<path d="M550.533 1216.75L749.382 1316.19L768.805 1301.7L760.63 193.225L749.382 180L550.533 279.434V1216.75Z" fill="#9D5025"/>
<path d="M948.231 1216.75L749.382 1316.19V180L948.231 279.434V1216.75Z" fill="#F68536"/>
<path d="M674.407 593.573L604.626 603.733L279 567.045L280.378 563.432L333.218 547.578L338.838 550.761L340.11 547.578L672.309 586.405L674.407 593.573Z" fill="#6B3A19"/>
<path d="M279 415.207L338.838 385.271V550.762L279 567.046V415.207Z" fill="#9D5025"/>
<path d="M1220 661.759L886.751 679.657L824.354 675.378L836.11 670.489L1160.96 651.879L1220 661.759Z" fill="#6B3A19"/>
<path d="M674.408 593.574L338.839 550.762V385.271L674.408 463.985V593.574Z" fill="#F68536"/>
<path d="M1159.92 482.24L824.354 539.917V675.377L1159.92 655.241L1161.88 651.418L1161.19 485.321L1159.92 482.24Z" fill="#9D5025"/>
<path d="M1220 661.758L1159.92 653.947V482.24L1220 504.24V661.758Z" fill="#F68536"/>
</g>
<defs>
<clipPath id="clip0_141_1489">
<rect width="941" height="1139.49" fill="white" transform="translate(279 180)"/>
</clipPath>
</defs>
</svg>
