<svg width="1500" height="1500" viewBox="0 0 1500 1500" fill="none" xmlns="http://www.w3.org/2000/svg">
<rect width="1500" height="1500" rx="750" fill="white"/>
<g clip-path="url(#clip0_141_1486)">
<path d="M1262.76 967.591L750.052 892.273L237 967.687L749.919 1157.77L1262.76 967.591Z" fill="#B7CA9D"/>
<path d="M339.66 958.809L426.329 985.9L434.226 976.932V370.485L426.329 360.127L339.66 393.28V958.809Z" fill="#4B612C"/>
<path d="M733.178 932.001L426.328 985.897V360.141L733.178 429.147V932.001Z" fill="#759C3E"/>
<path d="M596.361 1038.05L476.764 1001.18V228.814L596.361 169.016L606.827 180.415V1025.3L596.361 1038.05Z" fill="#4B612C"/>
<path d="M1006.19 941.901L596.359 1038.05V169L1006.19 328.738V941.901Z" fill="#759C3E"/>
<path d="M749.739 1149.53L237 967.682V1073.16L749.739 1329.53V1149.53Z" fill="#4B612C"/>
<path d="M1262.76 1073.04L749.738 1329.53V1149.54L1262.76 967.588V1073.04Z" fill="#759C3E"/>
<path d="M1118.67 792.836H994.351L639.964 816.981L749.88 837.244L1118.67 792.836Z" fill="#B7CA9D"/>
<path d="M639.964 1050.14L749.832 1083.1L752.994 1079.69L752.901 831.874L749.74 828.837L639.964 816.984V1050.14Z" fill="#4B612C"/>
<path d="M1118.67 792.836L749.738 828.818L749.83 1083.09L1118.67 972.059V792.836Z" fill="#759C3E"/>
</g>
<defs>
<clipPath id="clip0_141_1486">
<rect width="1025.76" height="1161.99" fill="white" transform="translate(237 169)"/>
</clipPath>
</defs>
</svg>
