<svg width="1500" height="1500" viewBox="0 0 1500 1500" fill="none" xmlns="http://www.w3.org/2000/svg">
<rect width="1500" height="1500" rx="750" fill="white"/>
<path d="M793.1 745.832C789.483 750.972 786.435 755.203 783.501 759.479C736.708 828.35 689.929 897.214 643.166 966.07C599.663 1030.12 556.114 1094.13 512.52 1158.1C511.796 1159.11 510.87 1159.95 509.8 1160.57C508.73 1161.2 507.541 1161.59 506.31 1161.72C444.763 1161.19 383.231 1160.52 321.714 1159.72C321.031 1159.72 320.326 1159.51 318.984 1159.31C319.481 1158.02 320.059 1156.77 320.713 1155.56C363.64 1089.01 406.567 1022.47 449.494 955.948C487.569 896.994 525.666 838.054 563.787 779.13C606.031 713.655 648.253 648.135 690.452 582.57C696.684 572.903 703.167 563.419 709.08 553.57C710.597 550.934 711.052 547.819 710.354 544.859C698.982 508.604 687.382 472.439 675.805 436.275C670.846 420.786 665.661 405.388 661.021 389.807C659.519 384.804 657.04 383.28 651.923 383.302C613.257 383.462 574.818 383.416 536.265 383.416C528.942 383.416 528.919 383.416 528.919 376.183C528.919 328.783 528.919 281.383 528.782 233.983C528.782 228.706 530.511 227.523 535.469 227.523C613.09 227.66 690.725 227.66 768.376 227.523C770.179 227.293 772.005 227.727 773.512 228.744C775.019 229.761 776.104 231.292 776.564 233.05C817.505 336.024 858.445 438.959 899.386 541.856C947.15 661.858 994.914 781.875 1042.68 901.907C1057.51 939.163 1072.45 976.396 1087.12 1013.74C1088.87 1018.29 1090.69 1019.16 1095.29 1017.75C1135.98 1005.17 1176.76 992.931 1217.43 980.331C1222.54 978.738 1224.41 979.807 1226 984.88C1239.88 1028.48 1254.02 1071.99 1268.08 1115.55C1268.56 1117.05 1268.92 1118.57 1269.49 1120.67C1266.58 1121.73 1263.85 1122.94 1261.05 1123.71C1168.56 1153.02 1076.11 1182.35 983.724 1211.69C979.311 1213.08 977.992 1211.58 976.514 1207.87C948.295 1136.36 920.008 1064.88 891.653 993.432C863.919 923.469 836.171 853.506 808.407 783.543C804.245 773.035 800.15 762.481 795.988 751.973C795.329 750.176 794.419 748.607 793.1 745.832Z" fill="#FA7E14"/>
</svg>
