<svg width="1500" height="1500" viewBox="0 0 1500 1500" fill="none" xmlns="http://www.w3.org/2000/svg">
<rect width="1500" height="1500" rx="750" fill="white"/>
<rect width="1500" height="1500" rx="750" fill="white"/>
<g clip-path="url(#clip0_141_1488)">
<path d="M272.089 950.859L749.832 1324.99L1227.58 950.859L749.817 891.461L272.089 950.859Z" fill="#99BCE3"/>
<path d="M749.831 171L269 545.113L746.732 604.514L1230.66 545.132L749.831 171Z" fill="#19486F"/>
<path d="M749.831 171L269 409.879V545.132L749.831 401.803V171Z" fill="#1F5B99"/>
<path d="M269 1086.12L749.831 1325V1094.19L269 950.883V1086.12Z" fill="#1F5B99"/>
<path d="M749.832 922.497L541.471 891.975V606.343L749.832 576.291L754.749 585.802L754.231 912.989L749.832 922.497Z" fill="#1F5B99"/>
<path d="M749.831 171V401.803L1230.66 545.132V409.879L749.831 171Z" fill="#5294CF"/>
<path d="M749.831 1094.19V1325L1230.66 1086.12V950.883L749.831 1094.19Z" fill="#5294CF"/>
<path d="M749.831 922.497L958.192 891.975V606.343L749.831 576.291V922.497Z" fill="#5294CF"/>
</g>
<defs>
<clipPath id="clip0_141_1488">
<rect width="961.662" height="1157" fill="white" transform="translate(269 171)"/>
</clipPath>
</defs>
</svg>
