<svg width="1500" height="1500" viewBox="0 0 1500 1500" fill="none" xmlns="http://www.w3.org/2000/svg">
<rect width="1500" height="1500" rx="750" fill="white"/>
<path d="M968.668 560.865V558.339H964.55V560.865H968.668ZM996.181 627.121V628.338H999.082C999.108 626.955 999.394 625.59 999.924 624.314V621.787C998.707 621.787 997.491 623.752 996.368 627.215L996.181 627.121ZM888.749 710.596C882.726 700.283 875.328 690.838 866.757 682.521C866.757 679.527 871.436 675.129 881.637 669.233L910.741 643.872C918.446 631.846 922.448 617.82 922.251 603.539V599.234C921.128 586.32 911.77 575.932 894.177 567.978C883.696 560.928 864.979 557.028 838.028 556.28C807.454 560.366 777.597 568.681 749.312 580.985C738.395 588.754 727.054 595.908 715.342 602.416V604.568C716.566 604.336 717.719 603.824 718.711 603.071C719.005 602.998 719.312 602.995 719.607 603.061C719.903 603.127 720.179 603.26 720.415 603.45C720.65 603.641 720.838 603.883 720.965 604.158C721.092 604.433 721.153 604.733 721.144 605.036L723.297 603.913H724.326V604.849C717.256 612.062 709.3 618.351 700.65 623.565L701.866 625.811H700.837L698.217 624.875C698.217 625.624 697.187 626.185 695.035 626.372V627.308L697.562 630.49C696.301 630.458 695.059 630.172 693.912 629.648C689.7 630.236 685.843 632.331 683.056 635.543L684.554 629.086C689.359 609.04 692.984 588.729 695.409 568.258V567.135C691.37 564.461 687.798 561.141 684.834 557.309C684.936 555.782 684.936 554.251 684.834 552.724V551.788H683.805C672.326 569.069 650.147 598.548 617.269 640.223C592.313 669.857 579.399 686.327 578.526 689.634C568.325 700.208 563.459 706.572 563.927 708.35C561.213 710.128 560.09 711.813 560.558 713.778C560.405 713.835 560.241 713.858 560.078 713.846C559.915 713.833 559.756 713.785 559.614 713.705C559.471 713.625 559.347 713.514 559.252 713.381C559.157 713.248 559.091 713.096 559.061 712.936C556.925 716.415 554.093 719.416 550.744 721.751C547.395 724.086 543.599 725.704 539.596 726.505L530.238 728.564C529.943 728.608 529.661 728.712 529.409 728.87C529.157 729.029 528.941 729.238 528.774 729.484C528.607 729.73 528.493 730.008 528.439 730.301C528.384 730.594 528.392 730.894 528.46 731.184V732.307L531.828 731.558V732.494L524.155 735.489L510.585 738.67H503.473C502.444 739.7 509.182 738.67 506.561 739.232L497.203 741.291C491.776 742.507 488.875 742.039 487.845 739.887H486.816C486.981 740.627 486.981 741.393 486.816 742.133L487.939 740.636L480.827 742.32C480.327 739.014 470.689 726.973 451.91 706.198C451.91 702.174 458.18 696.372 471.749 688.791L509.93 655.196C518.478 644.215 523.562 626.591 525.184 602.322L524.716 596.801C523.219 579.675 510.866 565.919 487.284 555.25C473.527 545.892 448.728 540.932 412.98 540.184C373.13 545.603 334.193 556.368 297.219 572.189C282.88 582.427 267.942 591.802 252.487 600.263V603.258C254.092 602.984 255.622 602.379 256.979 601.48C257.353 601.379 257.745 601.366 258.125 601.441C258.504 601.517 258.862 601.678 259.169 601.913C259.477 602.148 259.726 602.451 259.898 602.797C260.07 603.144 260.16 603.526 260.161 603.913L263.156 602.228H264.653V603.632C255.192 612.903 244.705 621.066 233.397 627.963L235.081 630.584H233.677L230.496 629.461C230.496 630.303 229.092 630.958 226.004 631.239V632.83L229.466 636.666C227.861 636.652 226.274 636.335 224.787 635.731C220.602 636.599 216.655 638.362 213.214 640.898C209.774 643.433 206.922 646.683 204.854 650.423L206.539 653.043C209.421 649.902 212.766 647.219 216.458 645.089V649.394C214.871 649.728 213.352 650.329 211.966 651.172L215.897 656.412C222.666 649.249 230.306 642.961 238.637 637.696C242.755 638.725 244.907 640.035 245.001 641.439H248.183C268.427 625.975 290.974 613.785 315 605.317V608.311C310.882 614.55 308.106 617.669 306.671 617.669C306.771 619.694 307.527 621.632 308.823 623.191C309.198 626.934 299.185 652.201 278.784 698.992C232.929 807.11 194.311 887.153 162.93 939.122C163.218 940.652 163.859 942.094 164.801 943.334C170.03 942.481 175.029 940.57 179.494 937.719H181.178V940.713H184.079L187.074 939.029C187.074 939.871 188.103 940.339 190.162 940.152V943.146C189.789 947.705 188.241 952.09 185.67 955.873C180.979 962.692 177.555 970.3 175.563 978.333V979.737H178.464C189.863 967.363 199.499 953.476 207.1 938.467C236.147 930.72 264.358 920.126 291.324 906.837C307.318 906.391 322.795 901.069 335.681 891.583V889.992L328.382 892.144H326.698V890.553C337.189 889.836 347.359 886.628 356.363 881.195C384.188 859.734 405.213 844.542 419.437 835.621C448.634 814.16 467.569 793.26 476.241 772.921L481.107 771.798C483.445 771.927 485.788 771.927 488.126 771.798C488.126 771.05 488.126 770.582 489.062 770.395C495.612 769.74 492.431 770.395 496.642 769.833L507.591 767.306C506.936 767.306 506.655 767.868 506.842 768.523L508.527 767.494H507.684H509.556L508.714 768.055C510.043 768.308 511.408 768.308 512.738 768.055L513.486 771.237L462.765 849.19L451.723 863.04L446.295 881.008H447.324L452.752 878.762L450.974 885.781L451.535 887.84L453.033 889.711C452.378 889.711 452.097 890.366 452.284 891.115V892.238L454.53 891.676C457.837 888.807 459.24 886.186 458.741 883.816C461.062 884.413 463.468 884.603 465.853 884.377V885.5C463.701 886.062 462.578 887.746 462.391 890.741V891.864H463.608C481.762 872.024 526.214 804.365 561.868 758.323C560.745 753.332 579.462 746.407 618.017 737.547H619.234C620.606 743.786 617.487 758.354 609.876 781.25C606.896 788.618 604.67 796.268 603.231 804.084C599.467 813.851 596.586 823.936 594.622 834.217L581.052 878.762C572.11 902.14 565.343 926.293 560.839 950.914C562.072 950.645 563.349 950.645 564.582 950.914L566.454 949.229C566.484 949.39 566.549 949.542 566.645 949.675C566.74 949.808 566.864 949.918 567.006 949.999C567.149 950.079 567.308 950.127 567.471 950.139C567.634 950.152 567.798 950.129 567.951 950.071L568.045 946.515H573.94C575.718 946.515 577.122 943.895 578.432 939.871C578.432 933.882 579.368 930.513 582.082 929.951C583.462 922.474 585.724 915.186 588.82 908.24C590.257 899.83 592.806 891.648 596.4 883.909C601.547 865.193 605.758 855.835 607.723 855.273L608.285 857.519L604.541 866.877C599.67 890.272 593.038 913.265 584.702 935.66L586.667 943.989H587.884C604.105 909.114 627.438 840.051 657.883 736.799C658.219 732.507 659.575 728.358 661.837 724.696C664.099 721.033 667.203 717.964 670.891 715.743L669.113 713.871V712.936C671.965 712.495 674.56 711.031 676.412 708.818C676.412 708.069 673.23 706.853 667.054 705.355L682.214 639.848C683.889 638.043 685.849 636.525 688.016 635.356V638.632C686.793 638.863 685.639 639.376 684.647 640.129L687.548 644.247C692.643 638.676 698.394 633.743 704.674 629.554C707.856 630.396 709.353 631.519 709.54 632.549H711.786C727.196 620.869 744.342 611.68 762.601 605.317V607.469C759.544 612.086 757.454 614.425 756.331 614.488C756.454 615.984 756.936 617.428 757.735 618.699C751.728 638.472 744.188 657.746 735.181 676.345C709.723 739.176 680.214 800.288 646.84 859.297C647.13 860.462 647.673 861.549 648.431 862.479C652.377 861.846 656.141 860.379 659.474 858.174H660.503V860.327H662.936L665.089 859.204C665.089 859.827 665.869 860.077 667.428 859.952V862.292C667.108 865.878 665.814 869.308 663.685 872.211C659.974 877.331 657.274 883.112 655.731 889.243V890.366H657.977C666.632 880.973 673.939 870.422 679.688 859.016C701.624 853.107 722.936 845.084 743.323 835.059C755.535 834.743 767.358 830.693 777.2 823.455V822.332L771.491 824.017H770.275V822.894C778.227 822.311 785.927 819.841 792.734 815.688C813.79 799.498 830.167 787.614 840.648 781.063C874.337 756.545 889.965 733.056 888.094 710.409L888.749 710.596ZM883.04 712.093L883.789 720.89C882.76 723.042 881.637 724.165 880.607 724.259L879.297 709.286C881.73 710.128 882.947 711.064 883.04 712.093ZM222.728 641.158H221.231V638.445L227.033 637.696V639.1C225.46 639.383 223.963 639.988 222.635 640.878L222.728 641.158ZM193.344 935.098C190.447 933.644 187.222 932.967 183.986 933.133V928.828C183.986 927.144 184.734 926.021 186.887 925.647C189.039 925.272 189.975 926.863 190.068 929.671C192.53 926.284 195.319 923.15 198.397 920.312L201.579 921.623C200.55 930.326 197.836 934.818 193.531 935.098H193.344ZM507.31 606.627C505.813 606.627 502.818 602.135 498.607 593.057V590.344C501.414 590.344 504.315 594.648 507.31 603.913V606.627ZM503.193 574.06L501.976 576.961L459.209 559.181C487.658 560.117 502.288 565.077 503.099 574.06H503.193ZM323.141 728.657L317.152 729.219V726.505L323.141 725.943V728.657ZM318.275 635.824H319.773V640.129C318.369 640.129 316.591 642.281 314.251 646.305V643.311C316.965 640.129 318.369 637.602 318.182 635.918L318.275 635.824ZM305.548 665.77L306.11 671.479H304.612L304.051 665.77H305.548ZM298.904 676.439H301.805C301.805 681.118 300.214 683.644 297.874 683.832H296.377C297.887 681.719 298.764 679.219 298.904 676.626V676.439ZM293.944 691.225H295.628V692.628L292.915 697.12H290.014V695.716C290.6 695.761 291.189 695.667 291.732 695.442C292.276 695.217 292.759 694.867 293.141 694.42C293.524 693.974 293.796 693.443 293.936 692.872C294.075 692.3 294.078 691.704 293.944 691.131V691.225ZM289.078 704.607L288.235 711.719H286.738L286.083 704.7H289.078V704.607ZM240.135 843.575C238.169 852.934 236.111 858.268 233.958 858.455V857.051C233.792 854.469 234.269 851.886 235.347 849.534C236.425 847.182 238.07 845.135 240.135 843.575ZM230.776 863.04V864.444C230.882 864.834 230.893 865.243 230.808 865.637C230.723 866.032 230.545 866.401 230.288 866.712C230.032 867.024 229.704 867.269 229.333 867.428C228.962 867.587 228.559 867.655 228.156 867.626V866.222C228.156 864.538 229.03 863.477 230.776 863.04ZM228.156 903.374H232.648V904.965C231.043 905.239 229.513 905.844 228.156 906.743H225.255C225.255 905.246 226.004 904.123 227.875 903.561L228.156 903.374ZM357.205 863.508C341.353 870.376 326.292 878.942 312.286 889.056C285.023 898.601 271.609 904.559 272.046 906.93C255.429 912.925 239.18 919.893 223.383 927.799C220.606 927.757 217.878 927.051 215.429 925.74C215.254 923.289 215.787 920.839 216.965 918.682C218.143 916.525 219.916 914.752 222.073 913.575C226.251 913.19 230.46 913.832 234.332 915.446C241.933 912.04 249.868 909.437 258.009 907.679V904.684L248.65 905.433C256.872 900.331 265.667 896.216 274.853 893.174H279.345V894.577C271.578 895.232 267.273 897.572 266.337 901.596C266.337 903.468 267.554 904.216 269.519 904.029C275.321 900.38 278.222 898.227 278.129 897.572C289.234 895.451 319.835 879.448 369.932 849.565V852.279C369.932 853.589 365.721 857.238 357.112 863.508H357.205ZM280.281 888.775C287.36 888.208 294.002 885.12 298.997 880.072C301.056 880.072 302.179 880.727 302.273 882.505C294.962 884.446 288.033 887.61 281.778 891.864H280.281V888.963V888.775ZM404.838 793.416L366.376 823.923C351.659 834.328 336.245 843.709 320.24 851.998C274.697 876.953 246.405 889.961 235.362 891.021H233.677C235.05 885.906 255.326 844.387 294.505 766.464C322.598 761.945 349.993 753.83 376.015 742.32L385.373 741.571C392.739 740.256 400.302 740.536 407.55 742.392C414.799 744.249 421.565 747.639 427.391 752.333L427.953 758.042C420.965 778.068 413.323 789.797 405.025 793.229L404.838 793.416ZM329.973 751.117L336.149 750.555V751.959L329.973 752.52V751.117ZM416.91 736.424H421.402C425.613 738.39 427.766 740.168 427.953 741.759V743.162C425.709 743.192 423.496 742.628 421.541 741.527C419.585 740.425 417.955 738.827 416.817 736.892L416.91 736.424ZM429.169 666.425C419.173 675.843 408.119 684.071 396.229 690.944C390.333 691.505 368.154 700.302 330.066 716.772C328.162 715.908 326.066 715.553 323.984 715.743V713.029C324.191 705.497 326.779 698.224 331.377 692.254C334.371 676.532 337.553 667.548 340.735 665.396L372.553 593.806C372.178 589.377 378.978 585.976 392.953 583.606H397.445V587.723C411.108 585.664 419.718 584.448 422.993 584.167C448.26 582.015 461.455 587.162 462.484 599.421H465.386L464.73 592.215L468.567 590.905C471.655 592.177 474.371 594.207 476.465 596.808C478.559 599.409 479.963 602.497 480.546 605.785C480.253 611.36 477.961 616.642 474.089 620.664C472.217 620.664 471 619.447 470.907 616.64H467.725L467.07 625.343C454.281 644.496 444.922 654.353 438.996 654.915C433.755 662.121 430.573 665.77 429.637 665.77L429.169 666.425ZM448.728 716.585C446.936 715.153 444.748 714.303 442.458 714.152V709.847H445.359L451.723 713.591C451.828 713.98 451.839 714.389 451.754 714.784C451.669 715.178 451.491 715.547 451.235 715.858C450.978 716.17 450.65 716.416 450.28 716.575C449.909 716.734 449.505 716.801 449.102 716.772L448.728 716.585ZM468.567 740.636C471.375 741.759 473.059 742.975 473.34 744.098H471.094L469.035 745.783L468.567 740.636ZM470.533 752.708V751.585L474.182 750.742V751.865L470.533 752.708ZM479.329 762.534C483.072 761.879 484.944 761.692 491.869 760.101V761.224L478.581 764.312C478.612 763.72 478.612 763.126 478.581 762.534H479.329ZM492.243 768.055C487.755 768.151 483.295 768.779 478.955 769.927V768.804L489.998 765.248L495.332 764.031L495.893 766.09C493.554 766.651 495.238 766.651 492.524 768.055H492.243ZM504.035 765.248C503.721 765.332 503.394 765.352 503.073 765.308C502.751 765.263 502.442 765.155 502.163 764.99C501.884 764.824 501.641 764.604 501.448 764.343C501.255 764.082 501.116 763.785 501.04 763.47L504.409 762.721C504.71 762.602 505.035 762.557 505.358 762.587C505.68 762.618 505.99 762.724 506.264 762.898C506.537 763.071 506.766 763.306 506.932 763.584C507.097 763.863 507.195 764.176 507.217 764.499L504.035 765.248ZM535.946 730.903V729.78L541.467 728.47L542.029 730.529H536.227L535.946 730.903ZM570.01 939.965C570.244 938.822 570.244 937.644 570.01 936.502H571.226C571.508 936.384 571.813 936.333 572.118 936.353C572.422 936.373 572.718 936.464 572.981 936.618C573.245 936.773 573.468 936.986 573.635 937.242C573.801 937.498 573.906 937.79 573.94 938.093V939.216L569.448 940.245L570.01 939.965ZM593.967 739.793H591.534C588.314 741.133 584.998 742.228 581.614 743.069L579.368 743.63C579.073 743.73 578.761 743.767 578.451 743.74C578.141 743.713 577.841 743.622 577.568 743.472C577.295 743.323 577.057 743.118 576.867 742.871C576.677 742.625 576.541 742.341 576.467 742.039L592.469 738.39L597.71 735.957L599.488 737.922C597.516 738.193 595.647 738.966 594.06 740.168L593.967 739.793ZM606.226 735.863V734.74C607.385 734.371 608.421 733.692 609.221 732.775L620.544 730.155V731.277C615.652 732.363 610.861 733.866 606.226 735.769V735.863ZM608.004 712.561C606.822 712.995 605.74 713.664 604.822 714.526C604.822 713.778 603.044 713.778 600.143 714.526C599.582 712.374 608.004 709.286 625.317 705.168L627.75 704.607L628.311 706.666C616.146 710.222 609.595 712.28 608.004 712.468V712.561ZM638.512 679.62C637.014 693.845 632.429 701.612 623.726 703.203V702.08L616.052 705.075L612.683 705.823C611.153 706.255 609.534 706.255 608.004 705.823L606.975 703.203C617.125 687.217 628.251 671.872 640.29 657.254H642.91C643.246 664.964 641.705 672.639 638.418 679.62H638.512ZM692.508 633.391H691.479V631.239H695.971V632.362C694.794 632.688 693.662 633.159 692.602 633.765L692.508 633.391ZM670.236 857.051C668.074 855.92 665.655 855.372 663.217 855.46V852.185C663.217 851.062 663.903 850.282 665.276 849.845C666.773 849.845 667.615 850.688 667.803 853.027C669.583 850.372 671.689 847.951 674.073 845.821L676.412 846.757C675.57 853.401 673.511 856.864 670.423 857.145L670.236 857.051ZM908.401 607.656C907.278 607.656 905.126 604.287 901.663 597.175V595.023C903.816 595.023 906.155 598.204 908.401 605.223V607.656ZM905.219 582.763L904.19 585.009L871.904 571.534C893.428 572.189 904.564 576.026 905.219 582.763ZM768.684 700.115H764.192V697.962H768.684V700.021V700.115ZM764.94 629.554H766.157V632.83C765.034 632.83 763.63 634.389 761.946 637.509V635.356C763.524 633.794 764.544 631.755 764.847 629.554H764.94ZM755.582 652.201V656.506H754.366V652.201H755.582ZM750.435 660.343H752.681C752.681 664.023 751.714 665.958 749.78 666.145H748.564C749.67 664.435 750.315 662.469 750.435 660.436V660.343ZM746.786 671.479H747.815V672.602L745.85 676.064H743.604V675.129C745.943 675.129 746.973 673.725 746.786 671.572V671.479ZM743.136 681.586L742.387 687.201H741.358V681.679H743.604L743.136 681.586ZM705.703 787.333C704.206 794.632 702.646 798.376 701.024 798.563V797.627C700.947 795.656 701.339 793.694 702.169 791.904C702.999 790.115 704.242 788.548 705.797 787.333H705.703ZM698.778 802.025V802.961C698.871 803.269 698.888 803.595 698.825 803.911C698.763 804.227 698.624 804.522 698.421 804.772C698.217 805.021 697.956 805.217 697.659 805.342C697.363 805.467 697.04 805.517 696.719 805.488V804.365C696.719 803.242 697.406 802.462 698.778 802.025ZM696.813 832.72H700.275V833.843C699.082 834.072 697.941 834.516 696.907 835.153H694.661C694.661 833.905 695.347 833.125 696.719 832.814L696.813 832.72ZM794.699 802.493C782.72 807.805 771.281 814.26 760.542 821.771C739.58 829.07 729.286 833.656 729.379 835.434C716.992 840.131 704.898 845.569 693.163 851.717C691.063 851.627 689.013 851.05 687.174 850.033C686.967 848.144 687.339 846.237 688.242 844.566C689.145 842.894 690.535 841.537 692.227 840.674C695.415 840.373 698.627 840.855 701.586 842.078C707.411 839.583 713.458 837.641 719.647 836.276V834.124L712.535 834.685C718.817 830.786 725.539 827.644 732.561 825.327H736.024V826.263C730.128 826.824 726.665 828.509 726.104 831.691C726.095 831.993 726.157 832.294 726.283 832.569C726.41 832.844 726.598 833.086 726.834 833.276C727.069 833.466 727.345 833.6 727.641 833.665C727.936 833.731 728.243 833.728 728.537 833.656C732.935 830.755 734.994 829.164 734.994 828.602C743.354 827.105 766.563 814.939 804.619 792.106V794.258C804.619 795.194 801.437 798.001 795.261 802.774L794.699 802.493ZM736.304 821.209C741.756 820.788 746.889 818.47 750.81 814.659C751.104 814.587 751.41 814.583 751.706 814.649C752.001 814.715 752.278 814.848 752.513 815.038C752.749 815.229 752.937 815.471 753.064 815.746C753.19 816.021 753.251 816.321 753.243 816.624C747.756 818.033 742.517 820.274 737.708 823.268H736.492V821.209H736.304ZM830.728 749.339L801.718 772.734C790.5 780.762 778.708 787.956 766.438 794.258C731.937 812.974 710.445 822.832 701.96 823.83H700.743C701.804 819.899 717.245 788.393 747.066 729.312C768.395 725.721 789.181 719.432 808.924 710.596L815.942 709.941C821.533 708.949 827.272 709.179 832.764 710.617C838.257 712.055 843.373 714.666 847.76 718.27V722.574C842.426 737.547 836.718 746.344 830.448 749.058L830.728 749.339ZM773.737 717.24H778.229V718.363H773.737V717.24ZM839.712 706.01H843.175C846.356 707.601 848.041 709.005 848.134 710.128V711.064C846.413 711.129 844.707 710.718 843.205 709.876C841.702 709.034 840.461 707.793 839.619 706.291L839.712 706.01ZM849.07 652.95C841.532 660.139 833.177 666.42 824.178 671.666C806.929 676.789 790.123 683.298 773.924 691.131C772.457 690.602 770.896 690.379 769.339 690.476V688.324C769.484 682.605 771.415 677.075 774.86 672.508C777.106 660.436 779.633 653.792 782.253 652.201L806.584 597.83C806.584 594.648 811.45 592.028 821.932 589.969H825.394V593.245C835.688 591.56 842.145 590.593 844.766 590.344C863.482 588.659 873.963 592.496 874.805 601.948H877.051V596.707H879.297C881.687 597.567 883.81 599.04 885.452 600.978C887.094 602.916 888.199 605.251 888.655 607.75C888.187 612.044 886.195 616.028 883.04 618.98C881.543 618.98 880.701 618.137 880.514 615.798H878.268L877.613 622.348C868.255 637.041 860.862 644.714 856.463 644.995C852.533 650.329 850.1 653.043 848.977 653.137L849.07 652.95ZM859.271 689.259V685.984H861.517L866.383 688.979C866.423 689.272 866.4 689.57 866.315 689.853C866.229 690.136 866.084 690.398 865.889 690.62C865.694 690.842 865.453 691.019 865.183 691.139C864.913 691.26 864.62 691.321 864.324 691.318C862.938 690.262 861.286 689.614 859.551 689.446L859.271 689.259ZM453.22 900.941L450.974 901.503L449.009 903.187C449.043 903.49 449.148 903.782 449.314 904.037C449.48 904.293 449.704 904.507 449.968 904.661C450.231 904.816 450.527 904.907 450.831 904.927C451.136 904.947 451.441 904.896 451.723 904.778C453.22 904.778 453.781 903.561 453.501 902.158V901.035L453.22 900.941ZM444.61 883.722V884.845C446.108 884.845 446.669 883.628 446.388 882.225V881.102C446.088 881.131 445.797 881.226 445.537 881.381C445.277 881.535 445.055 881.745 444.885 881.995C444.715 882.245 444.602 882.529 444.555 882.828C444.508 883.126 444.527 883.432 444.61 883.722ZM506 737.735L508.62 737.08L508.059 734.834L505.438 735.489L506 737.735ZM1297.23 804.178C1285.7 807.387 1273.82 809.178 1261.86 809.512V811.664H1265.6L1268.5 810.541C1294.71 807.64 1297.79 808.67 1297.51 805.768V804.739L1297.23 804.178ZM1138.14 765.435L1135.8 764.686C1134.48 767.677 1133.54 770.821 1133 774.044V774.98C1134.87 774.98 1136.46 771.798 1138.05 765.622L1138.14 765.435ZM1302.66 803.523V805.675L1306.5 806.33V804.178L1302.66 803.523ZM1122.14 825.795L1116.25 825.14L1115.22 827.386V828.509L1150.5 825.514V823.362L1122.42 825.795H1122.14ZM1106.14 748.497V747.374H1104.92L1102.77 748.777L1103.99 750.836C1105.67 750.836 1106.42 749.9 1106.23 748.403L1106.14 748.497ZM1319.32 787.426H1321C1321.94 787.426 1322.41 786.584 1322.31 785.181L1321.38 783.122C1316.6 783.095 1311.9 784.287 1307.71 786.584V785.555L1300.51 786.21C1300.51 784.058 1299.76 782.935 1298.73 783.028H1294.99C1290.59 783.028 1288.53 783.028 1286.38 784.9C1286.38 784.151 1286.38 783.777 1285.63 783.777H1281.42L1278.98 785.181C1278.98 784.432 1278.98 784.058 1278.24 784.058L1276.74 785.368V784.245H1269.53V786.397L1272.53 787.146H1275.33C1276.29 787.708 1277.41 787.939 1278.52 787.801L1280.95 786.584V787.426C1273.38 789.395 1265.69 790.864 1257.93 791.825C1257.27 791.265 1256.45 790.936 1255.59 790.889C1255.34 790.877 1255.1 790.817 1254.88 790.711C1254.66 790.606 1254.46 790.458 1254.29 790.275C1254.13 790.093 1254 789.879 1253.92 789.648C1253.83 789.416 1253.8 789.17 1253.81 788.924L1258.68 788.269C1259.75 788.61 1260.85 788.891 1261.95 789.111C1265.88 787.146 1266.07 786.397 1268.13 786.21V784.058C1259.92 785.568 1251.59 786.351 1243.24 786.397H1242.49V784.245C1264.1 781.624 1256.9 783.122 1264.29 781.063C1264.29 781.812 1264.29 782.186 1265.04 782.186C1265.84 781.361 1266.9 780.833 1268.04 780.689H1269.53C1278.01 780.948 1286.48 779.842 1294.61 777.413V778.349L1297.05 777.133H1299.29C1299.29 774.98 1302.47 774.606 1303.6 774.512V772.173C1277.3 777.507 1270.37 776.01 1263.08 778.068V777.133C1260.01 777.842 1256.86 778.094 1253.72 777.881C1252.88 778.134 1252.13 778.621 1251.56 779.285C1251.56 778.536 1251.56 778.162 1250.72 778.162L1228.36 781.812C1228.36 781.157 1228.36 780.876 1227.51 780.969C1219.71 783.256 1211.67 784.699 1203.56 785.274C1202.51 785.464 1201.52 785.879 1200.66 786.491C1200.66 785.836 1200.66 785.555 1199.44 785.648L1190.08 786.397L1183.72 787.988C1183.72 787.333 1183.72 787.052 1182.5 787.146C1179.44 788.03 1176.31 788.625 1173.14 788.924C1171.55 788.924 1173.89 788.924 1173.14 787.988L1171.18 789.111H1160.32C1143.48 791.17 1145.35 791.451 1143.48 791.544H1137.21C1137.24 791.677 1137.24 791.817 1137.2 791.949C1137.17 792.082 1137.1 792.204 1137.01 792.306C1136.92 792.407 1136.8 792.485 1136.68 792.531C1136.55 792.578 1136.41 792.592 1136.27 792.573C1129.16 791.638 1125.42 790.515 1125.42 789.205C1126.35 782.404 1128.01 778.911 1130.38 778.723H1131.59L1130.56 780.969H1131.78C1134.03 779.753 1135.06 778.63 1134.96 777.6V775.261H1132.72V773.108C1132.51 771.61 1132.73 770.083 1133.37 768.71L1138.52 760.381V762.534H1140.95V760.381L1139.55 758.416C1140.75 757.185 1142.28 756.311 1143.95 755.889V754.767H1140.67V751.491C1144.89 743.945 1148.04 735.851 1150.03 727.441L1152.37 728.376C1153.87 728.376 1154.52 727.441 1154.43 725.85H1152.18V724.914C1152.02 723.336 1152.31 721.746 1153.02 720.328C1154.62 718.9 1155.89 717.136 1156.73 715.163C1157.57 713.19 1157.97 711.055 1157.89 708.911C1158.54 708.911 1158.92 708.911 1159.01 709.941C1162.1 708.163 1164.44 703.577 1166.12 695.904C1174.57 677.026 1181.67 657.575 1187.37 637.696C1206.08 586.039 1206.08 580.611 1208.42 568.352H1206.18C1206.35 569.9 1206.06 571.463 1205.34 572.844C1204.19 572.32 1202.95 572.033 1201.69 572.002V571.066C1201.78 565.249 1203.79 559.626 1207.39 555.063H1207.86L1209.83 562.55H1212.07C1212.45 559.393 1213.04 556.266 1213.85 553.192C1213.85 552.069 1212.92 551.32 1211.14 551.226L1208.99 552.63V540.465H1207.86C1206.35 539.26 1205.3 537.576 1204.87 535.692L1192.42 536.908C1192.19 535.556 1191.71 534.257 1191.02 533.072C1191.02 531.949 1193.73 530.826 1199.44 529.703L1201.97 530.638L1204.31 529.235C1204.31 529.983 1204.87 530.358 1205.71 530.264L1208.05 528.86C1208.05 529.609 1208.61 529.983 1209.45 529.89H1210.58V527.363H1196.91L1194.57 528.954V527.27C1136.05 532.073 1102.83 534.85 1094.91 535.598H1082.56C1082.56 536.534 1081.81 537.096 1080.03 537.283L1077.5 536.16L1068.99 538.312C1065.62 538.612 1062.24 538.612 1058.88 538.312C1057.51 539.401 1055.85 540.053 1054.11 540.184L1079.09 538.593C1077.29 539.814 1075.18 540.496 1073.01 540.558C1071.31 540.789 1069.58 540.495 1068.05 539.716C1061.92 541.604 1055.67 543.074 1049.33 544.114L1046.81 543.178L1006.01 549.448C1004.28 548.659 1002.37 548.368 1000.49 548.606C996.809 549.088 993.179 549.871 989.63 550.946L969.884 559.181L971.382 561.614C972.816 561.359 974.185 560.818 975.406 560.023L982.424 560.678L981.582 567.229C978.811 568.214 976.332 569.878 974.37 572.069C972.408 574.259 971.027 576.907 970.352 579.769C960.994 584.074 955.847 587.068 955.847 589.127V590.25H957.344L959.965 588.846L963.053 592.496V597.549C963.053 599.109 946.801 633.422 914.297 700.489C886.222 765.06 871.249 800.341 869.845 806.704C860.487 809.418 854.592 813.349 852.907 818.589C852.907 820.274 855.995 821.397 861.517 821.771V824.298L858.99 828.509V833.562C858.99 836.183 866.04 838.179 880.139 839.551C880.139 838.709 880.139 838.148 881.45 838.054C881.356 844.378 880.476 850.665 878.829 856.771H880.327C885.282 851.932 888.561 845.637 889.685 838.803H890.901C892.305 838.803 893.802 840.3 895.487 843.669C893.74 844.355 887.501 858.237 876.77 885.313L878.268 887.746H880.327C893.116 855.304 901.164 837.368 904.471 833.937C921.315 832.439 950.419 829.32 991.782 824.578L994.403 822.988C994.393 823.184 994.431 823.38 994.514 823.559C994.597 823.738 994.722 823.894 994.879 824.013C995.035 824.133 995.218 824.213 995.413 824.246C995.607 824.279 995.806 824.265 995.993 824.204H998.707L1001.33 822.613C1001.32 822.81 1001.36 823.006 1001.44 823.185C1001.52 823.363 1001.65 823.519 1001.8 823.639C1001.96 823.759 1002.14 823.839 1002.34 823.872C1002.53 823.905 1002.73 823.891 1002.92 823.83L1034.27 821.116C1042.6 820.461 1046.43 817.934 1046.15 813.629C1046.15 812.506 1050.93 811.196 1060.85 809.792C1062.31 809.776 1063.77 810.03 1065.15 810.541C1065.15 809.793 1070.02 808.95 1079.94 808.108C1079.94 802.867 1081.9 800.06 1084.8 799.779V797.253C1081.61 797.621 1078.47 798.343 1075.44 799.405C1071.25 799.352 1067.08 798.85 1063 797.908C1061.77 798.688 1060.4 799.227 1058.97 799.499L1037.17 800.154L1034.55 801.557C1034.55 800.746 1034.02 800.403 1032.96 800.528H1031.74L1028.93 801.932C1028.93 801.183 1026.59 800.528 1022.01 799.966L1019.2 801.651H1013.77V800.247C1041.85 797.19 1055.7 793.385 1055.32 788.83C1055.69 788.741 1056.08 788.741 1056.45 788.829C1056.82 788.917 1057.17 789.091 1057.46 789.337C1057.75 789.583 1057.98 789.894 1058.13 790.245C1058.28 790.595 1058.34 790.976 1058.32 791.357L1066.55 789.298V786.771L999.362 788.643C999.362 789.485 999.362 790.047 998.052 790.14L989.817 789.485C987.927 789.596 986.109 790.246 984.577 791.357L981.488 790.234C975.161 790.627 968.89 791.661 962.772 793.322C956.543 792.831 950.285 792.831 944.056 793.322L928.989 794.632L921.97 793.884C921.97 789.392 930.299 767.587 948.08 728.376C950.713 719.053 955.672 710.552 962.491 703.671C963.985 703.692 965.455 704.043 966.796 704.7L977.558 701.051L983.079 701.893C994.146 700.681 1005 698.006 1015.36 693.938C1017.72 693.599 1020.13 693.823 1022.38 694.594L1030.62 692.628L1055.04 690.569C1066.55 689.477 1077.91 687.155 1088.92 683.644V681.118C1084.43 681.118 1082 681.118 1081.9 678.965C1081.9 675.596 1078.35 674.193 1071.98 674.661V672.134L1078.72 670.169L1096.31 668.671V666.145H1085.46V663.431L1092.29 662.776C1094.16 662.776 1094.91 661.746 1094.72 659.968C1085.36 659.968 1080.97 659.968 1080.87 658.565C1017.05 661.684 985.044 662.277 984.857 660.343C983.409 660.657 982.04 661.262 980.833 662.121L979.149 659.5C996.056 623.565 1005.98 605.473 1008.91 605.223C1008.74 607.608 1008 609.918 1006.76 611.961V613.084H1009.47C1016.21 597.081 1021.82 588.753 1026.59 588.378C1046.62 586.6 1023.79 585.29 1066.74 579.02C1067.92 579.664 1069.24 580.017 1070.58 580.05C1087.42 576.681 1110.88 573.125 1140.95 569.381V566.855L1124.95 568.352V565.825C1126.69 565.695 1128.35 565.042 1129.72 563.954V565.357C1131.05 565.039 1132.3 564.432 1133.37 563.579C1135.52 563.216 1137.73 563.476 1139.73 564.328C1144.12 563.096 1148.6 562.189 1153.12 561.614L1163.13 560.678C1165.56 559.087 1166.69 557.684 1166.59 556.373V555.25C1163.65 555.475 1160.69 555.286 1157.8 554.689C1157.76 554.357 1157.78 554.02 1157.88 553.699C1157.97 553.377 1158.12 553.077 1158.33 552.816C1158.54 552.555 1158.8 552.338 1159.09 552.177C1159.39 552.017 1159.71 551.916 1160.04 551.882L1178.76 550.103L1187.27 547.951C1187.27 548.887 1187.84 549.261 1188.49 549.261C1189.82 548.943 1191.07 548.336 1192.14 547.483H1193.54C1192.03 550.78 1190.78 554.191 1189.8 557.684H1187.37C1187.24 556.1 1186.76 554.566 1185.96 553.192H1184.75C1162.1 616.359 1151.99 645.744 1131.03 694.219C1127.19 706.572 1124.01 713.497 1121.21 714.994C1121.2 715.297 1121.26 715.597 1121.38 715.872C1121.51 716.148 1121.7 716.39 1121.94 716.58C1122.17 716.77 1122.45 716.903 1122.74 716.969C1123.04 717.035 1123.34 717.032 1123.64 716.96C1124.12 723.281 1122.62 729.596 1119.33 735.021C1109.98 763.095 1103.24 778.162 1099.87 780.969L1102.02 794.164C1102.06 794.457 1102.04 794.756 1101.95 795.039C1101.87 795.322 1101.72 795.583 1101.53 795.805C1101.33 796.027 1101.09 796.205 1100.82 796.325C1100.55 796.446 1100.26 796.507 1099.96 796.504H1097.72C1097.72 792.854 1096.03 791.076 1093.69 791.357H1092.48C1089.34 796.303 1087.06 801.745 1085.74 807.453H1087.98C1089.28 806.809 1090.37 805.805 1091.12 804.561C1091.87 803.317 1092.24 801.885 1092.2 800.434H1096.69L1099.31 801.37C1097.54 803.66 1096.53 806.438 1096.41 809.325L1097.62 811.383L1094.63 818.402V819.525C1097.65 819.403 1100.64 820.255 1103.14 821.958C1105.65 821.611 1108.03 820.646 1110.07 819.151H1139.27L1147.69 816.25C1153.72 816.277 1159.74 816.027 1165.75 815.501H1169.4L1171.37 814.191V815.314C1177.27 814.449 1183.27 814.512 1189.15 815.501V816.624H1184V818.776C1185.5 818.678 1186.94 818.123 1188.12 817.185C1189.43 817.185 1190.18 817.841 1190.27 819.338C1187.88 819.591 1185.52 820.125 1183.25 820.929L1181 820.18C1177.45 821.116 1178.2 821.397 1175.76 821.584L1172.21 820.929C1172.24 821.054 1172.24 821.184 1172.21 821.309C1172.18 821.434 1172.12 821.55 1172.04 821.649C1171.96 821.749 1171.85 821.828 1171.74 821.882C1171.62 821.935 1171.49 821.961 1171.37 821.958C1171.35 822.237 1171.39 822.516 1171.5 822.776C1171.6 823.035 1171.77 823.267 1171.97 823.456C1172.18 823.644 1172.42 823.784 1172.69 823.865C1172.96 823.946 1173.24 823.966 1173.52 823.923H1177.17L1195.88 822.239L1203.09 820.648C1203.09 821.303 1203.09 821.584 1204.03 821.49L1207.49 820.18L1214.04 819.619C1219.09 819.619 1219 818.87 1229.95 817.092C1229.95 816.437 1229.95 816.156 1230.6 816.062V816.998C1237.99 816.103 1245.31 814.695 1252.5 812.787V813.349C1256.99 812.319 1254.47 812.6 1255.68 811.664C1255.68 812.413 1255.68 812.787 1256.43 812.787H1259.61V810.448H1251.75C1249.41 810.887 1247.02 811.075 1244.64 811.009L1228.64 811.851V810.728L1238 809.512H1241.18L1243.05 808.202V809.325C1255.59 808.295 1260.08 811.383 1317.91 799.031C1321.1 799.031 1320.82 796.13 1322.78 790.702C1321.71 790.794 1320.63 790.566 1319.69 790.047C1314.26 791.366 1308.71 792.181 1303.13 792.48C1302.38 792.48 1301.72 791.825 1301.44 790.515V789.579H1310.8C1314.12 789.226 1317.32 788.139 1320.16 786.397C1320.16 787.146 1318.38 787.614 1319.51 787.52L1319.32 787.426ZM889.685 794.632H885.567C886.939 788.138 889.141 781.848 892.118 775.916H894.832C893.977 782.36 892.245 788.657 889.685 794.632ZM894.645 774.793V773.67C894.645 772.266 895.393 771.33 897.358 770.863V771.985C897.358 773.67 896.61 774.606 894.645 774.793ZM949.109 816.905V818.028L942.278 818.683V817.56L949.109 816.905ZM940.874 816.25C940.874 817.653 938.909 819.244 934.323 820.742L925.994 820.086H923.28V817.56L941.155 815.875L940.874 816.25ZM996.368 562.831H992.625V561.427C992.625 560.023 993.28 559.087 995.058 558.619H996.555L999.362 559.742C999.419 560.1 999.394 560.465 999.291 560.812C999.188 561.159 999.009 561.479 998.767 561.747C998.525 562.016 998.226 562.228 997.892 562.367C997.558 562.506 997.197 562.568 996.836 562.55L996.368 562.831ZM1058.69 550.665H1060V553.192H1056.26C1056.22 552.859 1056.25 552.523 1056.34 552.201C1056.43 551.88 1056.59 551.58 1056.8 551.319C1057.01 551.058 1057.26 550.84 1057.56 550.68C1057.85 550.52 1058.17 550.419 1058.51 550.384L1058.69 550.665ZM1042.97 556.186L1036.8 555.531V553.472C1042.17 553.113 1047.48 552.108 1052.61 550.478C1052.61 551.414 1053.55 551.788 1055.14 551.601V554.127H1052.7C1051 554.359 1049.27 554.065 1047.74 553.285C1046.32 554.255 1044.68 554.865 1042.97 555.063V556.186ZM1050.74 578.739V577.616L1060.75 576.681V577.804L1050.74 578.739ZM1061.5 570.036V568.633H1066.37V570.036H1061.5ZM1062.62 552.911H1061.31L1062.44 550.197L1073.57 549.168V550.571C1069.84 551.009 1066.14 551.761 1062.53 552.817L1062.62 552.911ZM1068.33 576.961V574.435H1073.2C1074.88 574.435 1075.76 575.215 1075.82 576.774L1068.52 577.429L1068.33 576.961ZM1097.9 536.721L1091.63 538.499H1090.51C1086.74 538.833 1082.95 538.833 1079.19 538.499C1087.33 537.938 1095.1 537.376 1097.9 536.908V536.721ZM1091.17 564.796V565.919L1082.56 566.667V565.544L1091.17 564.796ZM1105.3 571.534C1105.3 570.504 1103.52 569.756 1100.15 569.475L1091.54 571.908H1084.9C1083.4 570.879 1082.65 570.13 1082.56 569.662H1090.23L1107.45 566.855H1116.25V568.258C1112.49 568.584 1108.79 569.338 1105.2 570.504L1105.3 571.534ZM1194.11 548.606H1196.07C1199.06 545.634 1202.59 543.253 1206.46 541.588C1204.54 552.968 1199.45 563.575 1191.77 572.189L1186.9 569.194C1189.78 562.443 1192.18 555.501 1194.11 548.419V548.606ZM1179.13 574.341H1180.35C1178.66 577.523 1177.17 579.114 1175.95 579.207V575.932C1177.18 575.722 1178.34 575.207 1179.32 574.435L1179.13 574.341ZM1169.77 597.456C1170.52 591.58 1172.85 586.017 1176.51 581.36V581.547C1175.3 590.25 1173.33 594.929 1170.8 595.21V600.731C1169.09 602.696 1168.04 605.153 1167.81 607.75H1166.59L1165.94 600.17C1167.34 600.17 1168.46 598.766 1169.21 596.52L1169.77 597.456ZM1166.03 609.996C1165.67 613.226 1164.82 616.382 1163.5 619.354H1162.29V616.078C1163.97 612.242 1165.38 610.276 1166.31 610.276L1166.03 609.996ZM1095.56 813.629V812.693H1097.81V815.969C1096.59 815.969 1095.75 815.314 1095.38 813.816L1095.56 813.629ZM1196.07 816.25C1196.07 815.501 1196.07 815.127 1194.85 815.22L1189.15 815.501V814.565L1202.53 813.442V814.565C1200.07 814.379 1197.62 814.968 1195.51 816.25H1196.07ZM1189.33 813.442C1189.89 813.442 1189.33 814.004 1189.33 814.097C1189.33 814.191 1188.68 814.097 1189.33 813.442ZM1189.99 797.72L1182.5 798.376V796.785H1189.15L1195.04 795.287C1195.04 795.942 1195.04 796.223 1196.26 796.13C1203.28 794.913 1202.62 794.539 1205.62 794.258C1206.74 794.258 1207.49 794.913 1207.58 796.223L1189.52 797.814L1189.99 797.72ZM1216.19 795.475C1213.76 794.981 1211.28 794.792 1208.8 794.913V793.977L1215.54 793.322V794.258C1214.88 794.258 1217.41 794.258 1216.19 795.381V795.475ZM1216.75 794.258V793.322H1220.4V794.258H1216.75ZM1224.89 793.603V792.667C1225.87 792.413 1226.76 791.932 1227.51 791.263C1227.87 791.211 1228.24 791.233 1228.59 791.33C1228.94 791.426 1229.26 791.594 1229.55 791.822C1229.83 792.051 1230.06 792.336 1230.22 792.658C1230.39 792.981 1230.49 793.334 1230.51 793.696L1224.89 793.603ZM1235.28 792.293V791.17H1239.77V792.293H1235.28ZM1241.46 791.731C1241.46 790.421 1241.46 789.672 1243.05 789.485L1244.55 791.45C1244.52 791.34 1244.51 791.225 1244.53 791.112C1244.55 790.999 1244.59 790.892 1244.65 790.795C1244.71 790.699 1244.79 790.616 1244.89 790.552C1244.98 790.488 1245.09 790.443 1245.2 790.421L1246.32 792.48L1241.46 791.825V791.731ZM1175.95 819.806V817.653H1175.3V819.806H1175.95ZM1329.14 780.127C1329.8 780.127 1330.17 779.285 1328.49 779.004C1326.8 778.723 1329.33 780.127 1327.65 780.221V780.969L1328.58 780.314L1327.65 781.063L1325.78 783.402L1329.42 782.092V779.94L1329.14 780.127ZM1335.51 785.087H1334.85V787.239H1340C1340 785.836 1336.54 785.368 1335.41 785.368L1335.51 785.087Z" fill="black"/>
<path d="M992.625 620.197V621.6H995.526C995.553 620.218 995.838 618.853 996.369 617.576V615.05C995.152 615.05 993.935 617.015 992.812 620.477L992.625 620.197ZM964.551 553.473V550.946H960.433V553.473H964.551ZM884.819 703.203C878.796 692.891 871.397 683.446 862.828 675.129C862.828 672.134 867.507 667.736 877.707 661.84L906.905 637.696C914.61 625.67 918.612 611.644 918.415 597.363V593.058C917.292 580.144 907.934 569.756 890.341 561.802C879.859 554.752 861.143 550.853 834.192 550.104C803.869 554.07 774.237 562.194 746.131 574.248C735.214 582.015 723.873 589.17 712.161 595.678V597.831C713.384 597.596 714.536 597.083 715.53 596.333C715.824 596.261 716.131 596.258 716.426 596.324C716.722 596.389 716.998 596.523 717.234 596.713C717.469 596.903 717.658 597.145 717.784 597.42C717.911 597.695 717.972 597.996 717.963 598.298L720.116 597.175H721.145V598.111C714.103 605.318 706.18 611.606 697.562 616.828L698.779 619.074H697.75L695.129 618.138C695.129 618.886 694.1 619.448 691.947 619.635V620.571L694.474 623.753C693.213 623.721 691.972 623.434 690.825 622.91C686.612 623.499 682.756 625.593 679.969 628.806L681.466 622.349C686.272 602.303 689.897 581.992 692.322 561.521V560.398C688.283 557.723 684.711 554.404 681.747 550.572C681.848 549.045 681.848 547.513 681.747 545.986V545.05H680.718C669.176 562.332 646.997 591.81 614.181 633.485C589.226 663.119 576.312 679.59 575.438 682.896C565.238 693.471 560.372 699.835 560.84 701.613C558.126 703.391 557.003 705.075 557.471 707.04C557.317 707.098 557.154 707.121 556.99 707.108C556.827 707.096 556.669 707.048 556.526 706.967C556.383 706.887 556.26 706.777 556.165 706.644C556.069 706.511 556.004 706.359 555.973 706.198C553.837 709.678 551.006 712.679 547.657 715.014C544.307 717.349 540.512 718.967 536.508 719.767L527.15 721.826C526.856 721.87 526.574 721.975 526.322 722.133C526.07 722.291 525.854 722.5 525.687 722.746C525.52 722.993 525.405 723.271 525.351 723.564C525.297 723.856 525.304 724.157 525.372 724.446V725.569L528.741 724.821V725.757L521.067 728.751L507.498 731.933H500.386C499.356 732.962 506.094 731.933 503.474 732.495L494.116 734.553C488.688 735.77 485.787 735.302 484.758 733.15H483.728C483.897 733.889 483.897 734.656 483.728 735.396L483.167 733.243L476.055 734.928C475.556 731.621 465.917 719.58 447.138 698.805C447.138 694.781 453.408 688.979 466.977 681.399L506.001 648.365C514.548 637.384 519.633 619.76 521.255 595.491L520.693 589.783C519.196 572.657 506.843 558.901 483.26 548.232C469.504 538.874 444.705 533.914 408.957 533.166C369.161 538.442 330.256 549.05 293.29 564.703C278.95 574.941 264.013 584.316 248.558 592.777V595.772C250.162 595.498 251.692 594.892 253.05 593.994C253.423 593.893 253.815 593.88 254.195 593.955C254.575 594.03 254.932 594.192 255.239 594.427C255.547 594.662 255.796 594.965 255.968 595.311C256.14 595.658 256.23 596.04 256.231 596.427L259.226 594.742H260.723V596.146C251.262 605.417 240.776 613.58 229.467 620.477L231.151 623.098H229.841L226.66 621.975C226.66 622.817 225.256 623.472 222.168 623.753V625.344L225.63 629.18C224.025 629.166 222.438 628.849 220.951 628.245C216.766 629.113 212.819 630.876 209.378 633.411C205.938 635.947 203.086 639.197 201.018 642.937L202.703 645.557C205.62 642.441 208.997 639.79 212.716 637.696V642.001C211.129 642.335 209.61 642.936 208.224 643.779L211.78 649.207C218.55 642.044 226.19 635.757 234.52 630.491C238.638 631.52 240.79 632.83 240.884 634.234H244.066C264.31 618.769 286.857 606.58 310.883 598.111V601.106C306.765 607.345 303.989 610.464 302.554 610.464C302.655 612.489 303.41 614.427 304.707 615.985C305.081 619.729 295.068 644.996 274.667 691.786C229.249 800.029 190.693 880.166 159 932.198C159.291 933.727 159.932 935.168 160.872 936.409C166.099 935.554 171.098 933.643 175.564 930.794H177.248V933.789H180.149L183.144 932.104C183.144 932.946 184.173 933.414 186.232 933.227V936.222C185.846 941.011 184.163 945.604 181.366 949.51C176.677 956.33 173.253 963.938 171.259 971.97V973.374H174.16C185.558 960.999 195.194 947.112 202.796 932.104C231.842 924.356 260.054 913.761 287.02 900.474C303.014 900.028 318.491 894.705 331.377 885.22V883.629L324.078 885.781H322.394V884.19C332.885 883.473 343.055 880.265 352.059 874.832C379.884 853.371 400.909 838.179 415.133 829.258C444.33 807.797 463.296 786.897 472.031 766.558L476.897 765.435C479.235 765.564 481.578 765.564 483.915 765.435C483.915 764.687 483.916 764.219 484.851 764.032C491.402 763.376 488.22 764.032 492.431 763.47L503.1 759.352H504.971L504.129 759.914C505.458 760.169 506.824 760.169 508.153 759.914L508.902 763.096L459.21 842.172L448.167 856.022L442.74 874.177H443.769L449.197 871.931L447.419 878.95L447.98 881.009L449.477 882.88C448.822 882.88 448.542 883.535 448.729 884.284V885.407L450.975 884.845C454.281 881.976 455.685 879.355 455.186 876.985C457.506 877.582 459.913 877.772 462.298 877.546V878.669C460.146 879.231 459.023 880.915 458.836 883.91V885.033H460.052C478.207 865.193 522.658 797.534 558.313 751.492C557.19 746.501 575.906 739.576 614.462 730.716H615.678C617.051 736.955 613.932 751.523 606.32 774.419C603.562 781.656 601.524 789.148 600.237 796.785C596.472 806.552 593.59 816.637 591.628 826.918L577.965 871.65C569.021 895.028 562.255 919.181 557.751 943.802C558.986 943.55 560.26 943.55 561.495 943.802L563.46 942.117C563.49 942.278 563.556 942.43 563.651 942.563C563.747 942.696 563.87 942.807 564.013 942.887C564.155 942.967 564.314 943.015 564.477 943.028C564.64 943.04 564.804 943.017 564.957 942.96L564.209 939.778H570.104C571.882 939.778 573.286 937.158 574.596 933.134C574.596 927.144 575.532 923.775 578.246 923.214C579.627 915.736 581.888 908.449 584.984 901.503C586.421 893.093 588.97 884.91 592.564 877.172C597.711 858.455 601.922 849.097 603.887 848.536L604.449 850.782L600.705 860.14C595.844 883.598 589.212 906.654 580.866 929.11L582.831 937.438H584.048C600.269 902.564 623.602 833.5 654.047 730.249C654.383 725.957 655.738 721.808 658.001 718.145C660.263 714.483 663.367 711.414 667.055 709.193L665.277 707.321V706.385C668.129 705.945 670.724 704.481 672.576 702.268C672.576 701.519 669.394 700.302 663.218 698.805L678.378 633.298C680.054 631.494 682.014 629.977 684.18 628.806V632.081C682.958 632.316 681.805 632.829 680.811 633.579L683.806 637.696C688.901 632.126 694.651 627.193 700.931 623.004C704.113 623.846 705.61 624.969 705.798 625.999H708.044C723.402 614.369 740.484 605.212 758.671 598.86V601.012C755.614 605.629 753.524 607.969 752.401 608.031C752.525 609.527 753.006 610.971 753.805 612.242C747.797 632.014 740.256 651.288 731.252 669.888C705.889 732.744 676.474 793.888 643.191 852.934C643.481 854.099 644.024 855.185 644.782 856.116C648.695 855.47 652.427 854.003 655.731 851.811H656.761V853.963H659.194L661.346 852.84C661.346 853.464 662.126 853.714 663.686 853.589V855.929C663.361 859.514 662.067 862.943 659.943 865.848C656.232 870.968 653.532 876.749 651.988 882.88V884.003H654.234C662.889 874.61 670.196 864.059 675.945 852.653C698.026 846.616 719.465 838.436 739.955 828.229C752.167 827.912 763.99 823.862 773.831 816.624V815.501L768.123 817.186H767.094V816.063C775.046 815.48 782.746 813.01 789.553 808.857C810.609 792.668 826.986 780.783 837.467 774.232C870.969 749.994 886.691 726.225 884.819 703.203ZM879.017 704.701L879.766 713.497C878.736 715.65 877.613 716.773 876.584 716.866L875.274 701.893C877.707 702.736 878.924 703.671 879.017 704.701ZM218.799 634.14H217.301V631.426L223.291 630.865V632.269C221.718 632.552 220.22 633.157 218.892 634.047L218.799 634.14ZM189.414 927.799C186.517 926.345 183.293 925.668 180.056 925.834V921.529C180.056 919.845 180.805 918.722 182.957 918.348C185.109 917.973 186.045 919.564 186.139 922.372C188.599 918.985 191.389 915.85 194.467 913.013L197.649 914.324C196.62 923.027 193.906 927.519 189.601 927.799H189.414ZM503.38 599.328C501.883 599.328 498.889 594.836 494.677 585.759V583.045C497.485 583.045 500.386 587.349 503.38 596.614V599.328ZM499.169 566.761L497.953 569.662L455.28 551.882C483.728 552.818 498.358 557.778 499.169 566.761ZM318.837 721.92L312.848 722.481V719.767L318.837 719.206V721.92ZM313.971 629.087H315.469V633.392C314.065 633.392 312.287 635.544 309.947 639.568V636.573C312.661 633.392 314.065 630.865 313.878 629.18L313.971 629.087ZM301.338 658.939L301.899 664.648H300.402L300.121 658.752L301.338 658.939ZM294.693 669.608H297.594C297.594 674.287 296.004 676.813 293.664 677.001H292.167C293.677 674.888 294.553 672.388 294.693 669.795V669.608ZM290.014 684.487H291.699V685.891L288.985 690.383H286.084V688.979C286.67 689.024 287.259 688.93 287.803 688.705C288.346 688.48 288.829 688.129 289.212 687.683C289.594 687.236 289.867 686.706 290.006 686.134C290.146 685.563 290.148 684.966 290.014 684.394V684.487ZM285.148 697.869L284.306 704.981H282.809L282.153 697.963H285.148V697.869ZM236.205 836.557C234.24 845.915 232.181 851.25 230.028 851.437V850.033C229.873 847.443 230.364 844.855 231.459 842.502C232.554 840.149 234.217 838.106 236.298 836.557H236.205ZM226.847 856.022V857.426C226.952 857.816 226.963 858.225 226.878 858.619C226.793 859.014 226.615 859.382 226.359 859.694C226.102 860.005 225.775 860.251 225.404 860.41C225.033 860.569 224.629 860.637 224.226 860.608V859.204C224.226 857.52 225.1 856.459 226.847 856.022ZM224.226 896.356H228.718V897.947C227.114 898.221 225.584 898.826 224.226 899.725H221.325C221.325 898.228 222.074 897.105 223.946 896.543L224.226 896.356ZM353.276 856.49C337.424 863.359 322.363 871.925 308.356 882.038C281.093 891.646 267.586 897.541 267.835 899.725C251.299 905.942 235.144 913.129 219.454 921.249C216.676 921.207 213.948 920.501 211.499 919.19C211.324 916.739 211.858 914.289 213.036 912.132C214.214 909.975 215.987 908.202 218.144 907.024C222.337 906.698 226.546 907.405 230.403 909.083C238.003 905.677 245.938 903.073 254.079 901.316V898.321L244.721 899.07C252.944 893.969 261.738 889.854 270.924 886.811H275.416V888.214C267.648 888.869 263.344 891.209 262.408 895.233C262.408 897.105 263.624 897.853 265.59 897.666C271.392 894.016 274.293 891.864 274.199 891.209C285.242 889.088 315.843 873.085 366.003 843.202V845.915C366.003 847.226 361.791 850.875 353.182 857.145L353.276 856.49ZM276.351 881.757C283.431 881.19 290.072 878.102 295.068 873.054C297.127 873.054 298.249 873.709 298.343 875.487C291.033 877.429 284.104 880.593 277.849 884.845H276.351V881.944V881.757ZM400.909 786.491L362.447 816.999C347.722 827.441 332.273 836.823 316.217 845.073C270.674 870.028 242.381 883.036 231.339 884.097H229.654C231.027 878.981 251.303 837.462 290.482 759.54C318.575 755.018 345.969 746.904 371.992 735.396L381.35 734.647C388.716 733.331 396.278 733.611 403.527 735.468C410.776 737.324 417.542 740.714 423.368 745.409L423.93 751.117C417.005 771.05 409.331 782.748 401.096 786.21L400.909 786.491ZM326.043 744.192L332.22 743.631V745.034L326.043 745.596V744.192ZM412.419 729.5H416.911C421.122 731.465 423.275 733.243 423.462 734.834V736.238C421.187 736.204 418.963 735.561 417.021 734.376C415.078 733.191 413.489 731.507 412.419 729.5ZM424.678 659.501C414.682 668.918 403.628 677.146 391.738 684.019C385.842 684.581 363.663 693.377 325.575 709.848C323.671 708.984 321.575 708.629 319.493 708.818V706.105C319.7 698.572 322.288 691.299 326.885 685.329C329.88 669.608 333.062 660.624 336.244 658.471L368.061 586.881C367.687 582.452 374.487 579.052 388.462 576.681H392.954V580.799C406.617 578.74 415.227 577.523 418.502 577.243C443.769 575.09 456.964 580.237 457.993 592.496H460.894L460.239 585.291H463.421C466.509 586.562 469.225 588.593 471.319 591.194C473.413 593.795 474.816 596.882 475.4 600.17C475.107 605.745 472.814 611.028 468.942 615.05C466.977 615.05 465.854 613.833 465.761 611.026H462.579L461.924 619.729C449.134 638.882 439.776 648.739 433.849 649.3C428.609 656.506 425.427 660.156 424.491 660.156L424.678 659.501ZM444.237 709.661C442.445 708.228 440.256 707.379 437.967 707.227V702.923H440.868L447.231 706.666C447.337 707.055 447.348 707.465 447.263 707.859C447.178 708.254 447 708.622 446.743 708.934C446.487 709.245 446.159 709.491 445.788 709.65C445.417 709.809 445.014 709.877 444.611 709.848L444.237 709.661ZM464.451 733.617C467.258 734.74 468.942 735.957 469.223 737.08H466.977L464.918 738.764L464.357 732.962L464.451 733.617ZM466.322 745.69V744.567L469.972 743.724V744.847L466.322 745.69ZM475.119 755.516C478.862 754.86 480.734 754.673 487.659 753.082V754.205L474.37 757.294C474.4 756.701 474.4 756.108 474.37 755.516H475.119ZM488.033 761.037C483.545 761.133 479.084 761.761 474.744 762.909V761.786L485.881 758.229L491.215 757.013L491.776 759.072C489.343 759.633 491.121 759.633 488.314 761.037H488.033ZM499.824 758.229C499.511 758.313 499.184 758.334 498.862 758.29C498.541 758.245 498.231 758.137 497.952 757.971C497.673 757.806 497.43 757.586 497.238 757.325C497.045 757.064 496.906 756.767 496.83 756.451L500.199 755.703C500.5 755.584 500.825 755.539 501.147 755.569C501.47 755.6 501.78 755.706 502.054 755.879C502.327 756.053 502.556 756.288 502.721 756.566C502.887 756.844 502.984 757.158 503.006 757.481L499.824 758.229ZM531.736 723.885V722.762L537.257 721.452L537.819 723.511H532.016L531.736 723.885ZM565.799 932.946C566.034 931.804 566.034 930.626 565.799 929.484H567.016C567.297 929.366 567.603 929.315 567.907 929.335C568.212 929.355 568.508 929.446 568.771 929.6C569.034 929.755 569.258 929.968 569.425 930.224C569.591 930.48 569.696 930.771 569.73 931.075V932.198L565.238 933.227L565.799 932.946ZM590.224 732.775H587.791C584.572 734.116 581.256 735.211 577.871 736.051L575.626 736.612C575.331 736.712 575.019 736.749 574.709 736.722C574.399 736.695 574.098 736.604 573.826 736.454C573.553 736.304 573.314 736.1 573.125 735.853C572.935 735.607 572.799 735.323 572.724 735.021L588.446 731.278L593.687 728.845L595.465 730.81C593.494 731.085 591.626 731.858 590.037 733.056L590.224 732.775ZM602.483 728.845V727.722C603.643 727.353 604.679 726.673 605.478 725.757L616.801 723.136V724.259C611.909 725.344 607.119 726.847 602.483 728.751V728.845ZM604.261 705.917C603.079 706.352 601.997 707.02 601.08 707.883C601.08 707.134 599.302 707.134 596.401 707.883C595.839 705.73 604.261 702.642 621.574 698.524L624.007 697.963L624.569 700.022C612.403 703.578 605.852 705.637 604.261 705.824V705.917ZM634.769 672.977C633.553 686.827 628.686 694.688 620.077 696.653V695.53L612.403 698.524L609.034 699.273C607.505 699.71 605.884 699.71 604.355 699.273L603.7 696.185C613.852 680.2 624.978 664.855 637.015 650.236H639.635C639.972 657.945 638.43 665.621 635.143 672.602L634.769 672.977ZM688.766 626.747H687.736V624.595H692.228V625.718C691.051 626.044 689.92 626.515 688.859 627.122L688.766 626.747ZM666.306 850.033C664.146 848.898 661.726 848.349 659.288 848.442V845.167C659.288 844.044 659.974 843.264 661.346 842.827C662.844 842.827 663.686 843.67 663.873 846.009C665.654 843.355 667.76 840.934 670.143 838.803L672.483 839.739C671.64 846.383 669.582 849.846 666.493 850.127L666.306 850.033ZM904.659 600.264C903.536 600.264 901.383 596.895 897.921 589.783V587.63C900.073 587.63 902.413 590.812 904.659 597.831V600.264ZM901.477 575.371L900.447 577.617L868.162 564.141C889.685 564.796 900.822 568.633 901.477 575.371ZM764.754 693.19H760.262V691.038H764.754V693.19ZM761.011 622.63H762.227V625.905C761.104 625.905 759.701 627.465 758.016 630.584V628.432C759.594 626.869 760.614 624.83 760.917 622.63H761.011ZM751.653 645.276V649.581H750.436V645.276H751.653ZM746.506 653.418H748.752C748.752 657.099 747.785 659.002 745.851 659.127H744.634C745.74 657.417 746.385 655.451 746.506 653.418ZM742.856 664.554H743.885V665.771L741.92 669.233H739.674V668.11C742.014 668.11 743.043 666.707 742.856 664.554ZM739.019 675.129L738.27 680.744H737.147V675.223H739.393L739.019 675.129ZM701.586 780.876C700.089 788.176 698.529 791.919 696.907 792.106V791.17C696.83 789.199 697.223 787.238 698.052 785.448C698.882 783.658 700.126 782.091 701.68 780.876H701.586ZM694.661 795.569V796.504C694.755 796.812 694.771 797.139 694.709 797.454C694.646 797.77 694.507 798.066 694.304 798.315C694.101 798.565 693.839 798.761 693.543 798.885C693.246 799.01 692.923 799.06 692.603 799.031V797.908C692.603 796.785 693.289 796.005 694.661 795.569ZM693.164 825.889H696.627V827.012C695.433 827.241 694.292 827.685 693.258 828.322H691.012C691.012 827.074 691.698 826.295 693.07 825.983L693.164 825.889ZM791.05 795.662C779.071 800.973 767.632 807.429 756.893 814.94C735.931 822.239 725.637 826.825 725.73 828.603C713.252 833.229 701.064 838.604 689.234 844.699C687.134 844.609 685.083 844.032 683.244 843.014C683.037 841.126 683.41 839.219 684.312 837.548C685.215 835.876 686.605 834.519 688.298 833.656C691.485 833.355 694.697 833.837 697.656 835.06C703.482 832.566 709.529 830.623 715.717 829.258V827.106L708.699 827.761C714.981 823.861 721.703 820.72 728.725 818.402H732.188V819.338C726.292 819.9 722.829 821.584 722.268 824.766C722.259 825.069 722.321 825.369 722.447 825.644C722.574 825.919 722.762 826.161 722.998 826.352C723.233 826.542 723.509 826.675 723.805 826.741C724.1 826.807 724.407 826.803 724.701 826.731C729.099 823.83 731.158 822.239 731.158 821.678C739.518 820.181 762.726 808.015 800.783 785.181V787.333C800.783 788.176 797.601 790.983 791.425 795.756L791.05 795.662ZM732.656 814.378C738.108 813.957 743.24 811.639 747.161 807.828C748.658 807.828 749.5 808.389 749.594 809.793C744.106 811.2 738.867 813.441 734.059 816.437H732.843V814.378H732.656ZM826.986 741.946L797.975 765.342C786.715 773.57 774.86 780.952 762.508 787.427C728.008 806.143 706.515 816.001 698.03 816.999H696.814C697.874 813.068 713.315 781.563 743.137 722.481C764.466 718.89 785.252 712.601 804.994 703.765L812.013 703.203C817.603 702.211 823.342 702.442 828.835 703.88C834.327 705.317 839.443 707.928 843.831 711.532V715.837C838.871 731.278 833.537 739.7 826.799 742.321L826.986 741.946ZM769.995 709.848H774.487V710.971H769.995V709.848ZM835.97 698.618H839.432C842.614 700.209 844.298 701.613 844.392 702.736V703.671C842.671 703.737 840.965 703.326 839.462 702.483C837.96 701.641 836.719 700.401 835.876 698.899L835.97 698.618ZM845.328 645.557C837.789 652.746 829.435 659.028 820.435 664.274C803.068 669.624 786.167 676.385 769.901 684.487C768.433 683.96 766.873 683.737 765.316 683.832V681.68C765.354 675.959 767.187 670.394 770.556 665.771C772.802 653.699 775.329 647.054 777.949 645.464L802.374 590.905C802.374 587.724 807.24 585.103 817.721 583.045H821.184V586.32C831.478 584.636 837.935 583.669 840.555 583.419C859.271 581.735 869.753 585.571 870.595 595.023H872.841V589.783H875.087C877.477 590.643 879.599 592.115 881.242 594.053C882.884 595.991 883.989 598.326 884.445 600.825C884.3 605.05 882.677 609.09 879.859 612.242C878.362 612.242 877.52 611.4 877.333 609.06H875.087L874.432 615.611C863.951 629.835 856.932 637.696 852.253 637.696C848.322 643.03 845.889 645.744 844.766 645.838L845.328 645.557ZM855.528 681.867V678.591H857.774L862.64 681.586C862.681 681.879 862.657 682.177 862.572 682.46C862.487 682.744 862.342 683.005 862.146 683.227C861.951 683.449 861.71 683.626 861.44 683.747C861.17 683.867 860.877 683.928 860.582 683.926C859.196 682.87 857.543 682.221 855.809 682.054L855.528 681.867ZM449.29 894.016L447.044 894.578L445.079 896.262C445.113 896.566 445.218 896.857 445.384 897.113C445.551 897.369 445.775 897.582 446.038 897.737C446.301 897.891 446.597 897.982 446.902 898.002C447.206 898.023 447.512 897.972 447.793 897.853C449.29 897.853 449.852 896.637 449.571 895.233V894.11L449.29 894.016ZM440.494 876.797V877.92C441.991 877.92 442.552 876.704 442.272 875.3V874.177C441.971 874.206 441.68 874.302 441.42 874.456C441.16 874.61 440.938 874.82 440.768 875.07C440.598 875.32 440.486 875.605 440.438 875.903C440.391 876.202 440.41 876.507 440.494 876.797ZM502.257 760.85L503.942 759.82H503.1C502.842 759.887 502.62 760.051 502.48 760.278C502.34 760.505 502.294 760.777 502.351 761.037L502.257 760.85ZM502.257 730.81L504.878 730.155L504.316 727.909L501.696 728.564L502.257 730.81ZM1118.49 818.87L1112.6 818.215L1111.57 820.461V821.584L1146.85 818.59V816.437L1118.77 818.87H1118.49ZM1298.64 796.785V798.938L1302.47 799.593V797.44L1298.64 796.785ZM1293.21 796.785C1281.68 799.996 1269.8 801.787 1257.84 802.119V804.272H1261.58L1264.48 803.149C1290.68 800.248 1293.77 801.277 1293.49 798.376V796.785H1293.21ZM1134.12 758.229L1131.78 757.481C1130.46 760.471 1129.52 763.615 1128.97 766.839V767.775C1130.85 767.775 1132.44 764.593 1134.03 758.417L1134.12 758.229ZM1102.21 741.01V740.636H1100.99L1098.84 742.04L1100.06 744.099C1101.74 744.099 1102.49 743.163 1102.3 741.666L1102.21 741.01ZM1171.55 812.694V810.542H1170.43V812.694H1171.55ZM1315.39 780.221H1317.07C1318.01 780.221 1318.48 779.379 1318.38 777.975L1317.45 775.916C1312.67 775.89 1307.97 777.082 1303.78 779.379V778.256L1296.58 778.911C1296.58 776.759 1295.83 775.636 1294.8 775.729H1291.06C1286.66 775.729 1284.6 775.729 1282.45 777.601C1282.45 776.852 1282.45 776.478 1281.7 776.478H1277.49L1275.05 777.882C1275.05 777.133 1275.05 776.759 1274.31 776.759L1272.81 778.069H1265.6V780.221L1268.6 780.97H1271.41C1272.36 781.532 1273.48 781.763 1274.59 781.625L1277.02 780.408V781.344C1269.45 783.313 1261.76 784.782 1254 785.742C1253.34 785.188 1252.52 784.86 1251.66 784.807C1251.41 784.795 1251.17 784.734 1250.95 784.629C1250.73 784.524 1250.53 784.375 1250.36 784.193C1250.2 784.01 1250.07 783.797 1249.99 783.565C1249.9 783.333 1249.87 783.087 1249.88 782.841L1254.75 782.186C1255.82 782.529 1256.92 782.81 1258.02 783.029C1261.95 781.063 1262.14 780.315 1264.2 780.128V777.975C1255.99 779.485 1247.66 780.268 1239.31 780.315H1238.56V778.162C1260.18 775.542 1252.97 777.039 1260.36 774.981C1260.36 775.729 1260.36 776.104 1261.11 776.104C1261.91 775.279 1262.97 774.751 1264.11 774.606H1265.6C1274.08 774.866 1282.55 773.76 1290.68 771.331V772.267L1293.12 771.05H1295.36C1295.36 768.898 1298.54 768.523 1299.67 768.43V766.09C1273.37 771.424 1266.45 769.927 1259.15 771.986V771.05C1256.08 771.76 1252.93 772.012 1249.79 771.799C1248.95 772.052 1248.2 772.539 1247.64 773.203C1247.64 772.454 1247.64 772.08 1246.79 772.08L1224.43 775.729C1224.43 775.074 1224.43 774.793 1223.58 774.887C1215.78 777.174 1207.74 778.617 1199.63 779.192C1198.58 779.382 1197.59 779.797 1196.73 780.408C1196.73 779.753 1196.73 779.473 1195.51 779.566L1186.15 780.315L1179.79 781.906C1179.79 781.251 1179.79 780.97 1178.57 781.063C1175.52 781.949 1172.38 782.544 1169.21 782.841C1167.62 782.841 1169.96 782.841 1169.21 781.906L1167.25 783.029H1156.39C1139.55 785.087 1141.42 785.368 1139.55 785.462H1133.28C1133.31 785.595 1133.31 785.734 1133.27 785.867C1133.24 786 1133.17 786.122 1133.08 786.224C1132.99 786.325 1132.87 786.402 1132.75 786.449C1132.62 786.496 1132.48 786.51 1132.34 786.491C1125.23 785.555 1121.49 784.432 1121.49 783.122C1122.42 776.322 1124.08 772.828 1126.45 772.641H1127.66L1126.63 774.887H1127.85C1130.1 773.67 1131.13 772.547 1131.03 771.518V769.179H1128.79V767.026C1128.58 765.528 1128.8 764 1129.44 762.628L1134.59 754.299V756.451H1137.02V754.299L1135.62 752.334C1136.82 751.103 1138.35 750.228 1140.02 749.807V748.684H1136.74V745.409C1140.96 737.863 1144.11 729.769 1146.1 721.358L1148.44 722.294C1149.94 722.294 1150.59 721.358 1150.5 719.767H1148.25V718.832C1148.09 717.254 1148.38 715.663 1149.09 714.246C1150.69 712.817 1151.96 711.054 1152.8 709.08C1153.64 707.107 1154.04 704.973 1153.96 702.829C1154.62 702.829 1154.99 702.829 1155.08 703.859C1158.17 702.08 1160.51 697.495 1162.2 689.821C1171.29 670.903 1179.01 651.357 1185.31 631.333C1204.49 579.676 1204.03 574.248 1206.37 561.989H1204.12C1204.29 563.536 1204 565.1 1203.28 566.481C1202.13 565.957 1200.89 565.67 1199.63 565.638V564.703C1199.72 558.886 1201.73 553.263 1205.34 548.7H1206.37L1208.33 556.187H1210.58C1210.95 553.03 1211.55 549.903 1212.36 546.829C1212.36 545.706 1211.42 544.957 1209.64 544.863L1207.49 546.267V534.101H1206.37C1204.85 532.896 1203.8 531.213 1203.37 529.329L1190.92 530.545C1190.69 529.192 1190.22 527.893 1189.52 526.708C1189.52 525.586 1192.24 524.463 1197.94 523.34L1200.47 524.275L1202.81 522.872C1202.81 523.62 1203.37 523.995 1204.21 523.901L1206.55 522.497C1206.55 523.246 1207.11 523.62 1207.96 523.527H1209.08V521H1195.42L1193.08 522.591V521.187C1134.56 525.991 1101.34 528.767 1093.41 529.516H1081.06C1081.06 530.452 1080.31 531.013 1078.53 531.2L1076.01 530.077L1067.49 532.23C1064.13 532.531 1060.75 532.531 1057.38 532.23C1056.02 533.319 1054.35 533.971 1052.61 534.101L1077.6 532.511C1075.8 533.731 1073.69 534.413 1071.51 534.476C1069.81 534.707 1068.08 534.413 1066.55 533.634C1060.42 535.521 1054.17 536.991 1047.84 538.032L1045.31 537.096L1004.51 543.366C1002.78 542.577 1000.87 542.285 998.989 542.524C995.312 543.005 991.682 543.788 988.133 544.863L968.388 553.099L969.885 555.532C971.319 555.274 972.687 554.733 973.909 553.941L980.928 554.596L980.085 561.147C977.108 561.689 974.32 562.99 971.992 564.924C969.664 566.859 967.875 569.361 966.797 572.189C957.439 576.494 952.292 579.489 952.292 581.547V582.67H953.789L956.409 581.267L959.497 584.916V589.97C959.497 591.529 943.245 625.843 910.741 692.909C882.667 757.481 867.694 792.761 866.29 799.125C856.932 801.839 851.036 805.769 849.352 811.009C849.352 812.694 852.44 813.817 857.961 814.191V816.718L855.435 820.929V825.983C855.435 828.603 862.484 830.599 876.584 831.972C876.584 831.13 876.584 830.568 877.894 830.474C877.799 836.798 876.919 843.085 875.274 849.191H876.771C881 844.687 883.857 839.071 885.006 833.001H886.223C887.627 833.001 889.124 834.498 890.809 837.867C889.062 838.554 882.823 852.435 872.092 879.511L873.589 881.944H875.087C887.876 849.503 895.924 831.566 899.231 828.135C916.076 826.638 945.179 823.518 986.543 818.777L989.163 817.186C989.153 817.383 989.191 817.579 989.274 817.758C989.357 817.936 989.482 818.092 989.639 818.212C989.795 818.331 989.979 818.411 990.173 818.445C990.367 818.478 990.566 818.463 990.754 818.402H993.468L996.088 816.812C996.078 817.008 996.117 817.204 996.199 817.383C996.282 817.562 996.407 817.718 996.564 817.837C996.72 817.957 996.904 818.037 997.098 818.07C997.292 818.103 997.491 818.089 997.679 818.028L1030.06 814.285C1038.39 813.63 1042.22 811.103 1041.94 806.798C1041.94 805.675 1046.72 804.365 1056.64 802.962C1058.1 802.945 1059.56 803.199 1060.94 803.71C1060.94 802.961 1065.81 802.119 1075.73 801.277C1075.73 796.036 1077.6 793.229 1080.59 792.948V790.422C1077.4 790.79 1074.26 791.512 1071.23 792.574C1067.04 792.521 1062.87 792.019 1058.79 791.077C1057.56 791.857 1056.19 792.396 1054.76 792.667L1032.96 793.323L1030.34 794.726C1030.34 793.915 1029.81 793.572 1028.75 793.697H1027.53L1024.72 795.101C1024.72 794.352 1022.38 793.697 1017.8 793.135L1014.99 794.82H1009.56V793.978C1037.64 790.921 1051.49 787.115 1051.11 782.561C1051.48 782.472 1051.87 782.471 1052.24 782.559C1052.61 782.647 1052.96 782.821 1053.25 783.067C1053.54 783.313 1053.77 783.624 1053.92 783.975C1054.07 784.326 1054.13 784.707 1054.11 785.087L1062.34 783.029V780.502L995.152 782.374C995.152 783.216 995.152 783.777 993.842 783.871L985.607 783.216C983.717 783.327 981.899 783.976 980.366 785.087L977.278 783.964C970.951 784.357 964.68 785.392 958.562 787.053C952.333 786.562 946.074 786.562 939.845 787.053L924.779 788.363L916.824 787.427C916.824 782.935 925.153 761.13 942.934 721.92C945.567 712.597 950.526 704.096 957.345 697.214C958.838 697.235 960.309 697.587 961.65 698.244L972.412 694.594L977.933 695.436C988.999 694.224 999.856 691.549 1010.22 687.482C1012.58 687.146 1014.98 687.37 1017.24 688.137L1025.47 686.172L1049.62 684.487C1061.12 683.395 1072.48 681.073 1083.49 677.562V675.035C1079 675.035 1076.57 675.035 1076.47 672.883C1076.47 669.514 1072.92 668.11 1066.55 668.578V666.052L1073.29 664.086L1090.89 662.589V660.062H1080.03V657.348L1086.86 656.693C1088.73 656.693 1089.48 655.664 1089.3 653.886C1079.94 653.886 1075.54 653.886 1075.45 652.482C1011.62 655.602 979.617 656.194 979.43 654.26C977.982 654.575 976.614 655.179 975.406 656.038L973.722 653.418C990.629 617.483 1000.55 599.39 1003.48 599.141C1003.31 601.513 1002.61 603.816 1001.42 605.879V607.002H1004.14C1010.87 590.999 1016.49 582.67 1021.26 582.296C1041.29 580.518 1018.45 579.208 1061.41 572.938C1062.59 573.585 1063.9 573.939 1065.24 573.967C1082.09 570.536 1105.55 566.98 1135.62 563.299V560.772L1119.62 562.27V559.743C1121.36 559.612 1123.02 558.96 1124.39 557.871V559.275C1125.72 558.956 1126.97 558.349 1128.04 557.497C1130.19 557.139 1132.39 557.399 1134.4 558.245C1138.82 557.009 1143.32 556.102 1147.88 555.532L1157.89 554.596C1160.32 553.005 1161.45 551.601 1161.35 550.291V549.168C1158.41 549.392 1155.45 549.203 1152.56 548.607C1152.52 548.274 1152.54 547.938 1152.64 547.616C1152.73 547.295 1152.88 546.995 1153.09 546.734C1153.3 546.473 1153.56 546.255 1153.85 546.095C1154.15 545.935 1154.47 545.834 1154.8 545.799L1173.52 544.021L1182.03 541.869C1182.03 542.805 1182.6 543.179 1183.25 543.179C1184.58 542.86 1185.83 542.253 1186.9 541.401H1188.3C1186.79 544.698 1185.54 548.109 1184.56 551.601H1182.13C1182 550.018 1181.52 548.483 1180.72 547.109H1179.51C1156.86 610.277 1146.75 639.662 1125.79 688.137C1121.96 700.49 1118.77 707.415 1115.97 708.912C1115.96 709.215 1116.02 709.515 1116.15 709.79C1116.27 710.065 1116.46 710.307 1116.7 710.497C1116.93 710.688 1117.21 710.821 1117.5 710.887C1117.8 710.953 1118.11 710.949 1118.4 710.877C1118.88 717.199 1117.38 723.514 1114.09 728.938C1104.74 757.013 1098 772.08 1094.63 774.887L1095.57 787.427C1095.61 787.72 1095.58 788.018 1095.5 788.301C1095.41 788.584 1095.27 788.846 1095.07 789.068C1094.88 789.29 1094.63 789.467 1094.36 789.588C1094.09 789.708 1093.8 789.769 1093.51 789.766H1091.26C1091.26 786.117 1089.58 784.339 1087.24 784.619H1086.02C1082.88 789.566 1080.6 795.008 1079.28 800.716H1081.53C1082.83 800.071 1083.92 799.068 1084.66 797.823C1085.41 796.579 1085.78 795.147 1085.74 793.697H1090.23L1092.85 794.633C1091.08 796.919 1090.07 799.699 1089.95 802.587L1091.17 804.646L1088.17 811.665V812.788C1091.2 812.665 1094.18 813.518 1096.69 815.221C1099.19 814.873 1101.57 813.909 1103.61 812.413H1132.81L1141.23 809.512C1148.2 809.666 1155.16 809.447 1162.1 808.857H1165.75L1167.72 807.547V808.67C1173.46 808.017 1179.26 808.238 1184.94 809.325V810.448H1179.79V812.6C1181.29 812.502 1182.73 811.947 1183.91 811.009C1185.22 811.009 1185.97 811.665 1186.06 813.162C1183.66 813.415 1181.31 813.949 1179.04 814.753L1176.79 814.004C1173.24 814.94 1173.99 815.221 1171.55 815.408L1168 814.753C1168.03 814.878 1168.03 815.008 1168 815.133C1167.97 815.258 1167.91 815.374 1167.83 815.474C1167.75 815.573 1167.64 815.652 1167.53 815.706C1167.41 815.759 1167.28 815.785 1167.16 815.782C1167.14 816.061 1167.18 816.341 1167.29 816.6C1167.39 816.859 1167.55 817.091 1167.76 817.28C1167.97 817.468 1168.21 817.608 1168.48 817.689C1168.75 817.77 1169.03 817.79 1169.31 817.747H1172.96L1191.67 816.063L1198.88 814.472C1198.88 815.127 1198.88 815.408 1199.82 815.314L1203.28 814.004L1209.83 813.443C1214.88 813.443 1214.79 812.694 1225.83 810.916C1225.83 810.261 1225.83 809.98 1226.49 809.887V810.822C1234.11 809.803 1241.64 808.24 1249.04 806.143V806.705C1253.53 805.675 1251 805.956 1252.22 805.02C1252.22 805.769 1252.22 806.143 1252.97 806.143H1256.15V803.804H1248.29C1245.95 804.243 1243.56 804.431 1241.18 804.365L1225.18 805.207V804.084L1234.53 802.868H1237.72L1239.59 801.558V802.681C1252.13 801.651 1256.62 804.74 1314.45 792.387C1317.63 792.387 1317.35 789.486 1319.32 784.058C1318.25 784.15 1317.17 783.922 1316.23 783.403C1310.8 784.722 1305.25 785.537 1299.67 785.836C1298.92 785.836 1298.26 785.181 1297.98 783.871V782.935H1307.34C1310.66 782.582 1313.85 781.496 1316.7 779.753C1316.7 780.502 1314.83 780.97 1315.95 780.876L1315.39 780.221ZM886.036 787.427H881.918C883.289 780.933 885.491 774.642 888.469 768.711H891.183C890.328 775.155 888.597 781.452 886.036 787.427ZM890.996 767.588V766.465C890.996 765.061 891.744 764.125 893.71 763.657V764.78C893.71 766.465 892.961 767.4 890.996 767.588ZM945.835 809.887V811.009L939.003 811.665V810.542L945.835 809.887ZM937.599 809.231C937.599 810.635 935.634 812.226 931.049 813.723L922.72 813.068H920.006V810.542L937.88 808.857L937.599 809.231ZM992.625 555.532H988.508V554.128C988.508 552.724 989.163 551.788 990.941 551.32H992.438L995.246 552.443C995.302 552.801 995.277 553.166 995.174 553.513C995.072 553.86 994.892 554.18 994.65 554.449C994.408 554.717 994.109 554.929 993.775 555.068C993.441 555.207 993.08 555.269 992.719 555.251L992.625 555.532ZM1054.95 543.366H1056.26V545.893H1052.52C1052.48 545.561 1052.51 545.224 1052.6 544.902C1052.69 544.581 1052.85 544.281 1053.05 544.02C1053.26 543.759 1053.52 543.542 1053.82 543.381C1054.11 543.221 1054.43 543.12 1054.76 543.085L1054.95 543.366ZM1039.42 548.794L1033.24 548.139V546.922C1038.51 546.603 1043.73 545.66 1048.77 544.115C1048.77 545.05 1049.71 545.425 1051.3 545.238V547.764H1048.87C1047.17 547.995 1045.44 547.702 1043.91 546.922C1042.48 547.891 1040.85 548.502 1039.14 548.7L1039.42 548.794ZM1047.18 571.347V570.224L1057.2 569.288V570.411L1047.18 571.347ZM1057.57 562.831V561.427H1062.44V562.831H1057.57ZM1058.69 545.706H1057.38L1058.51 542.992L1069.64 541.962V543.366C1065.91 543.805 1062.21 544.556 1058.6 545.612L1058.69 545.706ZM1064.4 569.756V567.229H1069.27C1070.95 567.229 1071.83 568.009 1071.89 569.569L1064.59 570.224L1064.4 569.756ZM1093.97 529.516L1087.7 531.294H1086.21C1082.44 531.628 1078.65 531.628 1074.88 531.294C1083.03 530.733 1090.79 530.171 1093.6 529.703L1093.97 529.516ZM1087.24 557.59V558.713L1078.63 559.462V558.339L1087.24 557.59ZM1101.37 564.328C1101.37 563.299 1099.59 562.55 1096.22 562.27L1087.61 564.703H1080.97C1079.47 563.673 1078.72 562.925 1078.63 562.457H1086.3L1103.52 559.649H1112.32V561.053C1108.56 561.378 1104.86 562.132 1101.27 563.299L1101.37 564.328ZM1190.18 541.401H1192.14C1195.13 538.427 1198.65 536.045 1202.53 534.382C1200.61 545.762 1195.52 556.37 1187.84 564.983L1182.97 561.989C1185.85 555.238 1188.26 548.297 1190.18 541.214V541.401ZM1175.2 567.136H1176.42C1174.74 570.318 1173.24 571.908 1172.02 572.002V568.727C1173.25 568.52 1174.41 568.005 1175.39 567.229L1175.2 567.136ZM1165.84 590.25C1166.59 584.375 1168.92 578.812 1172.58 574.154V575.277C1171.37 583.98 1169.4 588.66 1166.87 588.94V594.462C1165.16 596.426 1164.11 598.883 1163.88 601.48H1162.66L1162.01 593.9C1163.41 593.9 1164.53 592.496 1165.28 590.25H1165.84ZM1162.1 602.79C1161.74 606.02 1160.89 609.176 1159.57 612.149H1158.36V608.873C1160.04 605.036 1161.45 603.071 1162.38 603.071L1162.1 602.79ZM1091.73 806.985V806.05H1093.97V809.325C1092.76 809.325 1091.92 808.67 1091.54 807.173L1091.73 806.985ZM1192.24 809.606C1192.24 808.857 1192.23 808.483 1191.02 808.576L1185.31 809.138V808.015H1185.87L1198.5 806.143V807.266C1196.05 807.08 1193.59 807.669 1191.49 808.951L1192.24 809.606ZM1185.5 806.798C1186.06 806.798 1185.5 807.36 1185.5 807.453C1185.5 807.547 1184.84 807.453 1185.5 806.798ZM1186.15 791.077L1178.67 791.732V790.234L1185.5 789.579L1191.39 788.082C1191.39 788.737 1191.39 789.018 1192.61 788.924C1199.63 787.708 1198.97 787.333 1201.97 787.053C1203.09 787.053 1203.84 787.708 1203.93 789.018L1185.87 790.609L1186.15 791.077ZM1212.36 788.831C1209.92 788.337 1207.44 788.148 1204.96 788.269V787.427L1211.7 786.772V787.427C1211.04 787.427 1213.57 787.427 1212.36 788.55V788.831ZM1212.92 787.614V786.678H1216.57V787.614H1212.92ZM1221.06 786.959V786.023C1222.03 785.769 1222.93 785.288 1223.68 784.619C1224.04 784.567 1224.4 784.59 1224.75 784.686C1225.1 784.782 1225.43 784.95 1225.71 785.179C1225.99 785.407 1226.22 785.692 1226.39 786.014C1226.55 786.337 1226.65 786.691 1226.67 787.053L1221.06 786.959ZM1231.45 785.649V784.526H1235.94V785.649H1231.45ZM1237.62 785.087C1237.62 783.777 1237.62 783.029 1239.21 782.841L1240.71 784.807C1240.68 784.696 1240.68 784.581 1240.7 784.468C1240.71 784.355 1240.76 784.248 1240.82 784.152C1240.88 784.055 1240.96 783.972 1241.05 783.908C1241.15 783.844 1241.25 783.799 1241.37 783.777L1242.49 785.836L1237.62 785.181V785.087ZM1325.03 773.858C1325.68 773.858 1326.06 773.015 1324.37 772.735C1322.69 772.454 1325.21 773.858 1323.53 773.951V774.7L1324.47 774.045L1323.53 774.793L1321.66 777.133L1325.31 775.823V773.67L1325.03 773.858ZM1331.39 778.817H1330.74V780.97H1335.88C1335.88 779.566 1332.42 779.098 1331.3 779.098L1331.39 778.817Z" fill="#F9DC3E"/>
</svg>
