<svg width="1500" height="1500" viewBox="0 0 1500 1500" fill="none" xmlns="http://www.w3.org/2000/svg">
<rect width="1500" height="1500" rx="750" fill="white"/>
<g clip-path="url(#clip0_165_1972)">
<mask id="mask0_165_1972" style="mask-type:luminance" maskUnits="userSpaceOnUse" x="115" y="115" width="1269" height="1269">
<path d="M749.5 1384C399.053 1384 115 1099.95 115 749.5C115 399.053 399.053 115 749.5 115C1099.95 115 1384 399.053 1384 749.5C1384 1099.95 1099.95 1384 749.5 1384Z" fill="white"/>
</mask>
<g mask="url(#mask0_165_1972)">
<path fill-rule="evenodd" clip-rule="evenodd" d="M749.499 749.5L-147.938 743.967L-147.125 710.973L749.499 749.5Z" fill="#FEFEFF"/>
<path fill-rule="evenodd" clip-rule="evenodd" d="M749.499 749.502L-147.277 716.457L-145.907 688.945L749.499 749.502Z" fill="#FDFEFF"/>
<path fill-rule="evenodd" clip-rule="evenodd" d="M749.5 749.501L-146.211 694.477L-144.181 667.016L749.5 749.501Z" fill="#FCFDFF"/>
<path fill-rule="evenodd" clip-rule="evenodd" d="M749.499 749.499L-144.587 672.496L-141.897 645.086L749.499 749.499Z" fill="#FBFCFF"/>
<path fill-rule="evenodd" clip-rule="evenodd" d="M749.5 749.502L-142.404 650.571L-139.054 623.262L749.5 749.502Z" fill="#FAFCFF"/>
<path fill-rule="evenodd" clip-rule="evenodd" d="M749.5 749.501L-139.714 628.742L-135.704 601.484L749.5 749.501Z" fill="#F9FBFF"/>
<path fill-rule="evenodd" clip-rule="evenodd" d="M749.5 749.499L-136.465 606.914L-131.795 579.809L749.5 749.499Z" fill="#F8FAFF"/>
<path fill-rule="evenodd" clip-rule="evenodd" d="M749.5 749.498L-132.709 585.239L-127.379 558.234L749.5 749.498Z" fill="#F7FAFF"/>
<path fill-rule="evenodd" clip-rule="evenodd" d="M749.499 749.497L-128.446 563.665L-122.405 536.762L749.499 749.497Z" fill="#F6F9FF"/>
<path fill-rule="evenodd" clip-rule="evenodd" d="M749.5 749.5L-123.623 542.145L-116.923 515.445L749.5 749.5Z" fill="#F5F8FF"/>
<path fill-rule="evenodd" clip-rule="evenodd" d="M749.5 749.503L-118.243 520.778L-110.933 494.23L749.5 749.503Z" fill="#F4F8FF"/>
<path fill-rule="evenodd" clip-rule="evenodd" d="M749.5 749.501L-112.405 499.559L-104.385 473.215L749.5 749.501Z" fill="#F3F7FF"/>
<path fill-rule="evenodd" clip-rule="evenodd" d="M749.5 749.501L-106.009 478.493L-97.3293 452.352L749.5 749.501Z" fill="#F2F6FF"/>
<path fill-rule="evenodd" clip-rule="evenodd" d="M749.5 749.5L-99.106 457.579L-89.8169 431.641L749.5 749.5Z" fill="#F1F6FF"/>
<path fill-rule="evenodd" clip-rule="evenodd" d="M749.499 749.499L-91.6445 436.817L-81.7463 411.133L749.499 749.499Z" fill="#F0F5FF"/>
<path fill-rule="evenodd" clip-rule="evenodd" d="M749.499 749.498L-83.7261 416.259L-73.2187 390.828L749.499 749.498Z" fill="#EFF4FF"/>
<path fill-rule="evenodd" clip-rule="evenodd" d="M749.5 749.498L-75.2993 395.904L-64.1321 370.777L749.5 749.498Z" fill="#EEF3FF"/>
<path fill-rule="evenodd" clip-rule="evenodd" d="M749.5 749.501L-66.3657 375.806L-54.5894 350.934L749.5 749.501Z" fill="#EDF3FF"/>
<path fill-rule="evenodd" clip-rule="evenodd" d="M749.499 749.501L-56.9756 355.908L-44.5901 331.289L749.499 749.501Z" fill="#ECF2FF"/>
<path fill-rule="evenodd" clip-rule="evenodd" d="M749.5 749.5L-47.0771 336.212L-34.0826 311.949L749.5 749.5Z" fill="#EBF1FF"/>
<path fill-rule="evenodd" clip-rule="evenodd" d="M749.5 749.5L-36.6714 316.822L-23.1185 292.812L749.5 749.5Z" fill="#EAF1FF"/>
<path fill-rule="evenodd" clip-rule="evenodd" d="M749.5 749.5L-25.8086 297.635L-11.6466 274.031L749.5 749.5Z" fill="#E9F0FF"/>
<path fill-rule="evenodd" clip-rule="evenodd" d="M749.5 749.5L-14.4893 278.752L0.231142 255.453L749.5 749.5Z" fill="#E8EFFF"/>
<path fill-rule="evenodd" clip-rule="evenodd" d="M749.5 749.5L-2.71289 260.123L12.6166 237.23L749.5 749.5Z" fill="#E7EFFF"/>
<path fill-rule="evenodd" clip-rule="evenodd" d="M749.499 749.497L9.52002 241.795L25.3571 219.309L749.499 749.497Z" fill="#E6EEFF"/>
<path fill-rule="evenodd" clip-rule="evenodd" d="M749.5 749.501L22.2104 223.831L38.6059 201.699L749.5 749.501Z" fill="#E5EDFF"/>
<path fill-rule="evenodd" clip-rule="evenodd" d="M749.5 749.498L35.3066 206.112L52.2605 184.387L749.5 749.498Z" fill="#E4EDFF"/>
<path fill-rule="evenodd" clip-rule="evenodd" d="M749.5 749.498L48.8594 188.753L66.3208 167.484L749.5 749.498Z" fill="#E3ECFF"/>
<path fill-rule="evenodd" clip-rule="evenodd" d="M749.499 749.499L62.8687 171.749L80.8377 150.887L749.499 749.499Z" fill="#E2EBFF"/>
<path fill-rule="evenodd" clip-rule="evenodd" d="M749.499 749.5L77.2339 155.05L95.7105 134.645L749.499 749.5Z" fill="#E1EBFF"/>
<path fill-rule="evenodd" clip-rule="evenodd" d="M749.5 749.502L92.0054 138.757L110.99 118.809L749.5 749.502Z" fill="#E0EAFF"/>
<path fill-rule="evenodd" clip-rule="evenodd" d="M749.5 749.499L107.183 122.816L126.674 103.324L749.5 749.499Z" fill="#DFE9FF"/>
<path fill-rule="evenodd" clip-rule="evenodd" d="M749.499 749.501L122.816 107.183L142.714 88.25L749.499 749.501Z" fill="#DEE9FF"/>
<path fill-rule="evenodd" clip-rule="evenodd" d="M749.5 749.498L138.755 92.004L159.161 73.5273L749.5 749.498Z" fill="#DDE8FF"/>
<path fill-rule="evenodd" clip-rule="evenodd" d="M749.5 749.5L155.049 77.2347L175.912 59.2656L749.5 749.5Z" fill="#DCE7FF"/>
<path fill-rule="evenodd" clip-rule="evenodd" d="M749.499 749.498L171.749 62.8677L193.017 45.4062L749.499 749.498Z" fill="#DBE7FF"/>
<path fill-rule="evenodd" clip-rule="evenodd" d="M749.5 749.5L188.754 48.8601L210.479 31.957L749.5 749.5Z" fill="#DAE6FF"/>
<path fill-rule="evenodd" clip-rule="evenodd" d="M749.5 749.499L206.114 35.3056L228.245 18.9102L749.5 749.499Z" fill="#D9E5FF"/>
<path fill-rule="evenodd" clip-rule="evenodd" d="M749.5 749.501L223.829 22.2121L246.316 6.375L749.5 749.501Z" fill="#D8E5FF"/>
<path fill-rule="evenodd" clip-rule="evenodd" d="M749.499 749.5L241.798 9.52094L264.691 -5.75781L749.499 749.5Z" fill="#D7E4FF"/>
<path fill-rule="evenodd" clip-rule="evenodd" d="M749.499 749.499L260.122 -2.71319L283.421 -17.4336L749.499 749.499Z" fill="#D6E3FF"/>
<path fill-rule="evenodd" clip-rule="evenodd" d="M749.5 749.498L278.751 -14.4903L302.355 -28.6523L749.5 749.498Z" fill="#D5E3FF"/>
<path fill-rule="evenodd" clip-rule="evenodd" d="M749.499 749.498L297.634 -25.8104L321.593 -39.3633L749.499 749.498Z" fill="#D4E2FF"/>
<path fill-rule="evenodd" clip-rule="evenodd" d="M749.5 749.501L316.821 -36.6695L341.085 -49.6641L749.5 749.501Z" fill="#D3E1FF"/>
<path fill-rule="evenodd" clip-rule="evenodd" d="M749.499 749.497L336.211 -47.0794L360.83 -59.4141L749.499 749.497Z" fill="#D2E0FF"/>
<path fill-rule="evenodd" clip-rule="evenodd" d="M749.499 749.501L355.906 -56.9737L380.779 -68.6992L749.499 749.501Z" fill="#D1E0FF"/>
<path fill-rule="evenodd" clip-rule="evenodd" d="M749.499 749.497L375.804 -66.368L400.981 -77.5352L749.499 749.497Z" fill="#D0DFFF"/>
<path fill-rule="evenodd" clip-rule="evenodd" d="M749.499 749.502L395.905 -75.2974L421.387 -85.8555L749.499 749.502Z" fill="#CFDEFF"/>
<path fill-rule="evenodd" clip-rule="evenodd" d="M749.499 749.499L416.26 -83.7268L441.995 -93.625L749.499 749.499Z" fill="#CEDEFF"/>
<path fill-rule="evenodd" clip-rule="evenodd" d="M749.499 749.499L436.817 -91.6445L462.756 -100.934L749.499 749.499Z" fill="#CDDDFF"/>
<path fill-rule="evenodd" clip-rule="evenodd" d="M749.5 749.501L457.579 -99.1051L483.721 -107.684L749.5 749.501Z" fill="#CCDCFF"/>
<path fill-rule="evenodd" clip-rule="evenodd" d="M749.5 749.502L478.492 -106.007L504.837 -113.977L749.5 749.502Z" fill="#CBDCFF"/>
<path fill-rule="evenodd" clip-rule="evenodd" d="M749.5 749.499L499.558 -112.405L526.105 -119.715L749.5 749.499Z" fill="#CADBFF"/>
<path fill-rule="evenodd" clip-rule="evenodd" d="M749.5 749.501L520.775 -118.241L547.475 -124.941L749.5 749.501Z" fill="#C9DAFF"/>
<path fill-rule="evenodd" clip-rule="evenodd" d="M749.5 749.503L542.146 -123.62L568.998 -129.609L749.5 749.503Z" fill="#C8DAFF"/>
<path fill-rule="evenodd" clip-rule="evenodd" d="M749.5 749.501L563.668 -128.444L590.622 -133.773L749.5 749.501Z" fill="#C7D9FF"/>
<path fill-rule="evenodd" clip-rule="evenodd" d="M749.5 749.5L585.24 -132.709L612.346 -137.43L749.5 749.5Z" fill="#C6D8FF"/>
<path fill-rule="evenodd" clip-rule="evenodd" d="M749.499 749.502L606.914 -136.463L634.172 -140.523L749.499 749.502Z" fill="#C5D8FF"/>
<path fill-rule="evenodd" clip-rule="evenodd" d="M749.499 749.501L628.741 -139.712L656.05 -143.062L749.499 749.501Z" fill="#C4D7FF"/>
<path fill-rule="evenodd" clip-rule="evenodd" d="M749.5 749.501L650.568 -142.403L677.979 -145.094L749.5 749.501Z" fill="#C3D6FF"/>
<path fill-rule="evenodd" clip-rule="evenodd" d="M749.499 749.5L672.496 -144.587L699.957 -146.617L749.499 749.5Z" fill="#C2D6FF"/>
<path fill-rule="evenodd" clip-rule="evenodd" d="M749.499 749.499L694.476 -146.211L721.988 -147.531L749.499 749.499Z" fill="#C1D5FF"/>
<path fill-rule="evenodd" clip-rule="evenodd" d="M749.5 749.503L716.455 -147.274L743.967 -147.934L749.5 749.503Z" fill="#C0D4FF"/>
<path fill-rule="evenodd" clip-rule="evenodd" d="M749.499 749.499L738.484 -147.836H765.996L749.499 749.499Z" fill="#BFD4FF"/>
<path fill-rule="evenodd" clip-rule="evenodd" d="M749.5 749.499L760.515 -147.836L788.027 -147.125L749.5 749.499Z" fill="#BED3FF"/>
<path fill-rule="evenodd" clip-rule="evenodd" d="M749.5 749.499L782.545 -147.277L810.006 -145.907L749.5 749.499Z" fill="#BDD2FF"/>
<path fill-rule="evenodd" clip-rule="evenodd" d="M749.5 749.5L804.524 -146.211L831.985 -144.181L749.5 749.5Z" fill="#BCD2FF"/>
<path fill-rule="evenodd" clip-rule="evenodd" d="M749.5 749.501L826.503 -144.586L853.913 -141.896L749.5 749.501Z" fill="#BBD1FF"/>
<path fill-rule="evenodd" clip-rule="evenodd" d="M749.5 749.498L848.381 -142.406L875.74 -139.056L749.5 749.498Z" fill="#BAD0FF"/>
<path fill-rule="evenodd" clip-rule="evenodd" d="M749.5 749.499L870.258 -139.715L897.516 -135.705L749.5 749.499Z" fill="#B9D0FF"/>
<path fill-rule="evenodd" clip-rule="evenodd" d="M749.5 749.5L892.034 -136.465L919.191 -131.795L749.5 749.5Z" fill="#B8CFFF"/>
<path fill-rule="evenodd" clip-rule="evenodd" d="M749.5 749.502L913.759 -132.707L940.764 -127.377L749.5 749.502Z" fill="#B7CEFF"/>
<path fill-rule="evenodd" clip-rule="evenodd" d="M749.5 749.5L935.332 -128.445L962.235 -122.405L749.5 749.5Z" fill="#B6CDFF"/>
<path fill-rule="evenodd" clip-rule="evenodd" d="M749.5 749.498L956.855 -123.625L983.554 -116.925L749.5 749.498Z" fill="#B5CDFF"/>
<path fill-rule="evenodd" clip-rule="evenodd" d="M749.5 749.5L978.225 -118.242L1004.72 -110.933L749.5 749.5Z" fill="#B4CCFF"/>
<path fill-rule="evenodd" clip-rule="evenodd" d="M749.5 749.499L999.442 -112.406L1025.79 -104.386L749.5 749.499Z" fill="#B3CBFF"/>
<path fill-rule="evenodd" clip-rule="evenodd" d="M749.5 749.501L1020.51 -106.008L1046.65 -97.3278L749.5 749.501Z" fill="#B2CBFF"/>
<path fill-rule="evenodd" clip-rule="evenodd" d="M749.5 749.5L1041.42 -99.1055L1067.36 -89.8164L749.5 749.5Z" fill="#B1CAFF"/>
<path fill-rule="evenodd" clip-rule="evenodd" d="M749.5 749.499L1062.18 -91.6445L1087.87 -81.7463L749.5 749.499Z" fill="#B0C9FF"/>
<path fill-rule="evenodd" clip-rule="evenodd" d="M749.5 749.503L1082.69 -83.7227L1108.17 -73.2153L749.5 749.503Z" fill="#AFC9FF"/>
<path fill-rule="evenodd" clip-rule="evenodd" d="M749.5 749.498L1103.04 -75.3008L1128.22 -64.1336L749.5 749.498Z" fill="#AEC8FF"/>
<path fill-rule="evenodd" clip-rule="evenodd" d="M749.5 749.502L1123.2 -66.3633L1148.07 -54.587L749.5 749.502Z" fill="#ADC7FF"/>
<path fill-rule="evenodd" clip-rule="evenodd" d="M749.5 749.498L1143.09 -56.9766L1167.71 -44.5911L749.5 749.498Z" fill="#ACC7FF"/>
<path fill-rule="evenodd" clip-rule="evenodd" d="M749.5 749.499L1162.79 -47.0781L1187.05 -34.0836L749.5 749.499Z" fill="#ABC6FF"/>
<path fill-rule="evenodd" clip-rule="evenodd" d="M749.5 749.499L1182.18 -36.6719L1206.19 -23.119L749.5 749.499Z" fill="#AAC5FF"/>
<path fill-rule="evenodd" clip-rule="evenodd" d="M749.5 749.5L1201.37 -25.8086L1224.97 -11.6466L749.5 749.5Z" fill="#A9C5FF"/>
<path fill-rule="evenodd" clip-rule="evenodd" d="M749.5 749.497L1220.25 -14.4922L1243.5 0.228213L749.5 749.497Z" fill="#A8C4FF"/>
<path fill-rule="evenodd" clip-rule="evenodd" d="M749.5 749.502L1238.88 -2.71094L1261.77 12.6186L749.5 749.502Z" fill="#A7C3FF"/>
<path fill-rule="evenodd" clip-rule="evenodd" d="M749.5 749.499L1257.2 9.51953L1279.69 25.3566L749.5 749.499Z" fill="#A6C3FF"/>
<path fill-rule="evenodd" clip-rule="evenodd" d="M749.5 749.5L1275.17 22.2109L1297.3 38.6064L749.5 749.5Z" fill="#A5C2FF"/>
<path fill-rule="evenodd" clip-rule="evenodd" d="M749.5 749.498L1292.89 35.3047L1314.56 52.2585L749.5 749.498Z" fill="#A4C1FF"/>
<path fill-rule="evenodd" clip-rule="evenodd" d="M749.5 749.5L1310.25 48.8594L1331.51 66.3208L749.5 749.5Z" fill="#A3C1FF"/>
<path fill-rule="evenodd" clip-rule="evenodd" d="M749.5 749.498L1327.25 62.8672L1348.11 80.8362L749.5 749.498Z" fill="#A2C0FF"/>
<path fill-rule="evenodd" clip-rule="evenodd" d="M749.5 749.5L1343.95 77.2344L1364.36 95.711L749.5 749.5Z" fill="#A1BFFF"/>
<path fill-rule="evenodd" clip-rule="evenodd" d="M749.5 749.502L1360.24 92.0078L1380.19 110.992L749.5 749.502Z" fill="#A0BFFF"/>
<path fill-rule="evenodd" clip-rule="evenodd" d="M749.5 749.501L1376.18 107.184L1395.67 126.675L749.5 749.501Z" fill="#9FBEFF"/>
<path fill-rule="evenodd" clip-rule="evenodd" d="M749.5 749.499L1391.77 122.816L1410.75 142.714L749.5 749.499Z" fill="#9EBDFF"/>
<path fill-rule="evenodd" clip-rule="evenodd" d="M749.5 749.498L1406.99 138.754L1425.47 159.159L749.5 749.498Z" fill="#9DBDFF"/>
<path fill-rule="evenodd" clip-rule="evenodd" d="M749.5 749.497L1421.77 155.047L1439.73 175.909L749.5 749.497Z" fill="#9CBCFF"/>
<path fill-rule="evenodd" clip-rule="evenodd" d="M749.5 749.5L1436.13 171.75L1453.59 193.018L749.5 749.5Z" fill="#9BBBFF"/>
<path fill-rule="evenodd" clip-rule="evenodd" d="M749.5 749.5L1450.14 188.754L1467.04 210.479L749.5 749.5Z" fill="#9ABAFF"/>
<path fill-rule="evenodd" clip-rule="evenodd" d="M749.5 749.499L1463.69 206.113L1480.09 228.245L749.5 749.499Z" fill="#99BAFF"/>
<path fill-rule="evenodd" clip-rule="evenodd" d="M749.5 749.499L1476.79 223.828L1492.63 246.315L749.5 749.499Z" fill="#98B9FF"/>
<path fill-rule="evenodd" clip-rule="evenodd" d="M749.5 749.502L1489.48 241.801L1504.76 264.694L749.5 749.502Z" fill="#97B8FF"/>
<path fill-rule="evenodd" clip-rule="evenodd" d="M749.5 749.502L1501.71 260.125L1516.43 283.424L749.5 749.502Z" fill="#96B8FF"/>
<path fill-rule="evenodd" clip-rule="evenodd" d="M749.5 749.502L1513.49 278.754L1527.65 302.357L749.5 749.502Z" fill="#95B7FF"/>
<path fill-rule="evenodd" clip-rule="evenodd" d="M749.5 749.498L1524.81 297.633L1538.36 321.592L749.5 749.498Z" fill="#94B6FF"/>
<path fill-rule="evenodd" clip-rule="evenodd" d="M749.5 749.502L1535.67 316.824L1548.61 341.087L749.5 749.502Z" fill="#93B6FF"/>
<path fill-rule="evenodd" clip-rule="evenodd" d="M749.5 749.499L1546.03 336.211L1558.41 360.83L749.5 749.499Z" fill="#92B5FF"/>
<path fill-rule="evenodd" clip-rule="evenodd" d="M749.5 749.499L1555.97 355.906L1567.7 380.779L749.5 749.499Z" fill="#91B4FF"/>
<path fill-rule="evenodd" clip-rule="evenodd" d="M749.5 749.5L1565.37 375.805L1576.53 400.982L749.5 749.5Z" fill="#90B4FF"/>
<path fill-rule="evenodd" clip-rule="evenodd" d="M749.5 749.5L1574.3 395.906L1584.81 421.388L749.5 749.5Z" fill="#8FB3FF"/>
<path fill-rule="evenodd" clip-rule="evenodd" d="M749.5 749.501L1582.73 416.262L1592.62 441.997L749.5 749.501Z" fill="#8EB2FF"/>
<path fill-rule="evenodd" clip-rule="evenodd" d="M749.5 749.502L1590.64 436.82L1599.93 462.759L749.5 749.502Z" fill="#8DB2FF"/>
<path fill-rule="evenodd" clip-rule="evenodd" d="M749.5 749.499L1598.05 457.578L1606.68 483.72L749.5 749.499Z" fill="#8CB1FF"/>
<path fill-rule="evenodd" clip-rule="evenodd" d="M749.5 749.5L1604.96 478.492L1612.98 504.837L749.5 749.5Z" fill="#8BB0FF"/>
<path fill-rule="evenodd" clip-rule="evenodd" d="M749.5 749.501L1611.35 499.559L1618.71 526.106L749.5 749.501Z" fill="#8AB0FF"/>
<path fill-rule="evenodd" clip-rule="evenodd" d="M749.5 749.502L1617.24 520.777L1623.94 547.477L749.5 749.502Z" fill="#89AFFF"/>
<path fill-rule="evenodd" clip-rule="evenodd" d="M749.5 749.499L1622.62 542.145L1628.61 568.997L749.5 749.499Z" fill="#88AEFF"/>
<path fill-rule="evenodd" clip-rule="evenodd" d="M749.5 749.5L1627.39 563.668L1632.77 590.622L749.5 749.5Z" fill="#87AEFF"/>
<path fill-rule="evenodd" clip-rule="evenodd" d="M749.5 749.498L1631.71 585.238L1636.43 612.344L749.5 749.498Z" fill="#86ADFF"/>
<path fill-rule="evenodd" clip-rule="evenodd" d="M749.5 749.503L1635.47 606.918L1639.53 634.176L749.5 749.503Z" fill="#85ACFF"/>
<path fill-rule="evenodd" clip-rule="evenodd" d="M749.5 749.5L1638.71 628.742L1642.06 656.051L749.5 749.5Z" fill="#84ACFF"/>
<path fill-rule="evenodd" clip-rule="evenodd" d="M749.5 749.502L1641.4 650.57L1644.09 677.981L749.5 749.502Z" fill="#83ABFF"/>
<path fill-rule="evenodd" clip-rule="evenodd" d="M749.5 749.499L1643.59 672.496L1645.62 699.957L749.5 749.499Z" fill="#82AAFF"/>
<path fill-rule="evenodd" clip-rule="evenodd" d="M749.5 749.5L1645.21 694.477L1646.53 721.989L749.5 749.5Z" fill="#81AAFF"/>
<path fill-rule="evenodd" clip-rule="evenodd" d="M749.5 749.502L1646.28 716.457L1646.94 743.969L749.5 749.502Z" fill="#80A9FF"/>
<path fill-rule="evenodd" clip-rule="evenodd" d="M749.5 749.499L1646.78 738.484V765.996L749.5 749.499Z" fill="#7FA8FF"/>
<path fill-rule="evenodd" clip-rule="evenodd" d="M749.5 749.5L1646.78 760.515L1646.12 788.027L749.5 749.5Z" fill="#7EA7FF"/>
<path fill-rule="evenodd" clip-rule="evenodd" d="M749.5 749.5L1646.28 782.545L1644.91 810.006L749.5 749.5Z" fill="#7DA7FF"/>
<path fill-rule="evenodd" clip-rule="evenodd" d="M749.5 749.5L1645.21 804.524L1643.18 831.985L749.5 749.5Z" fill="#7CA6FF"/>
<path fill-rule="evenodd" clip-rule="evenodd" d="M749.5 749.5L1643.59 826.503L1640.9 853.913L749.5 749.5Z" fill="#7BA5FF"/>
<path fill-rule="evenodd" clip-rule="evenodd" d="M749.5 749.5L1641.4 848.381L1638.05 875.74L749.5 749.5Z" fill="#7AA5FF"/>
<path fill-rule="evenodd" clip-rule="evenodd" d="M749.5 749.5L1638.71 870.258L1634.65 897.516L749.5 749.5Z" fill="#79A4FF"/>
<path fill-rule="evenodd" clip-rule="evenodd" d="M749.5 749.5L1635.47 892.034L1630.8 919.191L749.5 749.5Z" fill="#78A3FF"/>
<path fill-rule="evenodd" clip-rule="evenodd" d="M749.5 749.5L1631.71 913.759L1626.33 940.764L749.5 749.5Z" fill="#77A3FF"/>
<path fill-rule="evenodd" clip-rule="evenodd" d="M749.5 749.5L1627.39 935.332L1621.4 962.235L749.5 749.5Z" fill="#76A2FF"/>
<path fill-rule="evenodd" clip-rule="evenodd" d="M749.5 749.5L1622.62 956.855L1615.92 983.554L749.5 749.5Z" fill="#75A1FF"/>
<path fill-rule="evenodd" clip-rule="evenodd" d="M749.5 749.5L1617.24 978.225L1609.93 1004.72L749.5 749.5Z" fill="#74A1FF"/>
<path fill-rule="evenodd" clip-rule="evenodd" d="M749.5 749.5L1611.35 999.442L1603.38 1025.79L749.5 749.5Z" fill="#73A0FF"/>
<path fill-rule="evenodd" clip-rule="evenodd" d="M749.5 749.5L1604.96 1020.51L1596.33 1046.65L749.5 749.5Z" fill="#729FFF"/>
<path fill-rule="evenodd" clip-rule="evenodd" d="M749.5 749.5L1598.05 1041.42L1588.82 1067.36L749.5 749.5Z" fill="#719FFF"/>
<path fill-rule="evenodd" clip-rule="evenodd" d="M749.5 749.5L1590.64 1062.18L1580.75 1087.87L749.5 749.5Z" fill="#709EFF"/>
<path fill-rule="evenodd" clip-rule="evenodd" d="M749.5 749.5L1582.73 1082.69L1572.17 1108.17L749.5 749.5Z" fill="#6F9DFF"/>
<path fill-rule="evenodd" clip-rule="evenodd" d="M749.5 749.5L1574.3 1103.04L1563.13 1128.22L749.5 749.5Z" fill="#6E9DFF"/>
<path fill-rule="evenodd" clip-rule="evenodd" d="M749.5 749.5L1565.37 1123.2L1553.59 1148.07L749.5 749.5Z" fill="#6D9CFF"/>
<path fill-rule="evenodd" clip-rule="evenodd" d="M749.5 749.5L1555.97 1143.09L1543.59 1167.71L749.5 749.5Z" fill="#6C9BFF"/>
<path fill-rule="evenodd" clip-rule="evenodd" d="M749.5 749.5L1546.03 1162.79L1533.08 1187.05L749.5 749.5Z" fill="#6B9BFF"/>
<path fill-rule="evenodd" clip-rule="evenodd" d="M749.5 749.5L1535.67 1182.18L1522.12 1206.19L749.5 749.5Z" fill="#6A9AFF"/>
<path fill-rule="evenodd" clip-rule="evenodd" d="M749.5 749.5L1524.81 1201.37L1510.65 1224.97L749.5 749.5Z" fill="#6999FF"/>
<path fill-rule="evenodd" clip-rule="evenodd" d="M749.5 749.5L1513.49 1220.25L1498.77 1243.5L749.5 749.5Z" fill="#6899FF"/>
<path fill-rule="evenodd" clip-rule="evenodd" d="M749.5 749.5L1501.71 1238.88L1486.38 1261.77L749.5 749.5Z" fill="#6798FF"/>
<path fill-rule="evenodd" clip-rule="evenodd" d="M749.5 749.5L1489.48 1257.2L1473.64 1279.69L749.5 749.5Z" fill="#6697FF"/>
<path fill-rule="evenodd" clip-rule="evenodd" d="M749.5 749.5L1476.79 1275.17L1460.39 1297.3L749.5 749.5Z" fill="#6597FF"/>
<path fill-rule="evenodd" clip-rule="evenodd" d="M749.5 749.5L1463.69 1292.89L1446.74 1314.56L749.5 749.5Z" fill="#6496FF"/>
<path fill-rule="evenodd" clip-rule="evenodd" d="M749.5 749.5L1450.14 1310.25L1432.68 1331.51L749.5 749.5Z" fill="#6395FF"/>
<path fill-rule="evenodd" clip-rule="evenodd" d="M749.5 749.5L1436.13 1327.25L1418.16 1348.11L749.5 749.5Z" fill="#6294FF"/>
<path fill-rule="evenodd" clip-rule="evenodd" d="M749.5 749.5L1421.77 1343.95L1403.29 1364.36L749.5 749.5Z" fill="#6194FF"/>
<path fill-rule="evenodd" clip-rule="evenodd" d="M749.5 749.5L1406.99 1360.24L1388.01 1380.19L749.5 749.5Z" fill="#6093FF"/>
<path fill-rule="evenodd" clip-rule="evenodd" d="M749.5 749.5L1391.77 1376.18L1372.33 1395.67L749.5 749.5Z" fill="#5F92FF"/>
<path fill-rule="evenodd" clip-rule="evenodd" d="M749.5 749.5L1376.18 1391.77L1356.29 1410.75L749.5 749.5Z" fill="#5E92FF"/>
<path fill-rule="evenodd" clip-rule="evenodd" d="M749.5 749.5L1360.24 1406.99L1339.84 1425.47L749.5 749.5Z" fill="#5D91FF"/>
<path fill-rule="evenodd" clip-rule="evenodd" d="M749.5 749.5L1343.95 1421.77L1323.09 1439.73L749.5 749.5Z" fill="#5C90FF"/>
<path fill-rule="evenodd" clip-rule="evenodd" d="M749.5 749.5L1327.25 1436.13L1305.98 1453.59L749.5 749.5Z" fill="#5B90FF"/>
<path fill-rule="evenodd" clip-rule="evenodd" d="M749.5 749.5L1310.25 1450.14L1288.52 1467.04L749.5 749.5Z" fill="#5A8FFF"/>
<path fill-rule="evenodd" clip-rule="evenodd" d="M749.5 749.5L1292.89 1463.69L1270.75 1480.09L749.5 749.5Z" fill="#598EFF"/>
<path fill-rule="evenodd" clip-rule="evenodd" d="M749.5 749.5L1275.17 1476.79L1252.68 1492.63L749.5 749.5Z" fill="#588EFF"/>
<path fill-rule="evenodd" clip-rule="evenodd" d="M749.5 749.5L1257.2 1489.48L1234.26 1504.76L749.5 749.5Z" fill="#578DFF"/>
<path fill-rule="evenodd" clip-rule="evenodd" d="M749.5 749.5L1238.88 1501.71L1215.58 1516.43L749.5 749.5Z" fill="#568CFF"/>
<path fill-rule="evenodd" clip-rule="evenodd" d="M749.5 749.5L1220.25 1513.49L1196.64 1527.65L749.5 749.5Z" fill="#558CFF"/>
<path fill-rule="evenodd" clip-rule="evenodd" d="M749.5 749.5L1201.37 1524.81L1177.41 1538.36L749.5 749.5Z" fill="#548BFF"/>
<path fill-rule="evenodd" clip-rule="evenodd" d="M749.5 749.5L1182.18 1535.67L1157.92 1548.61L749.5 749.5Z" fill="#538AFF"/>
<path fill-rule="evenodd" clip-rule="evenodd" d="M749.5 749.5L1162.79 1546.03L1138.17 1558.41L749.5 749.5Z" fill="#528AFF"/>
<path fill-rule="evenodd" clip-rule="evenodd" d="M749.5 749.5L1143.09 1555.97L1118.22 1567.7L749.5 749.5Z" fill="#5189FF"/>
<path fill-rule="evenodd" clip-rule="evenodd" d="M749.5 749.5L1123.2 1565.37L1098.02 1576.53L749.5 749.5Z" fill="#5088FF"/>
<path fill-rule="evenodd" clip-rule="evenodd" d="M749.5 749.5L1103.04 1574.3L1077.61 1584.81L749.5 749.5Z" fill="#4F88FF"/>
<path fill-rule="evenodd" clip-rule="evenodd" d="M749.5 749.5L1082.69 1582.73L1057 1592.62L749.5 749.5Z" fill="#4E87FF"/>
<path fill-rule="evenodd" clip-rule="evenodd" d="M749.5 749.5L1062.18 1590.64L1036.24 1599.93L749.5 749.5Z" fill="#4D86FF"/>
<path fill-rule="evenodd" clip-rule="evenodd" d="M749.5 749.5L1041.42 1598.05L1015.28 1606.68L749.5 749.5Z" fill="#4C86FF"/>
<path fill-rule="evenodd" clip-rule="evenodd" d="M749.5 749.5L1020.51 1604.96L994.163 1612.98L749.5 749.5Z" fill="#4B85FF"/>
<path fill-rule="evenodd" clip-rule="evenodd" d="M749.5 749.5L999.442 1611.35L972.895 1618.71L749.5 749.5Z" fill="#4A84FF"/>
<path fill-rule="evenodd" clip-rule="evenodd" d="M749.5 749.5L978.225 1617.24L951.474 1623.94L749.5 749.5Z" fill="#4984FF"/>
<path fill-rule="evenodd" clip-rule="evenodd" d="M749.5 749.5L956.855 1622.62L930.003 1628.61L749.5 749.5Z" fill="#4883FF"/>
<path fill-rule="evenodd" clip-rule="evenodd" d="M749.5 749.5L935.332 1627.39L908.328 1632.77L749.5 749.5Z" fill="#4782FF"/>
<path fill-rule="evenodd" clip-rule="evenodd" d="M749.5 749.5L913.759 1631.71L886.653 1636.43L749.5 749.5Z" fill="#4681FF"/>
<path fill-rule="evenodd" clip-rule="evenodd" d="M749.5 749.5L892.034 1635.47L864.827 1639.53L749.5 749.5Z" fill="#4581FF"/>
<path fill-rule="evenodd" clip-rule="evenodd" d="M749.5 749.5L870.258 1638.71L842.949 1642.06L749.5 749.5Z" fill="#4480FF"/>
<path fill-rule="evenodd" clip-rule="evenodd" d="M749.5 749.5L848.381 1641.4L821.021 1644.09L749.5 749.5Z" fill="#437FFF"/>
<path fill-rule="evenodd" clip-rule="evenodd" d="M749.5 749.5L826.503 1643.59L799.042 1645.62L749.5 749.5Z" fill="#427FFF"/>
<path fill-rule="evenodd" clip-rule="evenodd" d="M749.5 749.5L804.524 1645.21L777.012 1646.53L749.5 749.5Z" fill="#417EFF"/>
<path fill-rule="evenodd" clip-rule="evenodd" d="M749.5 749.5L782.545 1646.28L754.982 1646.94L749.5 749.5Z" fill="#407DFF"/>
<path fill-rule="evenodd" clip-rule="evenodd" d="M749.5 749.5L760.515 1646.78H732.952L749.5 749.5Z" fill="#3F7DFF"/>
<path fill-rule="evenodd" clip-rule="evenodd" d="M749.5 749.5L738.485 1646.78L710.973 1646.12L749.5 749.5Z" fill="#3E7CFF"/>
<path fill-rule="evenodd" clip-rule="evenodd" d="M749.5 749.5L716.455 1646.28L688.943 1644.91L749.5 749.5Z" fill="#3D7BFF"/>
<path fill-rule="evenodd" clip-rule="evenodd" d="M749.5 749.5L694.476 1645.21L667.015 1643.18L749.5 749.5Z" fill="#3C7BFF"/>
<path fill-rule="evenodd" clip-rule="evenodd" d="M749.499 749.5L672.496 1643.59L645.086 1640.9L749.499 749.5Z" fill="#3B7AFF"/>
<path fill-rule="evenodd" clip-rule="evenodd" d="M749.499 749.5L650.568 1641.4L623.259 1638.05L749.499 749.5Z" fill="#3A79FF"/>
<path fill-rule="evenodd" clip-rule="evenodd" d="M749.5 749.5L628.741 1638.71L601.483 1634.65L749.5 749.5Z" fill="#3979FF"/>
<path fill-rule="evenodd" clip-rule="evenodd" d="M749.499 749.5L606.914 1635.47L579.809 1630.8L749.499 749.5Z" fill="#3878FF"/>
<path fill-rule="evenodd" clip-rule="evenodd" d="M749.5 749.5L585.241 1631.71L558.236 1626.33L749.5 749.5Z" fill="#3777FF"/>
<path fill-rule="evenodd" clip-rule="evenodd" d="M749.5 749.5L563.667 1627.39L536.765 1621.4L749.5 749.5Z" fill="#3677FF"/>
<path fill-rule="evenodd" clip-rule="evenodd" d="M749.5 749.5L542.145 1622.62L515.445 1615.92L749.5 749.5Z" fill="#3576FF"/>
<path fill-rule="evenodd" clip-rule="evenodd" d="M749.5 749.5L520.775 1617.24L494.228 1609.93L749.5 749.5Z" fill="#3475FF"/>
<path fill-rule="evenodd" clip-rule="evenodd" d="M749.5 749.5L499.557 1611.35L473.213 1603.38L749.5 749.5Z" fill="#3375FF"/>
<path fill-rule="evenodd" clip-rule="evenodd" d="M749.5 749.5L478.492 1604.96L452.351 1596.33L749.5 749.5Z" fill="#3274FF"/>
<path fill-rule="evenodd" clip-rule="evenodd" d="M749.5 749.5L457.579 1598.05L431.641 1588.82L749.5 749.5Z" fill="#3173FF"/>
<path fill-rule="evenodd" clip-rule="evenodd" d="M749.499 749.5L436.817 1590.64L411.133 1580.75L749.499 749.5Z" fill="#3073FF"/>
<path fill-rule="evenodd" clip-rule="evenodd" d="M749.5 749.5L416.261 1582.73L390.83 1572.17L749.5 749.5Z" fill="#2F72FF"/>
<path fill-rule="evenodd" clip-rule="evenodd" d="M749.5 749.5L395.906 1574.3L370.779 1563.13L749.5 749.5Z" fill="#2E71FF"/>
<path fill-rule="evenodd" clip-rule="evenodd" d="M749.5 749.5L375.805 1565.37L350.932 1553.59L749.5 749.5Z" fill="#2D71FF"/>
<path fill-rule="evenodd" clip-rule="evenodd" d="M749.499 749.5L355.906 1555.97L331.288 1543.59L749.499 749.5Z" fill="#2C70FF"/>
<path fill-rule="evenodd" clip-rule="evenodd" d="M749.499 749.5L336.212 1546.03L311.948 1533.08L749.499 749.5Z" fill="#2B6FFF"/>
<path fill-rule="evenodd" clip-rule="evenodd" d="M749.499 749.5L316.821 1535.67L292.812 1522.12L749.499 749.5Z" fill="#2A6EFF"/>
<path fill-rule="evenodd" clip-rule="evenodd" d="M749.499 749.5L297.634 1524.81L274.03 1510.65L749.499 749.5Z" fill="#296EFF"/>
<path fill-rule="evenodd" clip-rule="evenodd" d="M749.5 749.5L278.751 1513.49L255.453 1498.77L749.5 749.5Z" fill="#286DFF"/>
<path fill-rule="evenodd" clip-rule="evenodd" d="M749.499 749.5L260.122 1501.71L237.229 1486.38L749.499 749.5Z" fill="#276CFF"/>
<path fill-rule="evenodd" clip-rule="evenodd" d="M749.5 749.5L241.798 1489.48L219.312 1473.64L749.5 749.5Z" fill="#266CFF"/>
<path fill-rule="evenodd" clip-rule="evenodd" d="M749.499 749.5L223.829 1476.79L201.697 1460.39L749.499 749.5Z" fill="#256BFF"/>
<path fill-rule="evenodd" clip-rule="evenodd" d="M749.5 749.5L206.114 1463.69L184.389 1446.74L749.5 749.5Z" fill="#246AFF"/>
<path fill-rule="evenodd" clip-rule="evenodd" d="M749.499 749.5L188.754 1450.14L167.485 1432.68L749.499 749.5Z" fill="#236AFF"/>
<path fill-rule="evenodd" clip-rule="evenodd" d="M749.499 749.5L171.749 1436.13L150.887 1418.16L749.499 749.5Z" fill="#2269FF"/>
<path fill-rule="evenodd" clip-rule="evenodd" d="M749.499 749.5L155.049 1421.77L134.644 1403.29L749.499 749.5Z" fill="#2168FF"/>
<path fill-rule="evenodd" clip-rule="evenodd" d="M749.5 749.5L138.755 1406.99L118.807 1388.01L749.5 749.5Z" fill="#2068FF"/>
<path fill-rule="evenodd" clip-rule="evenodd" d="M749.5 749.5L122.817 1391.77L103.325 1372.33L749.5 749.5Z" fill="#1F67FF"/>
<path fill-rule="evenodd" clip-rule="evenodd" d="M749.5 749.5L107.183 1376.18L88.249 1356.29L749.5 749.5Z" fill="#1E66FF"/>
<path fill-rule="evenodd" clip-rule="evenodd" d="M749.5 749.5L92.0054 1360.24L73.5288 1339.84L749.5 749.5Z" fill="#1D66FF"/>
<path fill-rule="evenodd" clip-rule="evenodd" d="M749.5 749.5L77.2342 1343.95L59.2651 1323.09L749.5 749.5Z" fill="#1C65FF"/>
<path fill-rule="evenodd" clip-rule="evenodd" d="M749.5 749.5L62.8692 1327.25L45.4077 1305.98L749.5 749.5Z" fill="#1B64FF"/>
<path fill-rule="evenodd" clip-rule="evenodd" d="M749.499 749.5L48.8591 1310.25L31.9561 1288.52L749.499 749.5Z" fill="#1A64FF"/>
<path fill-rule="evenodd" clip-rule="evenodd" d="M749.5 749.5L35.3066 1292.89L18.9111 1270.75L749.5 749.5Z" fill="#1963FF"/>
<path fill-rule="evenodd" clip-rule="evenodd" d="M749.499 749.5L22.2102 1275.17L6.37305 1252.68L749.499 749.5Z" fill="#1862FF"/>
<path fill-rule="evenodd" clip-rule="evenodd" d="M749.499 749.5L9.51997 1257.2L-5.75879 1234.26L749.499 749.5Z" fill="#1762FF"/>
<path fill-rule="evenodd" clip-rule="evenodd" d="M749.5 749.5L-2.71271 1238.88L-17.4331 1215.58L749.5 749.5Z" fill="#1661FF"/>
<path fill-rule="evenodd" clip-rule="evenodd" d="M749.499 749.5L-14.4893 1220.25L-28.6514 1196.64L749.499 749.5Z" fill="#1560FF"/>
<path fill-rule="evenodd" clip-rule="evenodd" d="M749.499 749.5L-25.8089 1201.37L-39.3618 1177.41L749.499 749.5Z" fill="#1460FF"/>
<path fill-rule="evenodd" clip-rule="evenodd" d="M749.499 749.5L-36.6715 1182.18L-49.666 1157.92L749.499 749.5Z" fill="#135FFF"/>
<path fill-rule="evenodd" clip-rule="evenodd" d="M749.499 749.5L-47.0774 1162.79L-59.4121 1138.17L749.499 749.5Z" fill="#125EFF"/>
<path fill-rule="evenodd" clip-rule="evenodd" d="M749.5 749.5L-56.9751 1143.09L-68.7007 1118.22L749.5 749.5Z" fill="#115EFF"/>
<path fill-rule="evenodd" clip-rule="evenodd" d="M749.499 749.5L-66.366 1123.2L-77.5332 1098.02L749.499 749.5Z" fill="#105DFF"/>
<path fill-rule="evenodd" clip-rule="evenodd" d="M749.499 749.5L-75.2998 1103.04L-85.8579 1077.61L749.499 749.5Z" fill="#0F5CFF"/>
<path fill-rule="evenodd" clip-rule="evenodd" d="M749.5 749.5L-83.7258 1082.69L-93.624 1057L749.5 749.5Z" fill="#0E5BFF"/>
<path fill-rule="evenodd" clip-rule="evenodd" d="M749.499 749.5L-91.6445 1062.18L-100.934 1036.24L749.499 749.5Z" fill="#0D5BFF"/>
<path fill-rule="evenodd" clip-rule="evenodd" d="M749.5 749.5L-99.1061 1041.42L-107.685 1015.28L749.5 749.5Z" fill="#0C5AFF"/>
<path fill-rule="evenodd" clip-rule="evenodd" d="M749.5 749.5L-106.009 1020.51L-113.979 994.163L749.5 749.5Z" fill="#0B59FF"/>
<path fill-rule="evenodd" clip-rule="evenodd" d="M749.5 749.5L-112.405 999.442L-119.714 972.895L749.5 749.5Z" fill="#0A59FF"/>
<path fill-rule="evenodd" clip-rule="evenodd" d="M749.499 749.5L-118.243 978.225L-124.943 951.474L749.499 749.5Z" fill="#0958FF"/>
<path fill-rule="evenodd" clip-rule="evenodd" d="M749.5 749.5L-123.623 956.855L-129.613 930.003L749.5 749.5Z" fill="#0857FF"/>
<path fill-rule="evenodd" clip-rule="evenodd" d="M749.499 749.5L-128.446 935.332L-133.775 908.328L749.499 749.5Z" fill="#0757FF"/>
<path fill-rule="evenodd" clip-rule="evenodd" d="M749.5 749.5L-132.709 913.759L-137.43 886.653L749.5 749.5Z" fill="#0656FF"/>
<path fill-rule="evenodd" clip-rule="evenodd" d="M749.5 749.5L-136.466 892.034L-140.526 864.827L749.5 749.5Z" fill="#0555FF"/>
<path fill-rule="evenodd" clip-rule="evenodd" d="M749.499 749.5L-139.714 870.258L-143.064 842.949L749.499 749.5Z" fill="#0455FF"/>
<path fill-rule="evenodd" clip-rule="evenodd" d="M749.5 749.5L-142.404 848.381L-145.095 821.021L749.5 749.5Z" fill="#0354FF"/>
<path fill-rule="evenodd" clip-rule="evenodd" d="M749.5 749.5L-144.587 826.503L-146.617 799.042L749.5 749.5Z" fill="#0253FF"/>
<path fill-rule="evenodd" clip-rule="evenodd" d="M749.499 749.5L-146.211 804.524L-147.531 777.012L749.499 749.5Z" fill="#0153FF"/>
<path fill-rule="evenodd" clip-rule="evenodd" d="M749.499 749.5L-147.278 782.545L-147.938 754.982L749.499 749.5Z" fill="#0052FF"/>
<path fill-rule="evenodd" clip-rule="evenodd" d="M749.5 749.499L-147.835 760.514V738.484L749.5 749.499Z" fill="white"/>
</g>
</g>
<defs>
<clipPath id="clip0_165_1972">
<rect width="1269" height="1269" fill="white" transform="translate(115 115)"/>
</clipPath>
</defs>
</svg>
