<svg width="1500" height="1500" viewBox="0 0 1500 1500" fill="none" xmlns="http://www.w3.org/2000/svg">
<rect width="1500" height="1500" rx="750" fill="white"/>
<path d="M1147.06 573.67C1144.99 571.549 1142.86 569.492 1140.67 567.5C1138.5 565.534 1136.45 563.312 1134.28 561.338C1132.1 559.364 1130.06 557.142 1127.88 555.176C1125.71 553.202 1123.66 550.98 1121.49 549.006C1119.31 547.032 1117.27 544.818 1115.09 542.844C1112.92 540.87 1110.87 538.648 1108.7 536.674C1106.53 534.7 1104.48 532.486 1102.31 530.512C1165.73 590.613 1202.07 672.389 1203.46 758.137C1203.46 962.458 988.37 1128.68 723.924 1128.68C575.845 1128.68 443.367 1076.52 355.261 994.762L361.654 1000.93L368.048 1007.09L374.442 1013.26L380.836 1019.43L387.229 1025.6L393.623 1031.76L400.017 1037.92C487.995 1123.13 623.415 1178 775.074 1178C1039.52 1178 1254.61 1011.79 1254.61 808.08C1254.61 721.022 1215.73 638.526 1147.06 573.67Z" fill="black"/>
<path d="M1171.49 758.138C1171.49 945.691 971.106 1097.73 723.924 1097.73C476.741 1097.73 276.361 945.691 276.361 758.138C276.361 641.852 353.086 539.144 470.987 478.227C588.888 417.311 662.288 354.916 723.924 354.916C785.56 354.916 838.244 405.842 976.861 478.235C1094.76 539.128 1171.49 641.852 1171.49 758.138Z" fill="#FBF0DF"/>
<path d="M1171.49 758.132C1171.43 734.013 1167.98 710.021 1161.26 686.857C1126.35 1097.47 606.922 1117.2 402.706 994.397C494.504 1063 607.786 1099.45 723.928 1097.72C970.727 1097.72 1171.49 945.437 1171.49 758.132Z" fill="#F6DECE"/>
<path d="M551.676 455.666C608.836 422.618 684.794 360.59 759.473 360.471C747.96 356.884 735.982 355.013 723.924 354.916C692.978 354.916 659.986 370.341 618.427 393.518C603.977 401.654 589.016 410.654 573.159 420.028C543.364 437.787 509.222 457.879 470.859 477.98C349.122 541.486 276.361 646.175 276.361 758.138V772.812C353.854 508.806 494.644 488.713 551.676 455.666Z" fill="#FFFEFC"/>
<path d="M687.094 386.119C687.258 415.304 680.91 444.158 668.512 470.58C655.955 497.287 637.728 520.936 615.1 539.88C611.52 542.965 614.333 548.887 618.936 547.153C662.03 531.009 720.213 482.672 695.661 385.136C694.638 379.581 687.094 381.059 687.094 386.119ZM716.121 386.119C731.712 410.584 741.666 438.212 745.261 466.999C748.817 495.667 745.9 524.735 736.709 552.212C735.175 556.528 740.673 560.228 743.742 556.656C771.747 522.13 796.171 453.565 723.027 379.581C719.318 376.384 713.564 381.307 716.121 385.623V386.119ZM751.415 384.025C775.759 400.585 796.259 422.186 811.524 447.363C826.586 472.232 835.971 500.12 839.009 529.035C838.881 530.074 839.169 531.113 839.817 531.952C840.488 532.79 841.446 533.35 842.506 533.523C843.566 533.695 844.652 533.469 845.555 532.887C846.447 532.315 847.081 531.418 847.321 530.386C859.086 487.356 852.436 413.987 755.635 375.881C750.52 373.914 747.195 380.572 751.415 383.529V384.025ZM515.358 512.259C544.349 503.946 571.313 489.738 594.56 470.524C617.487 451.58 636.126 427.98 649.243 401.288C651.545 396.844 658.833 398.57 657.683 403.502C635.56 502.149 561.521 522.745 515.486 520.028C510.626 520.156 510.754 513.618 515.358 512.259Z" fill="#CCBEA7"/>
<path d="M723.924 1128.68C459.478 1128.68 244.393 962.456 244.393 758.136C244.393 634.824 323.419 519.785 455.77 450.852C494.132 431.119 526.996 411.267 556.28 393.884C572.392 384.269 587.609 375.262 602.315 366.878C647.199 341.231 685.561 324.088 723.924 324.088C762.286 324.088 795.79 338.889 837.733 362.81C850.52 369.843 863.308 377.484 876.99 385.867C908.831 404.857 944.764 426.308 992.078 450.852C1124.43 519.785 1203.46 634.704 1203.46 758.136C1203.46 962.456 988.369 1128.68 723.924 1128.68ZM723.924 354.922C692.978 354.922 659.986 370.331 618.427 393.516C603.977 401.652 589.016 410.651 573.159 420.026C543.364 437.785 509.222 457.877 470.859 477.977C349.122 541.483 276.361 646.173 276.361 758.136C276.361 945.441 477.125 1097.85 723.924 1097.85C970.723 1097.85 1171.49 945.441 1171.49 758.136C1171.49 646.165 1098.73 541.483 976.861 478.225C928.524 453.561 890.801 430.384 860.239 412.13C846.3 403.874 833.513 396.225 821.876 389.448C783.13 367.246 754.87 354.922 723.924 354.922Z" fill="black"/>
<path d="M814.079 848.154C808.333 870.844 795.257 891.176 776.739 906.233C762.659 919.308 744.704 927.444 725.589 929.41C705.9 927.764 687.319 919.61 672.777 906.233C654.451 891.112 641.56 870.78 635.949 848.154C635.764 846.809 635.901 845.439 636.349 844.158C636.8 842.865 637.544 841.694 638.523 840.737C639.532 839.773 640.741 839.042 642.064 838.597C643.387 838.152 644.792 838.004 646.179 838.164H803.977C805.355 838.023 806.746 838.187 808.054 838.642C809.362 839.098 810.553 839.835 811.545 840.801C812.517 841.74 813.253 842.896 813.694 844.174C814.134 845.452 814.266 846.815 814.079 848.154Z" fill="#B71422"/>
<path d="M672.776 907.214C687.285 920.602 705.801 928.838 725.46 930.647C745.075 928.811 763.542 920.577 778.017 907.214C782.578 903.118 786.851 898.712 790.804 894.027C782.858 885.359 773.239 878.388 762.528 873.535C751.707 868.627 740.022 865.911 728.146 865.543C715.447 865.82 702.992 869.084 691.789 875.07C680.731 880.972 671.268 889.465 664.208 899.821C667.149 902.403 669.707 904.873 672.776 907.214Z" fill="#FF6164"/>
<path d="M674.821 897.46C681.226 889.506 689.339 883.095 698.558 878.702C707.882 874.251 718.069 871.899 728.401 871.813C747.419 872.305 765.606 879.716 779.551 892.657C782.492 889.572 785.305 886.367 787.99 883.162C771.726 868.217 750.219 859.721 727.761 859.361C715.789 859.454 703.975 862.111 693.115 867.154C682.374 872.131 672.855 879.404 665.23 888.461C668.252 891.626 671.456 894.631 674.821 897.46Z" fill="black"/>
<path d="M725.077 936.81C703.912 935.071 683.911 926.403 668.173 912.146C648.376 896.002 634.446 874.183 628.403 849.879C627.972 847.721 628.044 845.483 628.619 843.349C629.201 841.204 630.264 839.219 631.728 837.547C633.5 835.494 635.713 833.868 638.202 832.791C640.715 831.697 643.439 831.173 646.178 831.257H803.976C806.717 831.201 809.434 831.736 811.936 832.823C814.421 833.901 816.637 835.513 818.426 837.547C819.88 839.241 820.927 841.223 821.479 843.365C822.038 845.499 822.086 847.721 821.623 849.879C815.58 874.191 801.642 896.002 781.853 912.146C766.149 926.377 746.197 935.044 725.077 936.81ZM646.178 845.563C644.132 845.563 643.621 846.426 643.493 846.674C648.895 867.757 661.123 886.627 678.403 900.557C691.2 912.635 707.586 920.211 725.077 922.136C742.526 920.23 758.894 912.746 771.751 900.797C788.974 886.851 801.155 867.981 806.533 846.922C806.25 846.524 805.863 846.211 805.414 846.018C804.962 845.823 804.465 845.751 803.976 845.811L646.178 845.563Z" fill="black"/>
<path d="M918.554 855.8C959.874 855.8 993.361 836.803 993.361 813.377C993.361 789.952 959.874 770.963 918.554 770.963C877.235 770.963 843.748 789.952 843.748 813.377C843.748 836.803 877.235 855.8 918.554 855.8ZM531.477 855.8C572.796 855.8 606.284 836.803 606.284 813.377C606.284 789.952 572.796 770.963 531.477 770.963C490.157 770.963 456.67 789.952 456.67 813.377C456.67 836.803 490.157 855.8 531.477 855.8Z" fill="#FEBBD0"/>
<path d="M566.641 796.364C580.522 796.405 594.122 792.451 605.819 784.975C617.327 777.635 626.383 767.027 631.825 754.509C637.172 742.146 638.589 728.438 635.885 715.243C633.131 701.959 626.422 689.82 616.64 680.421C606.673 670.848 594.139 664.379 580.563 661.799C566.899 659.164 552.767 660.495 539.835 665.635C527.057 670.688 516.05 679.391 508.186 690.659C500.47 701.742 496.326 714.918 496.31 728.422C496.31 746.42 503.718 763.684 516.905 776.415C530.093 789.155 547.979 796.332 566.641 796.364ZM883.387 796.364C897.286 796.476 910.924 792.583 922.669 785.151C934.226 777.856 943.341 767.275 948.843 754.764C954.25 742.409 955.724 728.689 953.063 715.467C950.349 702.161 943.667 689.99 933.898 680.557C923.95 670.946 911.42 664.437 897.837 661.823C884.16 659.159 870.007 660.471 857.053 665.603C844.256 670.645 833.228 679.346 825.348 690.619C817.613 701.709 813.457 714.901 813.44 728.422C813.408 746.365 820.744 763.588 833.86 776.327C846.967 789.059 864.781 796.268 883.387 796.364Z" fill="black"/>
<path d="M544.897 732.727C550.115 732.757 555.231 731.283 559.635 728.483C564.006 725.686 567.419 721.714 569.441 717.054C571.463 712.41 572.007 707.257 570.999 702.293C569.974 697.299 567.461 692.732 563.79 689.194C560.049 685.589 555.339 683.151 550.236 682.176C545.1 681.181 539.786 681.677 534.923 683.607C530.119 685.503 525.98 688.772 523.022 693.006C520.12 697.171 518.561 702.124 518.555 707.2C518.555 713.945 521.328 720.419 526.259 725.206C531.272 730.018 537.948 732.718 544.897 732.727ZM861.643 732.727C866.861 732.757 871.978 731.283 876.381 728.483C880.753 725.686 884.165 721.714 886.187 717.054C888.209 712.41 888.753 707.257 887.746 702.293C886.72 697.299 884.207 692.732 880.537 689.194C876.795 685.589 872.085 683.151 866.982 682.176C861.846 681.181 856.532 681.677 851.669 683.607C846.865 685.503 842.726 688.772 839.769 693.006C836.866 697.171 835.307 702.124 835.301 707.2C835.301 713.913 838.034 720.339 842.918 725.118C847.793 729.898 854.426 732.631 861.388 732.727H861.643Z" fill="white"/>
</svg>
