<svg width="1500" height="1500" viewBox="0 0 1500 1500" fill="none" xmlns="http://www.w3.org/2000/svg">
<rect width="1500" height="1500" rx="750" fill="white"/>
<path d="M1222.88 753.604C1060.83 756.784 1094.58 859.369 980.376 885.312C864.359 911.669 846.045 601.965 730.057 601.965C614.055 601.965 588.358 902.808 443.109 1109.34L438.965 1115.19L750.378 1294.95L1222.88 1022.18V753.604Z" fill="#36A2EB"/>
<path d="M1222.87 744.267C1168.62 674.645 1131.83 594.605 1052.66 594.605C912.574 594.605 949.435 823.14 794.608 823.14C639.767 823.14 623.488 577.32 448.08 808.397C392.187 882.025 347.197 964.122 311.857 1041.81L750.372 1294.96L1222.87 1022.19V744.267Z" fill="#FFCE56"/>
<path opacity="0.8" d="M277.855 838.929C331.017 691.71 353.961 572.477 455.452 572.477C610.279 572.477 647.132 1007.44 779.863 963.191C912.571 918.962 897.821 683.045 1104.27 683.045C1143.57 683.045 1183.69 707.119 1222.88 746.06V1022.18L750.377 1294.95L277.863 1022.18L277.855 838.929Z" fill="#FE6184"/>
<path d="M750 1329.15L248 1039.37V459.788L750 170L1252 459.788V1039.36L750 1329.15ZM306.979 1005.32L750 1261.07L1193.02 1005.32V493.838L750 238.093L306.979 493.838V1005.32Z" fill="#E7E9ED"/>
</svg>
