<svg width="1500" height="1500" viewBox="0 0 1500 1500" fill="none" xmlns="http://www.w3.org/2000/svg">
<rect width="1500" height="1500" rx="750" fill="white"/>
<g clip-path="url(#clip0_142_1601)">
<path d="M467.28 903.45L650.49 801.15L653.28 791.85L650.49 787.2H641.19L610.5 785.34L506.34 782.55L415.2 777.9L326.85 773.25L304.53 768.6L285 740.7L286.86 726.75L305.46 714.66L332.43 716.52L391.02 721.17L479.37 726.75L543.54 730.47L638.4 741.63H653.28L655.14 735.12L650.49 731.4L646.77 727.68L554.7 666.3L456.12 601.2L404.04 563.07L376.14 544.47L362.19 525.87L356.61 486.81L381.72 458.91L416.13 461.7L424.5 463.56L458.91 490.53L533.31 547.26L629.1 619.8L643.05 630.96L648.63 627.24L649.56 624.45L643.05 614.22L591.9 517.5L536.1 420.78L510.99 380.79L504.48 356.61C501.69 347.31 500.76 338.01 500.76 328.71L528.66 289.65L545.4 285L584.46 290.58L599.34 303.6L623.52 359.4L661.65 445.89L722.1 563.07L740.7 598.41L750 630.03L752.79 639.33H759.3V634.68L763.95 567.72L773.25 486.81L782.55 382.65L785.34 352.89L800.22 317.55L828.12 298.95L852.3 309.18L870.9 336.15L868.11 352.89L857.88 424.5L833.7 537.03L819.75 613.29H828.12L837.42 603.06L875.55 552.84L939.72 472.86L967.62 440.31L1001.1 405.9L1022.49 389.16H1062.48L1091.31 432.87L1078.29 478.44L1037.37 530.52L1002.96 574.23L953.67 640.26L923.91 693.27L926.7 696.99H933.21L1044.81 672.81L1104.33 662.58L1175.01 650.49L1207.56 665.37L1211.28 680.25L1198.26 711.87L1122 730.47L1032.72 749.07L899.73 779.76L897.87 780.69L899.73 783.48L959.25 789.06L985.29 790.92H1048.53L1165.71 800.22L1196.4 818.82L1214.07 843.93L1211.28 862.53L1163.85 886.71L1100.61 871.83L951.81 836.49L901.59 824.4H894.15V828.12L936.93 869.97L1014.12 939.72L1112.7 1029.93L1117.35 1052.25L1105.26 1070.85L1092.24 1068.99L1006.68 1003.89L973.2 975.99L898.8 912.75H894.15V919.26L910.89 944.37L1002.03 1081.08L1006.68 1122.93L1000.17 1135.95L975.99 1145.25L950.88 1139.67L896.94 1065.27L841.14 981.57L797.43 905.31L792.78 909.03L765.81 1189.89L753.72 1203.84L725.82 1215L702.57 1196.4L689.55 1168.5L702.57 1110.84L717.45 1036.44L729.54 976.92L740.7 903.45L747.21 879.27V877.41H740.7L684.9 954.6L601.2 1068.99L534.24 1139.67L518.43 1146.18L490.53 1132.23L493.32 1106.19L508.2 1084.8L601.2 965.76L657 892.29L694.2 849.51L693.27 844.86H690.48L444.96 1004.82L401.25 1010.4L382.65 991.8L384.51 963.9L393.81 954.6L468.21 903.45H467.28Z" fill="#D97757"/>
</g>
<defs>
<clipPath id="clip0_142_1601">
<rect width="930" height="930" fill="white" transform="translate(285 285)"/>
</clipPath>
</defs>
</svg>
