<svg width="1500" height="1500" viewBox="0 0 1500 1500" fill="none" xmlns="http://www.w3.org/2000/svg">
<rect width="1500" height="1500" rx="750" fill="white"/>
<g clip-path="url(#clip0_146_1183)">
<path d="M1077.37 260.283C1095.77 272.608 1097.34 298.535 1081.68 314.195L947.171 448.706C935.015 460.864 916.155 462.783 900.853 454.945C855.608 431.765 804.331 418.688 750 418.688C567.021 418.688 418.688 567.021 418.688 750C418.688 804.331 431.765 855.608 454.945 900.853C462.783 916.155 460.864 935.015 448.706 947.171L314.195 1081.68C298.535 1097.34 272.608 1095.77 260.283 1077.37C197.574 983.749 161 871.145 161 750C161 424.705 424.705 161 750 161C871.145 161 983.749 197.574 1077.37 260.283Z" fill="#BAB1FF"/>
<path d="M934.062 750C934.062 851.655 851.655 934.062 750 934.062C648.345 934.062 565.938 851.655 565.938 750C565.938 648.345 648.345 565.938 750 565.938C851.655 565.938 934.062 648.345 934.062 750Z" fill="#6C47FF"/>
<path d="M1081.68 1185.81C1097.34 1201.47 1095.77 1227.4 1077.37 1239.72C983.75 1302.43 871.147 1339 750.001 1339C628.854 1339 516.251 1302.43 422.63 1239.72C404.229 1227.4 402.657 1201.47 418.317 1185.81L552.828 1051.3C564.986 1039.14 583.845 1037.22 599.147 1045.06C644.393 1068.24 695.669 1081.32 750.001 1081.32C804.332 1081.32 855.609 1068.24 900.855 1045.06C916.157 1037.22 935.017 1039.14 947.173 1051.3L1081.68 1185.81Z" fill="#6C47FF"/>
</g>
<defs>
<clipPath id="clip0_146_1183">
<rect width="1178" height="1178" fill="white" transform="translate(161 161)"/>
</clipPath>
</defs>
</svg>
