<svg width="1500" height="1500" viewBox="0 0 1500 1500" fill="none" xmlns="http://www.w3.org/2000/svg">
<rect width="1500" height="1500" rx="750" fill="white"/>
<path d="M418.723 1116.41L345.125 290.895H1153.87L1080.2 1116.29L749.009 1208.11L418.723 1116.41Z" fill="#1572B6"/>
<path d="M749.508 1137.93L1017.13 1063.73L1080.09 358.391H749.508V1137.93Z" fill="#33A9DC"/>
<path d="M749.508 657.481H883.484L892.737 553.804H749.508V452.557H1003.39L1000.96 479.722L976.071 758.729H749.508V657.481Z" fill="white"/>
<path d="M750.108 920.427L749.661 920.559L636.906 890.114L629.696 809.363H528.075L542.255 968.338L749.646 1025.9L750.108 1025.77V920.427Z" fill="#EBEBEB"/>
<path d="M874.877 754.447L862.681 890.034L749.758 920.516V1025.86L957.318 968.332L958.841 951.225L976.453 754.447H874.877Z" fill="white"/>
<path d="M749.854 452.557V553.804H505.297L503.269 531.052L498.657 479.722L496.234 452.557H749.854ZM749.51 657.496V758.743H638.175L636.148 735.992L631.528 684.662L629.113 657.496H749.51Z" fill="#EBEBEB"/>
</svg>
