<svg width="1500" height="1500" viewBox="0 0 1500 1500" fill="none" xmlns="http://www.w3.org/2000/svg">
<rect width="1500" height="1500" rx="750" fill="white"/>
<g clip-path="url(#clip0_146_1255)">
<mask id="mask0_146_1255" style="mask-type:luminance" maskUnits="userSpaceOnUse" x="263" y="263" width="974" height="974">
<path d="M263 263H1237V1237H263V263Z" fill="white"/>
</mask>
<g mask="url(#mask0_146_1255)">
<path d="M1004.91 263H495.086C366.908 263 263 366.908 263 495.086V1004.91C263 1133.09 366.908 1237 495.086 1237H1004.91C1133.09 1237 1237 1133.09 1237 1004.91V495.086C1237 366.908 1133.09 263 1004.91 263Z" fill="black"/>
<mask id="mask1_146_1255" style="mask-type:luminance" maskUnits="userSpaceOnUse" x="424" y="432" width="654" height="636">
<path d="M424.699 432.309H1077.2V1067.69H424.699V432.309Z" fill="white"/>
</mask>
<g mask="url(#mask1_146_1255)">
<mask id="mask2_146_1255" style="mask-type:luminance" maskUnits="userSpaceOnUse" x="424" y="432" width="654" height="636">
<path d="M424.699 432.309H1077.2V1067.69H424.699V432.309Z" fill="white"/>
</mask>
<g mask="url(#mask2_146_1255)">
<path d="M748.913 1067.69L1032.34 908.846L748.913 750L465.482 908.846L748.913 1067.69Z" fill="url(#paint0_linear_146_1255)"/>
<path d="M1032.35 908.846V591.154L748.913 432.309V750L1032.35 908.846Z" fill="url(#paint1_linear_146_1255)"/>
<path d="M748.913 432.309L465.482 591.154V908.846L748.913 750V432.309Z" fill="url(#paint2_linear_146_1255)"/>
<path d="M1032.35 591.156L748.913 1067.69V750.002L1032.35 591.156Z" fill="#E4E4E4"/>
<path d="M1032.34 591.156L748.913 750.002L465.482 591.156H1032.34Z" fill="white"/>
</g>
</g>
</g>
</g>
<defs>
<linearGradient id="paint0_linear_146_1255" x1="748.913" y1="750" x2="748.913" y2="1067.69" gradientUnits="userSpaceOnUse">
<stop offset="0.16" stop-color="white" stop-opacity="0.39"/>
<stop offset="0.658" stop-color="white" stop-opacity="0.8"/>
</linearGradient>
<linearGradient id="paint1_linear_146_1255" x1="1032.35" y1="592.134" x2="752.821" y2="760.457" gradientUnits="userSpaceOnUse">
<stop offset="0.182" stop-color="white" stop-opacity="0.31"/>
<stop offset="0.715" stop-color="white" stop-opacity="0"/>
</linearGradient>
<linearGradient id="paint2_linear_146_1255" x1="748.913" y1="432.309" x2="476.619" y2="915.127" gradientUnits="userSpaceOnUse">
<stop stop-color="white" stop-opacity="0.6"/>
<stop offset="0.667" stop-color="white" stop-opacity="0.22"/>
</linearGradient>
<clipPath id="clip0_146_1255">
<rect width="974" height="974" fill="white" transform="translate(263 263)"/>
</clipPath>
</defs>
</svg>
