<svg width="1500" height="1500" viewBox="0 0 1500 1500" fill="none" xmlns="http://www.w3.org/2000/svg">
<rect width="1500" height="1500" rx="750" fill="white"/>
<path fill-rule="evenodd" clip-rule="evenodd" d="M842.639 652.217H949.459V760.928H1003.34C1027.92 760.928 1053.44 756.201 1077.08 748.639C1088.42 744.857 1101.65 739.186 1113 732.568C1097.87 712.717 1090.31 688.139 1088.42 663.561C1085.58 630.475 1092.2 586.99 1114.89 561.467L1126.23 548.232L1139.47 558.631C1173.5 586.045 1200.91 622.912 1206.58 666.396C1247.23 654.107 1294.5 656.943 1330.42 677.74L1344.6 686.248L1337.04 701.373C1306.79 759.982 1243.45 778.889 1182.01 775.107C1089.37 1004.82 888.959 1113.53 645.069 1113.53C519.342 1113.53 404.014 1066.26 337.842 954.717L336.897 952.826L327.444 932.975C304.756 883.818 298.139 829.936 302.866 776.053L304.756 759.982H395.506V652.217H502.326V546.342H715.022V439.521H842.639V652.217Z" fill="#3A4D54"/>
<path d="M1188.63 692.866C1196.19 637.092 1154.59 593.608 1128.13 572.811C1098.82 606.842 1094.09 697.592 1140.41 735.405C1113.95 758.092 1060.06 779.834 1003.34 779.834H320.829C315.157 838.444 325.555 892.327 349.188 938.647L356.751 952.827C361.477 961.334 367.149 968.897 372.821 977.405C401.18 979.295 426.704 980.241 450.337 979.295C496.657 978.35 534.47 972.678 563.774 963.225C568.501 961.334 572.282 964.17 574.173 967.952C576.063 972.678 573.227 976.459 569.446 978.35C565.665 979.295 561.884 981.186 557.157 982.131C534.469 988.749 509.891 992.53 478.696 994.42H473.024C460.735 995.366 447.501 995.366 433.321 995.366C418.196 995.366 404.016 995.366 387.001 994.42C443.719 1058.7 532.579 1096.51 644.126 1096.51C880.454 1096.51 1080.86 991.584 1168.77 757.147C1232.11 763.764 1292.61 747.694 1320.02 693.811C1277.49 668.288 1220.77 676.795 1188.63 692.866Z" fill="#00AADA"/>
<path d="M1188.63 692.866C1196.19 637.092 1154.59 593.608 1128.13 572.811C1098.82 606.842 1094.09 697.592 1140.41 735.405C1113.95 758.092 1060.06 779.835 1003.34 779.835H360.532C357.696 869.639 390.782 937.702 450.336 978.35C496.657 977.405 534.469 971.733 563.774 962.28C568.501 960.389 572.282 963.225 574.172 967.006C576.063 971.733 573.227 975.514 569.446 977.405C565.665 978.35 561.883 980.241 557.157 981.186C534.469 987.803 508.001 992.53 476.805 994.42L475.86 993.475C556.212 1035.07 672.485 1034.12 806.719 983.077C956.079 925.413 1095.98 815.756 1193.35 690.975C1191.46 691.92 1189.57 691.92 1188.63 692.866Z" fill="#28B8EB"/>
<path d="M321.776 850.732C325.558 881.928 335.011 911.232 349.19 938.646L356.753 952.826C361.479 961.334 367.151 968.896 372.823 977.404C401.183 979.295 426.706 980.24 450.339 979.295C496.659 978.35 534.472 972.678 563.776 963.225C568.503 961.334 572.284 964.17 574.175 967.951C576.065 972.678 573.229 976.459 569.448 978.35C565.667 979.295 561.886 981.186 557.159 982.131C534.472 988.748 508.003 993.475 476.808 995.365H473.026C460.737 996.311 447.503 996.311 434.269 996.311C419.144 996.311 404.019 996.311 387.948 995.365C444.667 1059.65 534.472 1097.46 646.019 1097.46C848.315 1097.46 1024.14 1020.89 1126.24 851.678H321.776V850.732Z" fill="#028BB8"/>
<path d="M367.148 850.732C379.437 905.561 407.797 949.045 450.336 978.35C496.656 977.404 534.469 971.732 563.773 962.279C568.5 960.389 572.281 963.225 574.172 967.006C576.062 971.732 573.227 975.514 569.445 977.404C565.664 978.35 561.883 980.24 557.156 981.186C534.469 987.803 508 992.529 475.859 994.42C556.211 1036.01 672.484 1035.07 805.773 984.021C886.125 952.826 964.586 906.506 1034.54 850.732H367.148Z" fill="#019BC6"/>
<path fill-rule="evenodd" clip-rule="evenodd" d="M413.473 670.18H506.113V762.82H413.473V670.18ZM421.035 677.742H428.598V754.312H421.035V677.742ZM434.27 677.742H441.832V754.312H434.27V677.742ZM448.449 677.742H456.012V754.312H448.449V677.742ZM462.629 677.742H470.191V754.312H462.629V677.742ZM476.809 677.742H484.371V754.312H476.809V677.742ZM490.988 677.742H498.551V754.312H490.988V677.742ZM519.348 564.305H611.988V656.945H519.348V564.305ZM527.855 571.867H535.418V648.438H527.855V571.867ZM541.09 571.867H548.652V648.438H541.09V571.867ZM555.27 571.867H562.832V648.438H555.27V571.867ZM569.449 571.867H577.012V648.438H569.449V571.867ZM582.684 571.867H590.246V648.438H582.684V571.867ZM596.863 571.867H604.426V648.438H596.863V571.867Z" fill="#00ACD3"/>
<path fill-rule="evenodd" clip-rule="evenodd" d="M519.34 670.182H611.98V762.822H519.34V670.182ZM527.848 677.744H535.41V754.314H527.848V677.744ZM541.082 677.744H548.645V754.314H541.082V677.744ZM555.262 677.744H562.824V754.314H555.262V677.744ZM569.441 677.744H577.004V754.314H569.441V677.744ZM582.676 677.744H590.238V754.314H582.676V677.744ZM596.855 677.744H604.418V754.314H596.855V677.744Z" fill="#23C2EE"/>
<path fill-rule="evenodd" clip-rule="evenodd" d="M626.168 670.182H718.809V762.822H626.168V670.182ZM633.73 677.744H641.293V754.314H633.73V677.744ZM647.91 677.744H655.473V754.314H647.91V677.744ZM662.09 677.744H669.652V754.314H662.09V677.744ZM675.324 677.744H682.887V754.314H675.324V677.744ZM689.504 677.744H697.066V754.314H689.504V677.744ZM703.684 677.744H711.246V754.314H703.684V677.744Z" fill="#00ACD3"/>
<path fill-rule="evenodd" clip-rule="evenodd" d="M626.168 564.305H718.809V656.945H626.168V564.305ZM633.73 571.867H641.293V648.438H633.73V571.867ZM647.91 571.867H655.473V648.438H647.91V571.867ZM662.09 571.867H669.652V648.438H662.09V571.867ZM675.324 571.867H682.887V648.438H675.324V571.867ZM689.504 571.867H697.066V648.438H689.504V571.867ZM703.684 571.867H711.246V648.438H703.684V571.867ZM732.988 670.18H825.629V762.82H732.988V670.18ZM740.551 677.742H748.113V754.312H740.551V677.742ZM754.73 677.742H762.293V754.312H754.73V677.742ZM767.965 677.742H775.527V754.312H767.965V677.742ZM782.145 677.742H789.707V754.312H782.145V677.742ZM796.324 677.742H803.887V754.312H796.324V677.742ZM810.504 677.742H818.066V754.312H810.504V677.742Z" fill="#23C2EE"/>
<path fill-rule="evenodd" clip-rule="evenodd" d="M732.987 564.305H825.628V656.945H732.987V564.305ZM740.55 571.867H748.112V648.438H740.55V571.867ZM754.729 571.867H762.292V648.438H754.729V571.867ZM767.964 571.867H775.526V648.438H767.964V571.867ZM782.144 571.867H789.706V648.438H782.144V571.867ZM796.323 571.867H803.886V648.438H796.323V571.867ZM810.503 571.867H818.065V648.438H810.503V571.867Z" fill="#00ACD3"/>
<path fill-rule="evenodd" clip-rule="evenodd" d="M732.987 457.486H825.628V550.127H732.987V457.486ZM740.55 465.049H748.112V541.619H740.55V465.049ZM754.729 465.049H762.292V541.619H754.729V465.049ZM767.964 465.049H775.526V541.619H767.964V465.049ZM782.144 465.049H789.706V541.619H782.144V465.049ZM796.323 465.049H803.886V541.619H796.323V465.049ZM810.503 465.049H818.065V541.619H810.503V465.049Z" fill="#23C2EE"/>
<path fill-rule="evenodd" clip-rule="evenodd" d="M839.805 670.182H932.445V762.822H839.805V670.182ZM847.367 677.744H854.93V754.314H847.367V677.744ZM860.602 677.744H868.164V754.314H860.602V677.744ZM874.781 677.744H882.344V754.314H874.781V677.744ZM888.961 677.744H896.523V754.314H888.961V677.744ZM903.141 677.744H910.703V754.314H903.141V677.744ZM917.32 677.744H924.883V754.314H917.32V677.744Z" fill="#00ACD3"/>
<path fill-rule="evenodd" clip-rule="evenodd" d="M606.309 912.177C620.488 912.177 631.832 923.52 631.832 937.7C631.832 951.88 620.488 963.224 606.309 963.224C592.129 963.224 580.785 951.88 580.785 937.7C580.785 923.52 592.129 912.177 606.309 912.177Z" fill="#D4EEF1"/>
<path fill-rule="evenodd" clip-rule="evenodd" d="M606.309 919.743C608.199 919.743 611.035 919.743 612.926 920.688C611.035 921.634 609.144 924.47 609.144 927.306C609.144 931.087 612.926 934.868 616.707 934.868C619.543 934.868 622.379 932.978 623.324 931.087C624.269 932.978 624.27 935.814 624.27 937.704C624.27 948.103 615.762 955.665 606.309 955.665C595.91 955.665 588.348 947.157 588.348 937.704C588.348 928.251 595.91 919.743 606.309 919.743ZM155.395 860.189H1340.82C1315.29 853.571 1259.52 845.063 1268.03 811.032C1220.76 864.915 1108.27 848.845 1078.96 822.376C1046.82 868.696 861.543 850.735 849.254 814.813C809.551 862.079 685.715 862.079 646.012 814.813C632.777 850.735 447.496 868.696 416.301 822.376C387.941 848.845 274.504 864.915 227.238 811.032C237.637 844.118 180.918 853.571 155.395 860.189Z" fill="#3A4D54"/>
<path d="M674.379 1096.52C611.043 1066.27 577.012 1025.62 557.16 981.188C533.527 987.805 505.168 992.531 473.027 994.422C460.738 995.367 447.504 995.367 434.27 995.367C418.199 995.367 402.129 995.367 385.113 994.422C441.832 1051.14 513.676 1095.57 645.074 1096.52H674.379Z" fill="#BFDBE0"/>
<path d="M580.792 1021.84C572.284 1009.55 563.776 995.367 557.159 981.188C533.526 987.805 505.167 992.531 473.026 994.422C494.769 1005.77 526.909 1017.11 580.792 1021.84Z" fill="#D4EEF1"/>
</svg>
