<svg width="1500" height="1500" viewBox="0 0 1500 1500" fill="none" xmlns="http://www.w3.org/2000/svg">
<rect width="1500" height="1500" rx="750" fill="white"/>
<path d="M531.105 617.573L740.586 496.342C745.934 493.667 752.174 493.667 757.523 496.342L967.895 617.573C973.243 620.247 976.809 626.487 976.809 631.835V874.298C976.809 880.538 973.243 885.886 967.895 889.452L758.414 1010.68C753.066 1013.36 746.826 1013.36 741.477 1010.68L531.105 889.452C525.757 886.778 522.191 880.538 522.191 874.298V631.835C522.191 626.487 525.757 620.247 531.105 617.573Z" fill="#8080F2"/>
<path d="M1295.04 728.106L1044.55 291.317C1035.64 275.272 1018.7 263.684 999.983 263.684H499.012C481.184 263.684 464.248 275.272 454.442 291.317L203.957 727.215C195.043 743.26 195.043 762.871 203.957 778.916L454.442 1212.14C463.356 1228.19 480.293 1236.21 499.012 1236.21H1000.87C1018.7 1236.21 1035.64 1228.19 1045.44 1213.03L1295.93 779.808C1304.84 761.98 1304.84 743.26 1295.04 728.106ZM1087.34 937.587C1087.34 943.827 1083.77 950.066 1077.54 952.741L758.412 1137.26C753.063 1140.83 745.932 1140.83 740.584 1137.26L420.569 953.632C415.22 950.066 410.763 944.718 410.763 938.478V568.545C410.763 562.305 414.329 556.065 420.569 553.391L740.584 368.87C745.932 365.304 753.063 365.304 758.412 368.87L1078.43 553.391C1083.77 556.956 1088.23 562.305 1088.23 568.545V937.587H1087.34Z" fill="#4B32C3"/>
</svg>
