<svg width="1500" height="1500" viewBox="0 0 1500 1500" fill="none" xmlns="http://www.w3.org/2000/svg">
<rect width="1500" height="1500" rx="750" fill="white"/>
<path d="M1344 1018.38C722.38 1099.62 278.7 1197.19 272.136 796.682C272.136 796.682 285.701 641.496 476.037 631.724C476.037 631.724 482.455 493.894 627.869 478.288C706.045 469.828 794.869 550.338 804.495 635.078C804.495 635.078 996.873 599.49 1005.19 787.055C1008.1 852.397 993.373 963.536 807.849 958.723C807.849 958.723 700.503 944.138 685.918 778.159C655.726 1099.47 1120.26 1080.8 1126.97 788.952C1129.89 662.79 1049.09 532.982 867.065 557.339C767.303 306.329 501.707 320.768 402.82 553.547C261.489 553.547 153.413 662.352 155.018 804.412C160.414 1261.66 796.765 1123.83 1344 1018.38Z" fill="#24339B"/>
</svg>
