<svg width="1500" height="1500" viewBox="0 0 1500 1500" fill="none" xmlns="http://www.w3.org/2000/svg">
<rect width="1500" height="1500" rx="750" fill="white"/>
<path d="M1244.5 1021.76C1208.52 1030.91 1186.27 1022.15 1166.31 992.17C1121.49 925.021 1072.02 860.949 1024.28 795.693C1018.12 787.25 1011.73 778.965 1003.76 768.471C947.265 844.694 890.847 917.288 837.901 992.801C818.963 1019.79 799.079 1031.54 763.729 1022L976.144 736.908L778.405 479.437C812.414 472.809 835.928 476.202 856.759 506.66C902.762 573.888 953.498 637.881 1004.08 705.582C1054.97 638.117 1105.08 574.046 1152.42 507.449C1171.44 480.463 1191.87 470.205 1226.04 480.147C1200.16 514.471 1174.83 548.243 1149.34 581.778C1114.94 626.992 1081.17 672.757 1045.5 717.024C1032.8 732.805 1034.85 743.063 1046.21 757.976C1112.18 844.694 1177.36 932.28 1244.5 1021.76ZM255.494 732.174C261.175 703.689 264.962 674.651 272.853 646.718C320.197 477.622 514.306 407.317 647.658 512.104C725.775 573.572 745.186 660.211 741.319 757.897H301.022C294.394 933.148 420.565 1038.96 581.376 984.989C637.794 966.052 671.014 921.864 687.663 866.63C696.106 838.934 710.073 834.594 736.112 842.485C722.776 911.607 692.555 969.366 629.43 1005.5C534.743 1059.63 399.576 1042.12 328.482 966.92C286.504 922.732 268.671 867.735 260.78 808.318C259.597 798.849 257.151 789.539 255.257 780.149C255.415 764.157 255.494 748.165 255.494 732.174ZM301.812 720.417H699.736C697.132 593.693 618.226 503.661 510.361 502.872C392.001 501.925 306.94 589.827 301.812 720.417Z" fill="black"/>
</svg>
