<svg width="1500" height="1500" viewBox="0 0 1500 1500" fill="none" xmlns="http://www.w3.org/2000/svg">
<rect width="1500" height="1500" rx="750" fill="white"/>
<path d="M749.5 750.249C749.5 658.001 824.282 583.217 916.532 583.217C1008.78 583.217 1083.56 658.001 1083.56 750.249C1083.56 842.499 1008.78 917.281 916.532 917.281C824.282 917.281 749.5 842.499 749.5 750.249Z" fill="#1ABCFE"/>
<path d="M415.436 1084.32C415.436 992.068 490.218 917.283 582.468 917.283H749.5V1084.32C749.5 1176.57 674.718 1251.35 582.468 1251.35C490.218 1251.35 415.436 1176.57 415.436 1084.32Z" fill="#0ACF83"/>
<path d="M749.5 249.154V583.217H916.532C1008.78 583.217 1083.56 508.435 1083.56 416.186C1083.56 323.937 1008.78 249.154 916.532 249.154H749.5Z" fill="#FF7262"/>
<path d="M415.436 416.186C415.436 508.435 490.218 583.217 582.468 583.217H749.5V249.154H582.468C490.218 249.154 415.436 323.937 415.436 416.186Z" fill="#F24E1E"/>
<path d="M415.436 750.249C415.436 842.499 490.218 917.281 582.468 917.281H749.5V583.217H582.468C490.218 583.217 415.436 658.001 415.436 750.249Z" fill="#A259FF"/>
</svg>
