<svg width="1500" height="1500" viewBox="0 0 1500 1500" fill="none" xmlns="http://www.w3.org/2000/svg">
<rect width="1500" height="1500" rx="750" fill="white"/>
<path d="M396.493 909.117L499.621 248.243C503.194 225.744 533.418 220.336 544.04 240.518L654.894 447.934L396.493 909.117ZM1129.79 1069.7L1031.39 460.97C1028.4 442.044 1004.74 434.319 991.124 447.934L371 1069.7L714.183 1262.34C724.803 1268.19 736.728 1271.25 748.849 1271.25C760.97 1271.25 772.895 1268.19 783.515 1262.34L1129.79 1069.7ZM851.205 538.606L771.734 387.486C762.851 370.298 738.517 370.298 729.633 387.486L380.56 1009.83L851.205 538.606Z" fill="#F58220"/>
</svg>
