<svg width="1500" height="1500" viewBox="0 0 1500 1500" fill="none" xmlns="http://www.w3.org/2000/svg">
<rect width="1500" height="1500" rx="750" fill="white"/>
<mask id="mask0_146_1088" style="mask-type:alpha" maskUnits="userSpaceOnUse" x="238" y="238" width="1023" height="1023">
<path d="M749.412 238C760.13 238 769.477 245.329 772.093 255.732C780.089 287.548 790.625 318.672 803.6 348.803C837.519 427.61 884.062 496.583 943.152 555.672C1002.27 614.778 1071.23 661.321 1150.02 695.24C1180.16 708.211 1211.29 718.747 1243.11 726.747C1253.51 729.364 1260.82 738.694 1260.82 749.412C1260.82 760.13 1253.51 769.477 1243.09 772.093C1211.28 780.089 1180.15 790.625 1150.02 803.6C1071.21 837.519 1002.26 884.062 943.152 943.152C884.062 1002.27 837.519 1071.23 803.6 1150.02C790.623 1180.16 780.082 1211.29 772.077 1243.11C770.81 1248.16 767.893 1252.65 763.788 1255.86C759.682 1259.07 754.623 1260.82 749.412 1260.82C738.694 1260.82 729.364 1253.51 726.747 1243.09C718.746 1211.28 708.204 1180.15 695.224 1150.02C661.321 1071.21 614.794 1002.26 555.672 943.152C496.567 884.062 427.61 837.519 348.803 803.6C318.671 790.624 287.547 780.083 255.732 772.077C250.677 770.814 246.188 767.9 242.976 763.798C239.764 759.695 238.013 754.638 238 749.428C238 738.71 245.329 729.379 255.732 726.763C287.549 718.762 318.673 708.221 348.803 695.24C427.61 661.337 496.583 614.794 555.672 555.688C614.778 496.598 661.321 427.626 695.24 348.819C708.211 318.686 718.747 287.563 726.747 255.747C728.008 250.687 730.923 246.193 735.029 242.977C739.135 239.762 744.197 238.01 749.412 238Z" fill="black"/>
<path d="M749.412 238C760.13 238 769.477 245.329 772.093 255.732C780.089 287.548 790.625 318.672 803.6 348.803C837.519 427.61 884.062 496.583 943.152 555.672C1002.27 614.778 1071.23 661.321 1150.02 695.24C1180.16 708.211 1211.29 718.747 1243.11 726.747C1253.51 729.364 1260.82 738.694 1260.82 749.412C1260.82 760.13 1253.51 769.477 1243.09 772.093C1211.28 780.089 1180.15 790.625 1150.02 803.6C1071.21 837.519 1002.26 884.062 943.152 943.152C884.062 1002.27 837.519 1071.23 803.6 1150.02C790.623 1180.16 780.082 1211.29 772.077 1243.11C770.81 1248.16 767.893 1252.65 763.788 1255.86C759.682 1259.07 754.623 1260.82 749.412 1260.82C738.694 1260.82 729.364 1253.51 726.747 1243.09C718.746 1211.28 708.204 1180.15 695.224 1150.02C661.321 1071.21 614.794 1002.26 555.672 943.152C496.567 884.062 427.61 837.519 348.803 803.6C318.671 790.624 287.547 780.083 255.732 772.077C250.677 770.814 246.188 767.9 242.976 763.798C239.764 759.695 238.013 754.638 238 749.428C238 738.71 245.329 729.379 255.732 726.763C287.549 718.762 318.673 708.221 348.803 695.24C427.61 661.337 496.583 614.794 555.672 555.688C614.778 496.598 661.321 427.626 695.24 348.819C708.211 318.686 718.747 287.563 726.747 255.747C728.008 250.687 730.923 246.193 735.029 242.977C739.135 239.762 744.197 238.01 749.412 238Z" fill="url(#paint0_linear_146_1088)"/>
</mask>
<g mask="url(#mask0_146_1088)">
<g filter="url(#filter0_f_146_1088)">
<path d="M145.66 1037.68C263.839 1079.65 399.671 1000.96 449.052 861.909C498.433 722.877 442.653 576.137 324.473 534.165C206.294 492.192 70.4616 570.889 21.0652 709.921C-28.2998 848.968 27.4801 995.708 145.66 1037.68Z" fill="#FFE432"/>
</g>
<g filter="url(#filter1_f_146_1088)">
<path d="M670.388 579.257C832.731 579.257 964.355 444.733 964.355 278.812C964.355 112.876 832.747 -21.6328 670.388 -21.6328C508.029 -21.6328 376.39 112.891 376.39 278.812C376.39 444.733 508.014 579.257 670.388 579.257Z" fill="#FC413D"/>
</g>
<g filter="url(#filter2_f_146_1088)">
<path d="M556.13 1540.08C725.613 1531.81 854.306 1347.1 843.572 1127.54C832.854 907.985 686.746 736.705 517.263 744.996C347.78 753.286 219.087 937.979 229.821 1157.54C240.554 1377.09 386.647 1548.37 556.13 1540.08Z" fill="#00B95C"/>
</g>
<g filter="url(#filter3_f_146_1088)">
<path d="M556.13 1540.08C725.613 1531.81 854.306 1347.1 843.572 1127.54C832.854 907.985 686.746 736.705 517.263 744.996C347.78 753.286 219.087 937.979 229.821 1157.54C240.554 1377.09 386.647 1548.37 556.13 1540.08Z" fill="#00B95C"/>
</g>
<g filter="url(#filter4_f_146_1088)">
<path d="M725.884 1407.26C867.957 1320.81 905.99 1123.93 810.822 967.516C715.654 811.083 523.317 754.358 381.228 840.794C239.138 927.261 201.106 1124.14 296.273 1280.57C391.473 1436.99 583.794 1493.71 725.884 1407.26Z" fill="#00B95C"/>
</g>
<g filter="url(#filter5_f_146_1088)">
<path d="M1300.18 915.638C1459.87 915.638 1589.34 790.965 1589.34 637.196C1589.34 483.411 1459.87 358.738 1300.18 358.738C1140.48 358.738 1011.02 483.411 1011.02 637.196C1011.02 790.981 1140.48 915.638 1300.18 915.638Z" fill="#3186FF"/>
</g>
<g filter="url(#filter6_f_146_1088)">
<path d="M32.0811 883.357C179.136 995.169 393.949 960.1 511.892 804.991C629.835 649.898 606.255 433.509 459.201 321.697C312.147 209.87 97.3493 244.939 -20.6095 400.048C-138.553 555.14 -114.958 771.545 32.0811 883.357Z" fill="#FBBC04"/>
</g>
<g filter="url(#filter7_f_146_1088)">
<path d="M785.555 1048.66C961.059 1169.33 1193.71 1135.72 1305.18 973.569C1416.66 811.43 1364.74 582.18 1189.22 461.51C1013.7 340.809 781.063 374.444 669.582 536.566C558.117 698.72 610.02 927.971 785.539 1048.66H785.555Z" fill="#3186FF"/>
</g>
<g filter="url(#filter8_f_146_1088)">
<path d="M1104.63 201.182C1149.29 261.895 1091.9 379.917 976.478 464.824C861.041 549.731 731.277 569.339 686.625 508.641C641.972 447.912 699.344 329.875 814.765 244.983C930.202 160.076 1059.98 140.469 1104.62 201.167L1104.63 201.182Z" fill="#749BFF"/>
</g>
<g filter="url(#filter9_f_146_1088)">
<path d="M738.072 491.856C916.586 326.266 977.851 102.075 874.928 -8.88611C772.006 -119.847 543.843 -75.5886 365.329 90.0013C186.814 255.591 125.534 479.782 228.472 590.743C331.394 701.704 559.557 657.445 738.072 491.856Z" fill="#FC413D"/>
</g>
<g filter="url(#filter10_f_146_1088)">
<path d="M372.134 1086.6C478.24 1162.54 600.044 1174.08 644.208 1112.39C688.372 1050.68 638.156 939.107 532.049 863.169C425.959 787.23 304.139 775.693 259.991 837.383C215.827 899.089 266.027 1010.66 372.134 1086.6Z" fill="#FFEE48"/>
</g>
</g>
<defs>
<filter id="filter0_f_146_1088" x="-74.4605" y="445.329" width="619.047" height="681.187" filterUnits="userSpaceOnUse" color-interpolation-filters="sRGB">
<feFlood flood-opacity="0" result="BackgroundImageFix"/>
<feBlend mode="normal" in="SourceGraphic" in2="BackgroundImageFix" result="shape"/>
<feGaussianBlur stdDeviation="38.7732" result="effect1_foregroundBlur_146_1088"/>
</filter>
<filter id="filter1_f_146_1088" x="1.55054" y="-396.472" width="1337.64" height="1350.57" filterUnits="userSpaceOnUse" color-interpolation-filters="sRGB">
<feFlood flood-opacity="0" result="BackgroundImageFix"/>
<feBlend mode="normal" in="SourceGraphic" in2="BackgroundImageFix" result="shape"/>
<feGaussianBlur stdDeviation="187.42" result="effect1_foregroundBlur_146_1088"/>
</filter>
<filter id="filter2_f_146_1088" x="-89.47" y="426.042" width="1252.33" height="1432.99" filterUnits="userSpaceOnUse" color-interpolation-filters="sRGB">
<feFlood flood-opacity="0" result="BackgroundImageFix"/>
<feBlend mode="normal" in="SourceGraphic" in2="BackgroundImageFix" result="shape"/>
<feGaussianBlur stdDeviation="159.333" result="effect1_foregroundBlur_146_1088"/>
</filter>
<filter id="filter3_f_146_1088" x="-89.47" y="426.042" width="1252.33" height="1432.99" filterUnits="userSpaceOnUse" color-interpolation-filters="sRGB">
<feFlood flood-opacity="0" result="BackgroundImageFix"/>
<feBlend mode="normal" in="SourceGraphic" in2="BackgroundImageFix" result="shape"/>
<feGaussianBlur stdDeviation="159.333" result="effect1_foregroundBlur_146_1088"/>
</filter>
<filter id="filter4_f_146_1088" x="-74.801" y="481.702" width="1256.7" height="1284.66" filterUnits="userSpaceOnUse" color-interpolation-filters="sRGB">
<feFlood flood-opacity="0" result="BackgroundImageFix"/>
<feBlend mode="normal" in="SourceGraphic" in2="BackgroundImageFix" result="shape"/>
<feGaussianBlur stdDeviation="159.333" result="effect1_foregroundBlur_146_1088"/>
</filter>
<filter id="filter5_f_146_1088" x="708.21" y="55.9291" width="1183.94" height="1162.52" filterUnits="userSpaceOnUse" color-interpolation-filters="sRGB">
<feFlood flood-opacity="0" result="BackgroundImageFix"/>
<feBlend mode="normal" in="SourceGraphic" in2="BackgroundImageFix" result="shape"/>
<feGaussianBlur stdDeviation="151.405" result="effect1_foregroundBlur_146_1088"/>
</filter>
<filter id="filter6_f_146_1088" x="-370.123" y="-18.1534" width="1231.53" height="1241.35" filterUnits="userSpaceOnUse" color-interpolation-filters="sRGB">
<feFlood flood-opacity="0" result="BackgroundImageFix"/>
<feBlend mode="normal" in="SourceGraphic" in2="BackgroundImageFix" result="shape"/>
<feGaussianBlur stdDeviation="137.219" result="effect1_foregroundBlur_146_1088"/>
</filter>
<filter id="filter7_f_146_1088" x="365.767" y="143.995" width="1243.23" height="1222.16" filterUnits="userSpaceOnUse" color-interpolation-filters="sRGB">
<feFlood flood-opacity="0" result="BackgroundImageFix"/>
<feBlend mode="normal" in="SourceGraphic" in2="BackgroundImageFix" result="shape"/>
<feGaussianBlur stdDeviation="122.545" result="effect1_foregroundBlur_146_1088"/>
</filter>
<filter id="filter8_f_146_1088" x="452.166" y="-53.4026" width="886.925" height="816.614" filterUnits="userSpaceOnUse" color-interpolation-filters="sRGB">
<feFlood flood-opacity="0" result="BackgroundImageFix"/>
<feBlend mode="normal" in="SourceGraphic" in2="BackgroundImageFix" result="shape"/>
<feGaussianBlur stdDeviation="109.652" result="effect1_foregroundBlur_146_1088"/>
</filter>
<filter id="filter9_f_146_1088" x="-6.70428" y="-255.252" width="1116.8" height="1092.36" filterUnits="userSpaceOnUse" color-interpolation-filters="sRGB">
<feFlood flood-opacity="0" result="BackgroundImageFix"/>
<feBlend mode="normal" in="SourceGraphic" in2="BackgroundImageFix" result="shape"/>
<feGaussianBlur stdDeviation="92.6143" result="effect1_foregroundBlur_146_1088"/>
</filter>
<filter id="filter10_f_146_1088" x="14.6908" y="568.453" width="874.815" height="812.868" filterUnits="userSpaceOnUse" color-interpolation-filters="sRGB">
<feFlood flood-opacity="0" result="BackgroundImageFix"/>
<feBlend mode="normal" in="SourceGraphic" in2="BackgroundImageFix" result="shape"/>
<feGaussianBlur stdDeviation="114.633" result="effect1_foregroundBlur_146_1088"/>
</filter>
<linearGradient id="paint0_linear_146_1088" x1="528.752" y1="922.363" x2="1060.01" y2="474.485" gradientUnits="userSpaceOnUse">
<stop stop-color="#4893FC"/>
<stop offset="0.27" stop-color="#4893FC"/>
<stop offset="0.777" stop-color="#969DFF"/>
<stop offset="1" stop-color="#BD99FE"/>
</linearGradient>
</defs>
</svg>
