<svg width="1500" height="1500" viewBox="0 0 1500 1500" fill="none" xmlns="http://www.w3.org/2000/svg">
<rect width="1500" height="1500" rx="750" fill="white"/>
<path d="M1307.14 699.871L801.103 193.856C771.98 164.715 724.714 164.715 695.546 193.856L590.475 298.945L723.769 432.238C754.756 421.78 790.269 428.795 814.957 453.483C839.774 478.328 846.733 514.144 836.019 545.232L964.483 673.705C995.561 662.99 1031.43 669.913 1056.24 694.776C1090.95 729.453 1090.95 785.67 1056.24 820.366C1047.99 828.617 1038.2 835.163 1027.42 839.629C1016.65 844.095 1005.09 846.393 993.427 846.393C981.76 846.393 970.208 844.095 959.431 839.629C948.653 835.163 938.86 828.617 930.613 820.366C918.222 807.967 909.775 792.18 906.337 774.992C902.898 757.803 904.62 739.982 911.287 723.77L791.49 603.973L791.471 919.266C800.163 923.547 808.099 929.215 814.966 936.05C849.653 970.727 849.653 1026.93 814.966 1061.68C780.27 1096.35 724.035 1096.35 689.376 1061.68C654.689 1026.93 654.689 970.736 689.376 936.05C697.686 927.726 707.571 921.141 718.453 916.677V598.464C707.562 594.013 697.675 587.423 689.376 579.083C663.099 552.824 656.773 514.263 670.251 481.982L538.84 350.571L191.862 697.53C177.864 711.533 170 730.522 170 750.322C170 770.122 177.864 789.112 191.862 803.114L697.905 1309.13C727.047 1338.27 774.293 1338.27 803.48 1309.13L1307.15 805.465C1321.14 791.458 1329 772.467 1329 752.666C1329 732.865 1321.13 713.876 1307.14 699.871Z" fill="#F34F29"/>
</svg>
