<svg width="1500" height="1500" viewBox="0 0 1500 1500" fill="none" xmlns="http://www.w3.org/2000/svg">
<rect width="1500" height="1500" rx="750" fill="white"/>
<path fill-rule="evenodd" clip-rule="evenodd" d="M753.005 136C444.098 135.686 180.636 359.627 131.176 664.547C81.7164 969.469 260.885 1265.21 554.052 1362.55C585.73 1368.35 596.933 1348.65 596.933 1332.03C596.933 1315.42 596.933 1277.56 596.933 1225.02C421.16 1263.27 384.074 1140.42 384.074 1140.42C372.413 1102.34 347.639 1069.63 314.15 1048.09C257.362 1009.46 318.786 1009.46 318.786 1009.46C359.122 1015.16 394.595 1039.09 414.979 1074.36C432.243 1105.67 461.262 1128.8 495.624 1138.66C529.985 1148.52 566.858 1144.29 598.092 1126.9C600.517 1095.12 614.218 1065.25 636.724 1042.68C496.877 1026.85 350.078 972.758 350.078 733.63C349.118 671.163 372.217 610.717 414.592 564.81C395.719 510.495 397.925 451.075 420.774 398.308C420.774 398.308 473.699 381.31 593.843 462.823C697.012 434.497 805.905 434.497 909.078 462.823C1029.22 381.31 1081.76 398.308 1081.76 398.308C1104.93 450.516 1107.68 509.511 1089.48 563.651C1131.86 609.558 1154.96 670.003 1154 732.47C1154 974.307 1006.82 1027.23 866.582 1041.52C897.005 1072.11 912.652 1114.39 909.461 1157.42C909.461 1241.64 909.461 1309.63 909.461 1330.1C909.461 1350.57 920.664 1366.42 952.729 1360.23C1242.42 1260.37 1418.07 966.377 1368.73 663.956C1319.4 361.539 1059.41 138.615 753.005 136Z" fill="black"/>
</svg>
