<svg width="1500" height="1500" viewBox="0 0 1500 1500" fill="none" xmlns="http://www.w3.org/2000/svg">
<rect width="1500" height="1500" rx="750" fill="white"/>
<g clip-path="url(#clip0_146_1129)">
<path d="M869.465 204.765C831.936 192.823 790.995 186 749.201 186C628.938 186 520.615 240.588 448.115 326.734L634.055 482.822L869.465 204.765Z" fill="#1A73E8"/>
<path d="M448.117 326.734C390.97 394.969 356 483.674 356 579.203C356 653.409 370.5 713.114 395.235 766.849L634.057 482.822L448.117 326.734Z" fill="#EA4335"/>
<path d="M750.053 429.08C833.641 429.08 901.023 496.462 901.023 580.049C901.023 616.726 887.376 650.843 865.199 677.284C865.199 677.284 983.757 535.697 1099.76 398.374C1051.99 306.257 969.257 236.316 869.464 204.758L634.054 482.815C662.201 450.403 703.141 429.08 750.053 429.08Z" fill="#4285F4"/>
<path d="M750.053 730.179C666.465 730.179 599.083 662.798 599.083 579.21C599.083 542.534 611.877 508.416 634.053 482.828L395.231 766.856C436.172 857.267 504.407 930.619 574.348 1021.88L865.199 676.444C837.052 709.709 796.111 730.179 750.053 730.179Z" fill="#FBBC04"/>
<path d="M860.082 1117.4C991.434 911.838 1144.11 818.868 1144.11 580.046C1144.11 514.37 1127.9 452.959 1099.76 398.371L574.349 1021.87C596.525 1050.87 619.554 1084.13 641.731 1118.25C721.906 1241.92 699.73 1315.28 750.906 1315.28C802.082 1315.28 779.906 1241.07 860.082 1117.4Z" fill="#34A853"/>
</g>
<defs>
<clipPath id="clip0_146_1129">
<rect width="787.259" height="1128.43" fill="white" transform="translate(356 186)"/>
</clipPath>
</defs>
</svg>
