<svg width="1500" height="1500" viewBox="0 0 1500 1500" fill="none" xmlns="http://www.w3.org/2000/svg">
<rect width="1500" height="1500" rx="750" fill="white"/>
<path d="M831.86 726.915L399.832 1179.55C404.683 1196.74 413.401 1212.6 425.32 1225.91C437.239 1239.21 452.042 1249.62 468.599 1256.33C485.156 1263.04 503.028 1265.87 520.849 1264.62C538.67 1263.36 555.968 1258.05 571.42 1249.08L1057.53 972.225L831.86 726.915Z" fill="#EA4335"/>
<path d="M1268.77 649.979L1058.55 529.577L821.93 737.221L1059.51 971.585L1268.12 852.472C1286.6 842.795 1302.08 828.245 1312.89 810.397C1323.69 792.55 1329.4 772.086 1329.4 751.225C1329.4 730.364 1323.69 709.9 1312.89 692.053C1302.08 674.206 1286.6 659.655 1268.12 649.979H1268.77Z" fill="#FBBC04"/>
<path d="M399.864 320.637C397.253 330.291 395.953 340.253 396.001 350.254V1149.93C396.027 1159.92 397.326 1169.87 399.864 1179.54L846.701 738.5L399.864 320.637Z" fill="#4285F4"/>
<path d="M835.08 750.086L1058.5 529.565L573.03 251.419C554.766 240.722 533.994 235.057 512.829 235C487.267 234.95 462.39 243.259 441.99 258.661C421.589 274.063 406.784 295.713 399.832 320.311L835.08 750.086Z" fill="#34A853"/>
</svg>
