<svg width="1500" height="1500" viewBox="0 0 1500 1500" fill="none" xmlns="http://www.w3.org/2000/svg">
<rect width="1500" height="1500" rx="750" fill="white"/>
<path d="M515.998 735.991C515.998 735.991 515.998 736.104 515.998 736.172L501.281 800.713C500.487 804.364 496.881 807.04 492.71 807.04H474.953C473.638 807.04 472.457 807.924 472.094 809.195C455.699 865.412 433.497 904.055 404.176 927.254C379.23 947.007 348.479 956.214 307.41 956.214C270.491 956.214 245.614 944.217 224.501 920.542C196.607 889.246 185.065 838.018 192.049 776.289C204.658 660.407 264.119 543.481 378.664 543.481C413.497 543.164 440.845 554.026 459.872 575.706C479.986 598.633 490.214 633.171 490.259 678.368C490.191 682.472 486.813 685.783 482.753 685.783H398.846C395.876 685.783 393.223 683.085 393.268 680.114C392.587 648.864 383.403 633.625 365.17 633.625C333.013 633.625 314.032 677.755 303.963 702.225C289.903 736.399 282.76 773.501 284.166 810.465C284.823 827.677 287.567 851.875 303.737 861.898C318.069 870.787 338.524 864.891 350.906 855.049C363.288 845.206 373.243 828.177 377.438 812.642C378.028 810.488 378.074 808.81 377.507 808.061C376.917 807.29 375.284 807.109 374.038 807.109H352.493C350.18 807.109 347.89 806.043 346.506 804.319C345.35 802.867 344.896 801.076 345.304 799.308L360.045 734.653C360.771 731.343 363.741 728.848 367.392 728.395V728.235H508.787C509.128 728.235 509.468 728.235 509.786 728.304C513.46 728.78 516.045 732.227 515.977 735.991H515.998Z" fill="black"/>
<path d="M759.465 661.811C759.396 665.848 756.017 669.159 751.959 669.159H674.674C669.616 669.159 665.375 665.009 665.375 659.951C665.375 637.16 657.574 626.071 641.61 626.071C625.644 626.071 615.348 635.981 615.054 653.284C614.714 672.583 625.508 690.113 656.259 720.251C696.739 758.622 712.952 792.616 712.182 837.54C710.911 910.199 662.019 957.164 587.637 957.164C549.651 957.164 520.624 946.891 501.326 926.641C481.733 906.071 472.752 875.887 474.635 836.927C474.724 832.89 478.08 829.603 482.14 829.603H562.079C564.257 829.603 566.411 830.668 567.862 832.483C569.109 834.047 569.63 835.975 569.314 837.79C568.428 851.849 570.855 862.348 576.32 868.155C579.836 871.918 584.712 873.825 590.811 873.825C605.575 873.825 614.238 863.279 614.554 844.909C614.827 829.035 609.86 815.112 582.784 786.969C547.815 752.431 516.451 716.759 517.426 660.654C517.994 628.135 530.784 598.382 553.44 576.883C577.386 554.161 610.156 542.164 648.185 542.164C686.285 542.436 715.153 553.412 733.997 574.797C751.846 595.071 760.44 624.348 759.488 661.811H759.465Z" fill="black"/>
<path d="M999.03 943.488L999.528 557.085C999.596 553.026 996.353 549.715 992.295 549.715H872.671C868.656 549.715 866.888 553.207 865.731 555.52L692.543 941.131V941.199C692.543 941.199 692.496 941.265 692.475 941.289C690.547 946.028 694.197 951.109 699.278 951.109H782.889C787.402 951.109 790.397 949.725 791.87 946.846L808.47 906.524C810.511 901.149 810.897 900.651 816.701 900.651H896.595C902.15 900.651 902.265 900.764 902.174 906.253L900.382 943.738C900.314 947.798 903.557 951.109 907.617 951.109H992.09C994.244 951.109 996.264 950.201 997.6 948.592C998.802 947.162 999.302 945.349 999.03 943.488ZM851.035 814.477C850.264 814.477 849.652 814.453 849.154 814.408C847.906 814.295 847.067 813.093 847.385 811.868C847.543 811.3 847.771 810.553 848.11 809.622L908.025 659.837C908.546 658.363 909.203 656.912 909.884 655.506C910.86 653.488 912.038 653.351 912.401 654.848C912.719 656.095 905.529 808.647 905.529 808.647C904.964 814.362 904.714 814.59 899.136 815.066L851.103 814.498H850.99L851.035 814.477Z" fill="black"/>
<path d="M1169.43 549.715H1105.93C1102.58 549.715 1098.81 551.507 1097.93 555.543C1097.93 555.543 1009.55 943.24 1009.55 943.285C1009.17 945.076 1009.58 946.846 1010.75 948.319C1012.14 950.042 1014.43 951.109 1016.74 951.109H1096.11C1100.38 951.109 1103.3 949 1104.1 945.326C1104.1 945.326 1113.71 901.512 1113.73 901.377C1114.41 897.953 1113.23 895.3 1110.2 893.688C1108.77 892.941 1107.34 892.192 1105.93 891.444L1092.17 884.21L1078.47 876.998C1076.7 876.068 1074.93 875.139 1073.19 874.208C1072.3 873.756 1071.76 872.848 1071.78 871.851C1071.8 870.376 1073.03 869.175 1074.5 869.175L1118 869.379C1131.01 869.446 1144.03 868.517 1156.82 866.137C1246.9 849.332 1306.72 776.423 1308.44 677.231C1309.92 592.576 1263.16 549.67 1169.5 549.67L1169.43 549.715ZM1147.82 780.46H1146.12C1142.31 780.46 1141.63 780.029 1141.51 779.892C1141.45 779.802 1166.59 668.228 1166.62 668.07C1167.25 664.849 1167.23 662.99 1165.26 661.901C1162.74 660.495 1126.03 640.925 1126.03 640.925C1125.14 640.448 1124.62 639.541 1124.64 638.543C1124.66 637.092 1125.87 635.89 1127.34 635.89H1185.4C1203.47 636.457 1213.54 652.785 1213.06 680.678C1212.22 728.982 1189.5 778.758 1147.82 780.46Z" fill="black"/>
<path d="M1234.02 951.109C1247.08 951.109 1257.31 941.063 1257.31 927.524C1257.31 913.986 1247.08 903.939 1234.02 903.939C1220.96 903.939 1210.62 913.986 1210.62 927.524C1210.62 941.063 1220.93 951.109 1234.02 951.109ZM1216.17 927.433C1216.17 915.937 1223 908.407 1234.02 908.407C1245.04 908.407 1251.75 915.913 1251.75 927.433C1251.75 938.954 1245.04 946.528 1234.02 946.528C1223 946.528 1216.17 939.022 1216.17 927.433ZM1223.79 940.088H1231.21V931.017H1233.36C1238.92 931.017 1236.49 939.022 1237.85 940.088H1245.54V939.701C1244.09 939.317 1246.42 929.271 1239.98 928.205V928.09C1243.11 927.433 1245.13 925.166 1245.13 921.765C1245.13 916.889 1241.61 914.257 1235.95 914.257H1223.75V940.088H1223.79ZM1231.21 925.552V919.496H1233.75C1236.29 919.496 1237.74 920.29 1237.74 922.512C1237.74 924.553 1236.29 925.528 1233.75 925.528H1231.21V925.552Z" fill="black"/>
</svg>
