<svg width="1500" height="1500" viewBox="0 0 1500 1500" fill="none" xmlns="http://www.w3.org/2000/svg">
<rect width="1500" height="1500" rx="750" fill="white"/>
<path d="M267.837 346.457C267.837 303.036 303.036 267.837 346.457 267.837H1152.55C1195.97 267.837 1231.17 303.036 1231.17 346.457V1152.55C1231.17 1195.98 1195.97 1231.17 1152.55 1231.17H346.457C303.036 1231.17 267.837 1195.98 267.837 1152.55V346.457Z" fill="#F0DB4F"/>
<path d="M1152.32 1001.41C1145.27 957.464 1116.61 920.549 1031.72 886.128C1002.23 872.577 969.359 862.873 959.563 840.526C956.085 827.521 955.623 820.195 957.824 812.322C964.142 786.774 994.638 778.809 1018.81 786.135C1034.38 791.353 1049.11 803.35 1058 822.488C1099.57 795.57 1099.49 795.747 1128.51 777.247C1117.89 760.772 1112.21 753.169 1105.26 746.12C1080.26 718.193 1046.19 703.811 991.706 704.911L963.326 708.582C936.131 715.454 910.213 729.729 895.015 748.867C849.412 800.61 862.417 891.169 917.908 928.437C972.576 969.468 1052.88 978.803 1063.14 1017.17C1073.12 1064.14 1028.62 1079.35 984.388 1073.95C951.791 1067.17 933.66 1050.6 914.061 1020.47C877.985 1041.35 877.985 1041.35 840.893 1062.68C849.689 1081.91 858.931 1090.62 873.676 1107.28C943.457 1178.06 1118.08 1174.58 1149.4 1067.45C1150.67 1063.77 1159.1 1039.23 1152.32 1001.41ZM791.528 710.583H701.424L701.054 943.535C701.054 993.078 703.617 1038.5 695.56 1052.42C682.378 1079.8 648.218 1076.4 632.651 1071.09C616.806 1063.31 608.749 1052.23 599.415 1036.58C596.852 1032.09 594.928 1028.61 594.282 1028.34L521.022 1073.2C533.204 1098.2 551.15 1119.9 574.136 1134C608.472 1154.61 654.621 1160.93 702.886 1149.85C734.298 1140.7 761.401 1121.74 775.591 1092.89C796.107 1055.07 791.705 1009.29 791.52 958.657C791.982 876.047 791.528 793.454 791.528 710.583Z" fill="#323330"/>
</svg>
