<svg width="1500" height="1500" viewBox="0 0 1500 1500" fill="none" xmlns="http://www.w3.org/2000/svg">
<rect width="1500" height="1500" rx="750" fill="white"/>
<path d="M1200.92 742.967C1200.92 685.277 1157.21 636.729 1098.53 622.877L1229.96 271.164H578.656L710.378 623.987C653.543 638.957 611.648 686.657 611.648 743.259C611.648 784.854 634.583 821.739 669.421 844.479C655.681 862.232 639.773 878.604 621.751 894.129C587.828 922.989 550.208 945.167 509.573 959.874C472.898 937.404 457.013 897.737 471.368 862.224C527.296 846.699 567.968 799.269 567.968 743.522C567.968 675.024 506.528 619.532 431.318 619.532C355.823 619.532 294.421 675.287 294.421 743.807C294.421 777.654 309.683 808.704 334.148 830.882C332.003 834.782 329.873 838.644 327.728 842.807C307.253 881.102 284.018 924.369 275.138 972.917C257.416 1069.97 286.448 1147.94 356.438 1192.03C395.873 1216.73 439.291 1229.21 486.053 1229.21C566.408 1229.21 648.031 1192.58 726.871 1157.07C783.121 1131.85 841.186 1105.48 898.343 1092.74C919.441 1088.02 941.438 1085.24 964.673 1082.19C1011.72 1076.09 1060.33 1069.71 1104.04 1046.69C1155.08 1019.79 1189.91 974.844 1200.02 923.259C1207.63 883.584 1200.02 843.654 1180.44 808.704C1193.81 789.393 1200.96 766.455 1200.92 742.967ZM1141.34 742.967C1141.34 781.517 1106.79 812.867 1064.31 812.867C1021.83 812.867 987.286 781.517 987.286 742.967C987.286 730.479 990.953 718.562 997.366 708.302C999.803 704.402 1002.88 700.539 1005.92 697.202C1009.14 693.769 1012.72 690.703 1016.62 688.059L1016.94 687.767C1019.37 686.102 1022.12 684.429 1024.88 682.787C1024.88 682.787 1025.18 682.787 1025.18 682.494C1026.4 681.939 1027.63 681.114 1028.87 680.559C1029.16 680.559 1029.45 680.267 1029.77 680.267C1031 679.742 1032.53 679.187 1034.04 678.624C1035.49 678.119 1036.92 677.564 1038.32 676.959C1038.62 676.959 1038.94 676.659 1039.23 676.659C1040.46 676.404 1041.69 675.842 1042.9 675.579C1043.22 675.579 1043.84 675.287 1044.13 675.287C1045.65 675.024 1046.88 674.732 1048.4 674.462H1048.73L1053.3 673.614C1053.62 673.614 1054.2 673.614 1054.52 673.352C1055.75 673.352 1056.96 673.059 1058.19 673.059H1059.71C1061.24 673.059 1062.79 672.797 1064.6 672.797H1068.59C1069.79 672.797 1070.73 672.797 1071.93 673.059H1072.55C1075.01 673.359 1077.44 673.614 1079.9 674.177C1114.73 680.822 1141.34 709.127 1141.34 742.967ZM663.908 326.627H1144.67L1034.34 622.029C1029.77 622.877 1025.17 624.249 1020.6 625.629L904.471 410.679L788.011 624.242C783.413 622.869 778.523 622.022 773.656 621.197L663.908 326.627ZM882.436 718.817C876.638 692.739 861.961 669.452 841.186 652.254L904.471 536.327L968.333 654.744C949.381 671.942 935.633 693.857 930.128 718.817H882.436ZM729.331 675.017C730.853 674.717 732.083 674.462 733.606 674.169H734.513C735.743 673.907 736.981 673.907 738.181 673.607H739.411C740.641 673.607 741.548 673.344 742.778 673.344H754.703C755.903 673.344 756.841 673.607 757.748 673.607C758.363 673.607 758.656 673.607 759.271 673.907C760.501 674.169 761.408 674.169 762.646 674.462C762.931 674.462 763.253 674.462 763.868 674.724C765.398 675.017 766.921 675.279 768.143 675.572H768.443C769.673 675.834 770.903 676.097 772.103 676.659C772.426 676.659 772.718 676.952 773.333 676.952C774.241 677.214 775.471 677.507 776.378 678.062C776.701 678.062 776.993 678.324 777.316 678.324C778.516 678.887 779.753 679.179 780.983 679.734H781.276C782.798 680.259 784.028 680.814 785.258 681.669H785.558C786.781 682.224 788.011 683.042 789.241 683.597C789.541 683.597 789.541 683.897 789.826 683.897C791.056 684.422 791.971 685.269 793.201 685.824L793.523 686.087C797.183 688.584 800.551 691.367 803.888 694.149L804.211 694.412C807.263 697.457 810.308 700.794 812.768 704.402C820.711 715.502 825.308 728.544 825.308 742.689C825.308 781.247 790.763 812.567 748.283 812.567C705.803 812.567 671.258 781.247 671.258 742.689C670.943 710.229 695.701 682.779 729.331 675.017ZM428.566 673.052C471.053 673.052 505.591 704.402 505.591 742.952C505.591 781.509 471.053 812.852 428.566 812.852C386.086 812.852 351.541 781.509 351.541 742.952C351.541 704.402 386.086 673.052 428.566 673.052ZM1139.49 913.554C1132.78 949.029 1108.61 980.117 1073.16 998.687C1039.85 1016.18 998.888 1021.71 955.793 1027.25C932.273 1030.3 907.516 1033.64 883.666 1038.91C820.096 1053.06 758.978 1080.8 699.683 1107.41C623.888 1141.54 552.346 1173.71 486.053 1173.71C451.508 1173.71 420.631 1164.83 391.306 1146.26C324.068 1104.1 327.406 1025.06 335.378 981.782C342.698 941.267 363.181 903.272 382.748 866.942C383.948 864.714 384.886 862.779 386.086 860.552C392.828 862.779 399.856 864.452 407.183 865.562C395.581 924.362 428.566 985.097 492.758 1015.07L504.383 1020.6L516.901 1016.44C570.398 999.242 619.906 971.237 663.616 933.789C688.373 912.699 709.471 889.967 727.193 865.269C734.221 866.387 741.256 866.679 748.283 866.679C811.861 866.679 865.328 827.004 880.621 773.747H931.951C947.243 827.274 1000.73 866.672 1064.31 866.672C1089.68 866.672 1113.21 860.297 1133.36 849.482C1141.34 870.279 1143.77 891.902 1139.49 913.554Z" fill="#99425B"/>
</svg>
