<svg width="929" height="966" viewBox="0 0 929 966" fill="none" xmlns="http://www.w3.org/2000/svg">
<g clip-path="url(#clip0_141_1138)">
<path d="M188.902 19.1354C187.428 19.7025 145.781 43.4321 96.3935 71.8113C36.5449 106.229 5.81256 124.345 4.16822 126.046C2.86408 127.521 1.38983 130.072 0.936219 131.688C-0.311216 135.856 -0.396268 746.448 0.851172 750.842C1.30479 752.543 2.77902 755.038 4.11151 756.427C7.34351 759.829 364.621 965.259 368.958 966.252C370.971 966.734 373.239 966.649 375.479 966.025C380.355 964.806 736.697 759.829 739.872 756.484C741.176 755.038 742.651 752.543 743.133 750.842C743.756 748.829 743.983 716.906 743.983 649.686V551.451L830.85 501.553C912.756 454.462 917.774 451.514 919.872 448.282L922.026 444.795V338.99C922.026 223.8 922.253 230.292 917.689 226.125C916.47 225.048 874.737 200.694 824.868 171.975L734.287 119.866H724.223L635.598 170.756C586.806 198.823 545.329 222.808 543.316 224.112C541.303 225.444 538.893 227.911 537.901 229.697L536.115 232.787L535.718 332.469L535.349 432.179L462.176 474.336C421.918 497.471 388.407 516.636 387.698 516.806C386.394 517.174 386.309 507.677 386.309 324.446V131.603L384.381 128.286C381.971 124.26 392.801 130.696 284.048 68.1824C192.843 15.7333 195.026 16.839 188.902 19.1354ZM272.736 95.4842C310.896 117.371 342.11 135.487 342.11 135.714C342.11 135.941 308.656 155.276 267.774 178.779L193.382 221.475L119.131 178.779C78.334 155.276 44.9084 135.941 44.9084 135.714C44.9084 135.487 78.2773 116.152 119.074 92.7059L193.155 50.0945L198.258 52.8729C201.121 54.4322 234.66 73.5974 272.736 95.4842ZM803.662 193.72C843.835 216.854 877.062 235.963 877.374 236.274C878.224 237.04 730.885 321.724 728.872 321.639C726.859 321.582 581.334 237.664 581.391 236.643C581.476 235.481 727.88 151.25 729.354 151.477C730.035 151.647 763.489 170.671 803.662 193.72ZM107.62 205.939L178.441 246.708L178.838 448.565L179.206 650.452L180.936 653.173C181.843 654.619 183.544 656.576 184.791 657.483C185.954 658.333 225.361 680.787 272.339 707.295L357.675 755.492V840.884C357.675 887.748 357.363 926.192 356.966 926.192C356.654 926.192 282.885 883.978 193.07 832.294L29.7974 738.396L29.5706 449.728L29.4288 161.145L33.0577 163.158C35.1557 164.263 68.6664 183.514 107.62 205.939ZM357.675 348.033V534.043L354.811 535.914C350.927 538.381 209.116 619.89 208.634 619.89C208.408 619.89 208.237 535.914 208.237 433.256L208.323 246.708L282.403 204.096C323.143 180.65 356.739 161.627 357.136 161.768C357.42 161.939 357.675 245.772 357.675 348.033ZM640.304 305.252L714.555 347.948V432.576C714.555 512.865 714.47 517.174 713.251 516.721C712.457 516.409 678.861 497.159 638.546 473.939L565.146 431.782V347.183C565.146 300.602 565.373 262.556 565.6 262.556C565.912 262.556 599.507 281.749 640.304 305.252ZM893.392 346.644C893.392 392.97 893.08 431.186 892.768 431.555C892.23 432.406 745.372 517.033 744.437 517.033C744.21 517.033 743.983 478.986 743.983 432.406V347.807L818.064 305.167C858.861 281.749 892.456 262.556 892.768 262.556C893.165 262.556 893.392 300.376 893.392 346.644ZM625.845 500.561C688.302 536.51 699.075 542.945 697.998 543.796C697.289 544.25 673.616 557.858 645.436 573.961C617.255 590.036 544.252 631.655 483.156 666.47L372.134 729.806L368.59 727.878C347.383 716.282 224.341 646.284 224.341 645.745C224.284 644.583 549.893 457.468 551.198 457.95C551.821 458.176 585.417 477.342 625.845 500.561ZM714.413 653.627L714.158 738.396L550.971 832.294C461.184 883.978 387.386 926.192 387.018 926.192C386.621 926.192 386.309 891.689 386.309 840.884V755.492L549.893 662.217C639.766 610.931 713.619 568.943 714.016 568.858C714.328 568.858 714.47 606.99 714.413 653.627Z" fill="#F05340"/>
</g>
<defs>
<clipPath id="clip0_141_1138">
<rect width="929" height="965.289" fill="white"/>
</clipPath>
</defs>
</svg>
