<svg width="1500" height="1500" viewBox="0 0 1500 1500" fill="none" xmlns="http://www.w3.org/2000/svg">
<rect width="1500" height="1500" rx="750" fill="white"/>
<path fill-rule="evenodd" clip-rule="evenodd" d="M1185.91 941.196C1166.97 969.816 1152.6 1005.04 1114.12 1005.04C1049.33 1005.04 1045.84 905.24 981.005 905.24C916.204 905.24 919.725 1005.04 854.954 1005.04C790.153 1005.04 786.681 905.24 721.841 905.24C657.04 905.24 660.551 1005.04 595.79 1005.04C530.989 1005.04 527.517 905.24 462.716 905.24C397.876 905.24 401.387 1005.04 336.636 1005.04C316.261 1005.04 301.971 995.179 289.901 981.661C243.557 901.074 216.884 806.626 216.884 705.634C216.884 410.025 445.442 170.385 727.377 170.385C1009.32 170.385 1237.88 410.025 1237.88 705.644C1237.88 790.154 1219.2 870.126 1185.91 941.196Z" fill="#FB70A9"/>
<path fill-rule="evenodd" clip-rule="evenodd" d="M523.501 888.358V1110.08C523.501 1149.85 491.213 1182.1 451.403 1182.1C441.939 1182.11 432.566 1180.25 423.819 1176.63C415.073 1173.02 407.125 1167.71 400.43 1161.02C393.734 1154.33 388.422 1146.39 384.798 1137.65C381.173 1128.91 379.307 1119.53 379.306 1110.07V842.435C392.755 817.757 408.111 796.395 435.841 796.395C480.933 796.395 496.71 853.028 523.501 888.368V888.358ZM795.84 899.929V1250.53C795.838 1261.04 793.764 1271.45 789.739 1281.16C785.713 1290.88 779.813 1299.7 772.377 1307.13C764.941 1314.57 756.114 1320.46 746.4 1324.48C736.686 1328.5 726.275 1330.57 715.761 1330.57C671.521 1330.57 635.643 1294.73 635.643 1250.53V853.703C650.735 824.623 666.278 796.385 698.145 796.385C748.616 796.385 762.339 867.221 795.85 899.929H795.84ZM1052.22 893.473V1148.01C1052.22 1187.79 1019.94 1220.04 980.129 1220.04C940.309 1220.04 908.021 1187.79 908.021 1148.01V835.167C920.551 813.698 935.497 796.385 960.488 796.385C1007.83 796.385 1022.84 858.789 1052.22 893.473Z" fill="#4E56A6"/>
<path fill-rule="evenodd" clip-rule="evenodd" d="M523.501 956.327C510.697 940.658 495.566 929.038 473.675 929.038C421.678 929.038 412.122 994.533 379.306 1024.03V741.639C379.307 732.175 381.173 722.804 384.797 714.062C388.421 705.32 393.732 697.377 400.426 690.688C407.121 683.999 415.067 678.695 423.813 675.078C432.558 671.461 441.93 669.603 451.393 669.609C491.213 669.609 523.501 701.858 523.501 741.639V956.327ZM795.84 961.365C782.205 943.22 766.271 929.047 742.082 929.047C684.236 929.047 678.925 1010.08 635.643 1032.51V907.607C635.643 863.396 671.521 827.567 715.761 827.567C726.275 827.563 736.688 829.63 746.403 833.651C756.118 837.671 764.947 843.566 772.384 850.998C779.821 858.431 785.721 867.256 789.747 876.969C793.774 886.682 795.847 897.092 795.85 907.607L795.84 961.365ZM1052.22 947.348C1041.11 936.422 1027.96 929.047 1010.5 929.047C954.453 929.047 947.723 1005.12 908.021 1030.21V776.743C908.021 757.622 915.617 739.284 929.138 725.763C942.659 712.242 960.997 704.646 980.119 704.646C999.24 704.646 1017.58 712.242 1031.1 725.763C1044.62 739.284 1052.22 757.622 1052.22 776.743V947.348Z" fill="black" fill-opacity="0.298039"/>
<path fill-rule="evenodd" clip-rule="evenodd" d="M1185.91 941.196C1166.97 969.816 1152.6 1005.04 1114.12 1005.04C1049.33 1005.04 1045.84 905.24 981.005 905.24C916.204 905.24 919.725 1005.04 854.954 1005.04C790.153 1005.04 786.681 905.24 721.841 905.24C657.04 905.24 660.551 1005.04 595.79 1005.04C530.989 1005.04 527.517 905.24 462.716 905.24C397.876 905.24 401.387 1005.04 336.636 1005.04C316.261 1005.04 301.971 995.179 289.901 981.661C243.557 901.074 216.884 806.626 216.884 705.634C216.884 410.025 445.442 170.385 727.377 170.385C1009.32 170.385 1237.88 410.025 1237.88 705.644C1237.88 790.154 1219.2 870.126 1185.91 941.196Z" fill="#FB70A9"/>
<path fill-rule="evenodd" clip-rule="evenodd" d="M1075.46 994.377C1209.22 795.505 1212.67 574.967 1085.81 332.656C1179.84 428.943 1237.88 561.029 1237.88 706.789C1237.88 791.006 1218.52 870.625 1184.01 941.461C1164.41 969.924 1149.47 1005.04 1109.57 1005.04C1097.36 1005.15 1085.43 1001.42 1075.46 994.377Z" fill="#E24CA6"/>
<path fill-rule="evenodd" clip-rule="evenodd" d="M700.014 839.174C877.544 839.174 952.273 736.276 952.273 590.144C952.273 443.992 839.329 309.5 700.014 309.5C560.68 309.5 447.736 443.992 447.736 590.134C447.736 736.285 522.455 839.174 700.014 839.174Z" fill="white"/>
<path fill-rule="evenodd" clip-rule="evenodd" d="M726.772 494.081C726.772 551.692 684.4 598.427 632.168 598.427C579.897 598.427 537.563 551.702 537.563 494.081C537.563 436.469 579.897 389.734 632.168 389.734C684.4 389.734 726.772 436.459 726.772 494.081Z" fill="#030776"/>
<path fill-rule="evenodd" clip-rule="evenodd" d="M663.689 470.012C663.689 496.608 642.523 518.156 616.387 518.156C590.252 518.156 569.085 496.608 569.085 470.012C569.085 443.417 590.252 421.869 616.387 421.869C642.523 421.869 663.689 443.417 663.689 470.012Z" fill="white"/>
</svg>
