<svg width="1500" height="1500" viewBox="0 0 1500 1500" fill="none" xmlns="http://www.w3.org/2000/svg">
<rect width="1500" height="1500" rx="750" fill="white"/>
<g clip-path="url(#clip0_151_1366)">
<path d="M1383 750C1383 400.404 1099.6 117 750 117C400.404 117 117 400.404 117 750C117 1099.6 400.404 1383 750 1383C1099.6 1383 1383 1099.6 1383 750Z" fill="url(#paint0_linear_151_1366)"/>
<path d="M1383 750C1383 400.404 1099.6 117 750 117C400.404 117 117 400.404 117 750C117 1099.6 400.404 1383 750 1383C1099.6 1383 1383 1099.6 1383 750Z" fill="url(#paint1_linear_151_1366)"/>
<path d="M730.995 1074.78C729.917 1075.32 728.844 1075.58 727.771 1075.58C726.693 1075.58 724.542 1075.58 721.317 1075.58C713.79 1075.58 704.919 1074.25 694.702 1071.57C685.028 1069.42 675.35 1066.48 665.673 1062.72C656.529 1059.51 648.468 1055.76 641.475 1051.47C635.026 1047.18 630.991 1043.43 629.379 1040.22C628.845 1032.71 628.573 1024.94 628.573 1016.9C628.573 1008.86 628.573 1001.09 628.573 993.586C628.573 933.56 632.875 870.854 641.475 805.472C650.619 740.085 665.401 669.342 685.835 593.236C687.981 585.733 690.132 576.354 692.283 565.099C694.974 553.308 697.659 540.713 700.349 527.315C687.447 537.498 672.121 553.844 654.382 576.354C636.639 598.328 617.822 624.587 597.928 655.139C578.573 685.152 558.949 718.38 539.056 754.822C519.701 790.73 501.958 827.444 485.829 864.959C469.7 901.94 455.721 938.654 443.893 975.096C432.602 1011.54 425.613 1045.3 422.924 1076.39C397.118 1068.89 379.106 1061.39 368.891 1053.88C359.214 1046.38 354.375 1037.27 354.375 1026.55C354.375 1016.9 357.332 1003.23 363.246 985.55C369.16 967.861 377.494 946.962 388.246 922.844C399 898.725 412.172 871.927 427.763 842.453C443.355 812.44 460.56 780.28 479.377 745.979C500.883 706.857 521.851 670.143 542.282 635.842C563.25 601.543 583.68 570.458 603.573 542.589C623.464 514.72 642.82 490.603 661.637 470.237C680.993 449.871 700.082 434.328 718.899 423.609C726.426 423.609 736.371 425.485 748.739 429.237C761.641 432.989 774.005 437.544 785.834 442.903C798.202 448.263 808.953 453.891 818.092 459.786C827.77 465.145 833.146 469.701 834.224 473.452C826.697 488.459 817.825 510.968 807.608 540.981C797.396 570.995 786.912 605.027 776.156 643.077C765.944 681.132 755.994 721.594 746.316 764.47C737.177 806.812 729.917 847.541 724.542 886.664C736.91 857.19 751.157 826.642 767.284 795.017C783.954 762.863 801.426 731.242 819.704 700.156C837.987 668.536 856.537 637.989 875.354 608.511C894.71 579.034 913.527 552.236 931.805 528.119C950.082 503.465 967.02 482.027 982.613 463.805C998.739 445.583 1012.99 432.185 1025.35 423.609C1032.88 423.609 1042.83 425.485 1055.2 429.237C1068.1 432.989 1080.47 437.544 1092.29 442.903C1104.66 448.263 1115.41 453.891 1124.55 459.786C1134.23 465.145 1139.61 469.701 1140.68 473.452C1123.47 504.001 1108.42 541.249 1095.52 585.197C1082.61 629.146 1071.59 675.237 1062.45 723.468C1053.85 771.705 1047.13 819.674 1042.29 867.372C1037.99 914.535 1035.84 956.877 1035.84 994.392C1035.84 1006.72 1035.84 1019.58 1035.84 1032.98C1035.84 1046.38 1036.38 1060.31 1037.45 1074.78C1029.92 1074.78 1020.79 1073.71 1010.03 1071.57C999.817 1069.96 989.6 1067.55 979.388 1064.33C969.71 1061.11 960.838 1057.37 952.773 1053.08C944.707 1049.32 939.064 1045.04 935.835 1040.22C935.301 1032.71 935.029 1024.94 935.029 1016.9C935.029 1008.86 935.029 1001.09 935.029 993.586C935.029 933.56 939.331 870.854 947.936 805.472C957.075 740.085 971.862 669.342 992.291 593.236C994.442 585.733 996.86 575.55 999.55 562.687C1002.24 549.825 1004.93 536.426 1007.61 522.491C992.558 529.994 975.353 544.465 955.997 565.903C937.18 586.805 917.824 612.53 897.934 643.077C878.578 673.09 859.222 706.59 839.866 743.571C821.049 780.547 803.845 818.334 788.252 856.923C773.198 894.972 760.296 933.026 749.545 971.075C739.328 1008.6 733.146 1043.16 730.995 1074.78Z" fill="white"/>
</g>
<defs>
<linearGradient id="paint0_linear_151_1366" x1="750" y1="117" x2="750" y2="1383" gradientUnits="userSpaceOnUse">
<stop stop-color="#EF786F"/>
<stop offset="1" stop-color="#D8595E"/>
</linearGradient>
<linearGradient id="paint1_linear_151_1366" x1="502.734" y1="117" x2="1284.09" y2="1383" gradientUnits="userSpaceOnUse">
<stop stop-color="#9E7AFF"/>
<stop offset="0.333333" stop-color="#FE8BBB"/>
<stop offset="0.666667" stop-color="#FFBD7A"/>
<stop offset="1" stop-color="#F8EAC3"/>
</linearGradient>
<clipPath id="clip0_151_1366">
<rect width="1266" height="1266" fill="white" transform="translate(117 117)"/>
</clipPath>
</defs>
</svg>
