<svg width="1500" height="1500" viewBox="0 0 1500 1500" fill="none" xmlns="http://www.w3.org/2000/svg">
<rect width="1500" height="1500" rx="750" fill="white"/>
<g clip-path="url(#clip0_152_1383)">
<path d="M749.008 342.027C524.545 342.027 341.908 524.815 341.908 749.478C341.908 974.141 524.533 1156.93 749.008 1156.93C973.495 1156.93 1156.13 974.141 1156.13 749.478C1156.13 524.815 973.495 342.027 749.008 342.027ZM749.008 960.333C632.642 960.333 538.328 865.944 538.328 749.478C538.328 633.011 632.642 538.623 749.02 538.623C865.399 538.623 959.712 633.011 959.712 749.478C959.712 865.944 865.387 960.333 749.008 960.333Z" fill="black"/>
<path fill-rule="evenodd" clip-rule="evenodd" d="M783.118 275.127V123C1113.53 140.667 1376 414.448 1376 749.5C1376 1084.55 1113.52 1358.24 783.118 1376V1223.87C1029.37 1206.27 1224.36 1000.34 1224.36 749.5C1224.36 498.649 1029.37 292.731 783.118 275.127ZM389.952 1060.58C324.67 985.164 282.595 889.109 275.089 783.644H123C130.894 931.223 189.873 1065.13 282.294 1168.25L389.876 1060.58H389.952ZM714.88 1376V1223.87C609.415 1216.36 513.435 1174.33 438.079 1108.92L330.497 1216.59C433.619 1309.15 567.427 1368.11 714.792 1376H714.88Z" fill="url(#paint0_linear_152_1383)"/>
</g>
<defs>
<linearGradient id="paint0_linear_152_1383" x1="807.689" y1="211.098" x2="190.975" y2="827.324" gradientUnits="userSpaceOnUse">
<stop stop-color="#0096FF"/>
<stop offset="1" stop-color="#FF1E56"/>
</linearGradient>
<clipPath id="clip0_152_1383">
<rect width="1253" height="1253" fill="white" transform="translate(123 123)"/>
</clipPath>
</defs>
</svg>
