<svg width="1500" height="1500" viewBox="0 0 1500 1500" fill="none" xmlns="http://www.w3.org/2000/svg">
<rect width="1500" height="1500" rx="750" fill="white"/>
<path d="M839.871 243C832.72 243 825.57 244.589 819.213 246.973C832.72 255.713 839.871 267.63 843.844 281.137C843.844 282.727 844.638 284.316 844.638 285.905C844.638 287.494 845.433 289.083 845.433 290.672C846.227 313.713 839.077 316.891 834.309 330.398C826.364 347.878 828.748 366.947 838.282 382.043C839.077 383.632 839.871 386.016 841.46 387.605C831.131 320.864 886.748 311.33 897.077 290.672C897.872 272.398 882.776 260.48 870.858 251.74C858.94 244.589 849.405 243 839.871 243ZM923.297 257.302C922.502 263.658 923.297 262.069 922.502 265.247C922.502 267.63 922.502 270.014 921.708 272.398C920.913 274.781 920.913 276.37 920.119 278.754C919.324 281.138 918.53 282.727 917.735 285.11C916.941 286.699 916.146 288.288 915.352 290.672C914.557 291.466 913.763 293.055 912.968 293.85C912.173 294.645 912.173 295.439 911.379 296.234C909.79 297.823 908.995 300.206 907.406 301.795L902.639 306.562C901.05 308.152 899.461 309.741 897.872 310.535C892.31 314.508 885.954 317.686 880.392 321.659C878.803 323.248 876.42 324.042 874.831 325.631C873.241 327.22 871.652 328.015 870.063 329.604L865.296 334.371C863.707 335.96 862.118 337.549 861.323 339.933C859.734 341.522 858.94 343.905 857.351 345.495C856.556 347.878 855.762 349.467 854.173 351.851C853.378 354.234 852.584 355.823 851.789 358.207C850.995 360.591 850.2 362.974 850.2 364.563C850.2 365.358 850.2 366.947 849.405 367.741C849.405 368.536 849.406 370.125 848.611 370.92V382.043C848.611 384.427 848.611 386.016 849.405 388.399C849.405 390.783 850.2 392.372 850.995 394.755C851.789 397.139 852.584 398.728 853.378 401.112C854.173 402.701 854.967 403.495 854.967 405.084L794.583 382.043C784.254 378.865 774.72 376.481 764.391 374.098C758.829 372.509 753.267 371.714 747.705 370.125C731.815 366.947 715.924 364.563 700.034 362.974H698.445C682.554 361.385 667.458 360.591 651.567 360.591C639.649 360.591 628.526 361.385 617.402 362.18C601.512 362.974 585.621 365.358 569.73 367.741L557.813 370.125C549.867 371.714 541.922 373.303 533.977 375.687C530.004 376.481 526.031 378.07 522.059 378.865C518.086 380.454 514.113 382.043 510.935 383.632C507.757 385.221 505.373 386.016 502.195 387.605C501.401 387.605 501.401 387.605 500.606 388.399C498.223 389.988 495.839 390.783 493.455 392.372C492.661 392.372 491.866 393.166 491.866 393.166C488.688 394.755 486.305 396.345 483.921 397.139C482.332 397.934 479.948 398.728 478.359 399.523C477.565 400.317 476.77 400.317 475.976 401.112C473.592 402.701 471.209 403.495 468.825 405.084C466.441 406.673 464.058 407.468 462.469 409.057C460.88 410.646 458.496 411.441 456.907 413.03C456.907 413.03 456.113 413.03 456.113 413.824C454.523 414.619 452.934 416.208 451.345 417.797L450.551 418.591C448.962 419.386 448.167 420.975 446.578 421.77C445.784 421.77 445.784 422.564 444.989 422.564C443.4 423.359 442.605 424.948 441.016 425.742C441.016 426.537 440.222 426.537 440.222 426.537L435.455 431.304L434.66 432.098L429.893 436.866C429.893 436.866 429.893 437.66 429.098 437.66L425.126 441.633C424.331 442.427 423.537 442.427 423.537 443.222L418.77 447.989C418.77 448.784 417.975 448.784 417.975 449.578L411.619 455.934L410.824 456.729C406.852 461.496 402.084 465.469 397.317 469.441C392.55 473.414 387.783 477.387 382.221 481.359C376.659 485.332 371.892 488.51 366.33 491.688C360.769 494.866 355.207 497.25 349.645 499.634C344.084 502.017 338.522 504.401 332.96 505.99C321.837 508.373 310.713 513.141 301.179 513.935C301.179 509.963 298.795 510.757 296.412 510.757C294.028 511.552 291.645 511.552 290.055 512.346C287.672 513.141 286.083 513.935 283.699 514.73C281.316 515.524 279.727 516.319 277.343 517.908C275.754 519.497 273.37 520.291 271.781 521.88C270.192 523.47 267.809 525.059 266.22 526.648C264.63 528.237 262.247 529.826 260.658 531.415C259.069 533.004 257.48 534.593 255.891 536.977C254.302 539.36 252.713 540.949 251.918 543.333C250.329 544.922 249.534 547.305 247.945 549.689C247.151 552.073 245.562 554.456 244.767 556.84L242.384 563.991C241.589 566.374 241.589 567.963 240.795 570.347V571.141C240 573.525 240 576.703 240 578.292C240.795 577.498 240.795 579.087 240.795 580.676V583.854C240.795 585.443 241.589 587.032 241.589 588.621C242.384 590.21 242.384 591.799 243.178 593.388C243.973 594.977 244.767 596.566 246.356 598.155C247.151 599.745 248.74 601.334 249.534 602.923C251.123 604.512 252.713 606.101 254.302 606.895C255.891 608.484 257.48 610.073 259.069 610.868C265.425 616.43 267.014 618.019 274.959 622.786C276.548 623.58 277.343 624.375 278.932 625.17H279.727V626.759C279.727 629.142 280.521 630.731 281.316 633.115C282.11 635.498 282.905 637.882 283.699 639.471L286.083 644.238C286.083 645.033 286.877 645.033 286.877 645.827C287.672 648.211 289.261 649.8 290.055 651.389C291.645 652.978 292.439 655.362 294.028 656.951L298.795 661.718L303.563 666.485H304.357C305.946 668.074 307.535 668.869 309.124 670.458C310.713 672.047 313.097 672.841 314.686 673.636C316.275 674.43 318.659 676.02 321.042 676.814C322.631 677.609 324.22 678.403 326.604 678.403C326.604 678.403 327.398 678.403 327.398 679.198C328.193 679.198 329.782 679.992 330.577 679.992C329.782 694.294 329.782 707.801 331.371 712.568C333.755 718.13 345.673 701.445 356.796 683.17C355.207 701.445 354.413 722.897 356.796 729.253C359.974 735.609 375.07 714.952 389.372 692.705C575.292 649.8 745.322 778.514 763.596 960.462C760.418 931.859 725.459 915.968 708.773 919.941C700.828 939.009 687.321 964.434 665.869 979.53C667.458 962.051 666.663 944.571 663.485 927.091C657.923 950.927 646.8 973.969 630.909 993.037C606.279 994.627 580.854 982.709 568.141 964.434C567.347 963.64 566.552 962.051 565.758 961.256C564.963 959.667 564.169 957.284 563.374 955.695C562.58 954.105 561.785 951.722 561.785 950.133V944.571V940.598C561.785 939.009 562.58 936.626 563.374 935.037C564.169 933.448 564.169 931.064 564.963 929.475C565.758 927.886 566.552 925.502 568.141 923.913C572.909 911.201 572.909 900.872 564.169 895.31L559.402 892.927C558.607 892.927 557.018 892.132 556.223 892.132C555.429 892.132 554.634 891.337 553.84 891.337C552.251 890.543 549.867 890.543 548.278 889.748C546.689 888.954 544.305 888.954 542.716 888.954C541.127 888.954 538.744 888.159 537.155 888.159H533.182C530.798 888.159 529.209 888.159 527.62 888.954C526.031 888.954 523.648 889.748 522.059 889.748C520.47 890.543 518.086 890.543 516.497 891.337C514.908 892.132 513.319 892.927 510.935 893.721L506.168 896.105C444.989 935.831 481.537 1029.59 522.853 1056.6C506.962 1059.78 491.072 1062.96 486.305 1066.13L485.51 1066.93C496.634 1074.08 508.552 1079.64 521.264 1084.41C537.949 1089.97 556.223 1094.74 564.169 1097.12C585.621 1101.89 607.868 1103.48 630.115 1101.89C746.116 1093.94 841.46 1004.96 858.94 888.954C859.734 891.337 859.734 893.721 860.529 896.105C861.323 900.872 862.118 905.639 862.913 911.201C863.707 913.584 863.707 915.968 863.707 918.352V919.146C863.707 921.53 864.502 923.913 864.502 926.297C864.502 929.475 865.296 931.859 865.296 935.037V968.407C865.296 970.791 864.502 972.38 864.502 974.763V977.147C864.502 979.53 863.707 981.914 863.707 985.092C862.913 987.476 862.913 989.859 862.118 992.243V993.037C861.323 995.421 861.323 997.805 860.529 1000.19V1000.98C859.734 1003.37 859.734 1005.75 858.94 1008.13V1008.93L856.556 1016.08V1016.87C855.762 1019.26 854.967 1022.44 854.173 1024.82C853.378 1027.2 852.584 1029.59 850.995 1032.76C850.2 1035.15 849.405 1038.33 847.816 1040.71C847.022 1043.09 845.433 1045.48 844.638 1048.65C843.844 1051.04 842.255 1053.42 841.46 1055.81C841.46 1056.6 840.666 1057.39 840.666 1057.39C840.666 1057.39 840.666 1058.19 839.871 1058.19C823.186 1092.35 797.761 1122.55 765.98 1146.38C763.596 1147.97 762.007 1149.56 759.623 1151.15C758.829 1151.94 758.034 1151.94 758.034 1152.74C756.445 1154.33 754.062 1155.12 752.473 1156.71L753.267 1158.3C757.24 1157.51 760.418 1157.51 764.391 1156.71C771.541 1155.92 777.898 1154.33 785.048 1152.74C786.638 1152.74 789.021 1151.94 790.61 1151.15C792.199 1151.15 792.994 1150.35 794.583 1150.35C796.172 1150.35 798.555 1149.56 800.145 1149.56C801.734 1148.77 803.323 1148.77 804.912 1147.97C831.131 1141.61 856.556 1132.87 881.187 1122.55C839.077 1179.75 783.459 1225.84 718.308 1256.03C748.5 1253.64 778.692 1248.88 808.09 1240.14C913.763 1209.15 1002.75 1137.64 1055.98 1041.5C1044.86 1101.89 1021.02 1159.89 985.27 1210.74C1010.7 1194.05 1033.74 1174.19 1055.19 1152.74C1113.98 1091.56 1152.92 1012.9 1165.63 929.475C1174.37 970.791 1177.55 1013.7 1173.57 1055.81C1363.47 791.227 1189.46 517.113 1116.37 444.811C1116.37 444.016 1115.57 444.016 1115.57 443.222C1115.57 446.4 1115.57 449.578 1114.78 452.756C1113.98 459.113 1113.19 464.674 1112.4 470.236C1110.81 475.798 1109.22 482.154 1107.63 487.716C1106.04 493.277 1103.66 498.839 1101.27 504.401C1098.89 509.963 1096.5 515.524 1093.33 520.291C1090.15 525.059 1086.97 530.62 1083.79 535.387C1080.61 540.155 1076.64 544.922 1072.67 549.689C1068.7 554.456 1064.72 558.429 1059.96 563.196C1057.57 565.58 1055.19 567.963 1052.01 569.552C1049.63 571.141 1048.04 572.73 1045.65 575.114C1040.89 579.087 1036.12 582.265 1030.56 585.443C1025.79 588.621 1020.23 591.799 1014.67 594.183L997.983 601.334C992.421 603.717 986.859 605.306 981.298 606.895C975.736 608.484 969.38 610.073 963.818 610.868C957.462 611.662 951.9 612.457 946.338 613.252C942.366 613.252 937.598 614.046 933.626 614.046C927.27 614.046 921.708 613.252 916.146 613.252C909.79 612.457 904.228 611.662 898.666 610.868C892.31 610.073 886.748 608.484 881.187 606.101C886.748 605.306 893.105 605.306 898.666 603.717C905.023 602.923 910.584 601.334 916.146 599.745C921.708 598.155 928.064 596.566 932.831 594.183L949.516 587.032C955.078 584.648 959.845 581.47 965.407 578.292C970.174 575.114 975.736 571.141 980.503 567.963C985.27 563.991 990.038 560.018 994.01 556.045C998.777 552.073 1002.75 547.305 1006.72 543.333C1010.7 538.566 1014.67 533.798 1017.85 529.031C1018.64 528.237 1018.64 527.442 1019.44 526.648C1021.82 522.675 1025 517.908 1027.38 513.935C1030.56 508.373 1032.94 503.606 1035.33 498.045C1037.71 492.483 1040.09 486.921 1041.68 481.359L1046.45 464.674C1047.24 458.318 1048.83 452.756 1048.83 447.195C1049.63 440.838 1049.63 435.277 1049.63 429.715C1049.63 425.742 1049.63 420.975 1048.83 417.002C1048.04 410.646 1047.24 405.084 1046.45 399.523C1045.65 393.166 1044.07 387.605 1042.48 382.043C1040.89 376.481 1038.5 370.92 1036.91 365.358C1034.53 359.796 1032.15 354.234 1029.76 349.467C1026.59 343.905 1024.2 339.138 1021.02 333.577C1017.85 328.809 1013.87 324.042 1010.7 319.275C1006.72 314.508 1002.75 310.535 998.777 305.768C996.394 303.384 994.01 301.001 991.627 299.412C979.709 289.877 967.791 281.932 955.078 273.987C953.489 273.192 951.9 272.398 949.516 271.603C939.188 262.863 931.242 260.48 923.297 257.302Z" fill="#DF234F"/>
</svg>
