<svg width="1500" height="1500" viewBox="0 0 1500 1500" fill="none" xmlns="http://www.w3.org/2000/svg">
<rect width="1500" height="1500" rx="750" fill="white"/>
<path d="M350.289 615C335.015 615 324.833 627.219 324.833 642.493V786.066L162.931 623.146C154.785 615 140.529 612.964 130.347 617.037C120.164 621.11 111 631.292 111 642.493V853.271C111 868.544 126.274 880.763 141.548 880.763C156.821 880.763 172.095 868.544 172.095 853.271V709.697L336.033 872.617C341.125 877.709 348.252 880.763 355.38 880.763C358.435 880.763 359.453 879.745 362.508 878.727C372.69 874.654 375.745 864.471 375.745 853.271V643.511C375.745 628.237 365.563 615 350.289 615ZM550.884 735.154C536.629 735.154 523.391 749.409 523.391 763.665C523.391 777.92 536.629 792.176 550.884 792.176L618.089 796.249L602.815 833.924H516.264L473.497 753.482L517.282 671.004H609.943L631.326 711.734H687.33L650.673 631.292L642.527 620.091H483.68L476.552 632.31L416.475 737.19L409.347 750.427L416.475 763.665L475.534 868.544L483.68 884.836H637.435L644.563 867.526L688.348 775.884L707.695 732.099H662.892L550.884 735.154ZM762.68 615C748.425 615 732.133 628.237 732.133 642.493V711.734H793.228V643.511C793.228 628.237 776.936 615 762.68 615ZM1072.23 618.055C1062.05 613.982 1047.79 616.018 1040.66 624.164L874.688 787.084V643.511C874.688 628.237 864.505 616.018 849.232 616.018C833.958 616.018 823.775 628.237 823.775 643.511V854.289C823.775 865.49 830.903 875.672 841.086 879.745C844.14 880.763 848.213 881.782 851.268 881.782C858.396 881.782 867.56 878.727 872.651 873.636L1037.61 710.716V854.289C1037.61 869.563 1047.79 881.782 1063.06 881.782C1078.34 881.782 1088.52 869.563 1088.52 854.289V643.511C1088.52 632.31 1082.41 622.128 1072.23 618.055ZM1294.21 748.391L1379.74 662.858C1390.94 651.657 1390.94 634.347 1379.74 624.164C1368.54 612.964 1351.23 612.964 1341.05 624.164L1255.51 709.697L1169.98 624.164C1158.78 612.964 1141.47 612.964 1131.29 624.164C1120.09 635.365 1120.09 652.675 1131.29 662.858L1216.82 748.391L1131.29 833.924C1120.09 845.125 1120.09 862.435 1131.29 872.617C1136.38 877.709 1143.51 880.763 1150.63 880.763C1157.76 880.763 1164.89 877.709 1169.98 872.617L1255.51 787.084L1341.05 872.617C1346.14 877.709 1353.27 880.763 1360.39 880.763C1367.52 880.763 1374.65 877.709 1379.74 872.617C1390.94 861.417 1390.94 844.106 1379.74 833.924L1294.21 748.391ZM732.133 853.271C732.133 867.526 747.407 880.763 762.68 880.763C776.936 880.763 793.228 867.526 793.228 853.271V732.099H732.133V853.271Z" fill="#009900"/>
</svg>
