<svg width="1500" height="1500" viewBox="0 0 1500 1500" fill="none" xmlns="http://www.w3.org/2000/svg">
<rect width="1500" height="1500" rx="750" fill="white"/>
<path d="M704.852 213.717C732.381 198.129 767.48 198.06 794.321 213.717L1205.33 445.407C1231.03 459.86 1248.24 488.524 1248 518.152V982.703C1248.17 1013.57 1229.28 1042.85 1202.16 1057.03L793.357 1287.65C779.375 1295.38 763.579 1299.22 747.609 1298.78C731.64 1298.34 716.08 1293.63 702.546 1285.14L579.871 1214.26C571.509 1209.27 562.114 1205.31 556.196 1197.22C561.426 1190.2 570.717 1189.31 578.288 1186.21C595.356 1180.77 610.978 1172.45 626.67 1163.64C630.627 1160.88 635.479 1161.92 639.264 1164.39L743.874 1224.89C751.341 1229.19 758.912 1223.51 765.312 1219.9L1166.72 993.37C1171.67 990.962 1174.43 985.731 1174.01 980.294V520.217C1174.56 514.023 1171.02 508.38 1165.41 505.868L757.639 276.242C755.289 274.617 752.501 273.743 749.643 273.737C746.786 273.731 743.994 274.592 741.637 276.208L334.45 506.315C328.945 508.827 325.159 514.402 325.848 520.596V980.673C325.366 986.11 328.256 991.237 333.246 993.577L442.054 1055C462.494 1066.01 487.58 1072.21 510.085 1064.12C519.933 1060.41 528.411 1053.77 534.383 1045.11C540.355 1036.44 543.536 1026.16 543.498 1015.63L543.601 558.31C543.12 551.531 549.52 545.922 556.093 546.61H608.397C615.28 546.438 620.682 553.734 619.753 560.547L619.65 1020.76C619.684 1061.64 602.892 1106.1 565.074 1126.16C518.481 1150.25 460.877 1145.19 414.835 1122.03L297.837 1057.34C270.308 1043.58 251.829 1013.85 252.001 983.013V518.462C252.116 503.363 256.266 488.57 264.023 475.616C271.78 462.662 282.861 452.018 296.116 444.788L704.852 213.717ZM823.364 535.737C882.792 532.295 946.418 533.465 999.893 562.749C1041.29 585.185 1064.24 632.26 1065 678.302C1063.83 684.496 1057.36 687.937 1051.44 687.49C1034.24 687.455 1016.96 687.731 999.687 687.386C992.357 687.662 988.124 680.917 987.195 674.448C982.24 652.425 970.231 630.642 949.515 620.009C917.719 604.077 880.83 604.869 846.144 605.213C820.817 606.589 793.598 608.757 772.16 623.623C755.643 634.909 750.688 658.034 756.572 675.996C762.078 689.176 777.322 693.408 789.744 697.331C861.388 716.051 937.265 714.537 1007.57 738.866C1036.64 748.914 1065.1 768.459 1075.08 798.913C1088.09 839.725 1082.41 888.52 1053.4 921.279C1029.87 948.257 995.592 962.572 961.353 970.9C915.827 981.051 868.615 981.292 822.4 976.75C778.939 971.795 733.723 960.37 700.172 930.776C671.473 905.863 657.502 867.047 658.879 829.608C659.223 823.276 665.52 818.871 671.611 819.388H723.227C730.179 818.906 735.271 824.893 735.615 831.432C738.816 852.078 746.696 874.445 765.003 886.489C800.308 909.27 844.596 907.687 884.994 908.34C918.476 906.861 956.053 906.413 983.41 884.253C997.863 871.624 1002.1 850.53 998.207 832.361C993.974 817.013 977.56 809.89 963.796 804.832C893.081 782.464 816.344 790.585 746.317 765.259C717.894 755.211 690.399 736.216 679.491 707.001C664.247 665.707 671.232 614.538 703.338 582.88C734.308 551.394 779.731 539.246 822.744 534.911L823.364 535.737Z" fill="#8CC84B"/>
</svg>
