<svg width="1500" height="1500" viewBox="0 0 1500 1500" fill="none" xmlns="http://www.w3.org/2000/svg">
<rect width="1500" height="1500" rx="750" fill="white"/>
<g clip-path="url(#clip0_166_2263)">
<path d="M126 508H1373V923.667H749.5V992.944H472.389V923.667H126V508ZM195.278 854.389H333.833V646.556H403.111V854.389H472.389V577.278H195.278V854.389ZM541.667 577.278V923.667H680.222V854.389H818.778V577.278H541.667ZM680.222 646.556H749.5V785.111H680.222V646.556ZM888.056 577.278V854.389H1026.61V646.556H1095.89V854.389H1165.17V646.556H1234.44V854.389H1303.72V577.278H888.056Z" fill="#CB3837"/>
<path d="M195.277 854.388H333.833V646.555H403.111V854.388H472.388V577.277H195.277V854.388Z" fill="white"/>
<path d="M541.667 577.277V923.666H680.223V854.388H818.778V577.277H541.667ZM749.5 785.111H680.223V646.555H749.5V785.111Z" fill="white"/>
<path d="M888.057 577.277V854.388H1026.61V646.555H1095.89V854.388H1165.17V646.555H1234.45V854.388H1303.72V577.277H888.057Z" fill="white"/>
</g>
<defs>
<clipPath id="clip0_166_2263">
<rect width="1247" height="484.944" fill="white" transform="translate(126 508)"/>
</clipPath>
</defs>
</svg>
