<svg width="1500" height="1500" viewBox="0 0 1500 1500" fill="none" xmlns="http://www.w3.org/2000/svg">
<rect width="1500" height="1500" rx="750" fill="white"/>
<path d="M674.25 463.162L510.884 380.724L331.488 470.212L499.348 554.476L674.25 463.162ZM749.194 500.995L920.513 587.505L742.789 676.721L574.688 592.341L749.194 500.995ZM978.021 381.937L1154.05 470.204L996.607 549.245L824.954 462.641L978.021 381.937ZM902.261 343.917L743.784 264.449L587.04 342.697L750.344 425.017L902.261 343.917ZM778.375 1026.28V1242.5L970.341 1146.7L970.162 930.384L778.375 1026.28ZM970.068 854.873L969.859 640.831L778.375 736.025V950.16L970.068 854.873ZM1200.51 814.785V1031.87L1036.76 1113.55L1036.63 897.471L1200.51 814.785ZM1200.51 738.878V526.142L1036.45 607.701L1036.58 822.17L1200.51 738.878Z" fill="#4CABCF"/>
<path d="M710.602 736.025L581.338 670.985V951.917C581.338 951.917 423.164 615.459 408.558 585.212C406.676 581.295 398.903 577.043 396.929 575.978C368.416 561.099 285.341 519.045 285.341 519.045V1015.54L400.271 1077.15V817.522C400.271 817.522 556.743 1118.17 558.352 1121.48C559.984 1124.76 575.601 1156.4 592.423 1167.54C614.732 1182.36 710.54 1239.96 710.54 1239.96L710.602 736.025Z" fill="#4C75CF"/>
</svg>
