<svg width="1500" height="1500" viewBox="0 0 1500 1500" fill="none" xmlns="http://www.w3.org/2000/svg">
<rect width="1500" height="1500" rx="750" fill="white"/>
<g clip-path="url(#clip0_168_2312)">
<path d="M456.51 803.717L486.14 581.097L229.137 402.684L463.958 482.225L519.415 397.138L721.912 271.488L1168.26 517.4L1191.39 892.607L992.542 1168.94L835.361 1193.03L916.645 1044.24V901.005L857.544 789.14L797.492 749.369L705.116 844.597V945.37L633.022 1012.87L541.439 1023.96L500.876 1046.94L434.328 1025.7L406.599 925.881L456.51 855.688V803.717Z" fill="white"/>
<path d="M866.892 400.779C817.931 390.638 764.376 393.332 764.376 393.332C764.376 393.332 746.788 474.616 637.775 496.007C638.568 496.007 781.805 544.967 866.892 400.779Z" fill="#94A6C3"/>
<path d="M911.258 1138.36C970.359 1092.09 1014.73 1028.4 1035.16 956.303C1036.12 953.609 1044.35 948.856 1049.9 945.212C1059.09 939.666 1068.44 935.071 1070.18 927.624C1073.83 906.392 1075.73 884.209 1075.73 862.026C1075.73 853.787 1067.33 845.389 1059.09 837.15C1052.59 831.604 1046.1 825.108 1046.1 820.513C1036.91 736.376 998.088 657.786 936.134 600.586L929.638 607.082C989.69 663.49 1028.51 740.179 1036.91 821.463C1037.86 828.91 1045.15 836.199 1052.59 843.646C1059.09 849.192 1066.54 857.59 1066.54 861.234C1066.54 882.466 1064.64 903.698 1060.99 924.93C1060.04 928.575 1051.8 932.377 1045.31 936.022C1036.12 940.617 1027.72 945.212 1025.97 952.659C1003.79 1031.25 952.93 1099.7 885.431 1144.06C897.473 1118.24 935.342 1034.1 955.624 991.479L951.979 854.737L834.569 741.13L768.021 750.32L694.976 868.681C694.976 868.681 729.201 912.096 681.032 962.958C633.973 1012.87 596.896 1023.96 596.896 1023.96L562.671 1005.42C572.812 992.429 593.252 973.099 608.938 960.106C635.716 937.923 662.494 936.022 662.494 912.096C663.603 862.026 609.889 875.811 609.889 875.811L590.4 894.35L582.16 962.799L541.598 1013.66L537.003 1012.71L470.454 997.975C470.454 997.975 511.175 976.743 517.672 952.659C524.168 929.525 504.679 852.836 503.728 848.241C504.679 849.192 523.217 864.878 531.457 890.705C546.193 849.984 565.682 811.164 571.227 807.52C576.773 803.875 651.561 764.105 651.561 764.105L626.684 829.703L645.223 819.562L689.588 710.549C689.588 710.549 733.003 689.317 765.327 689.317C823.478 688.366 909.515 617.223 870.695 489.672C881.787 494.267 1073.98 590.445 1107.26 778.999C1132.14 923.979 1049.9 1059.77 911.258 1138.36Z" fill="#94A6C3"/>
<path d="M691.332 421.059C712.564 396.024 704.325 359.105 704.325 359.105L642.371 450.689C641.421 450.689 664.396 451.639 691.332 421.059Z" fill="#1B314F"/>
<path d="M483.289 921.126L490.736 884.207C490.736 884.207 460.155 937.763 457.462 945.21C454.609 953.608 459.363 968.343 471.247 967.393C483.289 966.442 498.024 948.854 498.024 936.02C498.024 919.383 483.289 921.126 483.289 921.126Z" fill="#1B314F"/>
<path d="M1032.31 333.281C1032.31 333.281 1078.58 335.182 1126.59 340.728C1018.37 255.641 915.853 230.764 832.667 230.764C718.109 230.764 640.469 277.982 635.716 280.676L671.842 223.317C671.842 223.317 527.654 209.374 476.792 361.96C463.799 329.636 451.915 282.419 451.915 282.419C451.915 282.419 376.969 348.175 412.145 457.187C326.107 425.815 203.31 382.241 198.556 381.449C192.06 380.498 190.158 383.35 190.158 383.35C190.158 383.35 188.257 386.044 193.803 390.797C204.102 398.878 398.201 542.274 440.824 570.003C431.634 603.277 431.634 618.963 440.824 634.65C453.817 655.882 454.609 666.973 452.866 682.66C450.965 698.346 434.328 834.295 430.683 850.932C427.039 867.569 388.219 926.671 389.962 944.258C391.863 961.846 415.789 1036.63 437.18 1045.03C452.866 1050.58 491.686 1062.62 517.513 1062.62C526.703 1062.62 535.101 1060.72 538.745 1057.07C554.432 1043.29 559.027 1040.44 570.118 1040.44C571.069 1040.44 572.019 1040.44 572.812 1040.44C577.407 1040.44 582.952 1041.39 589.449 1041.39C604.185 1041.39 623.674 1038.54 637.459 1025.7C657.74 1005.42 692.916 977.691 704.007 964.698C717.951 947.11 725.239 923.185 721.595 899.101C718.743 876.918 730.785 857.429 744.728 838.098C762.316 814.964 794.64 773.451 794.64 773.451C858.494 821.302 898.265 894.347 898.265 975.631C898.265 1119.82 772.615 1236.28 617.336 1236.28C593.252 1236.28 570.276 1233.59 547.143 1228.04C618.286 1252.92 678.338 1261.31 727.458 1261.31C831.875 1261.31 887.332 1223.44 887.332 1223.44C887.332 1223.44 868.001 1248.48 836.47 1277C837.421 1277 837.421 1277 837.421 1277C1010.29 1252.92 1094.42 1110.63 1094.42 1110.63C1094.42 1110.63 1087.93 1156.9 1079.69 1188.27C1309.6 1015.4 1270.78 799.119 1269.83 791.831C1271.73 794.524 1294.86 822.253 1306.75 837.147C1343.82 456.237 1032.31 333.281 1032.31 333.281ZM678.338 941.565C674.694 946.16 659.008 960.103 647.916 970.244C636.825 980.385 624.783 990.525 615.593 999.874C611.949 1003.52 604.501 1005.42 593.41 1005.42C589.766 1005.42 585.963 1005.42 583.269 1005.42C581.368 1005.42 579.625 1005.42 577.724 1005.42C575.822 1005.42 574.871 1005.42 574.079 1005.42C571.227 1005.42 568.534 1005.42 565.681 1005.42C579.625 986.881 620.188 944.417 634.131 935.227C650.768 924.135 659.166 913.044 648.867 893.713C638.726 874.224 611.948 878.978 611.948 878.978C611.948 878.978 627.635 872.481 641.578 872.481C623.991 867.886 601.808 872.481 591.667 882.622C580.576 892.763 582.477 928.889 577.882 951.864C573.287 975.948 557.601 987.99 533.516 1010.17C520.524 1022.22 511.334 1025.86 503.887 1025.86C488.2 1023.17 469.662 1018.41 456.669 1013.82C447.479 1001.78 433.535 962.005 429.891 945.368C432.585 936.178 443.676 916.688 449.222 905.597C460.313 884.365 466.81 872.323 468.711 861.231C472.355 845.545 484.397 748.416 488.992 707.853C501.034 723.54 517.672 749.525 513.869 766.162C540.647 728.293 521.316 691.216 511.967 676.48C503.728 661.745 492.637 632.115 501.827 600.742C511.017 569.369 544.291 482.381 544.291 482.381C544.291 482.381 555.382 501.87 571.069 498.067C586.755 494.423 713.356 303.968 713.356 303.968C713.356 303.968 747.58 378.755 711.454 433.42C674.536 487.926 638.409 498.067 638.409 498.067C638.409 498.067 689.271 507.257 736.331 473.032C755.661 518.349 774.2 565.408 775.151 571.904C772.298 578.401 735.38 667.132 731.736 672.678C729.834 674.579 717 678.223 707.651 680.125C691.965 684.72 682.775 687.572 678.972 690.265C672.476 695.811 642.846 777.095 629.061 816.866C612.424 821.461 595.787 830.809 583.745 849.189C590.241 844.594 610.522 841.742 625.417 839.999C638.409 839.049 678.022 860.281 688.321 900.051C688.321 901.002 688.321 901.002 688.321 901.953C690.381 916.53 685.786 930.473 678.338 941.565ZM591.509 952.656C599.906 940.614 598.956 920.333 599.906 913.836C600.857 907.34 602.6 895.298 610.047 893.555C617.494 891.653 635.082 894.506 635.082 907.34C635.082 919.382 622.089 922.076 612.899 930.473C606.244 936.811 593.252 950.755 591.509 952.656ZM960.218 775.986C969.408 728.927 970.359 688.205 967.666 654.931C1003.63 702.941 1025.82 761.25 1032.31 821.302C1033.26 828.749 1040.55 836.038 1048 843.485C1054.5 849.031 1061.94 856.478 1061.94 861.073C1061.94 882.305 1060.04 903.537 1056.4 924.928C1055.45 927.621 1047.21 932.375 1040.71 936.019C1031.52 940.614 1023.12 945.209 1021.38 952.656C1001.1 1023.8 957.525 1086.7 899.374 1131.07C985.253 1041.39 1026.77 893.396 960.218 775.986ZM902.068 1139.31C962.12 1093.04 1008.39 1028.39 1028.67 955.35C1029.62 952.656 1037.86 947.903 1043.4 944.258C1052.59 939.663 1061.94 934.118 1063.69 926.671C1067.33 905.439 1069.23 883.256 1069.23 861.073C1069.23 852.834 1060.83 844.436 1052.59 836.196C1048 830.651 1040.55 824.154 1040.55 819.559C1033.1 752.06 1006.33 688.364 964.813 635.601C946.275 524.687 872.438 490.462 870.537 489.511C872.438 492.363 920.448 561.605 887.174 642.889C852.949 725.124 765.168 712.29 757.721 713.082C750.274 713.082 721.753 750 685.627 818.45C681.032 816.549 661.543 811.954 639.36 815.757C655.997 769.49 681.032 703.892 685.627 698.346C687.528 696.445 701.314 692.8 710.662 690.107C728.25 685.512 736.489 682.66 739.341 679.015C741.243 676.163 750.433 654.931 759.623 632.748C768.02 632.748 789.252 630.847 790.995 629.896C792.897 627.995 810.485 582.837 810.485 577.291C810.485 572.696 774.358 483.015 760.573 448.79C767.07 441.343 773.566 432.153 779.904 422.012C969.408 442.452 1117.4 603.277 1117.4 798.169C1117.4 947.903 1029.62 1078.31 902.068 1139.31Z" fill="#1B314F"/>
<path d="M656.156 640.196C673.744 619.915 664.554 582.045 632.072 575.549C640.47 556.218 652.353 517.398 652.353 517.398C652.353 517.398 558.076 665.231 549.837 668.083C541.439 670.935 533.2 638.453 533.2 638.453C515.612 705.952 562.83 715.142 568.376 693.91C594.203 687.255 638.568 659.527 656.156 640.196Z" fill="#1B314F"/>
<path d="M575.665 676.164L623.675 593.93C623.675 593.93 651.403 607.873 637.46 630.056C620.031 655.883 575.665 676.164 575.665 676.164Z" fill="#FFD923"/>
<path d="M1170.01 1057.07C1156.06 1075.61 1140.38 1094.94 1122 1113.48C1241.15 884.205 1127.54 674.419 1122.95 666.18C1131.34 674.577 1139.58 683.767 1147.03 692.007C1238.45 793.572 1249.55 946.158 1170.01 1057.07Z" fill="#D82122"/>
<path d="M1280.92 762.203C1239.25 650.339 1180.14 555.111 1049.9 469.232C924.25 386.047 789.252 392.543 781.805 393.494C780.854 393.494 779.903 393.494 779.903 393.494C784.498 391.592 789.093 390.642 793.688 389.849C822.368 380.659 859.286 373.212 896.363 368.617C994.443 354.515 1093.31 387.789 1160.81 459.091C1161.76 460.042 1161.76 460.042 1162.72 460.993C1239.4 542.277 1279.17 643.842 1280.92 762.203Z" fill="#D82122"/>
<path d="M1020.27 304.602C882.58 278.775 793.848 291.609 729.994 315.694C728.092 308.247 721.596 293.511 716.05 281.469C696.878 304.602 676.438 332.331 663.604 349.918C628.428 374.003 613.692 397.136 613.692 397.136C633.974 327.736 693.234 276.081 765.328 263.089C785.609 259.444 807.792 257.543 831.876 257.543C895.572 258.494 959.269 274.18 1020.27 304.602Z" fill="#D82122"/>
<path d="M511.017 482.061C402.955 478.417 438.923 352.609 440.824 345.32C440.824 346.271 448.113 444.192 511.017 482.061Z" fill="#D82122"/>
<path d="M617.336 255.645C534.151 305.556 550.788 424.709 550.788 424.709C471.247 303.813 610.84 258.497 617.336 255.645Z" fill="#D82122"/>
<path d="M480.595 515.337C486.14 519.932 491.686 528.329 485.19 540.372C481.545 546.868 476 545.917 467.602 542.273C456.511 536.727 389.962 497.907 329.91 458.137C398.36 482.221 467.602 508.048 478.693 513.594C478.693 513.594 479.644 514.544 480.595 515.337Z" fill="white"/>
</g>
<defs>
<clipPath id="clip0_168_2312">
<rect width="1119.91" height="1054" fill="white" transform="translate(190 223)"/>
</clipPath>
</defs>
</svg>
