<svg width="1500" height="1500" viewBox="0 0 1500 1500" fill="none" xmlns="http://www.w3.org/2000/svg">
<rect width="1500" height="1500" rx="750" fill="white"/>
<mask id="mask0_143_971" style="mask-type:luminance" maskUnits="userSpaceOnUse" x="196" y="201" width="1108" height="1099">
<path d="M1304 201H196V1299.11H1304V201Z" fill="white"/>
</mask>
<g mask="url(#mask0_143_971)">
<path d="M620.968 600.711V496.389C620.968 487.604 624.265 481.012 631.948 476.625L841.694 355.833C870.244 339.362 904.287 331.679 939.422 331.679C1071.19 331.679 1154.66 433.805 1154.66 542.514C1154.66 550.199 1154.66 558.985 1153.55 567.771L936.126 440.387C922.951 432.705 909.768 432.705 896.593 440.387L620.968 600.711ZM1110.73 1007.01V757.738C1110.73 742.361 1104.13 731.381 1090.96 723.695L815.334 563.372L905.379 511.757C913.064 507.37 919.655 507.37 927.34 511.757L1137.08 632.55C1197.48 667.693 1238.11 742.361 1238.11 814.832C1238.11 898.286 1188.7 975.157 1110.73 1007.01V1007.01ZM556.18 787.394L466.135 734.688C458.452 730.3 455.154 723.707 455.154 714.921V473.339C455.154 355.844 545.199 266.891 667.092 266.891C713.219 266.891 756.036 282.268 792.283 309.72L575.955 434.909C562.782 442.591 556.191 453.572 556.191 468.951V787.403L556.18 787.394ZM749.999 899.398L620.968 826.925V673.195L749.999 600.722L879.021 673.195V826.925L749.999 899.398ZM832.906 1233.23C786.781 1233.23 743.964 1217.85 707.717 1190.4L924.042 1065.21C937.218 1057.53 943.809 1046.55 943.809 1031.17V712.717L1034.96 765.423C1042.64 769.811 1045.94 776.402 1045.94 785.19V1026.77C1045.94 1144.27 954.789 1233.22 832.906 1233.22V1233.23ZM572.651 988.351L362.905 867.561C302.505 832.415 261.88 757.75 261.88 685.277C261.88 600.722 312.394 524.953 390.355 493.105V743.473C390.355 758.851 396.948 769.831 410.121 777.516L684.655 936.737L594.61 988.351C586.927 992.739 580.334 992.739 572.651 988.351ZM560.578 1168.44C436.491 1168.44 345.345 1075.1 345.345 959.799C345.345 951.013 346.446 942.227 347.537 933.441L563.865 1058.63C577.038 1066.31 590.223 1066.31 603.396 1058.63L879.021 899.409V1003.73C879.021 1012.52 875.725 1019.11 868.04 1023.5L658.297 1144.29C629.744 1160.76 595.701 1168.44 560.567 1168.44H560.578ZM832.906 1299.11C965.779 1299.11 1076.68 1204.68 1101.95 1079.49C1224.94 1047.64 1304 932.338 1304 814.843C1304 737.972 1271.06 663.306 1211.76 609.497C1217.25 586.434 1220.55 563.372 1220.55 540.321C1220.55 383.294 1093.16 265.788 946.013 265.788C916.371 265.788 887.818 270.175 859.266 280.064C809.843 231.745 741.76 201 667.092 201C534.221 201 423.317 295.432 398.051 420.621C275.064 452.469 196 567.771 196 685.265C196 762.137 228.94 836.803 288.24 890.612C282.749 913.674 279.454 936.737 279.454 959.79C279.454 1116.82 406.837 1234.32 553.985 1234.32C583.629 1234.32 612.182 1229.93 640.734 1220.04C690.145 1268.36 758.229 1299.11 832.906 1299.11Z" fill="black"/>
</g>
</svg>
