<svg width="1500" height="1500" viewBox="0 0 1500 1500" fill="none" xmlns="http://www.w3.org/2000/svg">
<rect width="1500" height="1500" rx="750" fill="white"/>
<path d="M132 750.097C132 929.636 408.69 1075.19 750 1075.19C1091.31 1075.19 1368 929.636 1368 750.097C1368 570.558 1091.3 425 750 425C408.69 425 132 570.558 132 750.097Z" fill="url(#paint0_radial_141_1246)"/>
<path d="M750 1051.05C1077.97 1051.05 1343.86 916.3 1343.86 750.097C1343.86 583.874 1077.97 449.141 750 449.141C422.025 449.141 156.141 583.874 156.141 750.097C156.141 916.3 422.025 1051.05 750 1051.05Z" fill="#777BB3"/>
<path d="M467.763 787.42C494.732 787.42 514.856 782.447 527.593 772.646C540.204 762.932 548.904 746.12 553.471 722.675C557.72 700.755 556.098 685.46 548.643 677.194C541.034 668.755 524.57 664.477 499.715 664.477H456.61L432.73 787.42H467.763ZM326.791 938.859C325.802 938.858 324.826 938.638 323.932 938.214C323.038 937.791 322.249 937.175 321.621 936.411C320.994 935.647 320.543 934.753 320.301 933.794C320.06 932.835 320.034 931.834 320.225 930.864L383.541 605.081C383.84 603.558 384.658 602.186 385.855 601.198C387.052 600.211 388.555 599.668 390.107 599.664H526.588C569.482 599.664 601.405 611.31 621.48 634.282C641.643 657.36 647.881 689.651 639.991 730.217C636.776 746.738 631.253 762.082 623.576 775.833C615.585 789.976 605.388 802.754 593.371 813.685C578.587 827.513 561.853 837.555 543.67 843.455C525.787 849.288 502.805 852.243 475.401 852.243H420.128L404.35 933.432C404.052 934.96 403.232 936.337 402.031 937.327C400.829 938.317 399.321 938.859 397.764 938.859H326.791Z" fill="black"/>
<path d="M462.149 671.175H499.722C529.724 671.175 540.143 677.76 543.687 681.69C549.548 688.198 550.668 701.939 546.883 721.397C542.644 743.191 534.783 758.65 523.515 767.322C511.985 776.206 493.213 780.705 467.769 780.705H440.867L462.159 671.184L462.149 671.175ZM526.595 592.959H390.123C387.011 592.959 383.996 594.041 381.593 596.019C379.19 597.997 377.55 600.749 376.952 603.803L313.636 929.595C313.262 931.536 313.321 933.535 313.809 935.45C314.298 937.365 315.203 939.149 316.46 940.674C317.717 942.198 319.296 943.427 321.083 944.271C322.87 945.115 324.821 945.554 326.797 945.557H397.771C400.883 945.554 403.897 944.47 406.298 942.49C408.699 940.51 410.337 937.758 410.932 934.703L425.658 858.94H475.398C503.517 858.94 527.194 855.87 545.763 849.825C564.853 843.626 582.418 833.11 597.964 818.567C610.482 807.166 621.105 793.844 629.434 779.102C637.458 764.744 643.233 748.714 646.574 731.487C654.878 688.778 648.129 654.585 626.527 629.865C605.129 605.367 571.506 592.949 526.595 592.949V592.959ZM424.596 794.108H467.769C496.381 794.108 517.692 788.73 531.693 777.934C545.705 767.158 555.139 749.158 560.064 723.946C564.747 699.728 562.613 682.646 553.642 672.691C544.652 662.745 526.692 657.762 499.722 657.762H451.093L424.596 794.108ZM526.605 606.342C567.663 606.342 597.607 617.128 616.437 638.672C635.266 660.224 640.925 690.304 633.432 728.919C630.322 744.832 625.098 759.375 617.74 772.546C610.363 785.736 600.745 797.787 588.858 808.728C574.683 821.986 558.953 831.439 541.62 837.069C524.297 842.708 502.223 845.518 475.407 845.518H414.611L397.781 932.135H326.807L390.133 606.342H526.605Z" fill="white"/>
<path d="M802.714 852.232C801.724 852.233 800.747 852.015 799.851 851.594C798.956 851.172 798.165 850.558 797.535 849.794C796.906 849.031 796.453 848.137 796.21 847.178C795.966 846.219 795.939 845.218 796.128 844.246L824.131 700.098C826.806 686.386 826.15 676.556 822.297 672.385C819.931 669.845 812.843 665.587 791.88 665.587H741.126L705.92 846.815C705.617 848.341 704.794 849.715 703.591 850.701C702.388 851.687 700.88 852.225 699.324 852.222H628.93C627.941 852.223 626.965 852.005 626.07 851.584C625.175 851.164 624.384 850.55 623.754 849.788C623.124 849.026 622.67 848.134 622.425 847.176C622.179 846.218 622.149 845.218 622.335 844.246L685.661 518.454C685.961 516.928 686.781 515.553 687.983 514.565C689.184 513.577 690.691 513.037 692.246 513.037H762.64C763.629 513.036 764.606 513.254 765.501 513.675C766.396 514.096 767.187 514.709 767.817 515.472C768.447 516.234 768.901 517.126 769.146 518.084C769.392 519.042 769.422 520.042 769.236 521.013L753.96 599.654H808.546C850.136 599.654 878.332 606.973 894.757 622.066C911.492 637.448 916.725 662.043 910.284 695.193L880.823 846.815C880.521 848.339 879.7 849.712 878.499 850.698C877.298 851.684 875.792 852.223 874.238 852.222H802.714V852.232Z" fill="black"/>
<path d="M762.644 506.344H692.24C689.127 506.344 686.11 507.428 683.707 509.408C681.305 511.388 679.665 514.141 679.069 517.197L615.753 842.98C615.378 844.921 615.436 846.922 615.923 848.838C616.41 850.754 617.315 852.539 618.573 854.065C619.83 855.591 621.409 856.82 623.197 857.665C624.985 858.51 626.937 858.949 628.915 858.951H699.318C702.432 858.951 705.448 857.868 707.851 855.888C710.254 853.908 711.894 851.154 712.489 848.098L746.644 672.306H791.854C812.789 672.306 817.192 676.777 817.356 676.979C818.631 678.331 820.301 684.656 817.54 698.841L789.537 842.98C789.161 844.922 789.219 846.923 789.707 848.84C790.195 850.757 791.101 852.543 792.359 854.069C793.618 855.595 795.198 856.824 796.987 857.668C798.776 858.512 800.73 858.95 802.708 858.951H874.241C877.353 858.948 880.367 857.864 882.768 855.884C885.169 853.905 886.807 851.152 887.403 848.098L916.864 696.495C923.768 660.902 917.859 634.212 899.29 617.149C881.561 600.869 851.877 592.96 808.54 592.96H762.094L775.815 522.325C776.192 520.382 776.135 518.38 775.648 516.462C775.161 514.543 774.256 512.757 772.997 511.229C771.738 509.702 770.157 508.472 768.367 507.627C766.578 506.783 764.623 506.344 762.644 506.344ZM762.644 519.766L745.813 606.363H808.54C848.005 606.363 875.236 613.258 890.203 627.028C905.199 640.797 909.68 663.094 903.702 693.945L874.232 845.539H802.708L830.721 701.39C833.907 684.994 832.729 673.812 827.196 667.845C821.663 661.887 809.882 658.903 791.873 658.903H735.587L699.318 845.529H628.905L692.231 519.737H762.644V519.766Z" fill="white"/>
<path d="M1021.69 787.42C1048.66 787.42 1068.79 782.447 1081.53 772.646C1094.13 762.932 1102.84 746.12 1107.4 722.675C1111.65 700.755 1110.04 685.46 1102.58 677.194C1094.97 668.755 1078.5 664.477 1053.65 664.477H1010.55L986.653 787.42H1021.69ZM880.743 938.859C879.752 938.861 878.774 938.643 877.877 938.22C876.981 937.798 876.19 937.183 875.56 936.418C874.93 935.654 874.478 934.759 874.235 933.799C873.993 932.838 873.966 931.836 874.157 930.864L937.473 605.081C937.773 603.555 938.594 602.18 939.795 601.192C940.996 600.204 942.504 599.664 944.059 599.664H1080.53C1123.42 599.664 1155.35 611.31 1175.41 634.282C1195.58 657.36 1201.81 689.651 1193.92 730.217C1190.91 746.196 1185.37 761.594 1177.52 775.833C1169.52 789.974 1159.33 802.752 1147.31 813.685C1132.54 827.513 1115.79 837.555 1097.61 843.455C1079.73 849.288 1056.75 852.243 1029.33 852.243H974.071L958.302 933.432C958.004 934.962 957.182 936.34 955.979 937.33C954.776 938.321 953.265 938.861 951.707 938.859H880.743Z" fill="black"/>
<path d="M1016.07 671.175H1053.65C1083.65 671.175 1094.07 677.76 1097.6 681.69C1103.49 688.198 1104.59 701.939 1100.82 721.397C1096.57 743.191 1088.71 758.65 1077.44 767.322C1065.9 776.206 1047.13 780.705 1021.69 780.705H994.792L1016.07 671.175ZM1080.52 592.959H944.049C940.938 592.961 937.925 594.044 935.525 596.022C933.124 598 931.485 600.75 930.887 603.803L867.562 929.595C867.188 931.536 867.247 933.537 867.736 935.452C868.225 937.368 869.13 939.152 870.389 940.677C871.647 942.202 873.227 943.43 875.015 944.274C876.803 945.118 878.756 945.556 880.733 945.557H951.706C954.818 945.554 957.832 944.47 960.233 942.49C962.634 940.51 964.272 937.758 964.868 934.703L979.594 858.94H1029.32C1057.43 858.94 1081.12 855.87 1099.68 849.825C1118.78 843.626 1136.34 833.11 1151.9 818.558C1164.41 807.158 1175.03 793.84 1183.36 779.102C1191.39 764.744 1197.15 748.714 1200.5 731.487C1208.8 688.778 1202.06 654.585 1180.45 629.865C1159.06 605.367 1125.44 592.949 1080.51 592.949L1080.52 592.959ZM978.522 794.108H1021.69C1050.31 794.108 1071.61 788.73 1085.63 777.934C1099.63 767.158 1109.07 749.158 1113.98 723.946C1118.68 699.728 1116.55 682.646 1107.56 672.691C1098.58 662.745 1080.61 657.762 1053.65 657.762H1005.03L978.522 794.108ZM1080.52 606.342C1121.57 606.342 1151.53 617.128 1170.35 638.672C1189.18 660.224 1194.85 690.304 1187.34 728.919C1184.25 744.832 1179.01 759.375 1171.66 772.546C1164.29 785.736 1154.66 797.787 1142.76 808.728C1128.6 821.986 1112.86 831.439 1095.53 837.069C1078.21 842.708 1056.15 845.518 1029.32 845.518H968.537L951.687 932.135H880.714L944.039 606.342H1080.52Z" fill="white"/>
<defs>
<radialGradient id="paint0_radial_141_1246" cx="0" cy="0" r="1" gradientUnits="userSpaceOnUse" gradientTransform="translate(503.051 539.291) scale(811.524 811.524)">
<stop stop-color="#AEB2D5"/>
<stop offset="0.3" stop-color="#AEB2D5"/>
<stop offset="0.75" stop-color="#484C89"/>
<stop offset="1" stop-color="#484C89"/>
</radialGradient>
</defs>
</svg>
