<svg width="1500" height="1500" viewBox="0 0 1500 1500" fill="none" xmlns="http://www.w3.org/2000/svg">
<rect width="1500" height="1500" rx="750" fill="white"/>
<path d="M987.668 1025.64C993.975 973.092 992.085 965.387 1031.22 973.899L1041.16 974.771C1071.26 976.141 1110.63 969.931 1133.75 959.186C1183.54 936.084 1213.07 897.512 1163.97 907.647C1051.99 930.749 1044.29 892.83 1044.29 892.83C1162.54 717.376 1211.97 494.654 1169.3 440.136C1052.92 291.432 851.476 361.751 848.105 363.576L847.032 363.775C824.905 359.184 800.142 356.44 772.324 355.991C721.647 355.158 683.194 369.276 654.024 391.401C654.024 391.401 294.652 243.344 311.37 577.597C314.926 648.702 413.292 1115.64 530.613 974.602C573.492 923.03 614.932 879.424 614.932 879.424C635.509 893.095 660.145 900.068 685.983 897.563L687.981 895.86C687.355 902.263 687.631 908.527 688.78 915.941C658.562 949.71 667.441 955.639 607.017 968.076C545.884 980.676 581.799 1003.11 605.242 1008.97C633.67 1016.08 699.434 1026.15 743.881 963.942L742.111 971.04C753.967 980.525 753.165 1039.21 754.846 1081.14C756.53 1123.08 759.337 1162.21 767.885 1185.28C776.432 1208.35 786.518 1267.77 865.93 1250.75C932.3 1236.53 983.043 1216.06 987.668 1025.64Z" fill="black" stroke="black" stroke-width="83.2601"/>
<path d="M1163.98 907.643C1051.99 930.745 1044.29 892.826 1044.29 892.826C1162.54 717.361 1211.97 494.634 1169.31 440.123C1052.93 291.427 851.477 361.751 848.115 363.577L847.033 363.77C824.906 359.177 800.143 356.441 772.312 355.987C721.635 355.156 683.195 369.272 654.025 391.392C654.025 391.392 294.646 243.342 311.36 577.593C314.916 648.703 413.28 1115.64 530.605 974.602C573.487 923.03 614.919 879.425 614.919 879.425C635.499 893.095 660.135 900.068 685.962 897.564L687.968 895.86C687.345 902.264 687.63 908.527 688.772 915.941C658.547 949.71 667.429 955.639 607.009 968.076C545.872 980.676 581.787 1003.11 605.236 1008.97C633.664 1016.08 699.432 1026.15 743.871 963.942L742.099 971.04C753.941 980.525 762.257 1032.74 760.863 1080.07C759.47 1127.4 758.539 1159.9 767.87 1185.28C777.201 1210.66 786.501 1267.77 865.929 1250.75C932.298 1236.53 966.691 1199.67 971.476 1138.19C974.871 1094.48 982.555 1100.94 983.04 1061.87L989.203 1043.37C996.31 984.118 990.332 965.004 1031.22 973.894L1041.16 974.767C1071.25 976.136 1110.64 969.927 1133.76 959.182C1183.54 936.08 1213.06 897.508 1163.98 907.643H1163.98Z" fill="#336791"/>
<path d="M748.68 941.607C745.596 1051.85 749.455 1162.87 760.242 1189.85C771.036 1216.83 794.136 1269.31 873.57 1252.29C939.933 1238.06 964.079 1210.53 974.557 1149.76C982.274 1105.05 997.151 980.871 999.059 955.429" stroke="white" stroke-width="27.7534" stroke-linecap="round" stroke-linejoin="round"/>
<path d="M653.471 388.931C653.471 388.931 293.847 241.947 310.565 576.198C314.121 647.308 412.492 1114.26 529.814 973.216C572.687 921.637 611.462 881.184 611.462 881.184" stroke="white" stroke-width="27.7534" stroke-linecap="round" stroke-linejoin="round"/>
<path d="M847.721 362.103C835.273 366.006 1047.77 284.423 1168.53 438.732C1211.19 493.245 1161.75 715.972 1043.5 891.441" stroke="white" stroke-width="27.7534" stroke-linecap="round" stroke-linejoin="round"/>
<path d="M1043.5 891.442C1043.5 891.442 1051.21 929.372 1163.21 906.254C1212.28 896.12 1182.75 934.696 1132.98 957.809C1092.13 976.765 1000.56 981.623 999.065 955.429C995.215 887.844 1047.26 908.376 1043.5 891.442ZM1043.5 891.442C1040.11 876.19 1016.83 861.222 1001.44 823.895C987.997 791.314 817.094 541.467 1048.83 578.574C1057.32 576.817 988.393 358.147 771.518 354.591C554.692 351.036 561.805 621.24 561.805 621.24" stroke="white" stroke-width="27.7534" stroke-linecap="round" stroke-linejoin="bevel"/>
<path d="M687.982 914.555C657.753 948.322 666.644 954.251 606.219 966.693C545.082 979.295 581.002 1001.72 604.444 1007.58C632.872 1014.7 698.64 1024.77 743.079 962.543C756.611 943.597 742.999 913.368 724.41 905.663C715.428 901.942 703.418 897.28 687.982 914.555Z" stroke="white" stroke-width="27.7534" stroke-linecap="round" stroke-linejoin="round"/>
<path d="M686.002 913.965C682.956 894.112 692.525 870.486 702.78 842.847C718.192 801.376 753.751 759.899 725.306 628.349C704.103 530.319 561.891 607.948 561.801 621.24C561.715 634.528 568.234 688.614 559.426 751.596C547.933 833.783 611.721 903.291 685.175 896.18" stroke="white" stroke-width="27.7534" stroke-linecap="round" stroke-linejoin="round"/>
<path d="M652.163 619.243C651.522 623.783 660.475 635.897 672.148 637.516C683.802 639.141 693.776 629.674 694.409 625.139C695.041 620.599 686.099 615.598 674.421 613.973C662.761 612.345 652.782 614.714 652.166 619.243H652.163Z" fill="white" stroke="white" stroke-width="9.25105"/>
<path d="M1007.12 609.992C1007.75 614.532 998.81 626.646 987.134 628.265C975.472 629.89 965.497 620.423 964.858 615.888C964.241 611.348 973.185 606.347 984.85 604.722C996.514 603.097 1006.49 605.463 1007.12 609.994V609.992Z" fill="white" stroke="white" stroke-width="4.62552"/>
<path d="M1048.83 578.574C1050.75 614.185 1041.16 638.44 1039.95 676.348C1038.16 731.449 1066.22 794.517 1023.94 857.662" stroke="white" stroke-width="27.7534" stroke-linecap="round" stroke-linejoin="round"/>
</svg>
