<svg width="1500" height="1500" viewBox="0 0 1500 1500" fill="none" xmlns="http://www.w3.org/2000/svg">
<rect width="1500" height="1500" rx="750" fill="white"/>
<path d="M1236.57 374.219C1029.04 105.482 642.926 55.8719 374.179 263.437C105.472 471.003 55.9112 857.119 263.477 1125.83C471.082 1394.52 857.228 1444.05 1125.9 1236.45C1394.49 1028.88 1444.06 642.886 1236.57 374.219Z" fill="#F37036"/>
<path d="M1018.24 355.37C997.074 357.061 977.005 365.483 960.971 379.402C942.203 395.697 930.224 418.435 927.4 443.129C924.575 467.823 931.111 492.679 945.716 512.79C960.301 532.91 981.897 546.833 1006.24 551.812C1030.59 556.791 1055.92 552.464 1077.23 539.685H1077.25L1078.8 541.231C1085.82 537.206 1092.35 532.387 1098.26 526.867C1116.51 507.568 1126.54 481.938 1126.25 455.383C1125.96 428.828 1115.37 403.422 1096.72 384.524V384.504L1009.11 471.57L1007.56 470.035L1095.17 382.929C1085.03 373.151 1072.93 365.64 1059.66 360.892C1046.4 356.144 1032.28 354.269 1018.24 355.389V355.37ZM902.891 497.891C860.888 497.822 792.308 545.431 624.852 712.886L625.684 713.738C624.773 713.421 623.852 713.391 623.852 713.391L560.808 775.88C559.189 777.42 558.118 779.447 557.757 781.652C557.395 783.856 557.764 786.119 558.807 788.095C559.85 790.071 561.51 791.652 563.534 792.598C565.559 793.544 567.836 793.803 570.021 793.335L678.138 770.273C678.615 769.825 678.935 769.234 679.049 768.589L681.447 771.066L644.595 807.62H642.812L424.023 1028.13L494.219 1095.73C496.182 1097.5 498.658 1098.6 501.288 1098.87C503.917 1099.13 506.563 1098.55 508.84 1097.21C511.137 1095.88 512.977 1093.88 514.118 1091.48C515.258 1089.09 515.646 1086.4 515.23 1083.78L504.977 1039.2C504.338 1038.3 503.994 1037.23 503.994 1036.13C503.994 1035.03 504.338 1033.95 504.977 1033.06C600.811 987.37 689.932 928.764 769.85 858.875L724.925 813.93L725.777 813.791L699.129 787.153L700.833 785.43L702.636 787.272L701.705 788.174L772.406 860.42V860.39C907.923 732.065 1004.11 628.911 979.1 559.488C977.96 551.186 974.104 543.495 968.134 537.615V537.655C966.617 536.525 965.018 535.511 963.349 534.623C962.527 533.752 961.803 532.86 960.932 532.008L960.278 532.662C958.442 531.54 956.513 530.579 954.512 529.789L957.375 526.896C939.584 511.046 924.883 497.931 902.891 497.871V497.891ZM422.497 1029.45L371.272 1080.69V1080.73C369.434 1081.86 368.005 1083.56 367.192 1085.56C366.378 1087.56 366.222 1089.77 366.745 1091.87C367.25 1093.97 368.404 1095.85 370.042 1097.25C371.68 1098.66 373.719 1099.51 375.869 1099.69L501.401 1108.35L422.497 1029.45Z" fill="white"/>
<path d="M1026.88 346.911C998.131 346.875 970.521 358.156 950.02 378.314C935.432 393.243 925.445 412.051 921.247 432.496C917.049 452.942 918.818 474.164 926.344 493.633C879.378 473.523 815.839 508.591 618.2 706.191C618.061 706.495 617.939 706.806 617.833 707.122C617.43 707.306 617.036 707.511 616.655 707.736L554.156 770.78C551.16 773.72 549.193 777.548 548.545 781.695C547.897 785.843 548.604 790.088 550.56 793.802C552.306 796.74 554.779 799.18 557.74 800.887C560.701 802.595 564.052 803.511 567.47 803.55L570.571 801.539L654.021 783.737L614.099 824.026C613.866 824.555 613.687 825.106 613.564 825.67L417.915 1021.8C417.135 1022.46 416.489 1023.26 416.013 1024.16L365.63 1074.58C363.119 1077.24 361.403 1080.54 360.678 1084.12C359.953 1087.69 360.248 1091.4 361.529 1094.82C362.843 1098.22 365.07 1101.19 367.965 1103.4C370.86 1105.61 374.31 1106.98 377.934 1107.35L502.931 1116.07C505.063 1115.32 506.878 1113.87 508.082 1111.96C509.157 1110.47 509.735 1108.67 509.735 1106.83C509.735 1104.99 509.157 1103.2 508.082 1101.71L507.824 1101.46C510.522 1100.04 512.899 1098.09 514.808 1095.71C516.816 1093.11 518.218 1090.09 518.914 1086.88C519.609 1083.66 519.581 1080.33 518.83 1077.13L509.083 1035.65C602.602 990.96 690.226 934.856 769.954 868.624C770.728 869.064 771.553 869.407 772.411 869.644C774.927 869.456 777.284 868.376 779.067 866.593C913.297 739.496 992.2 652.4 992.2 583.255C992.492 573.663 991.045 564.098 987.931 555.022C1000.03 560.038 1012.93 562.823 1026.02 563.244L1025.87 563.284C1043.9 562.732 1061.52 557.803 1077.22 548.919C1077.23 548.923 1077.24 548.926 1077.26 548.929C1079.29 549.538 1081.48 549.343 1083.37 548.385C1090.94 543.925 1097.85 538.415 1103.87 532.019C1114.09 521.996 1122.21 510.037 1127.75 496.842C1133.29 483.646 1136.14 469.479 1136.15 455.167C1136.15 440.856 1133.29 426.688 1127.75 413.493C1122.21 400.298 1114.1 388.338 1103.88 378.314C1103.52 377.983 1103.13 377.681 1102.71 377.413C1082.32 357.832 1055.14 346.905 1026.87 346.921L1026.88 346.911ZM1026.02 364.465C1046.04 364.585 1065.47 371.243 1081.36 383.426L1001.43 463.835C1001.16 464.139 1000.91 464.464 1000.68 464.805C999.24 466.263 998.395 468.206 998.313 470.254C998.313 471.491 998.592 472.712 999.129 473.827C999.665 474.942 1000.45 475.921 1001.41 476.693H1001.43L1061.86 537.121C1045.32 544.334 1026.99 546.384 1009.26 543.002C991.536 539.621 975.245 530.966 962.521 518.17C936.904 492.414 929.474 453.74 943.174 420.188C956.875 386.606 989.536 364.663 1026.02 364.465ZM1096.55 398.463C1109.62 414.274 1116.75 434.159 1116.69 454.671C1116.66 478.702 1107.08 501.734 1090.06 518.705C1086.65 521.914 1083.02 524.877 1079.19 527.572L1030.42 479.556L1020.88 470.016L1023.5 467.391L1096.54 398.444L1096.55 398.463ZM1092.93 440C1091.13 439.434 1089.2 439.543 1087.48 440.307C1085.78 441.187 1084.5 442.705 1083.91 444.527C1083.63 445.437 1083.52 446.395 1083.61 447.346C1083.69 448.296 1083.96 449.22 1084.41 450.065C1086.17 453.766 1086.86 457.884 1086.41 461.958C1085.96 466.031 1084.39 469.899 1081.86 473.127C1081.22 473.75 1080.71 474.503 1080.38 475.336C1080.04 476.17 1079.89 477.064 1079.93 477.961C1079.97 479.784 1080.62 481.527 1081.86 482.835C1083.18 483.339 1084.64 483.339 1085.96 482.835C1087.15 483.132 1088.4 483.098 1089.58 482.737C1090.75 482.375 1091.8 481.7 1092.62 480.784C1096.84 475.615 1099.5 469.36 1100.32 462.741C1101.13 456.121 1100.06 449.405 1097.23 443.368V443.408C1096.26 441.783 1094.73 440.57 1092.93 440ZM901.964 506.6C913.92 506.996 925.425 511.258 934.754 518.745C924.702 520.192 915.386 524.848 908.195 532.019L682.264 756.941L637.923 712.6C755.094 595.984 826.736 535.071 871.275 515.109C880.448 509.322 891.121 506.37 901.964 506.6ZM941.243 535.922C948.829 535.923 956.106 538.929 961.481 544.283C964.342 546.966 966.599 550.227 968.1 553.85C969.601 557.473 970.314 561.375 970.189 565.294C970.059 569.2 969.126 573.036 967.447 576.564C965.768 580.093 963.38 583.237 960.431 585.8L720.205 794.882L694.28 768.957L921.004 544.283C926.381 538.933 933.658 535.92 941.243 535.922ZM970.902 602.275C954.16 668.666 865.43 758.625 772.906 846.038L735.49 808.661L970.902 602.275ZM624.857 725.697L627.571 728.371L662.372 763.172L566.975 783.579L624.857 725.697ZM682.244 783.549L682.283 783.589L693.854 795.427C693.902 795.706 693.962 795.984 694.032 796.259L694.805 796.378L697.262 798.894L705.385 807.215L652.04 813.753L682.254 783.539L682.244 783.549ZM720.551 823.927L755.996 859.352C677.62 924.525 591.614 979.93 499.87 1024.35C496.891 1025.77 494.496 1028.18 493.093 1031.16C491.689 1034.15 491.364 1037.53 492.173 1040.73L502.426 1085.3C502.804 1085.83 503.007 1086.46 503.007 1087.1C503.007 1087.75 502.804 1088.38 502.426 1088.9C501.862 1089.4 501.132 1089.68 500.375 1089.68C499.618 1089.68 498.888 1089.4 498.324 1088.9L437.876 1027.96L624.193 838.905L720.551 823.927ZM424.027 1041.27L432.636 1049.33L477.135 1093.83L377.914 1087.41L424.027 1041.27Z" fill="#F37036"/>
</svg>
