<svg width="1500" height="1500" viewBox="0 0 1500 1500" fill="none" xmlns="http://www.w3.org/2000/svg">
<rect width="1500" height="1500" rx="750" fill="white"/>
<path fill-rule="evenodd" clip-rule="evenodd" d="M311.044 896.257C300.164 913.999 300.333 936.39 311.478 953.974L513.207 1272.2C526.299 1292.85 551.536 1302.27 574.958 1295.24L1157.1 1120.6C1188.87 1111.07 1204.85 1075.63 1190.96 1045.51L816.738 233.717C798.488 194.128 743.47 190.878 720.686 228.043L311.044 896.257ZM806.795 419.3C798.841 400.895 771.907 403.73 767.959 423.387L623.883 1140.77C620.844 1155.89 635.007 1168.81 649.791 1164.4L1052.01 1044.33C1063.75 1040.83 1069.79 1027.87 1064.93 1016.62L806.795 419.3Z" fill="#4C51BF"/>
</svg>
