<svg width="1500" height="1500" viewBox="0 0 1500 1500" fill="none" xmlns="http://www.w3.org/2000/svg">
<rect width="1500" height="1500" rx="750" fill="white"/>
<path fill-rule="evenodd" clip-rule="evenodd" d="M1053.91 252.727C1108.14 252.727 1157.23 274.712 1192.76 310.243C1228.3 345.774 1250.29 394.871 1250.29 449.09V1051.55C1250.29 1105.77 1228.31 1154.86 1192.77 1190.4C1174.55 1208.66 1152.91 1223.14 1129.08 1233.01C1105.25 1242.88 1079.7 1247.94 1053.91 1247.91H446.098C391.874 1247.91 342.782 1225.92 307.246 1190.39C271.71 1154.86 249.725 1105.76 249.725 1051.55V449.09C249.725 394.866 271.705 345.774 307.241 310.237C325.456 291.976 347.1 277.494 370.93 267.625C394.76 257.755 420.305 252.692 446.098 252.727H1053.91Z" fill="#EC5990"/>
<path fill-rule="evenodd" clip-rule="evenodd" d="M921.523 484.591H809.267C801.036 458.953 777.093 441.551 750.045 441.551C722.998 441.551 699.054 458.953 690.824 484.591H578.487C534.258 484.591 498.404 520.267 498.404 564.276V979.438C498.404 1023.45 534.258 1059.12 578.487 1059.12H921.523C965.752 1059.12 1001.61 1023.45 1001.61 979.438V564.276C1001.61 520.267 965.752 484.591 921.523 484.591ZM696.424 499.078C698.114 499.12 699.765 498.571 701.094 497.526C702.422 496.481 703.345 495.006 703.702 493.354C708.468 471.589 727.834 456.064 750.223 456.064C772.612 456.064 791.978 471.584 796.744 493.354C797.101 495.006 798.024 496.481 799.352 497.526C800.681 498.571 802.332 499.12 804.022 499.078H843.189V546.529C843.189 558.53 833.409 568.262 821.349 568.262H679.022C666.961 568.262 657.182 558.53 657.182 546.529V499.078H696.424ZM987.044 979.438C987.044 1015.45 957.71 1044.64 921.523 1044.64H578.487C542.3 1044.64 512.966 1015.45 512.966 979.438V564.276C512.966 528.266 542.3 499.078 578.487 499.078H642.625V546.529C642.625 566.535 658.924 582.748 679.027 582.748H820.988C841.091 582.748 857.391 566.529 857.391 546.529V499.078H921.529C957.716 499.078 987.049 528.266 987.049 564.276L987.044 979.438ZM907.252 721.331H779.121C778.167 721.329 777.222 721.515 776.341 721.878C775.459 722.241 774.657 722.774 773.981 723.447C773.305 724.12 772.768 724.919 772.402 725.799C772.035 726.68 771.845 727.624 771.843 728.577C771.845 729.531 772.035 730.475 772.402 731.355C772.768 732.235 773.305 733.035 773.981 733.708C774.657 734.381 775.459 734.914 776.341 735.277C777.222 735.64 778.167 735.825 779.121 735.823H907.252C908.205 735.825 909.15 735.64 910.032 735.277C910.914 734.914 911.716 734.381 912.392 733.708C913.067 733.035 913.604 732.235 913.971 731.355C914.338 730.475 914.528 729.531 914.53 728.577C914.528 727.624 914.338 726.68 913.971 725.799C913.604 724.919 913.067 724.12 912.392 723.447C911.716 722.774 910.914 722.241 910.032 721.878C909.15 721.515 908.205 721.329 907.252 721.331ZM717.974 721.331H589.843C588.889 721.329 587.944 721.515 587.062 721.878C586.18 722.241 585.379 722.774 584.703 723.447C584.027 724.12 583.49 724.919 583.123 725.799C582.756 726.68 582.567 727.624 582.564 728.577C582.567 729.531 582.756 730.475 583.123 731.355C583.49 732.235 584.027 733.035 584.703 733.708C585.379 734.381 586.18 734.914 587.062 735.277C587.944 735.64 588.889 735.825 589.843 735.823H717.974C718.927 735.825 719.872 735.64 720.754 735.277C721.636 734.914 722.438 734.381 723.113 733.708C723.789 733.035 724.326 732.235 724.693 731.355C725.06 730.475 725.25 729.531 725.252 728.577C725.25 727.624 725.06 726.68 724.693 725.799C724.326 724.919 723.789 724.12 723.113 723.447C722.438 722.774 721.636 722.241 720.754 721.878C719.872 721.515 718.927 721.329 717.974 721.331ZM907.618 896.639H779.126C778.173 896.637 777.228 896.823 776.346 897.186C775.464 897.549 774.662 898.082 773.986 898.755C773.311 899.428 772.774 900.227 772.407 901.107C772.04 901.988 771.85 902.932 771.848 903.885C771.85 904.839 772.04 905.783 772.407 906.663C772.774 907.544 773.311 908.343 773.986 909.016C774.662 909.689 775.464 910.222 776.346 910.585C777.228 910.948 778.173 911.133 779.126 911.131H907.618C908.571 911.133 909.516 910.948 910.398 910.585C911.28 910.222 912.082 909.689 912.757 909.016C913.433 908.343 913.97 907.544 914.337 906.663C914.704 905.783 914.894 904.839 914.896 903.885C914.894 902.932 914.704 901.988 914.337 901.107C913.97 900.227 913.433 899.428 912.757 898.755C912.082 898.082 911.28 897.549 910.398 897.186C909.516 896.823 908.571 896.637 907.618 896.639ZM718.334 896.639H589.843C588.889 896.637 587.944 896.823 587.062 897.186C586.18 897.549 585.379 898.082 584.703 898.755C584.027 899.428 583.49 900.227 583.123 901.107C582.756 901.988 582.567 902.932 582.564 903.885C582.567 904.839 582.756 905.783 583.123 906.663C583.49 907.544 584.027 908.343 584.703 909.016C585.379 909.689 586.18 910.222 587.062 910.585C587.944 910.948 588.889 911.133 589.843 911.131H718.334C719.288 911.133 720.233 910.948 721.114 910.585C721.996 910.222 722.798 909.689 723.474 909.016C724.15 908.343 724.686 907.544 725.053 906.663C725.42 905.783 725.61 904.839 725.612 903.885C725.61 902.932 725.42 901.988 725.053 901.107C724.686 900.227 724.15 899.428 723.474 898.755C722.798 898.082 721.996 897.549 721.114 897.186C720.233 896.823 719.288 896.637 718.334 896.639Z" fill="white"/>
</svg>
