<svg width="1500" height="1500" viewBox="0 0 1500 1500" fill="none" xmlns="http://www.w3.org/2000/svg">
<rect width="1500" height="1500" rx="750" fill="white"/>
<g clip-path="url(#clip0_141_1260)">
<path d="M749.51 844.76C802.034 844.76 844.613 802.181 844.613 749.658C844.613 697.134 802.034 654.556 749.51 654.556C696.987 654.556 654.408 697.134 654.408 749.658C654.408 802.181 696.987 844.76 749.51 844.76Z" fill="#61DAFB"/>
<path d="M749.5 944.529C1031.33 944.529 1259.8 857.294 1259.8 749.685C1259.8 642.076 1031.33 554.842 749.5 554.842C467.666 554.842 239.195 642.076 239.195 749.685C239.195 857.294 467.666 944.529 749.5 944.529Z" stroke="#61DAFB" stroke-width="46.3913"/>
<path d="M580.778 847.086C721.694 1091.16 911.477 1245.4 1004.67 1191.6C1097.86 1137.8 1059.17 896.317 918.257 652.242C777.34 408.167 587.557 253.923 494.365 307.727C401.173 361.532 439.861 603.011 580.778 847.086Z" stroke="#61DAFB" stroke-width="46.3913"/>
<path d="M580.779 652.251C439.863 896.326 401.174 1137.8 494.366 1191.61C587.559 1245.41 777.341 1091.17 918.258 847.095C1059.17 603.02 1097.86 361.541 1004.67 307.736C911.479 253.932 721.696 408.176 580.779 652.251Z" stroke="#61DAFB" stroke-width="46.3913"/>
</g>
<defs>
<clipPath id="clip0_141_1260">
<rect width="1067" height="949.328" fill="white" transform="translate(216 275)"/>
</clipPath>
</defs>
</svg>
