<svg width="1500" height="1500" viewBox="0 0 1500 1500" fill="none" xmlns="http://www.w3.org/2000/svg">
<rect width="1500" height="1500" rx="750" fill="white"/>
<path d="M1239.44 996.17C1182.65 1025.84 888.515 1146.21 825.788 1179.26C763.061 1212.32 728.308 1211.47 679.144 1187.74C629.98 1164.01 317.194 1038.55 260.401 1011.43C232.429 997.866 218.019 986.846 218.019 975.827V868.174C218.019 868.174 624.894 779.17 691.011 756.284C757.128 732.549 779.167 731.702 835.112 752.045C891.058 772.389 1225.88 832.573 1280.98 852.916V958.873C1280.98 969.893 1268.26 981.76 1239.44 996.17Z" fill="#A41E11"/>
<path d="M1239.44 889.364C1182.65 919.032 888.513 1039.4 825.786 1072.46C763.06 1105.52 728.306 1104.67 679.142 1080.93C629.978 1057.2 317.192 930.899 260.399 903.774C204.454 876.649 202.759 858 257.856 836.809C312.954 814.77 624.044 692.707 690.161 669.821C756.278 646.086 778.317 645.239 834.263 665.582C890.208 685.926 1182.65 802.055 1237.75 822.399C1294.54 842.743 1296.24 859.696 1239.44 889.364Z" fill="#D82C20"/>
<path d="M1239.44 821.551C1182.65 851.219 888.515 971.586 825.788 1004.64C763.061 1036.86 728.308 1036.86 679.144 1013.12C629.98 989.387 317.194 863.086 260.401 835.961C232.429 822.399 218.019 811.379 218.019 800.36V692.707C218.019 692.707 624.894 603.703 691.011 580.817C757.128 557.082 779.167 556.235 835.112 576.578C891.058 596.922 1225.88 657.106 1280.98 677.45V783.407C1280.98 794.426 1268.26 806.293 1239.44 821.551Z" fill="#A41E11"/>
<path d="M1239.45 713.898C1182.66 743.566 888.518 863.933 825.792 896.992C763.065 929.203 728.311 929.203 679.147 905.468C629.983 881.734 317.198 755.433 260.405 728.308C203.612 701.183 202.765 682.535 257.862 661.343C312.96 639.304 624.05 517.242 690.167 494.355C756.284 470.62 778.323 469.773 834.268 490.117C890.214 510.46 1182.66 626.589 1237.75 646.933C1294.55 667.277 1296.24 684.23 1239.45 713.898Z" fill="#D82C20"/>
<path d="M1239.45 639.302C1182.65 668.97 888.517 789.337 825.79 822.396C763.064 854.607 728.31 854.607 679.146 830.872C629.981 807.986 317.196 681.685 260.403 654.56C232.431 640.997 217.173 629.978 217.173 618.958V511.306C217.173 511.306 624.048 422.302 690.165 399.415C756.282 375.681 778.321 374.833 834.267 395.177C890.212 415.521 1225.04 475.704 1280.13 496.048V602.005C1280.98 613.025 1268.27 624.044 1239.45 639.302Z" fill="#A41E11"/>
<path d="M1239.45 531.656C1182.66 561.324 888.518 681.691 825.792 714.749C763.065 746.96 728.311 746.96 679.147 723.226C629.983 699.492 317.198 574.038 260.405 546.913C203.612 519.788 202.765 501.14 257.862 479.949C312.96 457.91 624.05 335.847 690.167 312.96C756.284 289.226 778.323 288.378 834.268 308.722C890.214 329.066 1182.66 445.195 1237.75 465.538C1294.55 485.882 1296.24 502.835 1239.45 531.656Z" fill="#D82C20"/>
<path d="M888.517 428.241L796.97 438.413L775.778 487.577L742.72 432.479L636.763 423.155L715.595 394.335L691.86 350.257L766.454 379.077L835.962 356.19L817.313 401.964L888.517 428.241ZM770.692 668.976L598.618 597.772L845.286 560.476L770.692 668.976Z" fill="white"/>
<path d="M532.503 557.933C605.066 557.933 663.89 535.162 663.89 507.073C663.89 478.984 605.066 456.214 532.503 456.214C459.94 456.214 401.116 478.984 401.116 507.073C401.116 535.162 459.94 557.933 532.503 557.933Z" fill="white"/>
<path d="M997.862 441.802L1143.66 499.442L997.862 557.083V441.802Z" fill="#7A0C00"/>
<path d="M836.808 506.224L997.862 441.802V557.083L981.757 563.864L836.808 506.224Z" fill="#AD2115"/>
</svg>
