<svg width="1500" height="1500" viewBox="0 0 1500 1500" fill="none" xmlns="http://www.w3.org/2000/svg">
<rect width="1500" height="1500" rx="750" fill="white"/>
<path d="M961.905 887.925C884.631 1045.91 749.317 1152.2 570.3 1187.14C542.852 1193.87 514.674 1197.16 486.415 1196.93C383.384 1196.93 288.939 1154 243.09 1083.68C181.529 990.012 160.579 791.419 363.551 644.513C367.672 666.923 376.086 697.66 381.667 715.863C341.822 745.464 309.208 783.715 286.277 827.737C248.499 901.92 252.706 976.017 297.439 1044.53C328.348 1090.72 377.288 1118.8 440.223 1127.39C518.83 1137.34 598.576 1122.32 668.18 1084.46C777.307 1027.1 850.03 958.587 897.596 864.915C884.146 851.015 876.185 832.715 875.187 813.399C874.468 792.671 882.001 772.505 896.134 757.326C910.267 742.147 929.845 733.194 950.571 732.434H953.49C973.65 732.333 993.077 739.985 1007.75 753.808C1022.43 767.631 1031.22 786.566 1032.33 806.696C1033.43 826.825 1026.75 846.608 1013.68 861.952C1000.6 877.295 982.126 887.025 962.076 889.127L961.905 887.925ZM1208.06 714.489C1312.9 833.318 1315.73 973.183 1275.21 1054.32C1237.43 1128.42 1137.83 1202.6 1003.89 1202.6C941.364 1201.32 879.855 1186.53 823.585 1159.24C843.247 1145.25 871.151 1122.84 886.52 1108.84C929.912 1127.64 976.61 1137.62 1023.9 1138.2C1110.61 1138.2 1176.3 1097.68 1215.45 1023.58C1240.6 974.643 1242.06 917.289 1218.28 858.561C1189.1 784.669 1137.17 721.975 1070 679.544C981.881 620.142 877.998 588.475 771.726 588.619H746.569C740.703 602.17 731.16 613.808 719.02 622.214C706.881 630.621 692.63 635.46 677.882 636.185H675.22C654.821 635.934 635.324 627.741 620.869 613.346C606.414 598.951 598.14 579.487 597.805 559.09C597.469 538.692 605.099 518.968 619.073 504.105C633.047 489.242 652.265 480.413 672.644 479.492H675.478C689.679 479.502 703.603 483.427 715.721 490.833C727.838 498.24 737.68 508.843 744.165 521.477H766.575C945.162 521.477 1101.94 589.993 1208.06 714.489ZM497.577 911.966C496.107 897.708 499.561 883.376 507.365 871.354C429.061 735.696 387.162 563.72 451.471 384.703C497.577 250.161 613.659 159.236 739.529 159.236C873.813 159.236 1013.68 276.778 1030.42 503.275C1009.47 496.32 978.905 486.103 960.531 482.325C955.98 408.228 893.389 223.631 745.11 226.378C691.963 227.838 613.659 252.995 573.391 304.682C523.581 366.382 494.604 442.28 490.622 521.477C481.184 630.07 506.662 738.84 563.345 831.945C566.475 830.801 569.81 830.333 573.133 830.571H575.881C596.648 830.195 616.714 838.085 631.665 852.504C646.615 866.923 655.225 886.69 655.601 907.458C655.977 928.225 648.087 948.291 633.668 963.242C619.249 978.192 599.482 986.803 578.714 987.178H575.881C555.621 987.106 536.17 979.218 521.582 965.159C506.994 951.099 498.395 931.952 497.577 911.708V911.966Z" fill="#764ABC"/>
</svg>
