<svg width="1500" height="1500" viewBox="0 0 1500 1500" fill="none" xmlns="http://www.w3.org/2000/svg">
<rect width="1500" height="1500" rx="750" fill="white"/>
<g clip-path="url(#clip0_141_1251)">
<path d="M749.532 138.01C412.406 138.01 138.01 412.406 138.01 749.532C138.01 1086.66 412.406 1361.05 749.532 1361.05C1086.66 1361.05 1361.05 1086.66 1361.05 749.532C1361.05 412.406 1086.67 138.01 749.532 138.01ZM749.532 240.128C1031.47 240.128 1258.95 467.591 1258.95 749.532C1258.95 1031.48 1031.47 1258.95 749.532 1258.95C467.591 1258.95 240.118 1031.48 240.118 749.532C240.118 467.591 467.591 240.128 749.532 240.128Z" fill="#010101"/>
<path fill-rule="evenodd" clip-rule="evenodd" d="M600.729 718.597C734.642 609.202 865.63 496.001 1002.46 389.8C930.693 500.084 856.88 608.905 785.113 719.18C723.559 719.467 661.996 719.467 600.729 718.597ZM713.93 779.567C775.78 779.567 837.334 779.567 898.888 780.447C764.104 889.268 633.701 1003.34 496.584 1109.24C568.351 998.96 642.163 889.852 713.93 779.567Z" fill="#010101"/>
</g>
<defs>
<clipPath id="clip0_141_1251">
<rect width="1224" height="1224" fill="white" transform="translate(138 138)"/>
</clipPath>
</defs>
</svg>
