<svg width="1500" height="1500" viewBox="0 0 1500 1500" fill="none" xmlns="http://www.w3.org/2000/svg">
<rect width="1500" height="1500" rx="750" fill="white"/>
<path d="M749.5 402C594.964 402 498.414 479.237 459.75 633.773C517.682 556.527 585.311 527.561 662.557 546.875C706.662 557.867 738.182 589.849 773.087 625.289C829.897 682.94 895.652 749.682 1039.25 749.682C1193.78 749.682 1290.34 672.436 1329 517.864C1271.06 595.155 1203.44 624.121 1126.18 604.807C1082.09 593.805 1050.6 561.833 1015.65 526.393C958.881 468.742 893.144 402 749.5 402ZM459.75 749.682C305.223 749.682 208.664 826.927 170 981.5C227.932 904.209 295.552 875.243 372.807 894.557C416.912 905.558 448.432 937.531 483.337 972.971C540.147 1030.62 605.902 1097.36 749.5 1097.36C904.027 1097.36 1000.59 1020.13 1039.25 865.591C981.309 942.837 913.689 971.803 836.434 952.489C792.338 941.496 760.855 909.515 725.903 874.075C669.131 816.424 603.394 749.682 459.75 749.682Z" fill="#38BDF8"/>
</svg>
