<svg width="1500" height="1500" viewBox="0 0 1500 1500" fill="none" xmlns="http://www.w3.org/2000/svg">
<rect width="1500" height="1500" rx="750" fill="white"/>
<path d="M276.726 680.209H175.166V714.058H242.877V849.453H276.726V797.303V710.666V680.209Z" fill="#2D2832"/>
<path d="M344.416 646.367H276.719V680.202H344.416V646.367Z" fill="#FA64FF"/>
<path d="M494.179 849.453L480.3 815.536H390.936L377.058 849.453H341.174L410.567 680.209H461.334L530.727 849.453H494.179ZM437.307 710.666H433.916L403.458 785.147H467.778L437.307 710.666Z" fill="#2D2832"/>
<path d="M586.402 768.216C586.402 783.592 590.856 796.173 599.765 805.958C608.674 815.745 620.011 820.651 633.777 820.678C647.542 820.678 658.884 815.772 667.802 805.958C676.72 796.145 681.179 783.565 681.179 768.216V680.209H715.096V768.216C715.208 779.782 713.137 791.267 708.991 802.065C705.26 811.976 699.546 821.022 692.197 828.648C684.849 836.273 676.022 842.319 666.256 846.414C645.438 854.989 622.075 854.989 601.258 846.414C591.509 842.309 582.7 836.258 575.368 828.633C568.037 821.007 562.337 811.968 558.618 802.065C554.476 791.266 552.409 779.782 552.526 768.216V680.209H586.375L586.402 768.216Z" fill="#2D2832"/>
<path d="M885.929 779.72C888.177 782.264 890.215 784.987 892.021 787.86L930.28 849.467H892.021L849.042 780.073H796.132V849.467H762.215V680.209H879.444C894.82 680.209 907.123 684.835 916.348 694.088C925.574 703.34 930.195 715.637 930.22 730.975C930.22 744.542 926.218 755.717 918.205 764.499C910.192 773.281 899.432 778.355 885.929 779.72ZM879.499 710.666H796.132V749.602H879.499C881.767 749.778 884.046 749.46 886.179 748.671C888.313 747.882 890.251 746.641 891.86 745.032C893.468 743.424 894.709 741.486 895.498 739.352C896.287 737.219 896.605 734.939 896.43 732.671V727.597C896.605 725.329 896.287 723.05 895.498 720.917C894.709 718.783 893.468 716.846 891.86 715.237C890.251 713.628 888.313 712.387 886.179 711.598C884.046 710.809 881.767 710.491 879.499 710.666Z" fill="#2D2832"/>
<path d="M1002.29 768.216C1002.29 783.592 1006.75 796.173 1015.67 805.958C1024.59 815.745 1035.93 820.651 1049.68 820.678C1063.46 820.678 1074.8 815.772 1083.71 805.958C1092.62 796.145 1097.07 783.565 1097.07 768.216V680.209H1130.99V768.216C1131.1 779.782 1129.03 791.267 1124.88 802.065C1121.16 811.968 1115.46 821.007 1108.13 828.633C1100.8 836.258 1091.99 842.309 1082.24 846.414C1061.43 854.989 1038.07 854.989 1017.25 846.414C1007.5 842.306 998.688 836.254 991.354 828.63C984.019 821.005 978.321 811.966 974.59 802.065C970.461 791.264 968.392 779.782 968.502 768.216V680.209H1002.42L1002.29 768.216Z" fill="#2D2832"/>
<path d="M1168.23 798.692H1201.59C1201.59 805.929 1205.87 811.681 1214.44 815.949C1223 820.219 1234.3 822.362 1248.35 822.38C1263.73 822.38 1275.35 820.236 1283.22 815.949C1291.09 811.662 1295.03 805.571 1295.07 797.675C1295.07 790.91 1291.22 785.999 1283.54 782.942C1275.87 779.885 1263.66 778.365 1246.91 778.383C1220.45 778.383 1201.27 774.603 1189.36 767.041C1177.46 759.481 1171.51 747.126 1171.51 729.977C1171.51 712.594 1178.02 699.39 1191.03 690.363C1204.05 681.337 1223.12 676.815 1248.26 676.796C1258.89 676.681 1269.5 677.992 1279.79 680.69C1288.43 682.92 1296.62 686.643 1303.98 691.692C1310.38 696.141 1315.69 701.992 1319.49 708.8C1323.16 715.604 1325.04 723.236 1324.92 730.968H1291.68C1291.68 723.732 1287.74 717.98 1279.84 713.711C1271.94 709.442 1261.42 707.303 1248.27 707.294C1219.33 707.294 1204.86 714.856 1204.86 729.977C1204.86 736.516 1208.34 741.143 1215.36 743.856C1222.37 746.569 1233.88 747.926 1249.89 747.926C1277.48 747.926 1297.45 751.874 1309.79 759.77C1322.14 767.666 1328.31 780.301 1328.31 797.675C1328.31 815.764 1321.53 829.471 1307.96 838.796C1294.4 848.121 1274.5 852.806 1248.27 852.851C1237.25 852.969 1226.25 851.66 1215.56 848.957C1206.61 846.726 1198.09 843.006 1190.36 837.954C1183.72 833.559 1178.15 827.715 1174.08 820.86C1170.17 814.136 1168.14 806.475 1168.23 798.692Z" fill="#2D2832"/>
</svg>
