<svg width="1500" height="1500" viewBox="0 0 1500 1500" fill="none" xmlns="http://www.w3.org/2000/svg">
<rect width="1500" height="1500" rx="750" fill="white"/>
<path d="M1109.16 973.791C1102.87 934.662 1077.36 901.795 1001.78 871.148C975.523 859.082 946.253 850.442 937.531 830.545C934.434 818.966 934.023 812.444 935.983 805.434C941.608 782.687 968.76 775.596 990.281 782.119C1004.14 786.764 1017.26 797.446 1025.18 814.485C1062.19 790.519 1062.11 790.676 1087.96 774.205C1078.5 759.536 1073.45 752.767 1067.25 746.49C1044.99 721.626 1014.66 708.821 966.15 709.8L940.881 713.069C916.668 719.187 893.592 731.897 880.06 748.936C839.458 795.006 851.037 875.636 900.444 908.818C949.117 945.35 1020.62 953.661 1029.75 987.823C1038.64 1029.64 999.017 1043.18 959.634 1038.37C930.611 1032.34 914.469 1017.59 897.018 990.762C864.898 1009.35 864.898 1009.35 831.873 1028.34C839.704 1045.47 847.933 1053.21 861.061 1068.05C923.191 1131.07 1078.67 1127.97 1106.55 1032.58C1107.68 1029.31 1115.19 1007.47 1109.16 973.791ZM787.92 714.85H707.695L707.367 922.26C707.367 966.371 709.648 1006.81 702.474 1019.2C690.738 1043.58 660.324 1040.56 646.463 1035.83C632.356 1028.9 625.182 1019.04 616.871 1005.1C614.59 1001.1 612.877 998.004 612.301 997.765L547.074 1037.71C557.92 1059.97 573.898 1079.29 594.364 1091.84C624.935 1110.19 666.024 1115.82 708.997 1105.95C736.965 1097.8 761.096 1080.93 773.731 1055.24C791.997 1021.57 788.078 980.807 787.913 935.724C788.325 862.172 787.92 788.634 787.92 714.85Z" fill="#323330"/>
<g clip-path="url(#clip0_141_1257)">
<path d="M1137.41 266.648H360.887C308.84 266.648 266.648 308.84 266.648 360.887V1137.41C266.648 1189.46 308.84 1231.65 360.887 1231.65H1137.41C1189.46 1231.65 1231.65 1189.46 1231.65 1137.41V360.887C1231.65 308.84 1189.46 266.648 1137.41 266.648Z" fill="#3178C6"/>
<path d="M1137.41 266.648H360.887C308.84 266.648 266.648 308.84 266.648 360.887V1137.41C266.648 1189.46 308.84 1231.65 360.887 1231.65H1137.41C1189.46 1231.65 1231.65 1189.46 1231.65 1137.41V360.887C1231.65 308.84 1189.46 266.648 1137.41 266.648Z" fill="#3178C6"/>
<path fill-rule="evenodd" clip-rule="evenodd" d="M864.004 1034.55V1128.9C879.342 1136.76 897.483 1142.66 918.427 1146.59C939.37 1150.52 961.443 1152.49 984.648 1152.49C1007.26 1152.49 1028.75 1150.33 1049.1 1146C1069.45 1141.68 1087.3 1134.55 1102.64 1124.62C1117.98 1114.7 1130.12 1101.72 1139.07 1085.7C1148.01 1069.68 1152.49 1049.88 1152.49 1026.29C1152.49 1009.19 1149.93 994.202 1144.82 981.327C1139.71 968.452 1132.33 957.002 1122.7 946.977C1113.06 936.952 1101.51 927.958 1088.04 919.997C1074.57 912.036 1059.38 904.517 1042.46 897.442C1030.07 892.33 1018.96 887.368 1009.13 882.552C999.298 877.735 990.941 872.821 984.058 867.81C977.175 862.796 971.866 857.489 968.13 851.887C964.394 846.284 962.525 839.945 962.525 832.868C962.525 826.382 964.196 820.534 967.54 815.324C970.884 810.115 975.603 805.644 981.698 801.909C987.796 798.175 995.267 795.274 1004.12 793.21C1012.97 791.147 1022.8 790.116 1033.61 790.116C1041.48 790.116 1049.79 790.706 1058.54 791.884C1067.29 793.063 1076.09 794.882 1084.94 797.338C1093.79 799.796 1102.39 802.893 1110.75 806.626C1119.11 810.362 1126.83 814.686 1133.9 819.601V731.439C1119.55 725.936 1103.87 721.857 1086.86 719.203C1069.85 716.55 1050.33 715.223 1028.3 715.223C1005.89 715.223 984.648 717.631 964.59 722.447C944.533 727.263 926.884 734.781 911.642 745.002C896.401 755.225 884.358 768.247 875.509 784.071C866.66 799.894 862.234 818.813 862.234 840.829C862.234 868.938 870.346 892.92 886.57 912.774C902.793 932.627 927.423 949.433 960.461 963.194C973.439 968.501 985.534 973.709 996.743 978.82C1007.95 983.932 1017.64 989.239 1025.8 994.743C1033.96 1000.25 1040.4 1006.24 1045.12 1012.73C1049.84 1019.21 1052.2 1026.59 1052.2 1034.84C1052.2 1040.94 1050.72 1046.59 1047.77 1051.8C1044.82 1057.01 1040.35 1061.53 1034.35 1065.36C1028.35 1069.19 1020.88 1072.19 1011.93 1074.35C1002.98 1076.52 992.515 1077.6 980.518 1077.6C960.067 1077.6 939.813 1074.01 919.754 1066.83C899.696 1059.66 881.112 1048.9 864.004 1034.55ZM705.384 802.076H826.424V724.646H489.051V802.076H609.499V1146.83H705.384V802.076Z" fill="white"/>
</g>
<defs>
<clipPath id="clip0_141_1257">
<rect width="965" height="965" fill="white" transform="translate(266.648 266.648)"/>
</clipPath>
</defs>
</svg>
