<svg width="1500" height="1500" viewBox="0 0 1500 1500" fill="none" xmlns="http://www.w3.org/2000/svg">
<rect width="1500" height="1500" rx="750" fill="white"/>
<path d="M1264.59 419.461L777.68 1290.16C767.618 1308.13 741.79 1308.24 731.592 1290.36L235.019 419.562C223.889 400.049 240.545 376.442 262.661 380.384L750.097 467.497C753.207 468.065 756.395 468.065 759.506 467.497L1236.74 380.519C1258.76 376.51 1275.52 399.922 1264.59 419.461Z" fill="url(#paint0_linear_141_1252)"/>
<path d="M982.265 266.125L621.96 336.718C619.084 337.28 616.476 338.781 614.546 340.986C612.616 343.191 611.473 345.974 611.296 348.899L589.113 723.292C588.994 725.345 589.354 727.397 590.166 729.287C590.977 731.177 592.218 732.852 593.788 734.179C595.359 735.507 597.218 736.45 599.216 736.935C601.215 737.42 603.299 737.433 605.303 736.973L705.632 713.789C707.793 713.293 710.043 713.347 712.178 713.946C714.312 714.546 716.262 715.672 717.848 717.221C719.434 718.77 720.606 720.692 721.256 722.812C721.906 724.932 722.013 727.18 721.568 729.352L691.756 875.31C691.3 877.557 691.436 879.883 692.149 882.062C692.862 884.24 694.128 886.196 695.824 887.738C697.52 889.28 699.587 890.356 701.824 890.859C704.06 891.363 706.389 891.277 708.582 890.61L770.529 871.767C780.132 868.851 789.372 877.294 787.355 887.127L739.97 1116.39C737.021 1130.73 756.093 1138.55 764.044 1126.26L769.342 1118.05L1062.97 532.069C1067.9 522.236 1059.4 511.047 1048.64 513.132L945.358 533.069C943.135 533.501 940.839 533.354 938.689 532.643C936.54 531.931 934.609 530.679 933.083 529.007C931.557 527.334 930.487 525.297 929.975 523.092C929.463 520.886 929.526 518.586 930.159 516.413L997.548 282.782C998.181 280.6 998.242 278.292 997.725 276.08C997.207 273.868 996.128 271.827 994.592 270.153C993.057 268.48 991.116 267.23 988.956 266.524C986.797 265.819 984.492 265.681 982.265 266.125Z" fill="url(#paint1_linear_141_1252)"/>
<defs>
<linearGradient id="paint0_linear_141_1252" x1="222.882" y1="349.271" x2="828.903" y2="1172.3" gradientUnits="userSpaceOnUse">
<stop stop-color="#41D1FF"/>
<stop offset="1" stop-color="#BD34FE"/>
</linearGradient>
<linearGradient id="paint1_linear_141_1252" x1="722.119" y1="285.282" x2="831.746" y2="1037.31" gradientUnits="userSpaceOnUse">
<stop stop-color="#FFEA83"/>
<stop offset="0.083" stop-color="#FFDD35"/>
<stop offset="1" stop-color="#FFA800"/>
</linearGradient>
</defs>
</svg>
