<svg width="1500" height="1500" viewBox="0 0 1500 1500" fill="none" xmlns="http://www.w3.org/2000/svg">
<rect width="1500" height="1500" rx="750" fill="white"/>
<path d="M1329.25 518.244C1312.68 476.81 1291.68 437.586 1266.82 400.571C1154.67 234.834 964.629 126 749.724 126C404.991 126 126 405.543 126 749.724C126 1094.46 405.543 1374 749.724 1374C965.182 1374 1154.67 1265.17 1266.82 1099.43C1291.68 1062.97 1312.12 1023.74 1329.25 982.308C1357.98 910.489 1374 832.04 1374 750.276C1373.45 668.513 1357.98 590.064 1329.25 518.244ZM1245.83 686.744H531.503C542.552 648.072 562.993 613.819 590.616 586.749C632.603 544.762 690.611 518.797 754.696 518.797H1193.35C1220.42 570.175 1238.1 626.526 1245.83 686.744ZM746.409 246.988C888.39 246.988 1017.11 306.101 1108.82 401.123H770.165C673.485 401.123 586.196 440.348 523.216 503.328C474.048 552.497 439.795 615.477 427.089 686.744H247.54C278.478 438.691 490.069 246.988 746.409 246.988ZM746.409 1254.12C490.069 1254.12 278.478 1062.41 246.988 814.361H426.536C456.369 976.784 598.903 1099.98 770.165 1099.98H1108.82C1017.67 1195 888.943 1254.12 746.409 1254.12ZM754.696 982.861C648.624 982.861 559.126 911.594 531.503 814.361H1245.83C1238.1 874.579 1219.86 930.93 1193.35 982.861H754.696Z" fill="#1E1E1C"/>
</svg>
