<svg width="1500" height="1500" viewBox="0 0 1500 1500" fill="none" xmlns="http://www.w3.org/2000/svg">
<rect width="1500" height="1500" rx="750" fill="white"/>
<path d="M497.672 302.807H1000.43C1108.1 302.807 1195.31 390.011 1195.31 497.682V1000.44C1195.31 1108.12 1108.1 1195.32 1000.43 1195.32H497.672C390.001 1195.32 302.796 1108.12 302.796 1000.44V497.682C302.796 390.011 390.001 302.807 497.672 302.807Z" fill="url(#paint0_linear_141_1592)"/>
<path d="M985.305 350.842H512.797C422.923 350.842 349.956 423.809 349.956 513.683V986.19C349.956 1076.06 422.923 1149.03 512.797 1149.03H985.305C1075.18 1149.03 1148.15 1076.06 1148.15 986.19V512.793C1148.15 422.919 1075.18 350.842 985.305 350.842ZM1134.8 987.97C1134.8 1069.84 1068.95 1135.68 987.084 1135.68H511.018C430.042 1135.68 363.304 1069.84 363.304 987.97V511.014C363.304 429.148 429.152 363.3 511.018 363.3H987.974C1068.95 363.3 1135.69 429.148 1135.69 511.014V987.97H1134.8Z" fill="white"/>
<path d="M750.386 382.893C549.281 382.893 385.55 546.624 385.55 747.729C385.55 948.833 549.281 1112.56 750.386 1112.56C952.38 1112.56 1115.22 948.833 1115.22 747.729C1115.22 546.624 951.49 382.893 750.386 382.893ZM750.386 1107.23C551.951 1107.23 390.889 946.164 390.889 747.729C390.889 549.293 551.951 388.232 750.386 388.232C948.821 388.232 1109.88 549.293 1109.88 747.729C1109.88 946.164 948.821 1107.23 750.386 1107.23Z" fill="#69C5F3"/>
<path d="M750.394 457.623C589.332 457.623 459.415 587.54 459.415 748.602C459.415 909.664 589.332 1038.69 750.394 1038.69C911.456 1038.69 1041.37 908.774 1041.37 747.712C1041.37 586.65 910.566 457.623 750.394 457.623ZM750.394 1032.46C592.892 1032.46 465.644 905.214 465.644 747.712C465.644 590.21 592.892 462.962 750.394 462.962C907.896 462.962 1035.14 590.21 1035.14 747.712C1035.14 905.214 907.006 1032.46 750.394 1032.46Z" fill="#68C5F4"/>
<path d="M471.867 814.467H1027.13C1050.27 814.467 1068.06 833.154 1068.06 855.4C1068.06 878.536 1049.38 896.332 1027.13 896.332H471.867C448.731 896.332 430.934 877.646 430.934 855.4C430.044 833.154 448.731 814.467 471.867 814.467Z" fill="white"/>
<path d="M470.093 822.459H1027.14C1044.93 822.459 1060.06 836.697 1060.06 855.383V856.273C1060.06 874.07 1045.82 889.197 1027.14 889.197H470.093C452.296 889.197 437.169 874.96 437.169 856.273V854.493C438.059 836.697 452.296 822.459 470.093 822.459Z" fill="#0A93E9"/>
<path d="M456.737 885.646H1041.36L1045.81 882.977H452.288L456.737 885.646Z" fill="#1694EA"/>
<path d="M443.398 874.976H1053.83L1055.61 872.307H441.618L443.398 874.976Z" fill="#319DEC"/>
<path d="M438.055 858.069H1060.06V854.51H438.055V858.069Z" fill="#65B1EE"/>
<path d="M444.284 835.807H1054.72L1055.61 837.586L1056.5 839.366H442.504L443.394 837.586L444.284 835.807Z" fill="#8EC6F3"/>
<path d="M457.627 825.137H1041.36L1044.03 826.027L1046.7 827.806H452.288L454.958 826.027L457.627 825.137Z" fill="#95CAF3"/>
<path d="M1011.12 822.459H1006.67C1006.67 822.459 1021.8 833.137 1021.8 857.163C1021.8 879.409 1006.67 889.197 1006.67 889.197H1011.12C1011.12 889.197 1026.25 882.079 1026.25 857.163C1026.25 830.468 1011.12 822.459 1011.12 822.459Z" fill="url(#paint1_linear_141_1592)"/>
<path d="M968.397 822.459H963.948C963.948 822.459 977.296 834.917 977.296 857.163C977.296 876.739 963.948 889.197 963.948 889.197H968.397C968.397 889.197 981.745 879.409 981.745 857.163C980.855 833.137 968.397 822.459 968.397 822.459Z" fill="url(#paint2_linear_141_1592)"/>
<path d="M746.833 822.459H751.282V889.197H746.833V822.459Z" fill="url(#paint3_linear_141_1592)"/>
<path d="M703.224 822.459H707.673C707.673 822.459 705.894 839.366 705.894 857.163C705.894 873.18 707.673 889.197 707.673 889.197H703.224C703.224 889.197 701.444 873.18 701.444 857.163C701.444 839.366 703.224 822.459 703.224 822.459Z" fill="url(#paint4_linear_141_1592)"/>
<path d="M660.516 822.459H664.965C664.965 822.459 660.516 839.366 660.516 857.163C660.516 873.18 664.965 889.197 664.965 889.197H660.516C660.516 889.197 656.066 873.18 656.066 857.163C656.066 839.366 660.516 822.459 660.516 822.459Z" fill="url(#paint5_linear_141_1592)"/>
<path d="M616.917 822.459H621.367C621.367 822.459 615.138 839.366 615.138 857.163C615.138 873.18 621.367 889.197 621.367 889.197H616.917C616.917 889.197 610.688 873.18 610.688 857.163C610.688 839.366 616.917 822.459 616.917 822.459Z" fill="url(#paint6_linear_141_1592)"/>
<path d="M573.313 822.459H577.763C577.763 822.459 568.864 836.696 568.864 857.163C568.864 874.96 577.763 889.197 577.763 889.197H573.313C573.313 889.197 564.415 874.96 564.415 857.163C564.415 836.696 573.313 822.459 573.313 822.459Z" fill="url(#paint7_linear_141_1592)"/>
<path d="M529.706 822.459H534.155C534.155 822.459 520.808 834.917 520.808 857.163C520.808 876.739 534.155 889.197 534.155 889.197H529.706C529.706 889.197 516.358 879.409 516.358 857.163C517.248 833.137 529.706 822.459 529.706 822.459Z" fill="url(#paint8_linear_141_1592)"/>
<path d="M486.994 822.459H491.443C491.443 822.459 476.315 833.137 476.315 857.163C476.315 879.409 491.443 889.197 491.443 889.197H486.994C486.994 889.197 471.866 882.079 471.866 857.163C471.866 830.468 486.994 822.459 486.994 822.459Z" fill="url(#paint9_linear_141_1592)"/>
<path d="M731.704 483.433L1009.34 963.949C1020.9 983.525 1013.78 1008.44 994.208 1020.01C974.632 1031.58 949.716 1024.46 938.148 1004.88L660.517 524.366C648.949 504.789 656.068 479.874 675.644 468.306C695.221 456.738 720.136 463.857 731.704 483.433Z" fill="white"/>
<path d="M724.586 487.004L1003.11 969.3C1012.01 984.427 1006.67 1004.89 991.539 1013.79L989.759 1014.68C974.632 1023.58 954.165 1018.24 945.267 1003.11L666.746 519.928C657.847 504.801 663.186 484.335 678.314 475.436L679.203 474.546C695.221 465.648 715.687 470.987 724.586 487.004Z" fill="url(#paint10_linear_141_1592)"/>
<path d="M662.298 506.568L954.167 1012.89L955.946 1013.78L957.726 1014.67L959.506 1015.56L662.298 501.229V506.568Z" fill="url(#paint11_linear_141_1592)"/>
<path d="M664.965 489.666L970.181 1018.23H973.741L666.745 486.996L665.855 488.776L664.965 489.666Z" fill="url(#paint12_linear_141_1592)"/>
<path d="M677.427 476.313L988.872 1014.67L991.542 1012.89L680.096 474.533L677.427 476.313Z" fill="url(#paint13_linear_141_1592)"/>
<path d="M699.673 470.974L1004 998.651L1003.11 1000.43L1002.22 1002.21L695.224 470.084H697.003L699.673 470.974Z" fill="url(#paint14_linear_141_1592)"/>
<path d="M715.682 476.318L1007.55 981.749V987.088L710.343 473.648L712.122 474.538L713.902 475.428L715.682 476.318Z" fill="url(#paint15_linear_141_1592)"/>
<path d="M994.211 953.282L992.431 949.723C992.431 949.723 990.652 967.52 971.075 979.978C952.388 991.546 935.481 983.537 935.481 983.537L937.261 987.096C937.261 987.096 951.499 996.885 972.855 983.537C994.211 971.079 994.211 953.282 994.211 953.282ZM971.965 915.909L970.185 912.35C970.185 912.35 965.736 930.146 947.049 940.825C930.142 951.503 913.235 946.164 913.235 946.164L915.015 949.723C915.015 949.723 930.142 955.952 949.719 944.384C969.295 932.816 971.965 915.909 971.965 915.909Z" fill="#3C98EA"/>
<path d="M950.605 878.522L948.825 874.963C948.825 874.963 940.816 890.09 923.909 899.879C908.782 908.777 891.875 908.777 891.875 908.777L893.655 912.336C893.655 912.336 909.672 912.336 925.689 903.438C942.596 893.65 950.605 878.522 950.605 878.522Z" fill="#4CA4ED"/>
<path d="M929.248 841.159L927.469 837.6C927.469 837.6 915.901 852.727 900.773 860.736C886.536 868.744 869.629 871.414 869.629 871.414L871.409 874.973C871.409 874.973 888.316 872.304 902.553 864.295C916.791 856.286 929.248 841.159 929.248 841.159Z" fill="#4DA7EE"/>
<path d="M841.158 689.889L842.938 693.448C842.938 693.448 827.81 700.567 812.683 708.575C798.445 716.584 785.988 727.262 785.988 727.262L784.208 723.703C784.208 723.703 797.556 713.025 810.903 705.016C826.031 697.007 841.158 689.889 841.158 689.889Z" fill="url(#paint16_linear_141_1592)"/>
<path d="M819.798 652.502L821.577 656.061C821.577 656.061 804.67 661.4 790.433 670.299C776.195 678.307 764.627 690.765 764.627 690.765L762.848 687.206C762.848 687.206 774.416 674.748 788.653 666.739C802.891 656.951 819.798 652.502 819.798 652.502Z" fill="url(#paint17_linear_141_1592)"/>
<path d="M779.757 623.15C791.325 619.591 800.223 617.811 800.223 617.811L798.444 614.252C798.444 614.252 790.435 615.142 781.537 618.701C776.198 620.481 775.308 624.93 779.757 623.15Z" fill="#9DD4F7"/>
<path d="M754.842 540.395L756.621 543.955C756.621 543.955 739.714 539.505 720.138 550.183C703.231 560.862 699.671 577.769 699.671 577.769L697.892 574.209C697.892 574.209 699.671 559.082 718.358 547.514C737.935 535.056 754.842 540.395 754.842 540.395Z" fill="url(#paint18_linear_141_1592)"/>
<path d="M733.487 502.119L736.156 505.678C736.156 505.678 718.359 498.56 697.893 510.128C678.316 522.585 678.316 539.493 678.316 539.493L675.647 535.933C675.647 535.933 673.867 520.806 695.223 507.458C717.469 494.11 733.487 502.119 733.487 502.119Z" fill="url(#paint19_linear_141_1592)"/>
<path d="M673.865 814.465C751.281 680.988 840.265 526.155 840.265 526.155C851.833 506.579 844.715 481.663 825.138 470.095C805.561 458.527 780.646 465.646 769.078 485.222C769.078 485.222 660.517 673.869 578.651 814.465H673.865ZM625.813 896.33C588.439 960.399 562.634 1006.67 562.634 1006.67C551.066 1026.25 526.15 1033.37 506.574 1021.8C486.997 1010.23 479.879 985.315 491.447 965.738C491.447 965.738 506.574 938.153 530.6 897.22C560.854 896.33 616.025 896.33 625.813 896.33Z" fill="white"/>
<path d="M664.076 814.455C742.382 679.198 833.146 521.696 833.146 521.696C842.045 506.569 836.706 486.102 821.578 477.204L820.689 476.314C805.561 467.416 785.095 472.755 776.196 487.882C776.196 487.882 669.415 672.97 587.55 814.455H664.076ZM616.914 896.32C581.321 958.609 555.515 1003.1 555.515 1003.1C546.617 1018.23 527.04 1023.57 511.023 1014.67H509.243C494.116 1005.77 488.777 986.195 497.675 970.177C497.675 970.177 514.582 940.812 540.388 896.32H616.914Z" fill="url(#paint20_linear_141_1592)"/>
<path d="M661.405 814.467L838.484 508.361V503.021C838.484 503.021 740.602 672.982 658.736 814.467H661.405ZM613.354 896.332L545.726 1013.79L543.056 1015.57L540.387 1016.46C540.387 1016.46 570.641 963.961 609.795 896.332H613.354Z" fill="url(#paint21_linear_141_1592)"/>
<path d="M648.062 814.454L834.929 491.44L834.039 489.661L833.149 487.881C833.149 487.881 730.817 664.96 645.392 813.564L648.062 814.454ZM600.9 896.319L529.713 1019.12H526.153C526.153 1019.12 556.408 966.617 597.341 895.429C599.121 896.319 600.9 896.319 600.9 896.319Z" fill="url(#paint22_linear_141_1592)"/>
<path d="M628.481 814.467C716.576 662.304 822.467 478.106 822.467 478.106L819.798 476.326L624.032 814.467H628.481ZM580.43 897.222C541.277 965.74 511.912 1016.46 511.912 1016.46L509.242 1014.68C509.242 1014.68 537.717 964.85 576.87 897.222C578.65 896.332 577.76 896.332 580.43 897.222Z" fill="url(#paint23_linear_141_1592)"/>
<path d="M607.125 814.467C695.22 662.304 804.67 471.877 804.67 471.877H801.111C801.111 471.877 691.66 661.414 603.566 814.467H607.125ZM555.514 896.332C519.92 957.732 495.895 999.554 495.895 999.554L496.784 1001.33L497.674 1003.11C497.674 1003.11 523.48 958.622 559.963 896.332H555.514Z" fill="url(#paint24_linear_141_1592)"/>
<path d="M593.78 814.45L789.546 475.42L787.766 476.31L785.986 477.2L785.096 478.089C785.096 478.089 676.535 665.847 591.11 814.45H593.78ZM546.618 896.316C515.474 950.597 493.228 988.86 493.228 988.86V981.741C493.228 981.741 512.804 947.927 543.059 895.426C544.838 896.316 544.838 896.316 546.618 896.316Z" fill="url(#paint25_linear_141_1592)"/>
<path d="M767.294 502.118L765.515 505.677C765.515 505.677 781.532 497.669 802.888 509.237C822.465 519.915 823.354 538.602 823.354 538.602L825.134 535.042C825.134 535.042 826.914 518.135 804.668 505.677C782.422 493.22 767.294 502.118 767.294 502.118Z" fill="url(#paint26_linear_141_1592)"/>
<path d="M745.945 540.392L744.165 543.951C744.165 543.951 761.962 538.612 780.649 549.29C798.445 559.078 802.005 575.985 802.005 575.985L803.785 572.426C803.785 572.426 802.005 556.409 782.428 545.731C761.962 534.163 745.945 540.392 745.945 540.392Z" fill="url(#paint27_linear_141_1592)"/>
<path d="M723.699 577.752L721.919 581.311C721.919 581.311 737.936 580.421 755.733 591.1C771.75 599.998 779.759 614.236 779.759 614.236L781.538 610.676C781.538 610.676 773.53 596.439 757.513 587.54C740.606 577.752 723.699 577.752 723.699 577.752Z" fill="url(#paint28_linear_141_1592)"/>
<path d="M702.338 616.023L700.559 619.583C700.559 619.583 718.355 622.252 733.483 631.151C747.72 639.159 758.398 652.507 758.398 652.507L760.178 648.948C760.178 648.948 749.5 635.6 735.263 627.591C720.135 618.693 702.338 616.023 702.338 616.023Z" fill="url(#paint29_linear_141_1592)"/>
<path d="M680.092 653.389L678.312 656.948C678.312 656.948 695.22 661.397 710.347 670.296C724.584 678.304 736.152 689.872 736.152 689.872L737.932 686.313C737.932 686.313 726.364 674.745 712.127 666.736C697.889 658.728 680.092 653.389 680.092 653.389Z" fill="url(#paint30_linear_141_1592)"/>
<path d="M658.736 690.775L656.066 694.335C656.066 694.335 672.084 700.564 687.211 709.462C701.448 717.471 713.906 727.259 713.906 727.259L715.686 723.7C715.686 723.7 703.228 713.911 688.991 705.903C674.753 697.894 658.736 690.775 658.736 690.775Z" fill="url(#paint31_linear_141_1592)"/>
<path d="M634.706 732.585L636.486 729.025L694.326 761.95L692.546 765.509L634.706 732.585Z" fill="url(#paint32_linear_141_1592)"/>
<path d="M613.356 770.856L615.136 767.297C615.136 767.297 629.374 777.975 644.501 785.984C658.738 793.992 672.976 800.221 672.976 800.221L671.196 802.891C671.196 802.891 656.069 796.662 641.831 788.653C626.704 780.645 613.356 770.856 613.356 770.856Z" fill="url(#paint33_linear_141_1592)"/>
<path d="M599.114 814.45C594.665 810.891 591.995 808.221 591.995 808.221L593.775 804.662C593.775 804.662 599.114 809.111 606.233 814.45H599.114Z" fill="#73B9F1"/>
<path d="M564.408 896.324C567.968 898.994 571.527 901.663 575.976 904.333C591.994 913.231 608.011 912.341 608.011 912.341L606.231 915.901C606.231 915.901 590.214 916.791 574.197 907.892C567.968 904.333 562.629 899.884 559.069 896.324H564.408Z" fill="url(#paint34_linear_141_1592)"/>
<path d="M526.153 921.245L527.933 917.686C527.933 917.686 532.382 935.482 551.959 946.161C569.756 955.949 585.773 950.61 585.773 950.61L583.993 954.169C583.993 954.169 569.756 960.398 550.179 949.72C529.713 938.152 526.153 921.245 526.153 921.245Z" fill="url(#paint35_linear_141_1592)"/>
<path d="M503.907 959.495L505.687 955.936C505.687 955.936 507.467 974.622 528.823 986.19C548.399 996.868 563.527 988.86 563.527 988.86L560.857 992.419C560.857 992.419 547.51 1002.21 526.153 989.75C503.907 977.292 503.907 959.495 503.907 959.495Z" fill="url(#paint36_linear_141_1592)"/>
<path d="M792.215 1196.19L1173.07 396.224L1076.97 350.842L680.095 1182.85C680.095 1182.85 692.553 1189.07 708.57 1196.19H792.215Z" fill="url(#paint37_linear_141_1592)"/>
<path d="M1017.34 302.807L1195.31 387.342V642.727C1133.91 613.362 722.805 417.596 722.805 417.596C722.805 417.596 751.28 357.977 777.975 302.807H1017.34Z" fill="url(#paint38_radial_141_1592)"/>
<path d="M575.98 1160.61C573.311 1165.95 568.862 1172.18 569.751 1181.96C570.641 1218.45 630.261 1252.26 664.965 1252.26C688.991 1252.26 696.999 1242.47 705.898 1224.68C714.796 1206.88 585.769 1139.25 575.98 1160.61Z" fill="url(#paint39_radial_141_1592)"/>
<path d="M986.203 403.346C986.203 403.346 1077.86 425.592 1084.98 431.821C1092.09 438.05 1073.41 473.643 1069.85 478.982C1040.48 514.576 948.829 711.232 948.829 711.232L864.294 663.18C864.294 663.18 939.931 522.585 966.626 472.754C983.533 438.939 986.203 403.346 986.203 403.346Z" fill="url(#paint40_linear_141_1592)"/>
<path d="M1197.98 357.077C1213.99 368.645 1235.35 365.976 1252.26 363.306C1263.83 361.526 1246.03 378.433 1226.45 417.587C1206.88 456.74 1207.77 459.409 1205.1 456.74C1202.43 454.07 1114.33 404.239 1117 399.79C1120.56 395.34 1134.8 298.347 1141.92 301.017C1167.72 307.246 1172.17 338.39 1197.98 357.077Z" fill="url(#paint41_linear_141_1592)"/>
<path d="M1060.95 466.538C1067.18 456.75 1095.65 396.24 1141.04 396.24C1161.5 396.24 1200.66 447.851 1204.21 454.97C1206.88 461.199 1197.99 486.114 1193.54 474.546C1188.2 461.199 1165.95 432.724 1141.93 432.724C1117.9 432.724 1084.98 460.309 1076.97 470.097C1068.96 478.996 1054.72 476.326 1060.95 466.538Z" fill="url(#paint42_linear_141_1592)"/>
<path d="M1059.16 462.967C1063.61 455.849 1084.08 424.704 1093.87 414.916C1103.65 405.128 1128.57 379.322 1149.93 375.763C1171.28 372.203 1193.53 415.806 1186.41 424.704C1181.07 430.933 1172.17 423.814 1161.49 414.916C1150.82 406.907 1143.7 390.89 1109.88 416.696C1098.31 425.594 1086.75 432.713 1060.05 470.976C1052.93 480.764 1054.71 470.086 1059.16 462.967Z" fill="url(#paint43_linear_141_1592)"/>
<path d="M948.826 722.801C952.385 715.682 956.835 705.004 947.046 696.995C936.368 688.987 886.537 662.291 877.639 660.512C868.74 658.732 861.621 660.512 858.062 666.74C854.503 672.969 581.321 1141.03 575.981 1154.37C570.642 1167.72 569.753 1177.51 577.761 1180.18C585.77 1182.85 677.424 1226.45 686.322 1236.24C695.221 1246.03 699.67 1235.35 703.229 1230.01C720.136 1208.66 944.377 729.919 948.826 722.801Z" fill="url(#paint44_linear_141_1592)"/>
<path d="M1065.4 461.191C1069.85 454.962 1080.52 437.165 1093.87 421.148C1102.77 410.47 1150.82 387.334 1161.5 349.96C1167.73 329.494 1157.94 309.027 1144.59 300.129C1099.21 272.544 1020.9 228.941 906.115 228.941C828.699 228.941 795.774 254.747 795.774 254.747H834.928L971.074 308.138L987.981 379.325C987.981 379.325 989.76 403.351 981.752 430.936C976.413 453.182 974.633 466.53 966.624 488.776C972.853 491.445 987.091 481.657 1003.11 486.106C1017.35 489.666 1026.24 509.242 1036.03 497.674C1052.94 475.428 1058.28 470.979 1065.4 461.191Z" fill="url(#paint45_linear_141_1592)"/>
<path d="M985.305 406.015C978.186 340.167 962.169 277.877 794.878 278.767C805.556 268.089 831.362 257.411 831.362 257.411L794.878 254.742C794.878 254.742 800.217 250.292 810.895 249.402C908.778 241.394 995.983 261.86 989.754 389.108C988.864 409.574 987.084 418.473 985.305 406.015Z" fill="url(#paint46_linear_141_1592)"/>
<path d="M794.878 278.778C806.446 274.328 822.463 271.659 852.718 273.439C890.091 275.218 937.253 289.456 956.83 307.253C966.618 316.151 965.728 309.032 955.05 297.464C927.465 265.43 885.642 258.311 831.362 257.421C825.133 256.531 804.666 268.099 794.878 278.778Z" fill="url(#paint47_linear_141_1592)"/>
<path d="M1254.04 363.303L1302.98 388.218C1302.98 388.218 1284.29 413.134 1269.16 441.609C1253.15 471.864 1242.47 504.788 1242.47 504.788L1195.31 476.313C1195.31 476.313 1206.88 444.279 1223.78 413.134C1237.13 387.329 1254.04 363.303 1254.04 363.303Z" fill="url(#paint48_linear_141_1592)"/>
<path d="M1302.98 388.228C1306.54 390.008 1294.97 417.593 1278.06 449.628C1261.16 481.662 1245.14 506.578 1242.47 504.798C1238.91 503.018 1250.48 475.433 1267.39 443.399C1283.4 411.364 1299.42 386.449 1302.98 388.228Z" fill="#BFC0D0"/>
<defs>
<linearGradient id="paint0_linear_141_1592" x1="749.026" y1="1195.9" x2="749.026" y2="302.664" gradientUnits="userSpaceOnUse">
<stop stop-color="#1578E4"/>
<stop offset="1" stop-color="#00C3F2"/>
</linearGradient>
<linearGradient id="paint1_linear_141_1592" x1="1016.79" y1="888.895" x2="1016.79" y2="822.317" gradientUnits="userSpaceOnUse">
<stop stop-color="#1492E7"/>
<stop offset="1" stop-color="#DBEDFB"/>
</linearGradient>
<linearGradient id="paint2_linear_141_1592" x1="972.331" y1="888.895" x2="972.331" y2="822.317" gradientUnits="userSpaceOnUse">
<stop stop-color="#1492E7"/>
<stop offset="1" stop-color="#DBEDFB"/>
</linearGradient>
<linearGradient id="paint3_linear_141_1592" x1="749.031" y1="888.895" x2="749.031" y2="822.317" gradientUnits="userSpaceOnUse">
<stop stop-color="#1492E7"/>
<stop offset="1" stop-color="#DBEDFB"/>
</linearGradient>
<linearGradient id="paint4_linear_141_1592" x1="704.577" y1="888.895" x2="704.577" y2="822.317" gradientUnits="userSpaceOnUse">
<stop stop-color="#1492E7"/>
<stop offset="1" stop-color="#DBEDFB"/>
</linearGradient>
<linearGradient id="paint5_linear_141_1592" x1="660.142" y1="888.895" x2="660.142" y2="822.317" gradientUnits="userSpaceOnUse">
<stop stop-color="#1492E7"/>
<stop offset="1" stop-color="#DBEDFB"/>
</linearGradient>
<linearGradient id="paint6_linear_141_1592" x1="615.698" y1="888.895" x2="615.698" y2="822.317" gradientUnits="userSpaceOnUse">
<stop stop-color="#1492E7"/>
<stop offset="1" stop-color="#DBEDFB"/>
</linearGradient>
<linearGradient id="paint7_linear_141_1592" x1="571.249" y1="888.895" x2="571.249" y2="822.317" gradientUnits="userSpaceOnUse">
<stop stop-color="#1492E7"/>
<stop offset="1" stop-color="#DBEDFB"/>
</linearGradient>
<linearGradient id="paint8_linear_141_1592" x1="525.72" y1="888.895" x2="525.72" y2="822.317" gradientUnits="userSpaceOnUse">
<stop stop-color="#1492E7"/>
<stop offset="1" stop-color="#DBEDFB"/>
</linearGradient>
<linearGradient id="paint9_linear_141_1592" x1="481.272" y1="888.895" x2="481.272" y2="822.317" gradientUnits="userSpaceOnUse">
<stop stop-color="#1492E7"/>
<stop offset="1" stop-color="#DBEDFB"/>
</linearGradient>
<linearGradient id="paint10_linear_141_1592" x1="834.748" y1="1018.69" x2="834.748" y2="470.471" gradientUnits="userSpaceOnUse">
<stop stop-color="#1285E7"/>
<stop offset="1" stop-color="#00B5EF"/>
</linearGradient>
<linearGradient id="paint11_linear_141_1592" x1="958.295" y1="1016.25" x2="661.239" y2="501.727" gradientUnits="userSpaceOnUse">
<stop stop-color="#2B90E7"/>
<stop offset="1" stop-color="#00B6EF"/>
</linearGradient>
<linearGradient id="paint12_linear_141_1592" x1="972.611" y1="1019.36" x2="665.703" y2="487.788" gradientUnits="userSpaceOnUse">
<stop stop-color="#3795EA"/>
<stop offset="1" stop-color="#49C4F2"/>
</linearGradient>
<linearGradient id="paint13_linear_141_1592" x1="989.993" y1="1014.09" x2="678.957" y2="475.361" gradientUnits="userSpaceOnUse">
<stop stop-color="#3696EA"/>
<stop offset="1" stop-color="#90D9F6"/>
</linearGradient>
<linearGradient id="paint14_linear_141_1592" x1="1003.84" y1="1001.61" x2="696.692" y2="469.612" gradientUnits="userSpaceOnUse">
<stop stop-color="#3097EA"/>
<stop offset="1" stop-color="#B5E5F9"/>
</linearGradient>
<linearGradient id="paint15_linear_141_1592" x1="1008.29" y1="986.964" x2="711.597" y2="473.079" gradientUnits="userSpaceOnUse">
<stop stop-color="#3A98EA"/>
<stop offset="1" stop-color="#BCE7FA"/>
</linearGradient>
<linearGradient id="paint16_linear_141_1592" x1="784.929" y1="724.824" x2="842.555" y2="691.553" gradientUnits="userSpaceOnUse">
<stop stop-color="#00A4EC"/>
<stop offset="1" stop-color="#B9DFF6"/>
</linearGradient>
<linearGradient id="paint17_linear_141_1592" x1="762.732" y1="686.369" x2="820.349" y2="653.098" gradientUnits="userSpaceOnUse">
<stop stop-color="#00A4EC"/>
<stop offset="1" stop-color="#B9DFF6"/>
</linearGradient>
<linearGradient id="paint18_linear_141_1592" x1="695.489" y1="569.929" x2="752.742" y2="536.88" gradientUnits="userSpaceOnUse">
<stop stop-color="#00B4EF"/>
<stop offset="1" stop-color="#C3E9FA"/>
</linearGradient>
<linearGradient id="paint19_linear_141_1592" x1="673.191" y1="531.279" x2="730.817" y2="498.008" gradientUnits="userSpaceOnUse">
<stop stop-color="#00B4EF"/>
<stop offset="1" stop-color="#C3E9FA"/>
</linearGradient>
<linearGradient id="paint20_linear_141_1592" x1="665.553" y1="1020.02" x2="665.553" y2="471.811" gradientUnits="userSpaceOnUse">
<stop stop-color="#1285E7"/>
<stop offset="1" stop-color="#00B5EF"/>
</linearGradient>
<linearGradient id="paint21_linear_141_1592" x1="541.997" y1="1017.63" x2="839.054" y2="503.119" gradientUnits="userSpaceOnUse">
<stop stop-color="#3194E9"/>
<stop offset="1" stop-color="#71CFF4"/>
</linearGradient>
<linearGradient id="paint22_linear_141_1592" x1="527.604" y1="1020.74" x2="834.547" y2="489.091" gradientUnits="userSpaceOnUse">
<stop stop-color="#5AA6EC"/>
<stop offset="1" stop-color="#A2DEF8"/>
</linearGradient>
<linearGradient id="paint23_linear_141_1592" x1="510.292" y1="1015.44" x2="821.328" y2="476.709" gradientUnits="userSpaceOnUse">
<stop stop-color="#66ABEE"/>
<stop offset="1" stop-color="#BEE8FA"/>
</linearGradient>
<linearGradient id="paint24_linear_141_1592" x1="496.5" y1="1002.95" x2="803.647" y2="470.96" gradientUnits="userSpaceOnUse">
<stop stop-color="#7BB6F0"/>
<stop offset="1" stop-color="#B1E3F9"/>
</linearGradient>
<linearGradient id="paint25_linear_141_1592" x1="491.946" y1="988.611" x2="788.789" y2="474.459" gradientUnits="userSpaceOnUse">
<stop stop-color="#5AA6EC"/>
<stop offset="1" stop-color="#AFE3F9"/>
</linearGradient>
<linearGradient id="paint26_linear_141_1592" x1="770.516" y1="497.571" x2="828.142" y2="530.842" gradientUnits="userSpaceOnUse">
<stop stop-color="#C1E7FA"/>
<stop offset="1" stop-color="#89D4F5"/>
</linearGradient>
<linearGradient id="paint27_linear_141_1592" x1="748.223" y1="536.209" x2="805.849" y2="569.472" gradientUnits="userSpaceOnUse">
<stop stop-color="#C1E7FA"/>
<stop offset="1" stop-color="#89D4F5"/>
</linearGradient>
<linearGradient id="paint28_linear_141_1592" x1="725.238" y1="576.017" x2="782.855" y2="609.279" gradientUnits="userSpaceOnUse">
<stop stop-color="#C1E7FA"/>
<stop offset="1" stop-color="#89D4F5"/>
</linearGradient>
<linearGradient id="paint29_linear_141_1592" x1="702.881" y1="614.733" x2="760.498" y2="648.004" gradientUnits="userSpaceOnUse">
<stop stop-color="#B0DFF8"/>
<stop offset="1" stop-color="#52BDF2"/>
</linearGradient>
<linearGradient id="paint30_linear_141_1592" x1="680.537" y1="653.424" x2="738.172" y2="686.696" gradientUnits="userSpaceOnUse">
<stop stop-color="#B4DEF8"/>
<stop offset="1" stop-color="#4EB5F0"/>
</linearGradient>
<linearGradient id="paint31_linear_141_1592" x1="658.202" y1="692.137" x2="715.819" y2="725.399" gradientUnits="userSpaceOnUse">
<stop stop-color="#B4DEF8"/>
<stop offset="1" stop-color="#4EB5F0"/>
</linearGradient>
<linearGradient id="paint32_linear_141_1592" x1="635.943" y1="730.681" x2="693.551" y2="763.943" gradientUnits="userSpaceOnUse">
<stop stop-color="#B5DDF8"/>
<stop offset="1" stop-color="#46AEEE"/>
</linearGradient>
<linearGradient id="paint33_linear_141_1592" x1="613.668" y1="769.255" x2="671.294" y2="802.526" gradientUnits="userSpaceOnUse">
<stop stop-color="#96CEF4"/>
<stop offset="1" stop-color="#46AAEE"/>
</linearGradient>
<linearGradient id="paint34_linear_141_1592" x1="560.128" y1="893.076" x2="604.282" y2="918.57" gradientUnits="userSpaceOnUse">
<stop stop-color="#8FC1F2"/>
<stop offset="1" stop-color="#3193EA"/>
</linearGradient>
<linearGradient id="paint35_linear_141_1592" x1="523.786" y1="924.956" x2="581.413" y2="958.227" gradientUnits="userSpaceOnUse">
<stop stop-color="#8FC1F2"/>
<stop offset="1" stop-color="#3193EA"/>
</linearGradient>
<linearGradient id="paint36_linear_141_1592" x1="501.451" y1="963.615" x2="559.069" y2="996.886" gradientUnits="userSpaceOnUse">
<stop stop-color="#8FC1F2"/>
<stop offset="1" stop-color="#3193EA"/>
</linearGradient>
<linearGradient id="paint37_linear_141_1592" x1="862.708" y1="757.794" x2="973.556" y2="811.852" gradientUnits="userSpaceOnUse">
<stop offset="0.001"/>
<stop offset="1" stop-opacity="0"/>
</linearGradient>
<radialGradient id="paint38_radial_141_1592" cx="0" cy="0" r="1" gradientTransform="matrix(-64.7071 128.622 -222.559 -111.978 1027.49 403.626)" gradientUnits="userSpaceOnUse">
<stop/>
<stop offset="1" stop-opacity="0"/>
</radialGradient>
<radialGradient id="paint39_radial_141_1592" cx="0" cy="0" r="1" gradientTransform="matrix(63.1283 30.949 -17.6188 35.9337 635.663 1202.94)" gradientUnits="userSpaceOnUse">
<stop offset="0.417" stop-color="#0C0C12"/>
<stop offset="1" stop-color="#3D4651"/>
</radialGradient>
<linearGradient id="paint40_linear_141_1592" x1="934.218" y1="528.582" x2="1021.1" y2="572.852" gradientUnits="userSpaceOnUse">
<stop stop-color="#344351"/>
<stop offset="0.1" stop-color="#9697A0"/>
<stop offset="0.181" stop-color="#8B8C95"/>
<stop offset="0.351" stop-color="#787A83"/>
<stop offset="0.47" stop-color="#71747D"/>
<stop offset="0.591" stop-color="#777982"/>
<stop offset="0.749" stop-color="#87898F"/>
<stop offset="0.8" stop-color="#8E8F94"/>
<stop offset="0.849" stop-color="#3D3B42"/>
<stop offset="0.9" stop-color="#606E84"/>
</linearGradient>
<linearGradient id="paint41_linear_141_1592" x1="1228.98" y1="440.34" x2="1130.91" y2="307.815" gradientUnits="userSpaceOnUse">
<stop offset="0.27" stop-color="#262B33"/>
<stop offset="0.45" stop-color="#74747E"/>
<stop offset="0.54" stop-color="#B0B0BC"/>
<stop offset="0.73" stop-color="#74747E"/>
</linearGradient>
<linearGradient id="paint42_linear_141_1592" x1="1056.87" y1="450.734" x2="1201.68" y2="432.03" gradientUnits="userSpaceOnUse">
<stop offset="0.14" stop-color="#606E84"/>
<stop offset="0.4" stop-color="#9899A5"/>
<stop offset="0.73" stop-color="#475768"/>
<stop offset="0.92" stop-color="#262B33"/>
</linearGradient>
<linearGradient id="paint43_linear_141_1592" x1="1124.37" y1="463.039" x2="1110.32" y2="383.362" gradientUnits="userSpaceOnUse">
<stop stop-color="#101215" stop-opacity="0.1"/>
<stop offset="0.46" stop-color="#101215" stop-opacity="0.7"/>
<stop offset="0.7" stop-color="#474951"/>
<stop offset="0.91" stop-color="#7B7D88"/>
</linearGradient>
<linearGradient id="paint44_linear_141_1592" x1="697.276" y1="907.185" x2="831.696" y2="973.327" gradientUnits="userSpaceOnUse">
<stop offset="0.115" stop-color="#2C3952"/>
<stop offset="0.374" stop-color="#3D414E"/>
<stop offset="0.55" stop-color="#474A54"/>
<stop offset="0.754" stop-color="#4E5057"/>
<stop offset="0.892" stop-color="#323945"/>
<stop offset="1" stop-color="#143052"/>
</linearGradient>
<linearGradient id="paint45_linear_141_1592" x1="905.296" y1="461.894" x2="1009.25" y2="233.809" gradientUnits="userSpaceOnUse">
<stop offset="0.118" stop-color="#6D7078" stop-opacity="0"/>
<stop offset="0.2" stop-color="#6D7078" stop-opacity="0.7"/>
<stop offset="0.34" stop-color="#35363A"/>
<stop offset="0.374" stop-color="#1D1F22"/>
<stop offset="0.4" stop-color="#101215"/>
<stop offset="0.5" stop-color="#16171A"/>
<stop offset="0.56" stop-color="#292A2E"/>
<stop offset="0.688" stop-color="#4B4D51"/>
<stop offset="0.807" stop-color="#63666B"/>
<stop offset="0.915" stop-color="#72757B"/>
<stop offset="1" stop-color="#777A80"/>
</linearGradient>
<linearGradient id="paint46_linear_141_1592" x1="794.558" y1="329.818" x2="989.985" y2="329.818" gradientUnits="userSpaceOnUse">
<stop stop-color="#4A4D56"/>
<stop offset="1" stop-color="#29292D"/>
</linearGradient>
<linearGradient id="paint47_linear_141_1592" x1="794.558" y1="284.09" x2="963.539" y2="284.09" gradientUnits="userSpaceOnUse">
<stop stop-color="#767880"/>
<stop offset="0.41" stop-color="#0C0A0B"/>
</linearGradient>
<linearGradient id="paint48_linear_141_1592" x1="1215.17" y1="489.269" x2="1280.79" y2="375.6" gradientUnits="userSpaceOnUse">
<stop stop-color="#858997"/>
<stop offset="0.23" stop-color="#244668"/>
<stop offset="0.282" stop-color="#1A3249"/>
<stop offset="0.4" stop-color="#040506"/>
<stop offset="0.464" stop-color="#313236"/>
<stop offset="0.546" stop-color="#65656E"/>
<stop offset="0.607" stop-color="#868691"/>
<stop offset="0.64" stop-color="#92929E"/>
</linearGradient>
</defs>
</svg>
