<svg width="1500" height="1500" viewBox="0 0 1500 1500" fill="none" xmlns="http://www.w3.org/2000/svg">
<rect width="1500" height="1500" rx="750" fill="white"/>
<path d="M474.549 390.439H1034.25L1198.26 561.667L734.205 1081.43L302.632 561.667L474.549 390.439Z" fill="#18253F"/>
<path d="M846.713 958.699H627.34L528.26 837.403L809.033 837.394L809.043 820.188H969.537L846.713 958.699Z" fill="#274D82"/>
<path d="M1151.15 512.774L545.847 862.248L466.885 763.466L935.496 492.905L926.889 477.991L1051.71 405.928L1151.15 512.774Z" fill="#274D82"/>
<path d="M826.883 390.585L372.372 652.997L301.686 564.755L605.997 389.061L826.883 390.585Z" fill="#274D82"/>
<g filter="url(#filter0_d_146_1035)">
<path d="M1056.14 339.002H453.266L233 558.135L733.077 1160.33L772.971 1115.56L1267.98 560.191L1056.14 339.002ZM1034.12 390.596L1197.74 561.45L734.462 1081.23L302.819 561.45L474.555 390.596H1034.12Z" fill="black"/>
</g>
<path d="M1056.14 339H453.266L233 558.133L733.077 1160.33L772.971 1115.56L1267.98 560.189L1056.14 339ZM1034.12 390.594L1197.74 561.448L734.462 1081.23L302.819 561.448L474.555 390.594H1034.12Z" fill="#3068B7"/>
<defs>
<filter id="filter0_d_146_1035" x="199.969" y="305.971" width="1123.06" height="909.41" filterUnits="userSpaceOnUse" color-interpolation-filters="sRGB">
<feFlood flood-opacity="0" result="BackgroundImageFix"/>
<feColorMatrix in="SourceAlpha" type="matrix" values="0 0 0 0 0 0 0 0 0 0 0 0 0 0 0 0 0 0 127 0" result="hardAlpha"/>
<feOffset dx="11.0104" dy="11.0104"/>
<feGaussianBlur stdDeviation="22.0208"/>
<feColorMatrix type="matrix" values="0 0 0 0 0 0 0 0 0 0 0 0 0 0 0 0 0 0 0.36 0"/>
<feBlend mode="normal" in2="BackgroundImageFix" result="effect1_dropShadow_146_1035"/>
<feBlend mode="normal" in="SourceGraphic" in2="effect1_dropShadow_146_1035" result="shape"/>
</filter>
</defs>
</svg>
