<svg width="537" height="109" viewBox="0 0 537 109" fill="none" xmlns="http://www.w3.org/2000/svg">
<g clip-path="url(#clip0_327_9)">
<path d="M84.3553 22.2329L111.604 70.9592C121 87.7641 98.1254 103.76 85.5654 89.1688C75.0132 76.9123 56.0293 76.9162 45.4809 89.1765C32.9288 103.775 10.0461 87.7875 19.435 70.9825L46.656 22.2446C54.8931 7.49401 76.1104 7.49011 84.3553 22.2329Z" stroke="white" stroke-width="10.5"/>
</g>
<path d="M208.631 84.5H197.845V69.898H159.929V84.5H149.144V54.7567C149.144 50.4148 149.891 46.4186 151.384 42.7681C152.877 39.1176 154.952 35.9787 157.606 33.3514C160.261 30.7242 163.4 28.6777 167.023 27.2119C170.646 25.7462 174.601 25.0133 178.887 25.0133H203.196C203.943 25.0133 204.648 25.1516 205.312 25.4282C205.976 25.7047 206.556 26.0919 207.054 26.5897C207.552 27.0875 207.939 27.6682 208.216 28.332C208.492 28.9957 208.631 29.7009 208.631 30.4476V84.5ZM159.929 59.1124H197.845V35.7989H178.887C178.555 35.7989 177.85 35.8542 176.772 35.9649C175.721 36.0478 174.49 36.2829 173.08 36.6701C171.697 37.0572 170.231 37.6518 168.682 38.4538C167.134 39.2558 165.709 40.3621 164.41 41.7725C163.11 43.1829 162.031 44.9528 161.174 47.0823C160.344 49.1841 159.929 51.7422 159.929 54.7567V59.1124ZM280.645 45.0082C280.645 47.4695 280.341 49.6681 279.732 51.604C279.124 53.5398 278.294 55.2545 277.243 56.7479C276.22 58.2136 275.031 59.4719 273.676 60.5228C272.321 61.5737 270.897 62.4449 269.403 63.1362C267.937 63.8 266.444 64.2839 264.923 64.5881C263.43 64.8924 262.019 65.0445 260.692 65.0445L283.217 84.5H266.541L244.057 65.0445H236.3V54.2589H260.692C262.047 54.1482 263.278 53.8717 264.384 53.4292C265.518 52.9591 266.486 52.3368 267.288 51.5625C268.117 50.7881 268.753 49.8617 269.196 48.7831C269.638 47.6769 269.86 46.4186 269.86 45.0082V38.2049C269.86 37.5965 269.777 37.1402 269.611 36.836C269.472 36.5041 269.279 36.2691 269.03 36.1308C268.809 35.9649 268.56 35.8681 268.283 35.8404C268.034 35.8128 267.799 35.7989 267.578 35.7989H231.986V84.5H221.2V30.4476C221.2 29.7009 221.338 28.9957 221.615 28.332C221.891 27.6682 222.265 27.0875 222.735 26.5897C223.233 26.0919 223.813 25.7047 224.477 25.4282C225.141 25.1516 225.86 25.0133 226.634 25.0133H267.578C269.984 25.0133 272.017 25.4558 273.676 26.3408C275.335 27.1981 276.677 28.2905 277.7 29.618C278.751 30.9178 279.497 32.3282 279.94 33.8492C280.41 35.3703 280.645 36.7945 280.645 38.122V45.0082ZM344.736 84.5H305.825C304.83 84.5 303.751 84.3894 302.59 84.1681C301.456 83.9192 300.322 83.5459 299.188 83.0481C298.082 82.5503 297.017 81.9142 295.994 81.1399C294.971 80.3379 294.058 79.3838 293.256 78.2775C292.482 77.1437 291.859 75.8439 291.389 74.3781C290.919 72.8848 290.684 71.2116 290.684 69.3587V40.1546C290.684 39.159 290.795 38.0943 291.016 36.9604C291.265 35.7989 291.638 34.6651 292.136 33.5588C292.634 32.425 293.284 31.3464 294.086 30.3232C294.888 29.2999 295.842 28.4011 296.948 27.6268C298.082 26.8248 299.382 26.1887 300.847 25.7185C302.313 25.2484 303.972 25.0133 305.825 25.0133H344.736V35.7989H305.825C304.415 35.7989 303.336 36.1723 302.59 36.919C301.843 37.6657 301.47 38.7719 301.47 40.2376V69.3587C301.47 70.7415 301.843 71.82 302.59 72.5944C303.364 73.3411 304.443 73.7144 305.825 73.7144H344.736V84.5ZM411.607 44.9252C411.607 47.3865 411.289 49.5851 410.653 51.521C410.045 53.4569 409.229 55.1715 408.205 56.6649C407.182 58.1306 405.979 59.3889 404.596 60.4398C403.241 61.4907 401.831 62.3619 400.365 63.0533C398.899 63.717 397.406 64.201 395.885 64.5052C394.392 64.8094 392.981 64.9615 391.654 64.9615H387.298V84.5H376.429V64.9615H372.115C370.788 64.9615 369.363 64.8094 367.842 64.5052C366.349 64.201 364.856 63.717 363.362 63.0533C361.897 62.3619 360.486 61.4907 359.131 60.4398C357.776 59.3889 356.573 58.1306 355.522 56.6649C354.499 55.1715 353.669 53.4569 353.033 51.521C352.425 49.5575 352.12 47.3589 352.12 44.9252V25.0133H362.906V44.9252C362.906 46.3356 363.127 47.6078 363.57 48.7416C364.012 49.8478 364.634 50.802 365.436 51.604C366.238 52.406 367.206 53.0282 368.34 53.4707C369.502 53.8855 370.788 54.0929 372.198 54.0929H391.654C392.677 53.927 393.728 53.7196 394.806 53.4707C395.885 53.1941 396.867 52.7378 397.752 52.1018C398.637 51.4657 399.37 50.5807 399.95 49.4468C400.531 48.313 400.821 46.8058 400.821 44.9252V25.0133H411.607V44.9252ZM506.562 84.5H495.776V69.898H457.861V84.5H447.075V54.7567C447.075 50.4148 447.822 46.4186 449.315 42.7681C450.808 39.1176 452.883 35.9787 455.538 33.3514C458.192 30.7242 461.331 28.6777 464.954 27.2119C468.577 25.7462 472.532 25.0133 476.818 25.0133H501.127C501.874 25.0133 502.579 25.1516 503.243 25.4282C503.907 25.7047 504.488 26.0919 504.985 26.5897C505.483 27.0875 505.87 27.6682 506.147 28.332C506.423 28.9957 506.562 29.7009 506.562 30.4476V84.5ZM457.861 59.1124H495.776V35.7989H476.818C476.486 35.7989 475.781 35.8542 474.703 35.9649C473.652 36.0478 472.421 36.2829 471.011 36.6701C469.628 37.0572 468.162 37.6518 466.614 38.4538C465.065 39.2558 463.641 40.3621 462.341 41.7725C461.041 43.1829 459.962 44.9528 459.105 47.0823C458.275 49.1841 457.861 51.7422 457.861 54.7567V59.1124ZM530 84.5H519.214V25.0133H530V84.5Z" fill="white"/>
<defs>
<clipPath id="clip0_327_9">
<rect width="131" height="109" rx="24.6892" fill="white"/>
</clipPath>
</defs>
</svg>
