<svg xmlns="http://www.w3.org/2000/svg" width="4427" height="998" fill="none" viewBox="0 0 4427 998"><g clip-path="url(#clip0_178_971)"><path fill="#fff" d="M1505.31 581.62L1576.36 630.362L1570.86 637.237C1531.75 686.11 1474.34 711.955 1404.84 711.955C1278.91 711.955 1197.54 628.353 1197.54 499.001C1197.54 369.648 1278.91 286.069 1404.84 286.069C1474.34 286.069 1531.75 311.913 1570.86 360.786L1576.36 367.662L1505.31 416.404L1500.55 410.51C1477.39 381.85 1445.2 367.313 1404.84 367.313C1329.42 367.313 1284.41 416.535 1284.41 499.001C1284.41 581.467 1329.42 630.711 1404.84 630.711C1445.2 630.711 1477.39 616.173 1500.55 587.491L1505.31 581.62Z"/><path fill="#fff" d="M1752.3 402.259C1660.36 402.259 1598.58 463.814 1598.58 555.404C1598.58 646.994 1659.7 709.684 1747.21 709.684C1777.2 709.684 1803.94 701.957 1822.52 688.424V704.62H1906.56V556.539C1906.56 464.273 1844.56 402.259 1752.3 402.259ZM1752.86 631.278C1708.88 631.278 1682.64 603.12 1682.64 555.972C1682.64 508.823 1708.88 480.687 1752.86 480.687C1796.85 480.687 1822.52 508.823 1822.52 555.972C1822.52 603.12 1796.48 631.278 1752.86 631.278Z"/><path fill="#fff" d="M2422.68 528.338V704.62H2338.62V530.04C2338.62 493.238 2310.79 480.12 2284.77 480.12C2258.75 480.12 2230.9 493.238 2230.9 530.04V704.62H2146.84V530.04C2146.84 493.238 2119.03 480.12 2092.99 480.12C2066.95 480.12 2039.12 493.238 2039.12 530.04V704.62H1955.06V528.338C1955.06 498.935 1967.02 467.787 1987.08 445.02C2004.69 425.004 2037.39 401.146 2092.99 401.146C2134.44 401.146 2166.63 414.527 2188.88 440.96C2211.1 414.527 2243.29 401.146 2284.77 401.146C2340.36 401.146 2373.04 425.004 2390.68 445.02C2410.72 467.787 2422.68 498.935 2422.68 528.338Z"/><path fill="#fff" d="M2734.47 444.016C2706.79 416.338 2668.7 401.692 2624.32 401.692C2579.95 401.692 2542.14 416.142 2514.22 442.335C2484.58 470.166 2468.93 509.085 2468.93 554.859V817.427H2552.97V687.878C2571.48 701.412 2598 709.117 2627.71 709.117C2715.54 709.117 2776.9 645.685 2776.9 554.859C2776.9 510.111 2762.23 471.781 2734.47 444.016ZM2622.62 630.711C2579.01 630.711 2552.97 602.553 2552.97 555.404C2552.97 508.256 2579.01 480.12 2622.62 480.12C2666.23 480.12 2692.84 508.256 2692.84 555.404C2692.84 602.553 2666.6 630.711 2622.62 630.711Z"/><path fill="#fff" d="M3092.77 406.21V582.493C3092.77 611.895 3080.81 643.044 3060.77 665.81C3043.14 685.826 3010.46 709.684 2954.86 709.684C2899.27 709.684 2866.57 685.826 2848.95 665.81C2828.89 643.044 2816.93 611.895 2816.93 582.493V406.21H2900.99V580.79C2900.99 617.592 2928.82 630.711 2954.86 630.711C2980.9 630.711 3008.71 617.592 3008.71 580.79V406.21H3092.77Z"/><path fill="#fff" d="M3374.79 611.262C3374.79 670.918 3329.52 708.004 3256.61 708.004C3194.58 708.004 3154.11 679.824 3135.51 663.016L3130.21 658.236L3175.76 591.333L3182.73 597.991C3203.81 618.072 3231.36 629.576 3258.32 629.576C3263.73 629.576 3290.75 628.812 3290.75 613.51C3290.75 600.981 3272.07 595.109 3241.33 586.902C3197.44 575.224 3137.32 559.202 3137.32 491.667C3137.32 435.329 3178.75 401.692 3248.17 401.692C3308.98 401.692 3347.2 427.23 3370.67 446.417L3376.49 451.198L3331.05 517.227L3324.15 511.508C3292.91 485.555 3264.97 480.12 3247.03 480.12C3231.45 480.12 3221.38 484.201 3221.38 490.553C3221.38 500.049 3242.99 505.68 3265.87 511.639C3311.84 523.623 3374.79 540.016 3374.79 611.262Z"/><path fill="#fff" d="M3793.25 293.403H3707.67L3566.68 704.621H3658.03L3690.75 600.261H3810.15L3842.87 704.621H3934.22L3793.25 293.403ZM3716.2 519.017L3750.17 411.187L3784.13 519.017H3716.2Z"/><path fill="#fff" d="M4101.86 401.146V479.552H4093.67C4051.2 479.552 4029.67 499.394 4029.67 538.488V704.62H3945.61V538.488C3945.61 451.198 3999.57 401.146 4093.67 401.146H4101.86Z"/><path fill="#fff" d="M4426.07 586.138L4423.73 596.179C4407.43 666.203 4350.13 709.684 4274.17 709.684C4181.9 709.684 4119.91 647.693 4119.91 555.404C4119.91 463.116 4181.9 402.259 4274.17 402.259C4350.35 402.259 4407.43 445.129 4423.17 514.106L4425.46 524.125H4339.28L4337.16 519.148C4326.53 494.351 4303.96 480.687 4273.62 480.687C4229.99 480.687 4203.97 508.823 4203.97 555.972C4203.97 603.12 4229.99 631.278 4273.62 631.278C4304.29 631.278 4327.04 617.046 4337.69 591.224L4339.76 586.138H4426.07Z"/><mask id="mask0_178_971" style="mask-type:luminance" width="998" height="998" x="0" y="0" maskUnits="userSpaceOnUse"><path fill="#fff" d="M997.538 0H0V997.538H997.538V0Z"/></mask><g mask="url(#mask0_178_971)"><mask id="mask1_178_971" style="mask-type:luminance" width="998" height="998" x="0" y="0" maskUnits="userSpaceOnUse"><path fill="#fff" d="M997.538 0H0V997.538H997.538V0Z"/></mask><g mask="url(#mask1_178_971)"><path fill="#fff" d="M804.917 0H192.621C86.2395 0 0 86.2395 0 192.621V804.917C0 911.299 86.2395 997.538 192.621 997.538H804.917C911.299 997.538 997.538 911.299 997.538 804.917V192.621C997.538 86.2395 911.299 0 804.917 0Z"/><path fill="#3C45B9" stroke="#000" stroke-width="30.232" d="M827.883 568.959L634.596 677.051C567.934 714.334 504.48 623.595 562.367 573.762C611 531.896 610.978 456.589 562.324 414.745C504.414 364.955 567.824 274.195 634.509 311.411L827.861 419.394C886.36 452.071 886.382 536.239 827.905 568.959H827.883Z"/><path fill="#3C45B9" stroke="#000" stroke-width="30.232" d="M675.96 785.275L462.853 725.029C389.359 704.249 408.655 595.218 484.812 600.915C548.79 605.696 602.029 552.436 597.226 488.458C591.486 412.3 700.516 392.96 721.318 466.433L781.673 679.496C799.943 743.976 740.44 803.501 675.96 785.275Z"/><path fill="#3C45B9" stroke="#000" stroke-width="30.232" d="M425.396 831.921L317.304 638.634C280.022 571.972 370.761 508.518 420.594 566.406C462.46 615.038 537.767 615.017 579.611 566.362C629.401 508.452 720.161 571.863 682.945 638.547L574.962 831.899C542.285 890.398 458.117 890.42 425.396 831.943V831.921Z"/><path fill="#3C45B9" stroke="#000" stroke-width="30.232" d="M214.232 679.54L274.478 466.433C295.258 392.939 404.289 412.235 398.591 488.392C393.811 552.37 447.071 605.609 511.049 600.806C587.207 595.066 606.547 704.096 533.074 724.898L320.011 785.253C255.531 803.523 196.006 744.02 214.232 679.54Z"/><path fill="#3C45B9" stroke="#000" stroke-width="30.232" d="M168.285 419.525L361.572 311.433C428.235 274.151 491.689 364.89 433.801 414.723C385.168 456.589 385.19 531.896 433.845 573.74C491.754 623.53 428.344 714.29 361.659 677.074L168.307 569.091C109.808 536.414 109.787 452.246 168.264 419.525H168.285Z"/><path fill="#3C45B9" stroke="#000" stroke-width="30.232" d="M319.946 208.405L533.052 268.65C606.547 289.43 587.251 398.461 511.093 392.764C447.115 387.984 393.877 441.244 398.679 505.222C404.42 581.38 295.389 600.719 274.587 527.246L214.233 314.183C195.963 249.704 255.466 190.179 319.946 208.405Z"/><path fill="#3C45B9" stroke="#000" stroke-width="30.232" d="M574.831 166.103L682.923 359.389C720.205 426.052 629.466 489.506 579.633 431.618C537.767 382.985 462.46 383.007 420.616 431.662C370.826 489.571 280.066 426.161 317.282 359.477L425.265 166.124C457.942 107.625 542.11 107.604 574.831 166.081V166.103Z"/><path fill="#FCBF01" stroke="#000" stroke-width="30.232" d="M781.674 314.14L721.429 527.247C700.649 600.741 591.618 581.445 597.315 505.288C602.095 441.31 548.835 388.071 484.857 392.874C408.7 398.614 389.36 289.584 462.833 268.782L675.896 208.427C740.376 190.157 799.901 249.66 781.674 314.14Z"/></g></g></g><defs><clipPath id="clip0_178_971"><rect width="4427" height="998" fill="#fff"/></clipPath></defs></svg>