<svg width="39" height="12" viewBox="0 0 39 12" fill="none" xmlns="http://www.w3.org/2000/svg">
<g clip-path="url(#clip0_178_968)">
<path d="M4.125 0H5.309V0.223H5.086C5.047 0.223 4.979 0.268 4.881 0.357C4.783 0.446 4.734 0.516 4.734 0.562V3.962C4.734 4.009 4.783 4.077 4.881 4.167C4.979 4.257 5.047 4.302 5.086 4.302H5.309V4.524H3.562V4.3H3.785C3.824 4.3 3.891 4.255 3.985 4.165C4.079 4.075 4.126 4.007 4.126 3.96V0.668L2.484 4.605L0.844 0.6V3.961C0.844 4.008 0.891 4.076 0.984 4.166C1.077 4.256 1.145 4.301 1.184 4.301H1.406V4.523H0V4.3H0.223C0.27 4.3 0.34 4.255 0.434 4.165C0.528 4.075 0.574 4.007 0.574 3.96V0.562C0.574 0.516 0.527 0.447 0.434 0.357C0.341 0.267 0.27 0.223 0.223 0.223H0V0H1.312L2.672 3.387H2.707L4.125 0ZM6.938 4.066C7.13754 4.07789 7.33642 4.03354 7.512 3.938C7.65767 3.83825 7.7779 3.70569 7.863 3.551H8.051C7.96745 3.84149 7.80757 4.10427 7.588 4.312C7.34714 4.51177 7.03937 4.61257 6.727 4.594C6.54126 4.60073 6.35653 4.56391 6.18758 4.48646C6.01862 4.40902 5.87014 4.2931 5.754 4.148C5.51036 3.84699 5.38169 3.46915 5.391 3.082C5.38014 2.87481 5.41072 2.66752 5.48094 2.47229C5.55117 2.27706 5.65964 2.0978 5.8 1.945C5.92556 1.80997 6.07795 1.70268 6.2474 1.63001C6.41686 1.55734 6.59963 1.52089 6.784 1.523C6.98449 1.5184 7.18383 1.55446 7.37 1.629C7.53897 1.701 7.69374 1.8026 7.827 1.929L7.4 2.6L7.224 2.611C7.26395 2.41131 7.2519 2.20469 7.189 2.011C7.15164 1.92086 7.08512 1.84586 7.0001 1.798C6.91507 1.75014 6.81644 1.73218 6.72 1.747C6.59429 1.73901 6.46867 1.76396 6.35555 1.81938C6.24243 1.8748 6.14573 1.95877 6.075 2.063C5.92406 2.31378 5.85064 2.6036 5.864 2.896C5.85555 3.19897 5.95755 3.49468 6.151 3.728C6.24822 3.84001 6.36951 3.92859 6.5058 3.98712C6.64208 4.04565 6.78983 4.07262 6.938 4.066ZM9.844 4.523H8.074V4.3H8.3C8.347 4.3 8.417 4.255 8.511 4.165C8.605 4.075 8.651 4.007 8.651 3.96V0.562C8.651 0.516 8.605 0.447 8.511 0.357C8.417 0.267 8.344 0.223 8.3 0.223H8.074V0H9.844V0.223H9.621C9.574 0.223 9.504 0.268 9.41 0.357C9.316 0.446 9.27 0.516 9.27 0.562V2.414L10.887 0.609C10.918 0.57 10.887 0.496 10.805 0.387C10.723 0.278 10.656 0.223 10.617 0.223H10.4V0H12.04V0.223H11.817C11.7068 0.260873 11.6057 0.321137 11.52 0.4C11.363 0.521 11.27 0.6 11.238 0.629L10.138 1.812L11.72 3.912C11.7968 4.00146 11.8852 4.08017 11.983 4.146C12.0615 4.21822 12.1561 4.27067 12.259 4.299H12.587C12.6647 4.2829 12.7349 4.2418 12.787 4.182C12.873 4.103 12.916 4.037 12.916 3.982V2.133C12.916 2.086 12.873 2.023 12.787 1.945C12.7349 1.8852 12.6647 1.8441 12.587 1.828H12.41V1.605H13.453V3.984C13.453 4.039 13.498 4.105 13.588 4.184C13.6398 4.24072 13.7068 4.28133 13.781 4.301H14.145C14.184 4.301 14.245 4.262 14.332 4.184C14.419 4.106 14.461 4.039 14.461 3.984V2.133C14.461 2.086 14.418 2.023 14.332 1.945C14.246 1.867 14.184 1.828 14.145 1.828H13.957V1.605H14.883L15 2.2C15.159 2.0321 15.3294 1.87539 15.51 1.731C15.6934 1.59311 15.9187 1.52249 16.148 1.531C16.2557 1.52905 16.3626 1.54886 16.4625 1.58924C16.5623 1.62962 16.653 1.68974 16.729 1.766C16.809 1.84534 16.8717 1.94044 16.913 2.04528C16.9543 2.15012 16.9734 2.2624 16.969 2.375V3.984C16.969 4.039 17.012 4.105 17.098 4.184C17.184 4.263 17.246 4.301 17.285 4.301H17.473V4.523H15.938V4.3H16.1C16.1776 4.28369 16.2478 4.24263 16.3 4.183C16.386 4.104 16.429 4.038 16.429 3.983V2.414C16.4347 2.28273 16.3928 2.15382 16.311 2.051C16.2671 2.0023 16.2127 1.96427 16.1518 1.93983C16.091 1.91539 16.0254 1.90519 15.96 1.91C15.7282 1.91706 15.5045 1.99721 15.321 2.139C15.107 2.291 15 2.418 15 2.52V3.984C15 4.039 15.043 4.105 15.129 4.184C15.1811 4.2438 15.2513 4.2849 15.329 4.301H15.493V4.523H11.3L9.727 2.262L9.27 2.754V3.961C9.27 4.008 9.316 4.076 9.41 4.166C9.504 4.256 9.574 4.301 9.621 4.301H9.844V4.523ZM11.414 9.623L11.4 9.609C11.549 9.734 11.7 9.859 11.852 9.984C12.004 10.109 12.166 10.23 12.338 10.348H12.607V10.582H12.115C11.9147 10.5854 11.7157 10.5497 11.529 10.477C11.3296 10.3878 11.1473 10.2646 10.99 10.113C10.8126 10.2916 10.5988 10.4298 10.363 10.518C10.0902 10.6129 9.80272 10.6582 9.514 10.652C9.14702 10.6539 8.79177 10.5228 8.514 10.283C8.37025 10.167 8.25522 10.0194 8.17786 9.85168C8.1005 9.68396 8.06291 9.50064 8.068 9.316C8.06504 9.04137 8.13399 8.77074 8.268 8.531C8.39801 8.3007 8.58022 8.1041 8.8 7.957C8.69484 7.82349 8.6062 7.67777 8.536 7.523C8.46676 7.36029 8.43268 7.18479 8.436 7.008C8.42763 6.87021 8.44942 6.73226 8.49986 6.60376C8.55029 6.47526 8.62815 6.35931 8.728 6.264C8.95132 6.07804 9.23685 5.9837 9.527 6C9.69416 5.99436 9.86102 6.01806 10.02 6.07C10.1243 6.11288 10.2353 6.13692 10.348 6.141C10.3913 6.14207 10.4346 6.13804 10.477 6.129C10.5125 6.11735 10.5419 6.09221 10.559 6.059H10.759V7.125H10.559C10.528 6.90487 10.422 6.70216 10.259 6.551C10.1681 6.44249 10.0542 6.35565 9.92547 6.29682C9.79675 6.238 9.65651 6.20867 9.515 6.211C9.30947 6.1997 9.10634 6.25976 8.94 6.381C8.8702 6.438 8.81475 6.51057 8.77811 6.5929C8.74146 6.67522 8.72464 6.76499 8.729 6.855C8.72783 7.0313 8.79032 7.20209 8.905 7.336C9.03119 7.48311 9.19252 7.59594 9.374 7.664C9.66267 7.97733 9.975 8.29167 10.311 8.607C10.647 8.92233 10.9673 9.21733 11.272 9.492C11.3554 9.35831 11.4168 9.21212 11.454 9.059C11.4906 8.89489 11.5084 8.72714 11.507 8.559C11.5111 8.46871 11.4959 8.37858 11.4624 8.29462C11.429 8.21065 11.378 8.13476 11.313 8.072C11.1698 7.94567 10.9827 7.88067 10.792 7.891V7.664H12.4V7.875H12.225C12.186 7.875 12.109 7.941 11.996 8.075C11.9118 8.15384 11.8526 8.25575 11.826 8.368V8.38C11.8183 8.60506 11.7789 8.82792 11.709 9.042C11.6418 9.24934 11.5422 9.44475 11.414 9.621V9.623ZM9.879 10.303C10.0639 10.3055 10.248 10.2778 10.424 10.221C10.5801 10.1686 10.7279 10.0942 10.863 10L10.828 9.977C10.4947 9.67967 10.1667 9.375 9.844 9.063C9.52133 8.751 9.20867 8.42267 8.906 8.078C8.79425 8.19508 8.70328 8.33035 8.637 8.478C8.56725 8.65685 8.53525 8.84819 8.543 9.04C8.54752 9.2077 8.58808 9.37247 8.66193 9.52311C8.73579 9.67374 8.84119 9.80672 8.971 9.913C9.21265 10.154 9.53783 10.2925 9.879 10.3V10.303ZM13.125 0.891H13.113C13.0148 0.891884 12.9202 0.853763 12.85 0.785C12.814 0.752516 12.7853 0.712673 12.766 0.668164C12.7467 0.623654 12.7371 0.575515 12.738 0.527V0.516C12.7351 0.464582 12.7437 0.41317 12.7631 0.365452C12.7824 0.317733 12.8121 0.274892 12.85 0.24C12.9273 0.17593 13.0246 0.140867 13.125 0.140867C13.2254 0.140867 13.3227 0.17593 13.4 0.24C13.4379 0.274892 13.4676 0.317733 13.4869 0.365452C13.5063 0.41317 13.5149 0.464582 13.512 0.516H13.5C13.508 0.516 13.512 0.516 13.512 0.527C13.5129 0.575515 13.5033 0.623654 13.484 0.668164C13.4647 0.712673 13.436 0.752516 13.4 0.785C13.3333 0.852278 13.2427 0.890394 13.148 0.891H13.125ZM16.1 10.277C16.4215 10.2955 16.7409 10.2138 17.014 10.043C17.2504 9.865 17.4394 9.63144 17.564 9.363H17.8C17.6706 9.74365 17.4294 10.0765 17.108 10.318C16.7774 10.5546 16.3783 10.6762 15.972 10.664C15.6759 10.6746 15.3813 10.617 15.1109 10.4956C14.8406 10.3743 14.6018 10.1924 14.413 9.964C14.0215 9.4969 13.8132 8.90334 13.827 8.294C13.8112 7.70109 14.0017 7.12108 14.366 6.653C14.5428 6.43036 14.7698 6.25275 15.0284 6.13473C15.2871 6.01671 15.57 5.96163 15.854 5.974C16.0657 5.96916 16.2765 6.00305 16.476 6.074C16.6438 6.14021 16.8226 6.17413 17.003 6.174C17.0592 6.17675 17.1154 6.16648 17.167 6.144C17.2105 6.12166 17.2501 6.09226 17.284 6.057H17.448V7.652H17.248C17.2142 7.33015 17.0881 7.02492 16.885 6.773C16.7765 6.60585 16.6267 6.46953 16.4502 6.37721C16.2736 6.28489 16.0762 6.23969 15.877 6.246C15.7072 6.23697 15.5373 6.26304 15.378 6.32257C15.2186 6.38209 15.0733 6.47381 14.951 6.592C14.6926 6.90303 14.5511 7.29463 14.551 7.699V7.676C14.543 7.762 14.537 7.848 14.533 7.934C14.533 8.02 14.527 8.109 14.527 8.203C14.527 8.312 14.527 8.424 14.539 8.537C14.551 8.65 14.555 8.754 14.562 8.848C14.5932 9.22821 14.7546 9.58601 15.019 9.861C15.1599 10.0024 15.3289 10.1125 15.5152 10.1841C15.7014 10.2558 15.9007 10.2875 16.1 10.277ZM19.8 3.703C19.8069 3.82503 19.7869 3.94709 19.7413 4.06048C19.6956 4.17387 19.6255 4.2758 19.536 4.359C19.3492 4.51989 19.1083 4.60388 18.862 4.594C18.7011 4.59886 18.5412 4.56883 18.393 4.506C18.2761 4.44905 18.148 4.41898 18.018 4.418C17.9733 4.41367 17.9284 4.42384 17.89 4.447L17.796 4.523H17.66V3.492H17.836C17.8687 3.69294 17.9651 3.87805 18.111 4.02C18.2037 4.12862 18.32 4.21463 18.451 4.27147C18.5821 4.32831 18.7243 4.35449 18.867 4.348C19.0136 4.35563 19.1595 4.32313 19.289 4.254C19.3389 4.22221 19.3793 4.17759 19.4061 4.12482C19.4328 4.07204 19.4449 4.01304 19.441 3.954C19.4463 3.88363 19.4323 3.81315 19.4004 3.75021C19.3685 3.68726 19.3199 3.63428 19.26 3.597C19.1415 3.52413 19.0182 3.45931 18.891 3.403C18.781 3.357 18.682 3.314 18.591 3.275C18.5 3.236 18.397 3.193 18.28 3.146C18.1144 3.0695 17.9637 2.9642 17.835 2.835C17.7749 2.76968 17.7285 2.69308 17.6982 2.60966C17.668 2.52623 17.6547 2.43763 17.659 2.349C17.6517 2.23787 17.669 2.12649 17.7096 2.02279C17.7502 1.91908 17.8132 1.8256 17.894 1.749C18.0443 1.64241 18.2188 1.57483 18.4017 1.55231C18.5846 1.52979 18.7703 1.55305 18.942 1.62C19.0424 1.66994 19.1529 1.69627 19.265 1.697C19.2992 1.69811 19.3333 1.69198 19.365 1.679C19.394 1.66613 19.4171 1.64297 19.43 1.614H19.582V2.514H19.406C19.3776 2.33624 19.2935 2.17205 19.166 2.045C19.0877 1.94923 18.9882 1.87292 18.8754 1.82208C18.7627 1.77124 18.6396 1.74725 18.516 1.752C18.3804 1.74091 18.2454 1.77849 18.135 1.858C18.0954 1.89058 18.0638 1.93173 18.0425 1.97833C18.0212 2.02493 18.0108 2.07577 18.012 2.127C18.0084 2.18088 18.0183 2.23481 18.0408 2.28388C18.0633 2.33296 18.0978 2.37562 18.141 2.408C18.2518 2.48497 18.3693 2.5519 18.492 2.608C18.602 2.654 18.705 2.697 18.803 2.736L19.125 2.865C19.2931 2.93562 19.4477 3.03475 19.582 3.158C19.6561 3.22686 19.7145 3.31097 19.753 3.40454C19.7915 3.49811 19.8092 3.59891 19.805 3.7L19.8 3.703ZM20.567 7.992C20.7161 8.1375 20.8324 8.31309 20.9083 8.50707C20.9841 8.70106 21.0178 8.90898 21.007 9.117C21.0176 9.32589 20.9839 9.53467 20.9081 9.7296C20.8322 9.92453 20.716 10.1012 20.567 10.248C20.2978 10.5154 19.9334 10.665 19.554 10.664C19.1704 10.6668 18.8013 10.5172 18.528 10.248C18.3792 10.1011 18.2631 9.92441 18.1875 9.72948C18.1118 9.53455 18.0782 9.32582 18.089 9.117C18.0778 8.91839 18.1074 8.71959 18.1762 8.53291C18.2449 8.34623 18.3512 8.17566 18.4886 8.03175C18.6259 7.88784 18.7913 7.77367 18.9746 7.69631C19.1579 7.61895 19.3551 7.58004 19.554 7.582C19.9341 7.57926 20.2999 7.72659 20.572 7.992H20.567ZM20.426 9.6V9.623C20.434 9.537 20.439 9.451 20.443 9.365C20.447 9.279 20.449 9.193 20.449 9.107C20.449 9.021 20.449 8.938 20.443 8.856C20.437 8.774 20.434 8.697 20.426 8.627C20.4078 8.41307 20.3192 8.21121 20.174 8.053C20.0913 7.97776 19.9941 7.92023 19.8883 7.88394C19.7825 7.84766 19.6705 7.83338 19.559 7.842C19.4499 7.83428 19.3403 7.84902 19.2371 7.88531C19.1339 7.9216 19.0393 7.97868 18.959 8.053C18.8154 8.20749 18.7268 8.40503 18.707 8.615V8.6C18.6915 8.6812 18.6818 8.76341 18.678 8.846C18.678 8.932 18.672 9.018 18.672 9.103C18.672 9.188 18.672 9.273 18.678 9.355C18.6815 9.43199 18.6912 9.50857 18.707 9.584C18.7302 9.79307 18.8183 9.98962 18.959 10.146C19.0375 10.2235 19.1316 10.2835 19.235 10.322C19.3385 10.3604 19.4489 10.3764 19.559 10.369C19.672 10.3789 19.7858 10.3647 19.8928 10.3273C19.9999 10.2899 20.0978 10.2301 20.18 10.152C20.317 9.99777 20.4029 9.80497 20.426 9.6ZM21.387 4.6C21.2021 4.60351 21.0188 4.5647 20.8512 4.48654C20.6836 4.40837 20.5361 4.29291 20.42 4.149C20.1666 3.84963 20.0312 3.46812 20.039 3.076C20.0269 2.67399 20.1648 2.28187 20.426 1.976C20.5419 1.83451 20.689 1.72172 20.8557 1.64643C21.0224 1.57115 21.2042 1.53541 21.387 1.542C21.5289 1.53409 21.6708 1.55679 21.8031 1.60855C21.9355 1.66031 22.0551 1.73993 22.154 1.842C22.3376 2.03836 22.4441 2.29438 22.454 2.563L22.466 2.774L20.52 2.93C20.5239 3.21088 20.6226 3.4822 20.8 3.7C20.8891 3.81971 21.0061 3.91588 21.1408 3.98018C21.2755 4.04448 21.4239 4.07497 21.573 4.069C21.7744 4.08032 21.9751 4.03604 22.153 3.941C22.2979 3.84652 22.4169 3.71726 22.499 3.565H22.675C22.6005 3.85398 22.4459 4.11604 22.229 4.321C21.9929 4.51517 21.6921 4.61271 21.387 4.594V4.6ZM21.375 1.764C21.2472 1.75333 21.1188 1.77634 21.0027 1.83073C20.8865 1.88512 20.7866 1.96899 20.713 2.074C20.581 2.26634 20.5058 2.49194 20.496 2.725L21.961 2.6C21.9861 2.40392 21.9638 2.20469 21.896 2.019C21.832 1.84567 21.6583 1.75867 21.375 1.758V1.764ZM24.914 10.364C24.961 10.364 25.025 10.323 25.107 10.241C25.189 10.159 25.23 10.095 25.23 10.048V8.448C25.2353 8.32314 25.1959 8.20049 25.119 8.102C25.0736 8.0539 25.0179 8.01675 24.9561 7.99336C24.8942 7.96997 24.8278 7.96096 24.762 7.967C24.5545 7.97389 24.3548 8.04793 24.193 8.178C24.0017 8.31933 23.906 8.43667 23.906 8.53V10.053C23.906 10.1 23.947 10.164 24.029 10.246C24.111 10.328 24.172 10.369 24.211 10.369H24.387V10.592H22.887V10.369H23.051C23.098 10.369 23.162 10.328 23.244 10.246C23.326 10.164 23.367 10.1 23.367 10.053V8.453C23.3734 8.32333 23.3318 8.19585 23.25 8.095C23.205 8.04782 23.1501 8.01124 23.0892 7.98789C23.0283 7.96454 22.963 7.95502 22.898 7.96C22.6851 7.96698 22.4807 8.04555 22.318 8.183C22.1267 8.331 22.031 8.456 22.031 8.558V10.058C22.031 10.105 22.072 10.169 22.154 10.251C22.236 10.333 22.301 10.374 22.348 10.374H22.512V10.597H21.012V10.374H21.188C21.227 10.374 21.288 10.333 21.369 10.251C21.45 10.169 21.492 10.105 21.492 10.058V8.191C21.492 8.145 21.451 8.082 21.369 8.004C21.287 7.926 21.227 7.887 21.188 7.887H21.012V7.664H21.912L22.029 8.227C22.201 8.047 22.3573 7.89633 22.498 7.775C22.6694 7.64392 22.8827 7.57959 23.098 7.594C23.2821 7.5903 23.4626 7.64567 23.613 7.752C23.6878 7.80604 23.7505 7.87516 23.797 7.95491C23.8435 8.03465 23.8728 8.12325 23.883 8.215C24.062 8.043 24.227 7.898 24.375 7.781C24.5445 7.65712 24.7513 7.59501 24.961 7.605C25.1733 7.59979 25.3792 7.67765 25.535 7.822C25.6157 7.90208 25.6784 7.99845 25.7189 8.10467C25.7594 8.21088 25.7768 8.32452 25.77 8.438V10.038C25.77 10.085 25.811 10.149 25.893 10.231C25.975 10.313 26.035 10.354 26.074 10.354H26.25V10.577H24.75V10.354L24.914 10.364ZM22.957 2.164C22.9081 2.08749 22.8466 2.01986 22.775 1.964C22.675 1.878 22.609 1.835 22.575 1.835H22.446V1.605H24.028V1.828H23.841C23.802 1.828 23.751 1.867 23.689 1.945C23.6366 1.99956 23.6036 2.06983 23.595 2.145L24.295 3.586L24.94 2.156C24.9403 2.11671 24.9327 2.07776 24.9176 2.0415C24.9025 2.00523 24.8802 1.97241 24.852 1.945C24.7853 1.867 24.7323 1.828 24.693 1.828H24.5V1.605H25.684V1.828H25.555C25.516 1.828 25.455 1.869 25.373 1.951C25.3087 2.00949 25.2552 2.07889 25.215 2.156L24.215 4.277L23.355 5.93L23.1 5.8L23.99 4.194L22.957 2.164ZM28.266 7.59C28.4294 7.58355 28.5919 7.61761 28.739 7.68914C28.8861 7.76068 29.0132 7.86746 29.109 8C29.3232 8.31732 29.4285 8.69565 29.409 9.078C29.4247 9.48048 29.305 9.8766 29.069 10.203C28.9716 10.3422 28.8418 10.4556 28.6907 10.5333C28.5396 10.611 28.3719 10.6507 28.202 10.649C27.9872 10.6599 27.7737 10.6088 27.587 10.502C27.4219 10.3903 27.2869 10.2395 27.194 10.063V11.469C27.194 11.524 27.237 11.59 27.323 11.669C27.409 11.748 27.472 11.786 27.511 11.786H27.7V12H26.156V11.777H26.344C26.4197 11.761 26.4878 11.7198 26.537 11.66C26.6022 11.6117 26.6463 11.54 26.66 11.46V8.191C26.66 8.145 26.619 8.082 26.537 8.004C26.4878 7.94422 26.4197 7.90296 26.344 7.887H26.156V7.652H27.105L27.199 8.262C27.3058 8.05632 27.4605 7.87935 27.65 7.746C27.8348 7.63212 28.049 7.57509 28.266 7.582V7.59ZM28.852 9.559V9.57L28.875 9.336C28.883 9.25826 28.887 9.18015 28.887 9.102C28.8871 9.03349 28.8831 8.96503 28.875 8.897C28.867 8.83 28.859 8.766 28.852 8.703C28.8328 8.49788 28.7507 8.3037 28.617 8.147C28.5529 8.07977 28.475 8.02711 28.3888 7.9926C28.3025 7.95809 28.2098 7.94254 28.117 7.947C28.0089 7.94244 27.901 7.96035 27.8001 7.99959C27.6992 8.03884 27.6076 8.09856 27.531 8.175C27.3782 8.33569 27.2658 8.53037 27.203 8.743V9.505C27.2018 9.6143 27.223 9.72269 27.2653 9.82348C27.3076 9.92426 27.3701 10.0153 27.449 10.091C27.5269 10.1709 27.6203 10.2339 27.7235 10.2762C27.8267 10.3186 27.9375 10.3392 28.049 10.337H28.061C28.1649 10.345 28.2693 10.3296 28.3665 10.2921C28.4638 10.2545 28.5514 10.1957 28.623 10.12C28.7541 9.95726 28.8338 9.75919 28.852 9.551V9.559ZM35.473 10.051C35.473 10.098 35.516 10.162 35.602 10.244C35.688 10.326 35.75 10.367 35.789 10.367H35.965V10.59H34.43V10.367H34.6C34.64 10.367 34.7 10.326 34.788 10.244C34.876 10.162 34.917 10.098 34.917 10.051V8.461C34.9211 8.33292 34.882 8.20717 34.806 8.104C34.7643 8.05355 34.7112 8.01386 34.6509 7.98828C34.5907 7.96269 34.5252 7.95196 34.46 7.957C34.2274 7.9646 34.0035 8.04662 33.821 8.191C33.6057 8.34833 33.4983 8.47333 33.499 8.566V10.043C33.499 10.098 33.542 10.164 33.628 10.243C33.6801 10.3028 33.7503 10.3439 33.828 10.36H34V10.583H31.512L31.43 9.974C31.3067 10.136 31.1696 10.2869 31.02 10.425C30.8679 10.568 30.6658 10.6459 30.457 10.642C30.3586 10.6427 30.2611 10.6233 30.1705 10.5849C30.0798 10.5466 29.998 10.4901 29.93 10.419C29.8556 10.3436 29.7974 10.2538 29.759 10.1551C29.7207 10.0564 29.703 9.95084 29.707 9.845C29.6958 9.72073 29.7201 9.59583 29.7771 9.48483C29.8341 9.37384 29.9215 9.28131 30.029 9.218C30.2249 9.10459 30.4361 9.01974 30.656 8.966L31.418 8.813L31.43 8.462C31.4388 8.28509 31.3802 8.11141 31.266 7.976C31.19 7.9082 31.1006 7.85701 31.0037 7.82567C30.9067 7.79433 30.8043 7.78355 30.703 7.794C30.6047 7.78219 30.505 7.79779 30.415 7.83909C30.325 7.88039 30.2482 7.94576 30.193 8.028C30.1491 8.12474 30.129 8.23054 30.1342 8.33663C30.1394 8.44272 30.1699 8.54603 30.223 8.638H30.012L29.612 8.052C29.7722 7.89445 29.9631 7.77151 30.1728 7.69083C30.3825 7.61015 30.6065 7.57345 30.831 7.583C31.1179 7.57319 31.4008 7.65325 31.64 7.812C31.7466 7.8852 31.8327 7.98446 31.8901 8.10033C31.9475 8.21621 31.9743 8.34484 31.968 8.474V10.044C31.968 10.091 32.011 10.153 32.097 10.231C32.183 10.309 32.245 10.349 32.284 10.349H32.636C32.7139 10.3328 32.7842 10.2913 32.836 10.231C32.922 10.153 32.965 10.091 32.965 10.044V8.191C32.965 8.145 32.922 8.082 32.836 8.004C32.7839 7.9442 32.7137 7.9031 32.636 7.887H32.46V7.652H33.386L33.503 8.262C33.6597 8.09533 33.8267 7.93869 34.003 7.793C34.1877 7.6531 34.4156 7.58233 34.647 7.593C34.7544 7.59105 34.8612 7.61077 34.9608 7.65097C35.0605 7.69118 35.151 7.75104 35.227 7.827C35.3074 7.90633 35.3703 8.00155 35.4118 8.10658C35.4533 8.21162 35.4725 8.32415 35.468 8.437L35.473 10.051ZM31.43 9.012L30.73 9.188C30.5797 9.21244 30.4427 9.28889 30.343 9.404C30.2705 9.50902 30.2334 9.63443 30.237 9.762V9.773C30.2361 9.83269 30.247 9.89197 30.2692 9.9474C30.2913 10.0028 30.3242 10.0533 30.366 10.096C30.4064 10.1394 30.4556 10.1738 30.5102 10.1969C30.5648 10.22 30.6237 10.2313 30.683 10.23H30.7C30.857 10.2237 31.0066 10.1616 31.122 10.055C31.2409 9.95986 31.3424 9.84483 31.422 9.715L31.43 9.012ZM38.883 7.664V7.887H38.742C38.711 7.887 38.654 7.928 38.572 8.01C38.5099 8.06931 38.453 8.13389 38.402 8.203L37.418 10.336L36.539 11.977L36.293 11.848L37.172 10.242L36.141 8.215C36.0918 8.13874 36.0303 8.07116 35.959 8.015C35.859 7.929 35.797 7.886 35.766 7.886H35.625V7.664H37.207V7.887H37.031C36.992 7.887 36.939 7.926 36.873 8.004C36.8181 8.05748 36.7828 8.12797 36.773 8.204L37.473 9.646L38.121 8.2C38.1211 8.16237 38.1133 8.12514 38.0981 8.0907C38.083 8.05626 38.0608 8.02536 38.033 8C37.967 7.922 37.914 7.883 37.875 7.883H37.688V7.664H38.883Z" fill="white"/>
</g>
<defs>
<clipPath id="clip0_178_968">
<rect width="38.883" height="12" fill="white"/>
</clipPath>
</defs>
</svg>
