<svg width="338" height="72" viewBox="0 0 338 72" fill="none" xmlns="http://www.w3.org/2000/svg">
<g clip-path="url(#clip0_178_962)">
<path d="M140.399 14.3992V57.5992H132.899V23.6992H132.799L119.399 57.5992H114.399L100.699 23.6992H100.599V57.5992H93.6992V14.3992H104.499L116.899 46.3992H117.099L130.199 14.3992H140.399ZM146.599 17.6992C146.599 16.4992 146.999 15.4992 147.899 14.6992C148.799 13.8992 149.799 13.4992 150.999 13.4992C152.299 13.4992 153.399 13.8992 154.199 14.6992C154.999 15.4992 155.499 16.4992 155.499 17.6992C155.499 18.8992 155.099 19.8992 154.199 20.6992C153.299 21.4992 152.299 21.8992 150.999 21.8992C149.699 21.8992 148.699 21.4992 147.899 20.6992C147.099 19.7992 146.599 18.7992 146.599 17.6992ZM154.699 26.5992V57.5992H147.399V26.5992H154.699ZM176.799 52.2992C177.899 52.2992 179.099 52.0992 180.399 51.4992C181.699 50.9992 182.899 50.2992 183.999 49.4992V56.2992C182.799 56.9992 181.499 57.4992 179.999 57.7992C178.499 58.0992 176.899 58.2992 175.099 58.2992C170.499 58.2992 166.799 56.8992 163.999 53.9992C161.099 51.0992 159.699 47.3992 159.699 42.9992C159.699 37.9992 161.199 33.8992 164.099 30.6992C166.999 27.4992 171.099 25.8992 176.499 25.8992C177.899 25.8992 179.299 26.0992 180.599 26.3992C181.999 26.6992 183.099 27.1992 183.899 27.5992V34.5992C182.799 33.7992 181.599 33.0992 180.499 32.6992C179.299 32.2992 178.099 31.9992 176.899 31.9992C173.999 31.9992 171.699 32.8992 169.899 34.7992C168.099 36.6992 167.299 39.1992 167.299 42.3992C167.299 45.4992 168.199 47.9992 169.899 49.6992C171.599 51.3992 173.899 52.2992 176.799 52.2992ZM204.699 26.0992C205.299 26.0992 205.799 26.0992 206.299 26.1992C206.799 26.2992 207.199 26.3992 207.499 26.4992V33.8992C207.099 33.5992 206.599 33.2992 205.799 33.0992C204.999 32.8992 204.199 32.6992 203.099 32.6992C201.299 32.6992 199.799 33.4992 198.599 34.9992C197.399 36.4992 196.699 38.7992 196.699 41.9992V57.5992H189.399V26.5992H196.699V31.4992H196.799C197.499 29.7992 198.499 28.4992 199.799 27.4992C201.199 26.5992 202.799 26.0992 204.699 26.0992ZM207.899 42.5992C207.899 37.4992 209.399 33.3992 212.199 30.3992C215.099 27.3992 219.099 25.8992 224.199 25.8992C228.999 25.8992 232.799 27.2992 235.499 30.1992C238.199 33.0992 239.599 36.9992 239.599 41.8992C239.599 46.8992 238.099 50.8992 235.299 53.8992C232.399 56.8992 228.499 58.3992 223.499 58.3992C218.699 58.3992 214.899 56.9992 212.099 54.1992C209.299 51.2992 207.899 47.3992 207.899 42.5992ZM215.499 42.2992C215.499 45.4992 216.199 47.9992 217.699 49.6992C219.199 51.3992 221.299 52.2992 223.999 52.2992C226.599 52.2992 228.699 51.4992 230.099 49.6992C231.499 47.9992 232.199 45.4992 232.199 42.0992C232.199 38.7992 231.499 36.2992 230.099 34.4992C228.699 32.7992 226.599 31.8992 224.099 31.8992C221.399 31.8992 219.399 32.7992 217.899 34.5992C216.199 36.4992 215.499 38.9992 215.499 42.2992ZM250.499 34.7992C250.499 35.7992 250.799 36.6992 251.499 37.2992C252.199 37.8992 253.599 38.5992 255.899 39.4992C258.799 40.6992 260.899 41.9992 261.999 43.3992C263.199 44.8992 263.799 46.5992 263.799 48.6992C263.799 51.5992 262.699 53.8992 260.399 55.6992C258.199 57.4992 255.099 58.2992 251.299 58.2992C249.999 58.2992 248.599 58.0992 246.999 57.7992C245.399 57.4992 244.099 57.0992 242.999 56.5992V49.3992C244.299 50.2992 245.799 51.0992 247.299 51.5992C248.799 52.0992 250.199 52.3992 251.499 52.3992C253.099 52.3992 254.399 52.1992 255.099 51.6992C255.899 51.1992 256.299 50.4992 256.299 49.3992C256.299 48.3992 255.899 47.5992 255.099 46.7992C254.299 46.0992 252.699 45.2992 250.499 44.3992C247.799 43.2992 245.899 41.9992 244.799 40.5992C243.699 39.1992 243.099 37.3992 243.099 35.1992C243.099 32.3992 244.199 30.0992 246.399 28.2992C248.599 26.4992 251.499 25.5992 254.999 25.5992C256.099 25.5992 257.299 25.6992 258.599 25.9992C259.899 26.2992 261.099 26.5992 261.999 26.8992V33.9992C260.999 33.3992 259.899 32.7992 258.599 32.2992C257.299 31.7992 255.999 31.5992 254.799 31.5992C253.399 31.5992 252.299 31.8992 251.599 32.3992C250.899 33.0992 250.499 33.7992 250.499 34.7992ZM266.899 42.5992C266.899 37.4992 268.399 33.3992 271.199 30.3992C274.099 27.3992 278.099 25.8992 283.199 25.8992C287.999 25.8992 291.799 27.2992 294.499 30.1992C297.199 33.0992 298.599 36.9992 298.599 41.8992C298.599 46.8992 297.099 50.8992 294.299 53.8992C291.399 56.8992 287.499 58.3992 282.499 58.3992C277.699 58.3992 273.899 56.9992 271.099 54.1992C268.399 51.2992 266.899 47.3992 266.899 42.5992ZM274.499 42.2992C274.499 45.4992 275.199 47.9992 276.699 49.6992C278.199 51.3992 280.299 52.2992 282.999 52.2992C285.599 52.2992 287.699 51.4992 289.099 49.6992C290.499 47.9992 291.199 45.4992 291.199 42.0992C291.199 38.7992 290.499 36.2992 289.099 34.4992C287.699 32.7992 285.599 31.8992 283.099 31.8992C280.399 31.8992 278.399 32.7992 276.899 34.5992C275.299 36.4992 274.499 38.9992 274.499 42.2992ZM322.899 32.5992H311.999V57.5992H304.599V32.5992H299.399V26.5992H304.599V22.2992C304.599 19.0992 305.699 16.3992 307.799 14.2992C309.899 12.1992 312.599 11.1992 315.899 11.1992C316.799 11.1992 317.599 11.2992 318.299 11.2992C318.999 11.2992 319.599 11.4992 320.099 11.6992V17.9992C319.899 17.8992 319.399 17.6992 318.799 17.4992C318.199 17.2992 317.499 17.1992 316.699 17.1992C315.199 17.1992 313.999 17.6992 313.199 18.5992C312.399 19.4992 311.999 20.9992 311.999 22.7992V26.4992H322.899V19.4992L330.199 17.2992V26.4992H337.599V32.4992H330.199V46.9992C330.199 48.8992 330.599 50.1992 331.199 50.9992C331.899 51.7992 332.999 52.1992 334.499 52.1992C334.899 52.1992 335.399 52.0992 335.999 51.8992C336.599 51.6992 337.099 51.4992 337.499 51.1992V57.1992C336.999 57.4992 336.299 57.6992 335.199 57.8992C334.099 58.0992 333.099 58.1992 331.999 58.1992C328.899 58.1992 326.599 57.3992 325.099 55.7992C323.599 54.1992 322.799 51.6992 322.799 48.3992L322.899 32.5992Z" fill="white"/>
<path d="M34.2 0H0V34.2H34.2V0Z" fill="#F25022"/>
<path d="M72.0008 0H37.8008V34.2H72.0008V0Z" fill="#7FBA00"/>
<path d="M34.2 37.8008H0V72.0008H34.2V37.8008Z" fill="#00A4EF"/>
<path d="M72.0008 37.8008H37.8008V72.0008H72.0008V37.8008Z" fill="#FFB900"/>
</g>
<defs>
<clipPath id="clip0_178_962">
<rect width="337.6" height="72" fill="white"/>
</clipPath>
</defs>
</svg>
