<svg width="2524" height="415" viewBox="0 0 2524 415" fill="none" xmlns="http://www.w3.org/2000/svg">
<g clip-path="url(#clip0_178_998)">
<mask id="mask0_178_998" style="mask-type:luminance" maskUnits="userSpaceOnUse" x="0" y="0" width="2524" height="415">
<path d="M2523.69 0H0V414.011H2523.69V0Z" fill="white"/>
</mask>
<g mask="url(#mask0_178_998)">
<path d="M198.589 131.509C206.564 118.966 216.532 109.78 228.469 103.95C240.432 98.1202 253.706 95.1927 268.319 95.1927C281.013 95.1927 292.521 97.0855 302.868 100.846C313.19 104.606 322.048 110.007 329.442 116.997C336.811 124.013 342.54 132.543 346.603 142.562C350.666 152.607 352.685 163.812 352.685 176.203V323.662H284.722V183.951C284.722 177.465 284.193 171.08 283.183 164.796C282.148 158.512 280.256 152.909 277.53 147.963C274.804 143.017 270.994 139.029 266.123 136.001C261.252 132.972 255.044 131.458 247.523 131.458C239.119 131.458 232.457 133.275 227.586 136.884C222.715 140.493 218.98 145.111 216.406 150.714C213.832 156.316 212.166 162.55 211.435 169.414C210.703 176.279 210.324 182.967 210.324 189.452V323.612H142.361V183.9C142.361 177.414 141.831 171.03 140.822 164.746C139.787 158.462 137.869 152.859 135.068 147.913C132.266 142.966 128.456 138.979 123.661 135.95C118.866 132.922 112.708 131.408 105.162 131.408C96.7582 131.408 90.0957 133.225 85.2249 136.834C80.3542 140.442 76.6192 145.061 74.045 150.663C71.4708 156.266 69.8052 162.499 69.0733 169.364C68.3415 176.228 67.9629 182.916 67.9629 189.402V323.561H0V96.9845H67.9629V116.922C76.2406 109.25 85.1492 103.723 94.7645 100.316C104.354 96.934 114.752 95.2179 125.983 95.2179C133.352 95.2179 140.569 95.9246 147.56 97.3126C154.576 98.7259 161.213 100.896 167.497 103.849C173.781 106.802 179.56 110.562 184.885 115.13C190.21 119.698 194.778 125.174 198.614 131.509H198.589ZM377.872 34.3213C377.872 23.848 381.052 15.4946 387.386 9.31159C393.721 3.10331 402.15 0.0244141 412.623 0.0244141C423.096 0.0244141 431.298 3.15379 437.633 9.43777C443.967 15.7218 447.147 24.0247 447.147 34.3466C447.147 44.6685 444.043 53.3752 437.86 59.5835C431.652 65.7917 423.248 68.8706 412.623 68.8706C401.998 68.8706 393.544 65.7665 387.285 59.5835C381.001 53.3752 377.872 44.9713 377.872 34.3466V34.3213ZM447.627 96.9845V323.687H379.664V96.9845H447.627ZM544.536 150.108C544.536 153.793 545.899 157.225 548.625 160.405C551.35 163.585 554.606 166.411 558.366 168.935C562.126 171.459 566.114 173.629 570.328 175.471C574.543 177.313 578.051 178.828 580.852 180.014C586.026 182.083 591.376 184.228 596.903 186.424C602.43 188.62 608.234 190.84 614.291 193.061C625.37 197.352 636.07 202.449 646.392 208.33C656.714 214.235 665.875 221.756 673.85 230.917C680.79 239.472 684.248 249.668 684.248 261.478C684.248 269.882 682.506 277.302 679.049 283.737C675.591 290.148 670.973 295.725 665.219 300.444C659.465 305.164 652.853 309.151 645.408 312.407C637.963 315.662 630.241 318.236 622.266 320.154C614.291 322.072 606.316 323.435 598.366 324.243C590.417 325.05 583.022 325.454 576.234 325.454C567.527 325.454 558.517 324.722 549.23 323.233C539.943 321.769 530.732 319.549 521.672 316.596C512.586 313.643 503.88 309.984 495.551 305.643C487.223 301.302 479.652 296.23 472.863 290.476L490.58 264.355C496.031 268.646 501.911 272.583 508.17 276.192C514.454 279.8 521.015 282.905 527.88 285.479C534.744 288.053 541.71 290.097 548.801 291.561C555.893 293.05 562.959 293.782 570.051 293.782C573.155 293.782 577.319 293.605 582.568 293.227C587.817 292.873 592.89 292.015 597.836 290.678C602.783 289.34 607.098 287.346 610.783 284.696C614.468 282.047 616.31 278.412 616.31 273.845C616.31 267.359 612.852 261.882 605.912 257.466C598.518 252.898 589.887 248.532 580.019 244.393C574.846 242.172 569.495 240.002 563.969 237.857C558.442 235.712 552.562 233.541 546.378 231.32C535.173 227.182 524.347 222.109 513.949 216.052C503.551 209.995 494.567 202.096 487.047 192.355C480.106 183.345 476.649 172.569 476.649 160.026C476.649 150.739 478.567 142.562 482.403 135.572C486.239 128.556 491.286 122.549 497.57 117.527C503.854 112.505 510.921 108.442 518.82 105.338C526.719 102.234 534.643 99.9625 542.618 98.4735C554.858 96.2526 567.35 95.1422 580.044 95.1422C597.458 95.1422 614.543 97.1359 631.301 101.123C648.058 105.111 663.881 111.748 678.796 121.061L661.08 147.181C649.875 140.392 638.67 135.294 627.54 131.912C616.386 128.531 604.171 126.815 590.896 126.815C587.363 126.815 582.972 127.117 577.723 127.698C572.473 128.278 567.426 129.439 562.555 131.13C557.685 132.821 553.47 135.193 549.937 138.222C546.404 141.25 544.612 145.187 544.612 150.058L544.536 150.108ZM860.88 301.555C852.325 309.832 842.861 315.864 832.539 319.7C822.218 323.536 811.139 325.454 799.328 325.454C786.785 325.454 775.05 323.637 764.122 320.028C753.195 316.419 743.68 311.145 735.554 304.205C727.428 297.264 721.043 288.785 716.399 278.741C711.756 268.696 709.434 257.264 709.434 244.418V96.9593H777.397V236.671C777.397 243.459 778.129 250.021 779.618 256.381C781.081 262.74 783.454 268.343 786.709 273.214C789.965 278.084 794.154 281.971 799.328 284.848C804.501 287.725 810.836 289.163 818.356 289.163C826.483 289.163 833.221 287.397 838.622 283.838C843.997 280.305 848.363 275.763 851.694 270.21C855.026 264.658 857.373 258.475 858.786 251.611C860.199 244.746 860.88 237.932 860.88 231.144V96.9845H928.843V310.64C928.843 328.356 925.739 343.65 919.556 356.571C913.348 369.492 904.944 380.218 894.319 388.773C883.695 397.329 871.303 403.688 857.12 407.802C842.962 411.941 827.896 414.01 811.946 414.01C794.962 414.01 778.255 411.916 761.8 407.701C745.346 403.486 729.876 396.975 715.415 388.117L733.131 361.77C744.21 367.978 755.794 372.849 767.883 376.382C779.971 379.915 792.388 381.833 805.082 382.136C818.508 382.59 829.133 380.218 836.956 375.044C842.407 371.511 846.723 367.322 849.902 362.527C853.082 357.732 855.48 352.558 857.095 347.032C858.71 341.505 859.745 335.751 860.199 329.77C860.653 323.788 860.855 317.858 860.855 311.952V301.555H860.88ZM954.03 178.222C954.03 167.017 955.62 157.225 958.8 148.897C961.979 140.569 966.295 133.401 971.746 127.42C977.197 121.439 983.582 116.493 990.901 112.581C998.22 108.669 1006.09 105.54 1014.6 103.168C1023.08 100.821 1031.91 99.1801 1041.05 98.2968C1050.21 97.4135 1059.27 96.9593 1068.28 96.9593C1077.72 96.9593 1087.38 97.4388 1097.27 98.3978C1107.17 99.3568 1116.73 101.275 1125.94 104.152C1135.15 107.029 1143.76 111.092 1151.74 116.341C1159.71 121.59 1166.5 128.48 1172.1 137.035C1179.04 147.231 1182.5 160.935 1182.5 178.222V242.425C1182.5 254.084 1180.66 264.381 1176.97 273.315C1173.29 282.248 1168.14 289.92 1161.58 296.331C1155.02 302.741 1147.22 307.965 1138.21 311.927C1129.2 315.914 1119.38 318.791 1108.76 320.558C1101.82 321.593 1095 322.375 1088.29 322.88C1081.58 323.41 1074.89 323.662 1068.25 323.662C1058.66 323.662 1048.92 323.183 1039.03 322.224C1029.13 321.265 1019.62 319.347 1010.46 316.47C1001.3 313.593 992.794 309.504 984.895 304.179C976.995 298.854 970.181 291.939 964.427 283.359C957.487 272.583 954.03 258.93 954.03 242.399V178.197V178.222ZM1068.28 292.015C1083.77 292.015 1095.36 287.144 1103.03 277.403C1110.7 267.813 1114.54 256.658 1114.54 243.964V176.657C1114.54 163.963 1110.7 152.834 1103.03 143.218C1095.36 133.477 1083.77 128.606 1068.28 128.606C1052.78 128.606 1041.27 133.477 1033.73 143.218C1025.9 153.111 1021.99 164.241 1021.99 176.657V243.964C1021.99 256.355 1025.9 267.51 1033.73 277.403C1041.25 287.144 1052.76 292.015 1068.28 292.015ZM1275.9 119.117C1284.46 110.865 1293.92 104.808 1304.24 100.972C1314.56 97.1359 1325.64 95.2179 1337.45 95.2179C1350 95.2179 1361.73 97.035 1372.66 100.644C1383.59 104.253 1393.1 109.527 1401.23 116.467C1409.35 123.408 1415.74 131.887 1420.38 141.931C1425.03 151.976 1427.35 163.408 1427.35 176.254V323.713H1359.38V184.001C1359.38 177.213 1358.65 170.676 1357.16 164.417C1355.7 158.133 1353.33 152.581 1350.07 147.711C1346.82 142.84 1342.63 138.928 1337.45 135.975C1332.28 133.023 1325.95 131.559 1318.43 131.559C1310.3 131.559 1303.51 133.326 1298.06 136.884C1292.61 140.417 1288.24 144.96 1284.99 150.512C1281.73 156.039 1279.41 162.247 1278.02 169.112C1276.61 175.976 1275.93 182.815 1275.93 189.579V323.738H1207.74V96.9845H1275.93V119.117H1275.9Z" fill="white"/>
<path d="M1614.98 323.689H1547.02V6.20898H1614.98V122.45C1624.15 113.289 1634.54 106.475 1646.2 101.983C1657.86 97.4908 1670.1 95.2195 1682.95 95.2195C1691.35 95.2195 1699.65 96.1028 1707.86 97.8693C1716.06 99.6359 1723.81 102.286 1731.1 105.844C1738.39 109.403 1745.13 113.92 1751.24 119.472C1757.37 124.999 1762.57 131.535 1766.83 139.056C1772.59 149.378 1775.47 161.794 1775.47 176.255V244.445C1775.47 257.72 1772.89 269.379 1767.72 279.423C1762.54 289.468 1755.68 297.922 1747.12 304.761C1738.57 311.626 1728.7 316.799 1717.57 320.257C1706.42 323.714 1694.88 325.456 1682.92 325.456C1670.08 325.456 1657.84 323.209 1646.18 318.692C1634.52 314.2 1624.12 307.361 1614.96 298.225V323.689H1614.98ZM1614.98 236.243C1614.98 243.183 1616.02 249.821 1618.09 256.18C1620.16 262.54 1623.19 268.143 1627.17 273.013C1631.16 277.884 1636.03 281.796 1641.79 284.748C1647.54 287.701 1654.03 289.165 1661.27 289.165C1676.76 289.165 1688.35 284.37 1696.02 274.78C1703.69 265.19 1707.53 253.959 1707.53 241.139V179.586C1707.53 166.741 1703.69 155.536 1696.02 145.946C1688.35 136.356 1676.76 131.561 1661.27 131.561C1653.87 131.561 1647.31 133.075 1641.56 136.103C1635.8 139.132 1630.96 143.119 1627.05 148.065C1623.14 153.012 1620.16 158.69 1618.09 165.126C1616.02 171.536 1614.98 178.148 1614.98 184.937V236.294V236.243ZM2019.23 257.922C2019.23 270.767 2020.19 279.777 2022.11 284.925C2024.18 290.25 2029.7 292.9 2038.71 292.9V323.664C2031.92 323.664 2024.98 323.512 2017.89 323.209C2010.8 322.907 2003.94 322.023 1997.3 320.56C1990.66 319.096 1984.38 316.774 1978.47 313.594C1972.57 310.414 1967.39 305.872 1962.98 299.966L1958.11 303.727C1947.91 311.399 1936.88 316.951 1924.99 320.332C1913.11 323.714 1900.82 325.43 1888.12 325.43C1880.6 325.43 1872.98 324.799 1865.31 323.538C1857.64 322.276 1850.24 320.282 1843.18 317.556C1836.08 314.831 1829.55 311.171 1823.59 306.604C1817.61 302.036 1812.49 296.408 1808.2 289.771C1803.18 281.644 1800.68 271.474 1800.68 259.209C1800.68 250.653 1802.34 242.855 1805.65 235.839C1808.98 228.824 1813.4 222.565 1818.92 217.013C1824.45 211.486 1830.73 206.691 1837.75 202.628C1844.77 198.564 1851.96 195.284 1859.33 192.785C1871.57 188.798 1885.09 186.804 1899.83 186.804H1951.19V174.842C1951.19 162.148 1947.28 151.018 1939.45 141.403C1931.78 131.662 1920.27 126.791 1904.91 126.791C1891.76 126.791 1879.57 128.482 1868.26 131.889C1856.98 135.296 1845.73 140.368 1834.49 147.157L1816.78 121.037C1831.69 111.876 1847.34 105.289 1863.72 101.226C1880.1 97.1627 1897.01 95.1438 1914.42 95.1438C1923.58 95.1438 1932.64 95.699 1941.65 96.8094C1950.66 97.9198 1959.29 99.9892 1967.54 103.018C1975.82 106.046 1983.52 110.134 1990.69 115.308C1997.85 120.482 2004.01 127.119 2009.18 135.245C2015.82 145.567 2019.15 159.245 2019.15 176.205V257.896L2019.23 257.922ZM1954.12 281.19C1952.5 274.856 1951.54 266.956 1951.24 257.493V213.883H1921.13C1914.04 213.883 1907.33 214.842 1900.99 216.76C1894.66 218.678 1889.08 221.555 1884.29 225.391C1879.49 229.227 1875.68 233.997 1872.88 239.675C1870.08 245.354 1868.67 251.89 1868.67 259.259C1868.67 267.537 1870.99 274.401 1875.63 279.852C1880.27 285.304 1886.15 289.594 1893.22 292.698C1898.97 294.919 1905.76 296.029 1913.59 296.029C1921.41 296.029 1928.3 294.692 1935.16 292.042C1942.03 289.392 1948.34 285.758 1954.09 281.19H1954.12ZM2132.09 119.119C2140.64 110.866 2150.11 104.809 2160.43 100.973C2170.75 97.1375 2181.83 95.2195 2193.64 95.2195C2206.18 95.2195 2217.92 97.0365 2228.85 100.645C2239.77 104.254 2249.29 109.529 2257.41 116.469C2265.54 123.409 2271.93 131.889 2276.57 141.933C2281.21 151.977 2283.53 163.41 2283.53 176.255V323.714H2215.57V184.003C2215.57 177.214 2214.84 170.678 2213.35 164.419C2211.89 158.135 2209.51 152.583 2206.26 147.712C2203 142.841 2198.81 138.93 2193.64 135.977C2188.47 133.024 2182.13 131.561 2174.61 131.561C2166.49 131.561 2159.7 133.327 2154.25 136.886C2148.79 140.419 2144.43 144.961 2141.17 150.513C2137.92 156.04 2135.6 162.249 2134.21 169.113C2132.79 175.977 2132.11 182.817 2132.11 189.58V323.739H2063.92V96.986H2132.11V119.119H2132.09ZM2376.91 6.20898V323.689H2308.72V6.20898H2376.91ZM2523.69 323.689H2451.06L2380.87 201.265L2451.06 96.986H2516.82L2446.64 201.265L2523.69 323.689Z" fill="white"/>
<path d="M1521.84 289.038C1521.84 308.167 1506.31 323.688 1487.19 323.688C1468.06 323.688 1452.54 308.167 1452.54 289.038C1452.54 269.908 1468.06 254.388 1487.19 254.388C1506.31 254.388 1521.84 269.908 1521.84 289.038Z" fill="#FE5000"/>
</g>
</g>
<defs>
<clipPath id="clip0_178_998">
<rect width="2524" height="415" fill="white"/>
</clipPath>
</defs>
</svg>
